<?xml version="1.0" standalone="no"?>
<!DOCTYPE svg PUBLIC "-//W3C//DTD SVG 20010904//EN"
 "http://www.w3.org/TR/2001/REC-SVG-20010904/DTD/svg10.dtd">
<svg version="1.0" xmlns="http://www.w3.org/2000/svg"
 width="719.000000pt" height="720.000000pt" viewBox="0 0 719.000000 720.000000"
 preserveAspectRatio="xMidYMid meet">

<g transform="translate(0.000000,720.000000) scale(0.100000,-0.100000)"
fill="#000000" stroke="none">
<path d="M0 4555 c0 -1855 3 -2645 11 -2645 5 0 7 4 4 10 -3 5 0 7 8 4 11 -4
13 6 12 44 -1 27 -5 54 -9 60 -4 7 -2 12 3 12 6 0 11 -7 11 -15 0 -8 5 -15 11
-15 6 0 9 9 6 20 -3 11 -1 23 4 26 5 3 9 -7 9 -23 0 -37 19 -69 20 -33 1 36
16 7 25 -47 8 -51 0 -70 -22 -51 -18 15 -43 19 -43 8 0 -5 6 -11 13 -14 6 -3
-4 -4 -23 -3 l-35 2 -3 -314 c-2 -245 1 -316 10 -323 10 -6 10 -8 1 -8 -10 0
-13 -132 -13 -625 l0 -625 3595 0 3595 0 0 235 0 235 -35 0 -35 0 0 105 0 105
35 0 35 0 0 570 c0 314 -4 570 -8 570 -12 0 -98 -98 -123 -139 -10 -17 -24
-31 -29 -31 -6 0 -9 -4 -6 -8 6 -10 -47 -62 -63 -62 -6 0 -11 -10 -11 -22 0
-21 0 -21 -15 -2 -11 14 -15 15 -14 4 5 -48 1 -52 -41 -45 -27 5 -46 3 -56 -5
-8 -7 -17 -11 -19 -8 -3 3 23 22 57 43 35 21 73 46 84 55 32 24 134 143 134
156 0 6 25 29 55 49 30 21 55 43 55 48 0 11 -39 -13 -97 -60 -40 -32 -45 -34
-85 -25 -33 8 -36 10 -16 11 15 1 30 6 33 11 9 14 82 52 125 66 20 6 36 18 38
29 3 12 0 15 -10 9 -10 -6 -11 -5 -1 7 10 13 13 572 13 2657 l0 2642 -3595 0
-3595 0 0 -2645z m3402 1679 c15 -10 8 -32 -21 -63 -16 -17 -26 -31 -23 -32 4
0 26 0 50 1 28 1 50 -4 62 -15 9 -9 23 -15 30 -13 6 2 21 -9 32 -24 l21 -26
-27 -47 c-16 -26 -25 -53 -21 -64 5 -16 11 -17 57 -8 39 8 53 7 56 -1 2 -7 10
-12 18 -12 8 0 14 -5 14 -11 0 -7 8 -18 17 -25 17 -12 17 -15 2 -57 -14 -35
-15 -53 -7 -89 9 -37 8 -49 -7 -71 -9 -14 -25 -29 -36 -32 -12 -4 -19 -16 -19
-31 0 -13 -4 -24 -10 -24 -5 0 -10 -4 -10 -10 0 -5 7 -7 15 -4 37 15 -2 -103
-63 -190 -38 -54 -78 -92 -126 -118 -43 -24 -24 -22 23 2 37 18 105 82 138
130 26 37 74 161 67 172 -4 6 -1 9 7 6 27 -9 22 -75 -11 -143 -18 -36 -36 -65
-41 -65 -5 0 -9 -5 -9 -10 0 -6 -18 -27 -41 -48 -22 -20 -45 -47 -50 -59 -5
-13 -13 -23 -19 -23 -6 0 -8 5 -5 10 3 6 1 10 -4 10 -6 0 -11 -4 -11 -8 0 -4
-33 -14 -74 -21 -65 -10 -82 -10 -133 5 -121 35 -174 80 -225 191 -34 76 -35
83 -4 83 19 0 29 -10 47 -47 28 -58 94 -126 137 -141 43 -15 40 -8 -10 22 -49
29 -107 99 -115 138 -3 16 -10 28 -16 28 -6 0 -8 2 -5 5 13 13 41 -11 63 -55
47 -92 117 -150 183 -150 43 0 128 47 169 94 37 43 74 107 88 156 8 25 7 25
-13 6 -12 -10 -27 -16 -34 -13 -8 4 -5 8 9 12 21 7 22 12 17 64 -3 31 -8 62
-10 70 -2 7 0 19 6 26 8 10 3 19 -20 35 -16 12 -30 29 -31 38 0 14 -3 13 -16
-5 -20 -29 -63 -31 -70 -3 -7 27 -21 25 -25 -2 -2 -17 -11 -24 -30 -26 -28 -3
-28 -2 -28 52 0 48 3 56 18 56 11 0 25 -12 32 -27 12 -25 14 -26 18 -8 9 45
72 76 85 43 3 -8 6 -6 6 5 1 11 -7 17 -21 18 -13 1 2 7 32 14 l55 14 -82 -6
-83 -6 -16 39 c-9 22 -21 42 -28 46 -6 5 0 8 14 8 29 1 70 32 70 53 0 8 10 26
21 41 12 15 18 30 15 34 -10 10 -55 -50 -56 -74 0 -37 -27 -36 -56 2 -34 43
-77 67 -107 58 -32 -10 -89 -62 -74 -68 7 -2 4 -5 -5 -5 -10 -1 -18 4 -18 10
0 5 -4 7 -10 4 -6 -4 -10 5 -10 19 0 26 14 35 25 16 3 -5 0 -10 -7 -11 -10 0
-10 -2 -1 -6 16 -6 63 44 63 68 0 21 47 79 63 79 7 -1 2 -9 -10 -19 -29 -24
-27 -61 4 -61 14 0 23 6 23 16 0 8 4 12 10 9 6 -4 7 2 1 17 -9 24 5 45 38 60
16 6 67 2 83 -8z m-136 -63 c-4 -6 -14 -11 -22 -11 -12 0 -13 4 -3 21 7 14 14
18 21 11 6 -6 7 -15 4 -21z m-87 -143 l24 2 -27 -21 c-14 -11 -26 -26 -26 -32
0 -7 4 -6 10 3 5 8 10 11 10 6 0 -5 9 -1 20 9 16 14 20 15 20 4 0 -21 -20 -39
-44 -39 -20 -1 -20 -2 3 -21 l25 -20 18 23 c14 18 18 20 18 6 0 -9 -4 -20 -10
-23 -5 -3 -10 -14 -10 -24 0 -19 -26 -31 -68 -31 -17 0 -22 5 -20 18 1 9 -10
33 -25 53 -33 43 -33 46 -5 76 15 16 28 21 42 16 12 -3 32 -6 45 -5z m-120
-172 c-11 -9 -69 -14 -69 -6 0 6 17 10 37 10 20 0 34 -2 32 -4z m142 -18 c0
-2 3 -23 5 -48 4 -35 2 -47 -12 -57 -34 -25 -44 -16 -44 40 0 30 3 57 7 60 6
7 42 10 44 5z m-107 -73 c17 -54 14 -64 -9 -45 -13 10 -19 10 -33 -4 -27 -24
-32 -10 -15 42 8 26 17 53 19 61 7 22 22 1 38 -54z m-104 45 c0 -5 -8 -10 -17
-10 -15 0 -16 2 -3 10 19 12 20 12 20 0z m255 -27 c-3 -21 -11 -42 -16 -48
-10 -9 -7 13 8 68 9 32 15 17 8 -20z m39 -8 c2 -17 1 -25 -1 -18 -2 7 -11 9
-20 6 -12 -5 -14 -3 -7 8 4 8 7 23 5 34 -2 14 0 17 8 10 6 -6 12 -24 15 -40z
m226 -50 c-10 -12 -10 -24 0 -60 7 -24 9 -56 6 -71 -7 -25 -8 -26 -22 -8 -13
15 -15 16 -11 2 3 -9 0 -24 -8 -34 -13 -18 -14 -18 -34 0 -12 11 -21 26 -21
34 0 12 -3 12 -15 2 -9 -7 -18 -10 -21 -7 -4 3 -23 -3 -42 -14 -20 -10 -51
-19 -69 -19 -39 0 -86 17 -79 29 3 4 -4 17 -17 27 l-22 19 20 -24 c17 -21 18
-24 3 -18 -13 5 -19 0 -24 -17 -3 -13 -16 -34 -28 -45 -20 -19 -25 -20 -35 -7
-8 10 -9 16 -1 21 5 3 10 1 10 -6 0 -8 4 -8 15 1 9 7 13 20 10 29 -3 8 -3 12
1 8 4 -4 13 1 19 10 14 19 4 52 -23 86 -9 9 -13 17 -11 18 2 0 24 3 47 6 43 5
44 5 32 -18 -12 -23 -11 -22 17 4 37 34 73 37 68 5 -2 -13 0 -39 4 -58 8 -33
9 -31 10 22 1 72 23 84 78 42 35 -27 36 -27 20 -4 -24 34 -22 40 16 41 17 0
41 4 52 9 11 5 31 9 44 9 20 1 22 -1 11 -14z m-533 -47 c-3 -7 -5 -2 -5 12 0
14 2 19 5 13 2 -7 2 -19 0 -25z m120 -4 c-3 -3 -12 -4 -19 -1 -8 3 -5 6 6 6
11 1 17 -2 13 -5z m-52 -14 c3 -5 18 -7 34 -4 20 4 30 1 34 -10 9 -22 -14 -58
-28 -46 -5 4 -21 10 -35 13 -16 3 -8 5 19 6 41 1 43 2 25 15 -10 8 -20 10 -22
5 -2 -5 -18 -9 -34 -9 -17 0 -28 3 -25 7 4 3 -1 12 -11 19 -15 12 -14 13 10
14 15 0 30 -4 33 -10z m-78 -32 c-3 -7 -5 -2 -5 12 0 14 2 19 5 13 2 -7 2 -19
0 -25z m408 -58 c-3 -6 -20 -17 -37 -26 -28 -15 -30 -18 -23 -59 5 -38 3 -45
-15 -55 -21 -11 -20 -12 -34 34 -3 8 -1 27 4 43 7 25 8 24 7 -14 -1 -45 7 -63
23 -47 5 5 6 24 1 47 -9 39 -10 38 44 68 38 21 37 21 30 9z m-188 -47 c-30
-33 -55 -31 -28 3 11 15 18 31 15 36 -3 5 3 4 14 -3 19 -12 19 -12 -1 -36z
m70 11 c-3 -3 -12 -4 -19 -1 -8 3 -5 6 6 6 11 1 17 -2 13 -5z m100 -32 c3 -43
-4 -82 -15 -82 -11 0 -8 104 3 112 6 4 10 8 10 8 0 0 1 -17 2 -38z m1403 -42
c-8 -5 -33 -10 -55 -10 -29 0 -36 3 -25 10 8 5 33 10 55 10 29 0 36 -3 25 -10z
m210 -7 c46 -9 79 -18 72 -21 -13 -4 -203 26 -211 34 -10 9 58 3 139 -13z
m186 -33 c139 -24 276 -54 264 -58 -19 -7 -171 17 -275 44 -95 23 -89 31 11
14z m-192 -59 c4 -5 -3 -7 -14 -4 -23 6 -26 13 -6 13 8 0 17 -4 20 -9z m503
-7 c-3 -3 -12 -4 -19 -1 -8 3 -5 6 6 6 11 1 17 -2 13 -5z m60 -10 c-3 -3 -12
-4 -19 -1 -8 3 -5 6 6 6 11 1 17 -2 13 -5z m-763 -47 c9 -15 7 -22 -13 -38
-25 -20 -46 -26 -36 -9 3 6 1 10 -5 10 -6 0 -9 4 -5 9 3 5 0 13 -5 16 -14 9
19 36 39 32 8 -1 19 -10 25 -20z m249 -47 c84 -13 170 -23 192 -22 21 0 44 -3
50 -8 12 -10 217 -50 257 -50 15 0 29 -4 33 -9 6 -10 0 -10 -155 14 -84 13
-95 13 -103 0 -4 -9 -13 -13 -19 -9 -5 3 -23 -3 -39 -15 l-29 -22 0 21 c0 12
-3 19 -7 17 -5 -3 -14 1 -21 9 -7 8 -8 14 -2 14 5 0 10 4 10 9 0 8 -90 27
-252 52 l-78 12 1 31 c2 27 2 28 6 6 4 -25 9 -27 156 -50z m247 60 c12 -8 12
-10 -5 -9 -11 0 -29 4 -40 9 -18 8 -18 9 5 9 14 0 32 -4 40 -9z m-812 -57 l-3
-48 -45 -1 c-25 0 -53 1 -63 4 -17 4 -17 5 0 18 11 8 13 13 6 14 -7 0 -13 9
-13 21 0 11 5 17 10 14 6 -3 10 -2 10 4 0 10 26 17 73 20 27 1 28 0 25 -46z
m1359 41 c-3 -3 -12 -4 -19 -1 -8 3 -5 6 6 6 11 1 17 -2 13 -5z m-414 -11 c-7
-2 -19 -2 -25 0 -7 3 -2 5 12 5 14 0 19 -2 13 -5z m497 -13 c0 -5 -4 -10 -9
-10 -6 0 -13 5 -16 10 -3 6 1 10 9 10 9 0 16 -4 16 -10z m109 -16 c2 -2 -12
-4 -32 -4 -20 0 -39 5 -42 11 -5 7 5 8 32 3 21 -4 40 -8 42 -10z m-3312 -30
c-3 -3 -12 -4 -19 -1 -8 3 -5 6 6 6 11 1 17 -2 13 -5z m2020 0 c-3 -3 -12 -4
-19 -1 -8 3 -5 6 6 6 11 1 17 -2 13 -5z m1563 -14 c12 -8 11 -10 -5 -9 -11 1
-31 5 -45 9 -24 8 -24 8 5 9 17 0 37 -4 45 -9z m-3827 -17 c-13 -2 -35 -2 -50
0 -16 2 -5 4 22 4 28 0 40 -2 28 -4z m2470 0 c-7 -2 -21 -2 -30 0 -10 3 -4 5
12 5 17 0 24 -2 18 -5z m-2613 -14 c-25 -4 -63 -7 -85 -7 l-40 1 35 7 c19 4
58 7 85 7 l50 0 -45 -8z m2663 4 c-7 -2 -19 -2 -25 0 -7 3 -2 5 12 5 14 0 19
-2 13 -5z m-426 -50 c-3 -10 -5 -2 -5 17 0 19 2 27 5 18 2 -10 2 -26 0 -35z
m500 41 c-3 -3 -12 -4 -19 -1 -8 3 -5 6 6 6 11 1 17 -2 13 -5z m-2889 -11
c-10 -2 -28 -2 -40 0 -13 2 -5 4 17 4 22 1 32 -1 23 -4z m2965 0 c-7 -2 -19
-2 -25 0 -7 3 -2 5 12 5 14 0 19 -2 13 -5z m474 -9 c-3 -3 -12 -4 -19 -1 -8 3
-5 6 6 6 11 1 17 -2 13 -5z m1062 -20 c2 -2 2 -6 -1 -9 -9 -10 -58 6 -52 16 5
9 41 3 53 -7z m-4502 0 c-3 -3 -12 -4 -19 -1 -8 3 -5 6 6 6 11 1 17 -2 13 -5z
m3658 -4 c3 -5 17 -10 30 -10 13 0 27 -5 30 -10 4 -7 -3 -8 -20 -4 -20 5 -30
2 -41 -15 -19 -26 -36 -27 -59 -1 -18 20 -18 21 1 35 22 17 50 19 59 5z
m-4147 -15 c-9 -10 -108 -22 -108 -14 0 7 33 14 89 17 13 1 22 0 19 -3z m745
-2 c-13 -2 -33 -2 -45 0 -13 2 -3 4 22 4 25 0 35 -2 23 -4z m284 0 c-4 -3 -24
-9 -44 -13 l-38 -8 43 -1 c23 0 42 -6 42 -12 0 -7 -9 -9 -22 -5 -13 3 -33 6
-46 6 -36 0 -21 24 19 31 51 9 53 10 46 2z m-414 -10 c-7 -2 -19 -2 -25 0 -7
3 -2 5 12 5 14 0 19 -2 13 -5z m3160 0 c-7 -2 -21 -2 -30 0 -10 3 -4 5 12 5
17 0 24 -2 18 -5z m-3925 -10 c-10 -2 -28 -2 -40 0 -13 2 -5 4 17 4 22 1 32
-1 23 -4z m3835 0 c-13 -2 -33 -2 -45 0 -13 2 -3 4 22 4 25 0 35 -2 23 -4z
m667 -3 l25 -8 -25 0 c-14 0 -38 4 -55 8 l-30 8 30 0 c17 0 41 -4 55 -8z
m-4587 -7 c-7 -2 -19 -2 -25 0 -7 3 -2 5 12 5 14 0 19 -2 13 -5z m977 -4 c-36
-4 -82 -9 -102 -10 -21 -1 -38 -4 -38 -5 0 -9 50 -29 85 -35 39 -6 39 -7 7 -8
-19 0 -45 -10 -59 -21 -24 -19 -24 -20 -5 -20 11 0 23 -4 27 -9 3 -6 -7 -9
-22 -8 -27 2 -28 0 -31 -48 -2 -27 -1 -92 3 -143 l7 -92 34 3 c28 4 34 1 34
-15 0 -14 -5 -18 -15 -14 -8 3 -15 0 -15 -7 0 -8 -4 -7 -10 3 -17 27 -23 2
-25 -105 -2 -121 -15 -156 -16 -44 0 41 -4 92 -8 114 l-9 40 -1 -43 c-1 -26
-5 -41 -11 -37 -21 13 -31 -7 -14 -26 10 -11 12 -19 6 -19 -19 0 -14 -20 6
-21 13 -1 13 -2 2 -5 -20 -6 -15 -94 6 -94 23 0 16 -20 -8 -21 l-23 -2 23 -4
c14 -3 22 -12 22 -24 0 -26 18 -24 23 4 2 12 4 -12 4 -53 0 -41 -2 -56 -4 -32
-3 32 -7 41 -16 34 -15 -12 -129 -3 -121 9 3 5 1 9 -4 9 -6 0 -8 9 -5 20 3 11
8 20 12 20 4 0 4 29 1 65 -3 36 -2 65 2 65 17 0 7 20 -9 21 -11 0 -13 3 -5 6
6 2 12 9 12 14 0 4 -7 6 -15 3 -8 -4 -23 -3 -32 0 -15 6 -15 8 -3 17 11 8 7 9
-16 5 -26 -4 -33 0 -47 24 -13 21 -15 35 -8 52 10 27 51 58 76 58 8 0 15 5 15
10 0 6 7 10 16 10 13 0 15 7 9 38 -6 37 -5 37 39 53 26 9 50 13 58 8 9 -6 7
-9 -9 -9 -19 0 -21 -5 -22 -60 0 -36 4 -60 11 -60 6 0 8 -10 4 -25 -8 -33 6
-32 22 2 15 33 17 303 2 303 -5 0 -7 7 -4 15 4 8 1 15 -5 15 -6 0 -11 6 -11
14 0 8 -10 17 -22 19 -20 4 -20 4 4 6 40 2 45 21 6 22 -27 1 -29 3 -8 6 14 3
28 8 32 11 4 4 58 8 120 8 102 2 107 1 48 -7z m2813 4 c-7 -2 -21 -2 -30 0
-10 3 -4 5 12 5 17 0 24 -2 18 -5z m-96 -9 c-3 -3 -12 -4 -19 -1 -8 3 -5 6 6
6 11 1 17 -2 13 -5z m-90 -10 c-3 -3 -12 -4 -19 -1 -8 3 -5 6 6 6 11 1 17 -2
13 -5z m1237 -17 c16 -25 -16 -56 -38 -37 -19 15 -20 32 -4 48 15 15 28 11 42
-11z m-4099 3 c-4 -6 -46 -9 -98 -8 -84 1 -87 2 -37 8 90 11 142 11 135 0z
m2785 4 c-38 -8 -90 -9 -90 -2 0 4 24 7 53 7 28 -1 45 -3 37 -5z m-3893 -10
c-3 -3 -12 -4 -19 -1 -8 3 -5 6 6 6 11 1 17 -2 13 -5z m2808 -34 c8 -46 2 -59
-25 -57 -24 2 -24 -1 -5 43 8 20 12 40 9 45 -3 5 -1 9 5 9 5 0 12 -18 16 -40z
m-1388 -32 c-2 -13 -4 -3 -4 22 0 25 2 35 4 23 2 -13 2 -33 0 -45z m200 40
c-3 -8 -6 -5 -6 6 -1 11 2 17 5 13 3 -3 4 -12 1 -19z m-829 5 c-10 -2 -28 -2
-40 0 -13 2 -5 4 17 4 22 1 32 -1 23 -4z m1872 -17 c0 -21 -21 -31 -30 -15 -5
7 -6 17 -4 21 9 14 34 9 34 -6z m-2048 -5 c-11 -7 -11 -11 2 -24 13 -13 14
-16 1 -21 -8 -3 -15 -18 -16 -33 l-1 -28 -8 25 c-4 14 -8 40 -9 58 -1 27 3 32
22 32 16 0 18 -3 9 -9z m976 -8 c-10 -2 -26 -2 -35 0 -10 3 -2 5 17 5 19 0 27
-2 18 -5z m3997 -4 c4 -5 4 -21 1 -35 -8 -30 -42 -32 -51 -4 -11 35 33 68 50
39z m-5197 -6 c-10 -2 -26 -2 -35 0 -10 3 -2 5 17 5 19 0 27 -2 18 -5z m1977
-3 c-17 -7 -15 -9 12 -9 19 -1 36 -8 41 -17 7 -13 17 -15 38 -10 22 6 25 9 13
17 -10 6 -5 9 19 9 20 0 31 -5 30 -12 -4 -20 -20 -28 -57 -28 -18 0 -51 -5
-72 -12 -31 -9 -39 -16 -39 -34 0 -13 -4 -25 -8 -28 -4 -2 -6 11 -4 30 4 34 4
34 -39 35 -42 2 -42 2 -11 8 18 3 33 11 33 16 -1 29 12 45 37 44 24 0 25 -1 7
-9z m-195 -20 c0 -5 -7 -10 -15 -10 -8 0 -15 5 -15 10 0 6 7 10 15 10 8 0 15
-4 15 -10z m550 -6 c0 -2 -9 -4 -20 -4 -11 0 -20 4 -20 9 0 5 9 7 20 4 11 -3
20 -7 20 -9z m1445 -73 c4 -11 8 -11 20 -1 13 10 19 9 35 -5 11 -10 17 -22 13
-28 -4 -6 4 -8 21 -5 14 3 26 1 26 -3 0 -5 -10 -9 -22 -9 -12 0 -18 -3 -15 -7
4 -3 28 -6 54 -5 35 1 44 -1 33 -8 -12 -8 -12 -10 -1 -10 11 0 11 -3 1 -15
-10 -12 -10 -15 3 -15 12 0 15 -8 12 -32 -4 -31 -3 -32 11 -14 9 13 14 15 14
6 0 -7 3 -10 7 -7 3 4 13 1 21 -6 13 -10 14 -9 3 11 -10 19 -9 22 6 23 16 0
16 1 -2 8 -14 6 -5 9 35 14 30 4 71 7 91 7 l36 0 7 -61 c10 -96 7 -139 -9
-155 -12 -13 -15 -11 -22 15 l-8 30 -12 -24 c-6 -14 -8 -23 -3 -20 4 3 11 -7
14 -22 9 -32 -8 -53 -26 -34 -11 11 -10 13 5 8 27 -10 21 16 -13 49 -16 16
-30 34 -30 41 0 7 -7 16 -16 21 -9 5 -15 15 -12 23 5 16 -7 30 -39 47 -20 11
-21 10 -18 -9 4 -21 4 -21 -18 -3 -12 10 -16 12 -10 4 9 -10 10 -17 2 -27 -9
-10 -7 -13 7 -13 14 0 11 -4 -10 -15 -16 -9 -31 -13 -34 -10 -3 3 -12 0 -19
-7 -11 -9 -16 -9 -22 1 -6 9 -12 3 -19 -18 -6 -17 -13 -31 -16 -31 -3 0 -1 12
4 26 12 31 12 34 1 34 -5 0 -14 -14 -20 -31 -6 -19 -15 -28 -22 -24 -8 6 -8 9
1 15 8 5 7 11 -4 23 -20 20 -21 31 -1 24 8 -4 17 -2 20 2 7 13 -68 20 -82 8
-7 -5 -13 -6 -13 -3 0 4 -9 2 -20 -4 -12 -6 -17 -17 -14 -28 5 -15 4 -15 -8
-2 -18 20 -68 42 -68 30 0 -6 -8 -10 -17 -11 -16 0 -16 -1 1 -8 19 -7 19 -8 0
-15 -10 -4 -38 -11 -62 -15 -36 -7 -44 -6 -53 10 -5 11 -16 19 -24 19 -7 0
-17 9 -20 20 -3 11 -11 20 -16 20 -5 0 -9 15 -9 33 1 43 30 77 67 76 l28 -1
-25 -8 c-25 -8 -25 -8 5 -10 17 -2 50 -2 75 -1 35 0 40 -1 25 -8 -18 -9 -18
-10 5 -10 24 -1 67 35 62 52 -1 4 7 7 17 7 29 0 35 18 9 23 l-23 4 22 8 c13 4
21 10 19 14 -2 3 0 15 5 26 6 17 8 17 8 3 1 -10 5 -18 10 -18 11 0 20 34 23
85 l1 40 4 -40 c2 -22 6 -46 8 -54z m-3332 -233 c9 -6 9 -8 0 -8 -7 0 -10 -7
-7 -15 4 -8 10 -12 15 -9 15 9 10 -16 -6 -32 -8 -9 -15 -31 -15 -50 0 -19 -4
-34 -10 -34 -5 0 -10 14 -10 31 0 19 -4 29 -12 27 -7 -3 -21 3 -31 11 -28 24
-38 57 -26 89 10 26 11 26 22 7 7 -12 20 -19 30 -17 16 3 18 17 17 150 -1 195
1 197 12 12 6 -98 14 -158 21 -162z m791 274 c-3 -9 2 -46 10 -82 12 -50 13
-66 3 -72 -9 -6 -9 -8 0 -8 9 0 13 -33 14 -117 2 -172 1 -214 -4 -219 -8 -8
-96 9 -91 17 3 5 23 6 45 3 26 -4 39 -3 39 5 0 8 -45 11 -149 11 -110 0 -150
3 -154 13 -2 6 -1 61 2 121 6 106 5 109 -16 117 -32 12 -30 39 2 39 14 0 25 5
25 11 0 8 27 10 85 7 77 -5 85 -3 85 13 0 29 33 41 59 22 12 -8 20 -21 17 -29
-3 -8 -1 -14 4 -14 6 0 10 41 10 96 0 54 4 93 9 90 5 -3 7 -14 5 -24z m2973
-14 c-3 -7 -5 -2 -5 12 0 14 2 19 5 13 2 -7 2 -19 0 -25z m93 7 c0 -16 -6 -25
-15 -25 -18 0 -20 20 -2 21 10 0 10 2 0 6 -18 7 -16 23 2 23 9 0 15 -9 15 -25z
m-4657 6 c13 -2 7 -39 -8 -45 -8 -3 -15 -16 -16 -28 -1 -22 -1 -22 -9 2 -15
47 -12 79 8 75 9 -2 20 -4 25 -4z m2604 -53 c-2 -13 -4 -3 -4 22 0 25 2 35 4
23 2 -13 2 -33 0 -45z m-2673 7 l-7 -29 -9 24 c-11 29 -2 58 13 43 6 -6 7 -22
3 -38z m1459 -15 c-7 -8 -22 24 -16 34 4 5 10 1 13 -10 4 -10 6 -21 3 -24z
m54 8 c-3 -7 -5 -2 -5 12 0 14 2 19 5 13 2 -7 2 -19 0 -25z m2829 -7 c-5 -8
-56 -3 -56 5 0 2 14 4 31 4 16 0 28 -4 25 -9z m-3939 -23 c-3 -8 -6 -5 -6 6
-1 11 2 17 5 13 3 -3 4 -12 1 -19z m2130 -25 c-3 -10 -5 -4 -5 12 0 17 2 24 5
18 2 -7 2 -21 0 -30z m1462 25 c23 -14 16 -48 -10 -49 -70 -5 -79 -3 -85 14
-3 10 -4 19 -2 20 1 1 12 7 23 14 26 15 51 16 74 1z m394 5 c-7 -2 -19 -2 -25
0 -7 3 -2 5 12 5 14 0 19 -2 13 -5z m327 -28 c0 -19 -4 -35 -8 -35 -4 0 -6 16
-4 35 2 19 6 35 8 35 2 0 4 -16 4 -35z m-2327 -17 c4 -26 2 -38 -6 -38 -9 0
-11 13 -9 41 5 47 7 47 15 -3z m284 -40 c-2 -18 -4 -6 -4 27 0 33 2 48 4 33 2
-15 2 -42 0 -60z m1845 57 c-2 -14 -8 -25 -12 -25 -4 0 -5 11 -2 25 2 14 8 25
12 25 4 0 5 -11 2 -25z m945 -17 c-3 -7 -5 -2 -5 12 0 14 2 19 5 13 2 -7 2
-19 0 -25z m-5250 0 c-3 -8 -6 -5 -6 6 -1 11 2 17 5 13 3 -3 4 -12 1 -19z
m4380 0 c-3 -8 -6 -5 -6 6 -1 11 2 17 5 13 3 -3 4 -12 1 -19z m-1733 -10 c9
-12 16 -26 16 -30 0 -12 -31 -38 -46 -38 -19 0 -28 43 -14 69 14 27 25 27 44
-1z m-2474 -114 c21 -124 26 -205 8 -124 -6 25 -16 49 -24 53 -8 4 -14 14 -14
22 0 9 -6 12 -15 9 -8 -4 -15 -10 -15 -16 0 -5 4 -6 10 -3 6 4 9 -39 8 -119
l-1 -124 -26 -5 c-14 -3 -28 -3 -30 -1 -4 4 1 56 26 281 3 24 9 40 14 37 5 -3
9 1 10 8 1 7 5 2 9 -12 7 -22 8 -22 10 -5 2 15 4 12 10 -10 l8 -30 1 28 c1 16
-5 30 -14 33 -8 4 -15 18 -14 33 0 24 1 24 10 6 6 -14 7 -6 3 25 -13 94 7 28
26 -86z m39 65 l9 -54 2 45 c3 37 4 32 10 -30 4 -41 7 -111 7 -155 l1 -80 -18
104 c-20 121 -33 238 -26 230 3 -3 10 -30 15 -60z m311 7 c0 -6 -7 -2 -15 8
-8 11 -15 25 -15 30 0 6 7 2 15 -8 8 -11 15 -25 15 -30z m1990 29 c0 -8 4 -15
10 -15 14 0 31 -37 24 -54 -3 -9 -12 -16 -20 -16 -10 0 -14 -16 -14 -62 0 -92
-6 -67 -14 55 -5 73 -4 107 3 107 6 0 11 -7 11 -15z m58 -20 c-2 -17 -6 -21
-14 -14 -10 8 -11 21 -5 47 1 2 5 0 11 -3 5 -3 9 -17 8 -30z m-2681 3 c-3 -8
-6 -5 -6 6 -1 11 2 17 5 13 3 -3 4 -12 1 -19z m230 0 c-3 -8 -6 -5 -6 6 -1 11
2 17 5 13 3 -3 4 -12 1 -19z m315 -13 c2 -19 0 -35 -4 -35 -4 0 -8 16 -8 35 0
19 2 35 4 35 2 0 6 -16 8 -35z m1815 5 c8 -16 9 -28 3 -34 -15 -15 -12 -40 6
-62 15 -18 15 -18 9 10 -6 26 -5 27 10 12 9 -9 21 -16 26 -16 5 0 9 -7 9 -15
0 -11 12 -15 50 -15 28 0 50 -4 50 -10 0 -5 -8 -7 -17 -3 -15 5 -16 3 -5 -8 9
-10 15 -10 24 -1 20 20 24 14 25 -38 0 -49 0 -50 -31 -51 l-31 -2 35 -6 c27
-5 6 -10 -87 -20 -68 -7 -123 -16 -123 -19 0 -3 53 -2 118 1 116 5 123 4 49
-8 -21 -3 -35 -10 -32 -16 4 -5 -1 -12 -10 -15 -13 -6 -14 -8 -3 -15 9 -6 10
-9 1 -9 -7 0 -10 -7 -6 -15 3 -10 -5 -24 -21 -38 -14 -13 -26 -28 -26 -34 0
-13 -47 -23 -111 -23 l-49 0 -1 38 c-1 20 -3 56 -4 80 -2 39 0 42 24 43 l26 2
-27 4 c-26 4 -28 8 -28 54 0 27 6 58 12 69 11 16 9 22 -7 34 -23 17 -60 3 -51
-19 3 -8 1 -17 -4 -20 -6 -4 -10 5 -10 20 0 14 -7 36 -15 49 -14 21 -14 25 0
36 8 7 25 10 37 7 13 -3 32 -1 43 3 19 8 19 8 -4 17 -23 9 -22 10 18 17 23 3
46 4 52 1 5 -4 9 0 9 7 0 20 22 39 40 36 8 -2 20 -14 27 -28z m-2250 -5 c-9
-7 -13 -16 -9 -20 4 -4 -3 -2 -15 4 -13 6 -23 17 -23 24 0 7 4 6 10 -3 8 -13
10 -13 10 2 0 12 6 15 21 11 20 -6 20 -7 6 -18z m39 -13 c-18 -16 -18 -16 -6
6 6 13 14 21 18 18 3 -4 -2 -14 -12 -24z m3194 7 c0 -5 -4 -9 -10 -9 -5 0 -10
7 -10 16 0 8 5 12 10 9 6 -3 10 -10 10 -16z m2017 -26 c-3 -10 -5 -2 -5 17 0
19 2 27 5 18 2 -10 2 -26 0 -35z m-3440 -35 c-8 -5 -8 -11 -2 -15 16 -12 17
-28 19 -203 0 -97 5 -168 11 -172 6 -4 -33 -7 -85 -6 l-95 2 75 6 c41 4 62 8
45 9 l-30 3 27 7 c21 5 25 9 18 21 -5 8 -10 27 -10 43 0 17 -5 27 -15 27 -8 0
-15 7 -15 15 0 10 10 15 30 15 17 0 30 5 30 10 0 6 -16 10 -35 10 -32 0 -35 2
-25 20 8 16 8 18 -4 14 -19 -7 -31 15 -17 29 9 9 14 9 20 -2 6 -8 11 -9 15 -3
4 6 -2 15 -11 21 -16 9 -16 11 7 20 24 9 24 10 -8 10 -18 1 -31 -3 -28 -7 2
-4 0 -14 -6 -22 -8 -12 -9 -12 -4 3 4 13 1 17 -11 15 -9 -2 -18 3 -20 10 -3 8
11 12 50 12 71 0 80 12 20 26 -41 10 -43 12 -17 13 40 1 42 5 34 51 -6 35 -5
40 11 40 14 0 19 8 20 28 1 25 2 24 9 -8 6 -24 5 -37 -3 -42z m-1740 10 c-2
-13 -4 -5 -4 17 -1 22 1 32 4 23 2 -10 2 -28 0 -40z m50 30 c-3 -8 -6 -5 -6 6
-1 11 2 17 5 13 3 -3 4 -12 1 -19z m4360 -20 c-3 -7 -5 -2 -5 12 0 14 2 19 5
13 2 -7 2 -19 0 -25z m-1910 -25 c-3 -10 -5 -2 -5 17 0 19 2 27 5 18 2 -10 2
-26 0 -35z m-914 -45 c9 -6 9 -8 0 -8 -20 0 -15 -28 5 -32 14 -3 13 -5 -5 -10
-22 -6 -23 -4 -21 65 1 46 3 57 5 32 3 -22 10 -43 16 -47z m3555 20 c1 -34 4
-73 7 -86 5 -28 -4 -54 -16 -46 -5 3 -9 -2 -9 -11 0 -10 -5 -13 -12 -9 -10 6
-10 4 0 -8 8 -10 21 -14 35 -10 19 5 20 3 9 -10 -13 -17 -28 -18 -49 -5 -8 5
-13 4 -13 -2 0 -6 -4 -11 -9 -11 -9 0 -9 19 4 170 8 85 10 90 33 90 14 0 17
-12 20 -62z m-3475 45 c-7 -2 -19 -2 -25 0 -7 3 -2 5 12 5 14 0 19 -2 13 -5z
m3402 -65 c-4 -40 -8 -82 -10 -93 -1 -11 -3 -35 -4 -52 -2 -53 -18 -38 -27 25
-4 31 -8 64 -9 72 0 8 -4 34 -9 57 -9 52 -3 63 36 63 l31 0 -8 -72z m-1868 30
c-3 -7 -5 -2 -5 12 0 14 2 19 5 13 2 -7 2 -19 0 -25z m-2940 -45 c-2 -16 -4
-5 -4 22 0 28 2 40 4 28 2 -13 2 -35 0 -50z m103 -33 l-5 -75 -9 72 c-4 39 -5
77 -1 83 15 24 21 -8 15 -80z m1330 53 c0 -7 -9 -13 -20 -13 -23 0 -26 14 -7
34 13 15 27 4 27 -21z m137 -15 c-2 -13 -4 -5 -4 17 -1 22 1 32 4 23 2 -10 2
-28 0 -40z m1334 -23 c-8 -15 -22 48 -14 65 4 10 9 3 13 -20 3 -19 4 -39 1
-45z m-2723 8 c20 -55 42 -136 38 -140 -2 -3 -11 15 -20 39 -9 24 -14 31 -11
16 3 -16 1 -28 -5 -28 -5 0 -11 12 -12 28 -1 28 -3 50 -8 92 -2 24 -3 24 -10
-5 -7 -28 -8 -26 -9 15 -1 51 13 45 37 -17z m1849 41 c-3 -3 -12 -4 -19 -1 -8
3 -5 6 6 6 11 1 17 -2 13 -5z m210 -211 c-1 -43 -3 -10 -3 72 0 83 2 118 3 78
2 -40 2 -107 0 -150z m20 150 c-2 -16 -4 -5 -4 22 0 28 2 40 4 28 2 -13 2 -35
0 -50z m47 50 c4 -9 2 -21 -4 -27 -7 -7 -10 -2 -11 15 -1 22 -2 21 -9 -6 -7
-29 -8 -29 -9 -4 -2 39 21 54 33 22z m633 -25 c-3 -7 -5 -2 -5 12 0 14 2 19 5
13 2 -7 2 -19 0 -25z m721 1 c-3 -8 -7 -3 -11 10 -4 17 -3 21 5 13 5 -5 8 -16
6 -23z m-3927 2 c4 -3 2 -60 -5 -126 l-11 -120 -72 0 c-66 0 -73 -2 -74 -20 0
-17 -2 -16 -10 5 -14 34 -40 246 -32 265 5 14 20 15 102 9 53 -3 99 -9 102
-13z m2566 -58 c-3 -10 -5 -4 -5 12 0 17 2 24 5 18 2 -7 2 -21 0 -30z m1383
11 c-1 -4 3 -10 9 -14 8 -5 7 -16 -3 -41 l-15 -34 0 60 c0 33 3 54 6 48 2 -7
4 -15 3 -19z m-2106 -48 c1 -31 -2 -56 -6 -56 -4 0 -8 28 -8 62 0 75 12 70 14
-6z m2394 41 c2 -9 -1 -17 -7 -17 -6 0 -7 8 -4 17 5 13 2 15 -11 10 -11 -4
-15 -3 -11 4 9 14 29 6 33 -14z m179 1 c-3 -8 -6 -5 -6 6 -1 11 2 17 5 13 3
-3 4 -12 1 -19z m-2834 -60 c2 -32 1 -58 -4 -58 -5 0 -9 28 -9 62 0 75 6 73
13 -4z m24 30 c-3 -7 -5 -2 -5 12 0 14 2 19 5 13 2 -7 2 -19 0 -25z m2743 11
c0 -6 -4 -7 -10 -4 -5 3 -10 11 -10 16 0 6 5 7 10 4 6 -3 10 -11 10 -16z
m-1903 -66 c-2 -16 -4 -5 -4 22 0 28 2 40 4 28 2 -13 2 -35 0 -50z m-2040 25
c-3 -8 -6 -5 -6 6 -1 11 2 17 5 13 3 -3 4 -12 1 -19z m3838 11 c11 -17 -1 -21
-15 -4 -8 9 -8 15 -2 15 6 0 14 -5 17 -11z m-165 -3 c0 -3 -4 -8 -10 -11 -5
-3 -10 -1 -10 4 0 6 5 11 10 11 6 0 10 -2 10 -4z m-3943 -28 c-3 -8 -6 -5 -6
6 -1 11 2 17 5 13 3 -3 4 -12 1 -19z m2430 -15 c-3 -10 -5 -4 -5 12 0 17 2 24
5 18 2 -7 2 -21 0 -30z m-2963 12 c3 -8 1 -15 -4 -15 -6 0 -10 7 -10 15 0 8 2
15 4 15 2 0 6 -7 10 -15z m978 -50 c2 -38 -1 -55 -9 -55 -7 0 -10 7 -6 17 4 9
2 14 -3 11 -5 -4 -7 13 -5 38 4 62 18 55 23 -11z m-102 12 c0 -5 -4 -5 -10 -2
-5 3 -10 14 -10 23 0 15 2 15 10 2 5 -8 10 -19 10 -23z m-840 15 c0 -4 -10 -9
-22 -9 -18 -2 -20 0 -8 7 18 12 30 13 30 2z m759 -50 c-5 -13 -7 -28 -3 -33 3
-5 0 -9 -7 -9 -7 0 -9 9 -5 23 3 12 6 36 7 52 0 25 2 27 8 10 5 -11 4 -31 0
-43z m2768 11 c-3 -10 -5 -2 -5 17 0 19 2 27 5 18 2 -10 2 -26 0 -35z m-2670
15 c-3 -8 -6 -5 -6 6 -1 11 2 17 5 13 3 -3 4 -12 1 -19z m1366 -130 c8 -5 7
-8 -4 -8 -17 0 -29 43 -29 106 0 62 15 44 18 -22 2 -39 8 -72 15 -76z m704
110 c-3 -8 -6 -5 -6 6 -1 11 2 17 5 13 3 -3 4 -12 1 -19z m-1416 -10 c4 -7 8
-5 11 3 3 8 7 -7 9 -33 l4 -48 -35 0 c-29 1 -32 2 -17 11 9 5 22 7 27 4 6 -3
10 -1 10 5 0 6 -14 8 -37 4 -26 -3 -44 -1 -57 9 -19 14 -19 16 -3 41 15 22 23
25 50 21 17 -4 34 -11 38 -17z m436 -50 l0 -73 -6 65 c-6 59 -5 80 3 80 2 0 3
-33 3 -72z m26 52 c-3 -11 -7 -20 -9 -20 -2 0 -4 9 -4 20 0 11 4 20 9 20 5 0
7 -9 4 -20z m50 13 c-7 -2 -19 -2 -25 0 -7 3 -2 5 12 5 14 0 19 -2 13 -5z
m-1007 -30 c-7 -7 -26 7 -26 19 0 6 6 6 15 -2 9 -7 13 -15 11 -17z m762 -151
c2 -104 -1 -179 -7 -190 -9 -15 -10 -14 -11 7 0 22 -3 23 -40 18 -33 -4 -40
-2 -40 11 0 10 -2 44 -5 77 -4 63 6 102 19 70 5 -14 9 -15 21 -5 23 19 18 30
-16 30 -24 0 -30 3 -25 16 3 9 6 20 6 25 0 5 17 9 38 10 38 1 37 3 -10 13 -42
9 -34 25 10 21 35 -4 35 -4 6 4 -38 10 -54 19 -54 32 0 10 28 8 48 -5 8 -5 18
-4 25 3 8 8 6 11 -6 11 -9 0 -17 4 -17 9 0 10 28 20 45 16 6 -1 11 -69 13
-173z m-908 153 c0 -8 -2 -15 -4 -15 -2 0 -6 7 -10 15 -3 8 -1 15 4 15 6 0 10
-7 10 -15z m-873 -11 c-3 -3 -12 -4 -19 -1 -8 3 -5 6 6 6 11 1 17 -2 13 -5z
m809 -51 c10 -27 17 -57 16 -68 -2 -17 -1 -17 7 -5 11 15 12 12 15 -22 1 -7 7
-19 14 -26 11 -12 17 -42 8 -42 -10 0 -51 81 -72 143 -26 76 -15 93 12 20z
m1168 5 c4 -17 2 -28 -4 -28 -5 0 -10 14 -10 32 0 36 4 35 14 -4z m-1084 1 c0
-5 -4 -9 -10 -9 -5 0 -10 7 -10 16 0 8 5 12 10 9 6 -3 10 -10 10 -16z m-790 1
c0 -5 -9 -10 -21 -10 -11 0 -17 5 -14 10 3 6 13 10 21 10 8 0 14 -4 14 -10z
m1350 -6 c0 -2 -9 -4 -21 -4 -11 0 -18 4 -14 10 5 8 35 3 35 -6z m-1290 2 c0
-2 2 -11 5 -18 4 -9 -2 -14 -15 -15 -14 -1 -20 4 -20 18 0 10 7 19 15 19 8 0
15 -2 15 -4z m1865 -14 c-3 -3 -11 0 -18 7 -9 10 -8 11 6 5 10 -3 15 -9 12
-12z m-1761 -4 c-7 -10 -54 -11 -54 0 0 4 13 7 29 7 16 1 27 -3 25 -7z m733 5
c-4 -3 -2 -12 4 -20 9 -9 8 -13 0 -13 -6 0 -11 2 -11 4 0 2 -3 11 -6 20 -4 10
-1 16 7 16 7 0 9 -3 6 -7z m-897 -18 c0 -8 -4 -15 -10 -15 -5 0 -7 7 -4 15 4
8 8 15 10 15 2 0 4 -7 4 -15z m230 11 c0 -3 -4 -8 -10 -11 -5 -3 -10 -1 -10 4
0 6 5 11 10 11 6 0 10 -2 10 -4z m53 -26 c-7 -28 -13 -25 -13 6 0 14 4 23 9
20 5 -3 7 -15 4 -26z m537 20 c0 -5 -5 -10 -11 -10 -5 0 -7 5 -4 10 3 6 8 10
11 10 2 0 4 -4 4 -10z m25 -45 c1 -22 -3 -35 -11 -35 -7 0 -11 8 -9 18 2 9 4
28 4 41 1 36 15 16 16 -24z m598 -56 c7 -126 3 -143 -32 -134 -34 9 -40 20
-43 78 -1 26 -2 55 -2 65 -1 11 8 18 27 20 15 2 27 7 27 11 0 5 -11 6 -25 3
-18 -3 -25 0 -25 12 0 10 9 16 24 16 14 0 28 4 31 10 4 6 -6 7 -25 4 -16 -4
-30 -2 -30 3 0 5 15 9 34 10 l33 1 6 -99z m987 86 c0 -3 -10 -10 -22 -15 -21
-8 -22 -9 -3 -10 18 -1 18 -2 -3 -11 -27 -10 -75 -2 -66 12 3 5 1 9 -5 9 -5 0
-12 -8 -14 -17 -4 -14 -5 -13 -6 4 0 12 5 24 12 26 16 7 107 8 107 2z m-400
-50 c0 -35 -5 -40 -34 -29 -13 5 -12 9 7 25 12 11 18 19 12 18 -5 -1 -19 0
-30 1 -17 2 -17 3 5 10 39 13 40 12 40 -25z m103 28 c-7 -2 -19 -2 -25 0 -7 3
-2 5 12 5 14 0 19 -2 13 -5z m434 -25 c-3 -7 -5 -2 -5 12 0 14 2 19 5 13 2 -7
2 -19 0 -25z m-720 -25 c-3 -10 -5 -2 -5 17 0 19 2 27 5 18 2 -10 2 -26 0 -35z
m861 -16 c3 -42 1 -47 -17 -47 -18 0 -21 6 -21 51 0 43 3 50 18 47 13 -2 18
-15 20 -51z m-2677 -10 c-13 -13 -15 1 -4 30 7 17 8 17 11 -1 2 -10 -1 -23 -7
-29z m109 33 c8 -5 11 -10 5 -10 -5 0 -17 5 -25 10 -8 5 -10 10 -5 10 6 0 17
-5 25 -10z m47 4 c-3 -3 -12 -4 -19 -1 -8 3 -5 6 6 6 11 1 17 -2 13 -5z m-202
-14 c3 -5 1 -10 -4 -10 -6 0 -11 5 -11 10 0 6 2 10 4 10 3 0 8 -4 11 -10z
m1252 -22 c-3 -7 -5 -2 -5 12 0 14 2 19 5 13 2 -7 2 -19 0 -25z m-1160 8 c-3
-8 -1 -16 5 -18 7 -3 9 -12 5 -21 -8 -22 -57 -23 -57 -2 0 8 5 15 10 15 6 0
10 9 10 20 0 12 7 20 16 20 10 0 14 -6 11 -14z m73 -26 c0 -16 -6 -31 -12 -34
-7 -2 -3 -4 9 -2 12 1 26 5 29 9 4 4 11 7 16 7 5 0 2 -7 -6 -16 -9 -8 -16 -20
-16 -25 0 -5 -9 -18 -20 -29 -19 -19 -19 -19 -25 18 -13 80 -13 82 4 83 13 1
13 2 -1 6 -10 2 -18 8 -18 13 0 4 9 6 20 3 14 -4 20 -14 20 -33z m695 30 c3
-5 2 -10 -4 -10 -5 0 -13 5 -16 10 -3 6 -2 10 4 10 5 0 13 -4 16 -10z m1687 1
c-13 -3 -30 -17 -38 -31 l-15 -25 5 30 c4 26 3 27 -9 12 -16 -23 -24 -22 -18
3 4 17 13 20 52 19 33 -1 39 -3 23 -8z m-512 -21 c0 -12 -8 -12 -35 0 -18 8
-17 9 8 9 15 1 27 -3 27 -9z m15 -34 c-5 -22 -13 -36 -22 -36 -12 0 -13 3 -4
14 10 12 8 14 -11 10 -13 -2 -17 -2 -10 2 6 3 12 10 12 15 0 6 -4 8 -9 4 -5
-3 -13 0 -17 6 -5 9 1 10 20 5 19 -5 28 -2 32 9 11 27 16 9 9 -29z m222 22
c-3 -8 -6 -5 -6 6 -1 11 2 17 5 13 3 -3 4 -12 1 -19z m-410 -20 c-3 -8 -6 -5
-6 6 -1 11 2 17 5 13 3 -3 4 -12 1 -19z m1623 3 c0 -5 -6 -14 -14 -21 -8 -6
-17 -21 -19 -33 -3 -18 -5 -17 -6 6 0 16 5 30 14 33 8 4 12 10 9 15 -3 5 0 9
5 9 6 0 11 -4 11 -9z m-3525 -31 c3 -5 1 -10 -4 -10 -6 0 -11 5 -11 10 0 6 2
10 4 10 3 0 8 -4 11 -10z m150 -19 c7 -28 -2 -41 -15 -21 -8 13 -13 13 -31 2
-17 -11 -20 -11 -14 0 6 10 5 11 -6 1 -23 -22 -30 -14 -14 17 12 23 21 29 45
27 21 -1 31 -8 35 -26z m935 9 c0 -5 -10 -10 -22 -9 -22 0 -22 1 -3 9 11 5 21
9 23 9 1 1 2 -3 2 -9z m43 -7 c-7 -2 -19 -2 -25 0 -7 3 -2 5 12 5 14 0 19 -2
13 -5z m1200 -13 c3 -11 1 -20 -4 -20 -5 0 -9 9 -9 20 0 11 2 20 4 20 2 0 6
-9 9 -20z m204 -2 c-3 -8 -6 -5 -6 6 -1 11 2 17 5 13 3 -3 4 -12 1 -19z m-437
-12 c0 -14 -4 -36 -9 -49 -8 -19 -6 -27 5 -31 16 -6 19 -52 4 -61 -5 -3 -7
-12 -3 -20 3 -9 -1 -15 -9 -15 -18 0 -20 36 -2 51 8 6 14 16 14 21 0 6 -7 4
-17 -3 -15 -13 -16 -11 -10 24 4 24 2 37 -5 37 -6 0 -3 9 7 20 10 11 15 23 12
27 -4 3 -7 0 -7 -8 0 -12 -2 -12 -9 1 -12 17 -5 30 15 30 8 0 14 -10 14 -24z
m-1838 -7 c-12 -5 -30 -5 -40 -2 -14 6 -13 8 8 13 34 9 60 -1 32 -11z m846 4
c2 -8 -5 -13 -17 -13 -12 0 -21 6 -21 16 0 18 31 15 38 -3z m-48 -13 c0 -5 -2
-10 -4 -10 -3 0 -8 5 -11 10 -3 6 -1 10 4 10 6 0 11 -4 11 -10z m1495 -10 c3
-5 1 -10 -4 -10 -6 0 -11 5 -11 10 0 6 2 10 4 10 3 0 8 -4 11 -10z m-2305 -20
c8 -5 11 -10 5 -10 -5 0 -17 5 -25 10 -8 5 -10 10 -5 10 6 0 17 -5 25 -10z
m147 -9 c1 -11 -6 -26 -15 -33 -15 -11 -16 -11 -4 3 7 9 12 21 11 25 -2 11 0
24 4 24 1 0 3 -9 4 -19z m2280 -41 c-3 -78 -17 -78 -17 0 0 33 4 60 10 60 5 0
8 -27 7 -60z m2744 17 c-10 -9 -11 -8 -5 6 3 10 9 15 12 12 3 -3 0 -11 -7 -18z
m-2881 -7 c0 -5 -5 -10 -11 -10 -5 0 -7 5 -4 10 3 6 8 10 11 10 2 0 4 -4 4
-10z m-810 -10 c0 -5 -5 -10 -10 -10 -6 0 -10 -7 -8 -16 2 -10 -3 -19 -9 -21
-8 -3 -13 5 -13 20 0 23 10 34 33 36 4 1 7 -3 7 -9z m1017 -10 c-1 -22 -17
-28 -17 -7 0 12 9 27 16 27 2 0 2 -9 1 -20z m-3070 -27 c-3 -10 -5 -4 -5 12 0
17 2 24 5 18 2 -7 2 -21 0 -30z m3183 22 c0 -8 -2 -15 -4 -15 -2 0 -6 7 -10
15 -3 8 -1 15 4 15 6 0 10 -7 10 -15z m-2643 -27 c-3 -8 -6 -5 -6 6 -1 11 2
17 5 13 3 -3 4 -12 1 -19z m1969 -13 c0 -14 -3 -25 -8 -25 -4 0 -8 14 -8 32 0
36 14 30 16 -7z m-516 15 c0 -5 -5 -10 -11 -10 -5 0 -7 5 -4 10 3 6 8 10 11
10 2 0 4 -4 4 -10z m860 3 c-1 -27 -43 -45 -67 -30 -28 18 -8 33 45 36 12 0
22 -2 22 -6z m260 -4 c0 -20 -66 -25 -84 -6 -10 10 -3 12 36 12 26 0 48 -3 48
-6z m-2608 -14 c14 -19 8 -35 -12 -35 -11 0 -20 5 -20 10 0 6 -7 10 -16 10 -8
0 -12 -4 -9 -10 4 -6 -8 -10 -29 -10 -37 0 -45 10 -23 28 21 18 98 23 109 7z
m1305 -1 c-3 -3 -12 -4 -19 -1 -8 3 -5 6 6 6 11 1 17 -2 13 -5z m-2070 -56
c-3 -8 -6 -5 -6 6 -1 11 2 17 5 13 3 -3 4 -12 1 -19z m3373 13 c0 -6 -4 -13
-10 -16 -5 -3 -10 1 -10 9 0 9 5 16 10 16 6 0 10 -4 10 -9z m-3113 -38 c-3
-10 -5 -4 -5 12 0 17 2 24 5 18 2 -7 2 -21 0 -30z m423 17 c-24 -6 -23 -7 10
-15 35 -8 35 -8 10 -18 -21 -8 -22 -11 -7 -14 10 -3 25 -2 33 1 17 7 19 42 2
49 -7 3 -1 6 13 6 28 1 39 -14 39 -53 0 -20 -7 -24 -46 -30 -77 -10 -91 -8
-97 15 -3 12 -4 34 -1 49 5 23 9 26 37 21 31 -4 31 -5 7 -11z m2001 10 c5 -37
2 -45 -16 -49 -17 -3 -18 -1 -5 13 7 10 9 16 3 14 -6 -2 -11 0 -12 5 -3 21 0
27 14 27 8 0 16 -4 16 -10z m81 -82 c-9 -30 -10 -27 -10 32 0 59 1 62 10 33 8
-23 8 -43 0 -65z m498 56 c0 -8 -4 -14 -10 -14 -5 0 -10 9 -10 21 0 11 5 17
10 14 6 -3 10 -13 10 -21z m-667 9 c-7 -2 -21 -2 -30 0 -10 3 -4 5 12 5 17 0
24 -2 18 -5z m482 -13 c-3 -5 -16 -10 -28 -9 -21 0 -21 1 -2 9 28 12 37 12 30
0z m-3078 -77 c-2 -16 -4 -3 -4 27 0 30 2 43 4 28 2 -16 2 -40 0 -55z m3483
58 c0 -15 -28 -21 -62 -14 -23 4 -27 8 -15 12 28 10 77 11 77 2z m-228 -25 c4
-6 7 -27 7 -46 l-1 -35 -8 38 c-9 48 -10 48 -48 38 -33 -10 -41 -4 -20 17 13
13 59 5 70 -12z m-575 -1 c-4 -8 -2 -17 3 -20 15 -9 12 -35 -4 -35 -7 0 -16
10 -20 23 -9 36 -7 47 10 47 10 0 14 -6 11 -15z m-2415 -30 c-2 -19 -6 -35 -8
-35 -2 0 -4 16 -4 35 0 19 4 35 8 35 4 0 6 -16 4 -35z m3118 31 c0 -3 -4 -8
-10 -11 -5 -3 -10 -1 -10 4 0 6 5 11 10 11 6 0 10 -2 10 -4z m-2843 -48 c-3
-8 -6 -5 -6 6 -1 11 2 17 5 13 3 -3 4 -12 1 -19z m2233 -23 c0 -14 -4 -25 -9
-25 -4 0 -6 11 -3 25 2 14 6 25 8 25 2 0 4 -11 4 -25z m-2021 -16 c14 -41 14
-39 -9 -39 -11 0 -20 6 -21 13 0 10 -2 10 -6 0 -4 -13 -43 -19 -43 -8 0 4 7
19 15 35 21 40 50 39 64 -1z m1933 -1 c-3 -12 -7 -17 -10 -10 -2 7 -8 10 -13
7 -5 -4 -6 1 -3 9 10 25 33 19 26 -6z m5 -34 c-3 -3 -12 -4 -19 -1 -8 3 -5 6
6 6 11 1 17 -2 13 -5z m-1897 -39 c0 -8 -9 -15 -21 -15 -11 0 -17 4 -14 10 4
7 -3 7 -20 0 -15 -6 -24 -6 -20 -1 3 6 -9 12 -27 14 -18 2 -3 5 35 5 54 2 67
-1 67 -13z m1900 7 c0 -5 -7 -9 -15 -9 -8 0 -15 4 -15 9 0 4 7 8 15 8 8 0 15
-4 15 -8z m80 -2 c0 -5 -4 -10 -10 -10 -5 0 -10 5 -10 10 0 6 5 10 10 10 6 0
10 -4 10 -10z m490 -14 c0 -20 -10 -25 -64 -32 -30 -5 -46 -3 -46 4 0 6 21 12
48 14 31 2 46 7 45 16 -2 6 2 12 7 12 6 0 10 -6 10 -14z m-2564 -5 c-3 -5 -15
-7 -26 -4 -28 7 -25 13 6 13 14 0 23 -4 20 -9z m1982 -23 c-4 -23 -3 -23 86
-20 130 4 156 9 150 30 -5 13 -4 14 4 3 6 -9 19 -11 35 -7 16 4 29 1 37 -8 9
-12 57 -15 253 -16 132 0 243 -2 245 -5 20 -20 -45 -23 -408 -19 -371 3 -400
2 -410 -14 -8 -14 -10 -9 -8 23 2 42 5 55 15 55 3 0 3 -10 1 -22z m432 5 c0
-8 -14 -13 -38 -13 -21 0 -46 6 -55 13 -15 10 -9 12 38 12 37 0 55 -4 55 -12z
m317 1 c-3 -3 -12 -4 -19 -1 -8 3 -5 6 6 6 11 1 17 -2 13 -5z m683 -16 c0 -4
-9 -8 -20 -8 -11 0 -20 4 -20 8 0 4 9 8 20 8 11 0 20 -4 20 -8z m-1437 -98
c-3 -11 -7 -20 -9 -20 -2 0 -4 9 -4 20 0 11 4 20 9 20 5 0 7 -9 4 -20z m4032
10 c3 -5 1 -10 -4 -10 -6 0 -11 5 -11 10 0 6 2 10 4 10 3 0 8 -4 11 -10z
m-145 -14 c0 -3 -4 -8 -10 -11 -5 -3 -10 -1 -10 4 0 6 5 11 10 11 6 0 10 -2
10 -4z m180 -16 c0 -5 -5 -10 -11 -10 -5 0 -7 5 -4 10 3 6 8 10 11 10 2 0 4
-4 4 -10z m10 -55 c0 -8 -4 -15 -10 -15 -5 0 -10 7 -10 15 0 8 5 15 10 15 6 0
10 -7 10 -15z m-6193 -1 c-3 -3 -12 -4 -19 -1 -8 3 -5 6 6 6 11 1 17 -2 13 -5z
m6139 -72 c-11 -10 -13 3 -7 43 l6 40 3 -39 c2 -21 1 -41 -2 -44z m-3496 61
c-182 -12 -215 -17 -180 -24 19 -4 -45 -6 -142 -5 -110 2 -181 -1 -187 -7 -15
-15 -161 -7 -226 11 -20 6 69 12 265 19 280 9 567 13 470 6z m-2493 -47 c-8
-21 -43 -20 -51 1 -10 26 23 48 42 29 8 -8 12 -22 9 -30z m1150 5 c1 -12 -9
-23 -27 -31 -33 -14 -50 -7 -50 21 0 11 -7 19 -17 19 -11 1 -6 6 12 14 37 16
80 4 82 -23z m1530 33 c-3 -3 -12 -4 -19 -1 -8 3 -5 6 6 6 11 1 17 -2 13 -5z
m56 -1 c-7 -2 -19 -2 -25 0 -7 3 -2 5 12 5 14 0 19 -2 13 -5z m-1718 -13 c3
-5 2 -10 -2 -10 -11 0 -33 -59 -33 -88 0 -12 -6 -22 -13 -22 -9 0 -12 9 -9 29
2 16 -1 38 -7 49 -9 17 -7 23 11 36 26 18 44 20 53 6z m-1175 -30 c6 -11 7
-20 2 -20 -6 0 -12 9 -15 20 -3 11 -3 20 -1 20 2 0 8 -9 14 -20z m748 8 c16
-16 15 -23 -4 -43 -19 -18 -44 -4 -44 25 0 31 26 40 48 18z m86 6 c9 -3 16
-12 16 -18 0 -18 -21 -35 -36 -29 -15 5 -19 35 -7 46 8 8 8 8 27 1z m1956 -4
c-30 -5 -71 -8 -90 -8 l-35 1 35 7 c19 4 60 7 90 7 l55 0 -55 -7z m-135 -10
c-3 -5 -21 -9 -38 -9 l-32 2 35 7 c19 4 36 8 38 9 2 0 0 -3 -3 -9z m2195 0 c0
-5 -4 -10 -10 -10 -5 0 -10 5 -10 10 0 6 5 10 10 10 6 0 10 -4 10 -10z m1090
1 c0 -5 -6 -12 -12 -14 -8 -3 -6 -6 5 -6 12 -1 17 -9 17 -31 0 -25 -4 -30 -25
-30 -14 0 -27 0 -30 0 -3 0 -4 3 -2 7 1 5 7 7 12 6 6 -2 9 13 7 37 -3 32 -1
40 12 40 9 0 16 -4 16 -9z m40 -1 c0 -5 -4 -10 -10 -10 -5 0 -10 5 -10 10 0 6
5 10 10 10 6 0 10 -4 10 -10z m-4593 -6 c-3 -3 -12 -4 -19 -1 -8 3 -5 6 6 6
11 1 17 -2 13 -5z m1133 -15 c-25 -4 -63 -7 -85 -7 -38 1 -38 1 10 8 28 4 66
7 85 7 31 0 30 0 -10 -8z m3374 -14 c3 -8 1 -15 -4 -15 -6 0 -10 7 -10 15 0 8
2 15 4 15 2 0 6 -7 10 -15z m86 0 c0 -8 5 -15 10 -15 6 0 10 5 10 10 0 6 7 10
16 10 8 0 12 -4 9 -10 -3 -5 -1 -10 4 -10 6 0 11 6 11 13 0 8 4 7 11 -3 8 -11
12 -12 16 -2 3 7 25 12 61 12 30 0 53 -2 50 -5 -5 -5 -31 -10 -162 -31 -27 -4
-41 -2 -47 8 -12 18 -11 38 1 38 6 0 10 -7 10 -15z m-3947 -2 c-7 -2 -19 -2
-25 0 -7 3 -2 5 12 5 14 0 19 -2 13 -5z m50 0 c-7 -2 -19 -2 -25 0 -7 3 -2 5
12 5 14 0 19 -2 13 -5z m60 0 c-7 -2 -21 -2 -30 0 -10 3 -4 5 12 5 17 0 24 -2
18 -5z m214 1 c-3 -3 -12 -4 -19 -1 -8 3 -5 6 6 6 11 1 17 -2 13 -5z m1223
-53 c0 -54 -2 -59 -20 -54 -18 5 -20 0 -20 -41 0 -25 -4 -46 -10 -46 -5 0 -10
23 -10 50 0 28 5 50 10 50 6 0 10 9 10 20 0 11 -4 20 -10 20 -5 0 -10 -4 -10
-10 0 -16 -47 -12 -64 5 -15 15 -11 50 4 40 5 -3 11 -1 15 5 3 5 17 7 31 4 14
-4 24 -2 24 5 0 6 11 11 25 11 24 0 25 -3 25 -59z m-744 26 c0 -7 2 -36 2 -65
1 -33 6 -51 12 -47 6 4 8 11 5 16 -4 5 -2 9 3 9 11 0 23 -65 15 -86 -3 -8 -11
-14 -19 -14 -10 0 -14 -17 -16 -62 -1 -42 -2 -49 -5 -23 -1 22 -6 64 -9 93 -6
53 -6 53 -24 32 -19 -22 -64 -25 -66 -5 0 6 -5 24 -10 40 -9 30 -9 30 -15 -15
l-6 -45 -1 52 c-2 43 1 51 13 47 8 -4 15 -1 15 6 0 6 5 8 10 5 6 -3 10 2 10
12 0 11 3 14 8 7 4 -6 15 -13 25 -17 9 -4 22 -17 27 -29 6 -17 9 -6 9 46 1 38
4 66 8 62 4 -4 8 -13 9 -19z m33 -34 c1 -13 -3 -23 -9 -23 -5 0 -10 19 -9 43
0 32 2 37 9 22 5 -11 9 -30 9 -42z m956 29 c5 -12 13 -22 17 -22 5 0 8 -4 8
-10 0 -5 -9 -10 -21 -10 -11 0 -17 -4 -14 -10 3 -5 0 -7 -8 -4 -16 6 -28 50
-20 71 7 19 26 11 38 -15z m1683 -76 c1 -58 -1 -107 -5 -109 -5 -3 -39 -2 -77
2 -59 5 -69 9 -72 26 -1 11 -5 52 -9 90 -4 39 -8 72 -9 75 -1 6 72 16 130 18
l41 2 1 -104z m-4479 63 c-24 -15 -45 -11 -24 5 11 8 24 12 28 9 5 -3 3 -9 -4
-14z m1601 -28 c0 -33 -3 -38 -19 -34 -10 3 -22 -1 -26 -9 -5 -7 -5 -10 0 -6
15 14 35 -21 34 -59 l-2 -38 -7 40 -7 40 -2 -42 c-1 -35 -4 -40 -20 -36 -14 3
-22 -4 -32 -26 -13 -29 -17 -31 -62 -30 -26 1 -51 7 -56 13 -10 13 -20 145
-13 181 4 21 10 25 38 25 31 0 34 -2 34 -32 0 -17 3 -28 7 -25 3 4 6 20 5 36
-1 27 3 30 36 34 95 10 92 11 92 -32z m-1346 13 c3 -9 6 -39 6 -67 0 -29 5
-83 10 -122 7 -48 7 -71 0 -73 -5 -2 -10 -14 -10 -27 0 -21 -10 -27 -81 -50
-44 -14 -82 -25 -85 -25 -2 0 -4 37 -4 83 0 55 3 77 10 67 7 -12 9 -10 7 7 0
12 -5 19 -9 17 -4 -3 -8 0 -8 5 0 6 12 12 28 12 52 2 82 15 82 35 0 10 -7 13
-24 8 -14 -3 -34 1 -48 10 -14 9 -28 13 -31 9 -4 -3 -7 -1 -7 5 0 7 4 12 8 12
15 0 49 35 55 55 4 18 5 18 6 -2 1 -24 21 -33 21 -10 0 8 4 7 10 -3 7 -11 10
-7 10 18 0 17 -5 32 -11 32 -5 0 -7 5 -4 10 10 16 62 12 69 -6z m3701 6 c-19
-8 -19 -9 2 -9 26 -1 42 -43 24 -65 -6 -7 -9 -20 -5 -29 4 -12 -1 -16 -25 -15
-25 1 -31 5 -31 24 0 13 -4 26 -10 29 -25 16 11 75 45 74 l20 0 -20 -9z
m-3538 -22 c-3 -8 -6 -5 -6 6 -1 11 2 17 5 13 3 -3 4 -12 1 -19z m1503 8 c0
-3 -4 -8 -10 -11 -5 -3 -10 -1 -10 4 0 6 5 11 10 11 6 0 10 -2 10 -4z m-2027
-18 c12 -38 -19 -62 -43 -33 -10 12 -10 18 0 30 15 18 37 20 43 3z m222 2 c3
-5 1 -10 -4 -10 -6 0 -11 -5 -11 -11 0 -5 5 -7 10 -4 16 10 12 -11 -5 -25 -13
-11 -15 -7 -15 24 0 35 12 47 25 26z m383 -38 c2 -12 8 -20 13 -17 5 4 9 0 9
-9 0 -13 -14 -15 -77 -7 -7 0 -12 13 -12 29 1 18 3 21 6 9 4 -18 6 -17 20 3
18 25 37 22 41 -8z m4672 8 c0 -5 -10 -10 -22 -9 -22 0 -22 1 -3 9 11 5 21 9
23 9 1 1 2 -3 2 -9z m-2638 -52 c-6 -6 -7 0 -4 19 5 21 7 23 10 9 2 -10 0 -22
-6 -28z m2578 38 c0 -2 -13 -6 -29 -8 -17 -2 -28 -1 -25 4 5 8 54 12 54 4z
m-2145 -32 c-46 -20 -64 -15 -25 5 19 11 39 16 45 13 5 -3 -4 -12 -20 -18z
m908 6 c3 -11 1 -20 -4 -20 -5 0 -9 9 -9 20 0 11 2 20 4 20 2 0 6 -9 9 -20z
m124 -2 c-3 -8 -6 -5 -6 6 -1 11 2 17 5 13 3 -3 4 -12 1 -19z m1040 16 c-3 -3
-12 -4 -19 -1 -8 3 -5 6 6 6 11 1 17 -2 13 -5z m-987 -26 c0 -16 -3 -19 -11
-11 -6 6 -8 16 -5 22 11 17 16 13 16 -11z m-4126 -3 c-7 -16 -84 -22 -84 -7 0
16 14 22 51 22 30 0 37 -3 33 -15z m2960 -1 c7 -19 -2 -37 -15 -29 -12 8 -12
45 0 45 5 0 12 -7 15 -16z m1735 12 c-2 -2 -17 -6 -34 -10 -22 -5 -26 -4 -15
4 14 9 59 15 49 6z m-2698 -28 c22 -27 24 -47 5 -54 -8 -3 -16 -18 -20 -35
-10 -52 -26 -32 -26 34 0 82 8 93 41 55z m1389 -13 c0 -47 -39 -62 -58 -21 -8
18 -7 27 5 39 18 18 53 6 53 -18z m-2200 -5 c0 -5 -5 -10 -11 -10 -5 0 -7 5
-4 10 3 6 8 10 11 10 2 0 4 -4 4 -10z m1941 -6 c10 -13 10 -17 -2 -25 -34 -21
-72 -1 -49 26 16 19 34 19 51 -1z m-1934 -36 c-3 -8 -6 -5 -6 6 -1 11 2 17 5
13 3 -3 4 -12 1 -19z m2899 13 l81 -1 7 -132 c4 -73 5 -140 1 -149 -4 -11 -18
-16 -50 -15 -25 1 -45 3 -45 6 0 4 -16 4 -35 2 -29 -3 -35 -8 -35 -28 0 -19
-5 -24 -25 -24 -29 0 -34 24 -7 39 16 9 16 10 -1 17 -17 6 -17 7 0 19 16 12
14 13 -12 8 -23 -3 -27 -2 -15 6 8 6 10 11 4 11 -8 0 -11 29 -8 97 4 132 10
154 37 149 12 -3 59 -5 103 -5z m-3586 -47 c0 -14 -4 -22 -10 -19 -5 3 -10 17
-10 31 0 14 4 22 10 19 6 -3 10 -17 10 -31z m2748 9 c-3 -19 -22 -31 -51 -32
-16 -1 -17 1 -3 14 8 8 22 15 31 15 9 0 13 5 10 10 -3 6 -1 10 5 10 6 0 10 -8
8 -17z m-192 -30 c-11 -11 -19 6 -11 24 8 17 8 17 12 0 3 -10 2 -21 -1 -24z
m195 -70 c1 -38 3 -101 5 -142 3 -49 0 -79 -9 -90 -10 -12 -9 -13 2 -6 11 6
13 4 6 -11 -4 -10 -13 -35 -20 -54 -16 -43 -27 -42 -39 5 -7 26 -6 42 2 56 15
23 16 99 2 99 -5 0 -10 6 -10 13 0 6 -5 29 -11 50 -8 30 -15 37 -37 38 l-27 1
30 8 c17 4 23 9 15 10 -8 1 -2 5 14 9 18 4 32 15 38 30 7 20 6 22 -7 11 -8 -7
-12 -16 -9 -21 3 -5 -4 -9 -15 -9 -12 0 -21 5 -21 11 0 5 4 8 9 5 5 -3 11 1
14 9 4 10 1 12 -11 8 -10 -4 -14 -2 -9 3 8 8 63 32 80 33 4 1 8 -29 8 -66z
m-3127 35 c3 -13 6 -44 6 -69 l0 -47 -44 -11 c-25 -6 -47 -11 -50 -11 -3 0 -6
33 -6 74 0 80 1 82 61 85 20 1 28 -5 33 -21z m389 -40 c7 -5 3 -8 -10 -8 -24
0 -30 21 -15 57 6 15 8 12 10 -12 2 -16 9 -33 15 -37z m77 29 c0 -23 -5 -34
-15 -34 -18 0 -18 2 -5 28 7 13 7 19 0 19 -5 0 -10 5 -10 10 0 6 7 10 15 10
10 0 15 -10 15 -33z m240 23 c0 -5 0 -13 0 -17 0 -5 -6 -9 -13 -9 -6 -1 -16
-2 -20 -3 -12 -1 19 -31 32 -31 6 0 11 -4 11 -10 0 -14 -26 -12 -42 3 -7 6
-22 12 -32 12 -11 0 -21 6 -24 14 -3 8 0 11 7 7 7 -4 9 -1 5 8 -4 11 4 18 28
25 44 12 48 13 48 1z m693 3 c-7 -2 -19 -2 -25 0 -7 3 -2 5 12 5 14 0 19 -2
13 -5z m317 -128 l0 -115 -27 1 c-24 2 -25 2 -5 6 21 4 22 8 22 114 0 60 2
109 5 109 3 0 5 -52 5 -115z m1210 -30 c0 -8 -4 -17 -10 -20 -6 -4 -10 5 -10
20 0 15 4 24 10 20 6 -3 10 -12 10 -20z m-1317 -25 c3 -11 1 -18 -4 -14 -5 3
-9 12 -9 20 0 20 7 17 13 -6z m-1257 -37 c1 -7 -2 -13 -7 -13 -5 0 -9 3 -9 8
0 4 -3 18 -6 32 -5 24 -5 24 7 5 7 -11 14 -26 15 -32z m67 -10 c-7 -2 -21 -2
-30 0 -10 3 -4 5 12 5 17 0 24 -2 18 -5z m2077 -9 c0 -8 -4 -12 -10 -9 -5 3
-10 10 -10 16 0 5 5 9 10 9 6 0 10 -7 10 -16z m328 -10 c-2 -20 -12 -29 -40
-39 -21 -7 -38 -12 -39 -11 -5 9 -7 45 -3 59 4 12 16 17 45 17 38 0 40 -2 37
-26z m1222 6 c0 -16 -7 -20 -35 -20 -28 0 -35 4 -35 20 0 16 7 20 35 20 28 0
35 -4 35 -20z m-4344 -8 c-3 -5 -23 -15 -46 -22 -46 -15 -66 -34 -26 -24 l26
6 0 -71 c0 -39 -4 -71 -9 -71 -5 0 -11 -9 -14 -20 -5 -21 -41 -28 -52 -10 -4
6 -9 54 -11 106 -4 91 -3 95 19 104 28 11 120 13 113 2z m3664 1 c0 -5 -14 -8
-31 -9 -20 -1 -26 2 -17 7 16 11 48 12 48 2z m-868 -31 c3 -10 2 -26 -1 -37
-7 -24 -51 -32 -51 -9 0 11 6 13 20 9 14 -5 20 -2 20 9 0 9 -9 16 -20 16 -19
0 -27 19 -14 32 10 11 42 -4 46 -20z m-805 12 c-3 -3 -12 -4 -19 -1 -8 3 -5 6
6 6 11 1 17 -2 13 -5z m173 -8 c0 -3 -4 -8 -10 -11 -5 -3 -10 -1 -10 4 0 6 5
11 10 11 6 0 10 -2 10 -4z m-2153 -22 c-3 -3 -12 -4 -19 -1 -8 3 -5 6 6 6 11
1 17 -2 13 -5z m81 -1 c-20 -5 -20 -5 -12 -27 8 -20 24 -21 24 -1 0 9 6 12 17
8 10 -4 14 -2 10 5 -10 16 18 18 108 10 44 -4 96 -5 115 -3 78 12 140 13 134
4 -3 -5 -10 -7 -15 -4 -5 4 -9 1 -9 -6 0 -7 -3 -9 -6 -6 -8 8 -64 -31 -64 -44
0 -5 6 -9 14 -9 15 0 30 -29 20 -39 -3 -3 -11 2 -18 12 -16 21 -26 22 -26 2 0
-8 -4 -15 -10 -15 -5 0 -10 6 -10 13 0 6 -3 23 -7 36 -4 17 -3 22 5 17 7 -4
12 -2 12 3 0 19 -5 26 -15 22 -5 -2 -16 -4 -23 -4 -8 0 -11 -8 -8 -20 3 -11
-2 -26 -10 -34 -12 -13 -14 -12 -14 1 0 9 5 16 10 16 6 0 5 8 -2 20 -7 11 -19
18 -25 15 -7 -2 -13 -1 -13 3 0 14 -82 12 -112 -3 -17 -8 -34 -12 -39 -9 -5 3
-9 0 -9 -5 0 -6 -11 -11 -24 -11 -13 0 -27 -6 -29 -12 -4 -8 -6 -7 -6 4 -1 9
5 19 12 21 9 4 8 8 -3 16 -8 6 -10 11 -5 11 6 0 3 5 -5 10 -11 7 -6 9 20 9 19
-1 27 -3 18 -6z m419 -15 c-3 -8 -6 -5 -6 6 -1 11 2 17 5 13 3 -3 4 -12 1 -19z
m47 15 c-5 -5 -12 -12 -16 -18 -4 -6 -8 -2 -8 8 0 9 7 17 17 17 9 0 12 -3 7
-7z m2566 -3 c0 -5 -13 -10 -29 -10 -50 0 -45 -19 6 -23 l48 -3 -52 -2 c-42
-2 -53 1 -53 13 0 16 32 33 63 34 9 1 17 -3 17 -9z m-2930 -50 c0 -33 -26 -52
-40 -29 -5 7 -6 16 -3 19 3 3 8 -1 10 -7 3 -7 9 -13 14 -13 5 0 5 10 -1 24 -8
23 -6 28 18 35 1 1 2 -13 2 -29z m2820 21 c0 -4 -11 -6 -25 -3 -14 2 -25 6
-25 8 0 2 11 4 25 4 14 0 25 -4 25 -9z m-2570 -32 c0 -11 -4 -17 -10 -14 -5 3
-10 13 -10 21 0 8 5 14 10 14 6 0 10 -9 10 -21z m1259 15 c21 -5 31 -12 31
-25 0 -20 -20 -23 -75 -9 l-30 8 28 1 c15 0 27 6 27 12 0 5 -4 8 -8 5 -4 -2
-14 -1 -22 5 -13 7 -13 9 1 9 9 0 31 -3 48 -6z m81 -10 c0 -8 -4 -12 -10 -9
-5 3 -10 10 -10 16 0 5 5 9 10 9 6 0 10 -7 10 -16z m1225 6 c4 -6 -5 -10 -19
-10 -14 0 -26 5 -26 10 0 6 9 10 19 10 11 0 23 -4 26 -10z m862 -1 c16 -16
-28 -63 -53 -56 -18 4 -17 5 1 6 28 1 52 40 33 52 -7 5 -8 9 -2 9 5 0 15 -5
21 -11z m-4100 -86 c-2 -16 -4 -3 -4 27 0 30 2 43 4 28 2 -16 2 -40 0 -55z
m337 68 c3 -4 -3 -18 -13 -30 -18 -21 -19 -21 -24 -1 -3 11 -2 18 3 15 4 -3
10 2 14 10 6 17 12 19 20 6z m1686 -21 c0 -5 -2 -10 -4 -10 -3 0 -8 5 -11 10
-3 6 -1 10 4 10 6 0 11 -4 11 -10z m-1440 -14 c0 -7 -8 -20 -17 -27 -11 -10
-14 -10 -9 -1 5 8 1 12 -11 13 -17 1 -17 2 0 6 9 2 17 9 17 14 0 5 5 9 10 9 6
0 10 -6 10 -14z m-741 0 c-10 -9 -79 -14 -74 -5 4 5 22 9 42 9 20 0 34 -2 32
-4z m4066 -6 c3 -5 1 -10 -4 -10 -6 0 -11 5 -11 10 0 6 2 10 4 10 3 0 8 -4 11
-10z m-3275 -25 c-7 -8 -17 -15 -22 -15 -11 0 14 29 26 30 5 0 3 -7 -4 -15z
m284 -22 c-7 -2 -10 -14 -8 -26 4 -21 4 -21 -5 -2 -5 11 -10 31 -10 45 -1 23
0 24 17 6 11 -12 13 -20 6 -23z m-614 -5 c0 -5 -10 -8 -22 -7 -13 0 -17 3 -10
6 6 2 12 12 12 21 0 15 2 15 10 2 5 -8 10 -18 10 -22z m360 11 c-7 -11 -14
-19 -16 -16 -7 7 7 37 17 37 6 0 5 -9 -1 -21z m-80 -4 c-10 -13 -9 -15 11 -16
19 -1 20 -2 5 -6 -25 -7 -46 15 -26 27 21 14 24 12 10 -5z m237 -7 c-3 -8 -6
-5 -6 6 -1 11 2 17 5 13 3 -3 4 -12 1 -19z m167 -15 c-13 -9 -20 -10 -22 -3
-5 15 32 42 37 28 2 -6 -5 -17 -15 -25z m2528 15 c-7 -7 -12 -8 -12 -2 0 14
12 26 19 19 2 -3 -1 -11 -7 -17z m-2289 5 c-13 -2 -35 -2 -50 0 -16 2 -5 4 22
4 28 0 40 -2 28 -4z m2364 -25 c-3 -7 -5 -2 -5 12 0 14 2 19 5 13 2 -7 2 -19
0 -25z m43 11 c0 -6 -4 -7 -10 -4 -5 3 -10 11 -10 16 0 6 5 7 10 4 6 -3 10
-11 10 -16z m-3880 1 c0 -5 -4 -10 -10 -10 -5 0 -10 5 -10 10 0 6 5 10 10 10
6 0 10 -4 10 -10z m57 -12 c-3 -8 -6 -5 -6 6 -1 11 2 17 5 13 3 -3 4 -12 1
-19z m552 16 c25 -5 31 -12 31 -31 0 -17 -4 -23 -14 -20 -7 3 -19 0 -25 -6 -7
-7 -11 -8 -11 0 0 6 -15 14 -32 18 -23 5 -27 9 -15 12 9 2 17 11 17 19 0 16 5
17 49 8z m4374 -1 c-7 -2 -19 -2 -25 0 -7 3 -2 5 12 5 14 0 19 -2 13 -5z m-46
-9 c-3 -3 -12 -4 -19 -1 -8 3 -5 6 6 6 11 1 17 -2 13 -5z m-4132 -28 c-3 -6
-8 -19 -11 -28 -4 -10 -13 -18 -21 -18 -8 0 -11 5 -7 12 5 8 -2 9 -24 5 -36
-7 -42 7 -15 32 19 19 88 16 78 -3z m1363 6 c-19 -2 -28 -9 -27 -20 0 -11 3
-12 6 -4 8 20 22 14 16 -7 -7 -29 -33 -14 -33 18 0 25 2 27 33 22 31 -5 31 -6
5 -9z m-2171 -14 c-3 -8 -6 -5 -6 6 -1 11 2 17 5 13 3 -3 4 -12 1 -19z m4953
6 c0 -2 -11 -4 -25 -4 -14 0 -25 4 -25 9 0 4 11 6 25 3 14 -2 25 -6 25 -8z
m-4523 0 c-3 -3 -12 -4 -19 -1 -8 3 -5 6 6 6 11 1 17 -2 13 -5z m479 -9 c-4
-11 2 -15 24 -15 17 0 31 6 31 13 1 6 5 -1 8 -18 8 -31 -4 -58 -17 -39 -11 16
-41 24 -47 14 -4 -6 -15 -10 -26 -10 -26 0 -27 50 -1 51 14 0 14 2 -3 9 -17 8
-16 9 9 9 21 1 27 -3 22 -14z m2767 8 c-7 -2 -21 -2 -30 0 -10 3 -4 5 12 5 17
0 24 -2 18 -5z m1140 0 c-7 -2 -19 -2 -25 0 -7 3 -2 5 12 5 14 0 19 -2 13 -5z
m-4776 -9 c-3 -3 -12 -4 -19 -1 -8 3 -5 6 6 6 11 1 17 -2 13 -5z m1443 -4 c0
-5 -4 -10 -10 -10 -5 0 -10 5 -10 10 0 6 5 10 10 10 6 0 10 -4 10 -10z m-405
-10 c3 -5 1 -10 -4 -10 -6 0 -11 5 -11 10 0 6 2 10 4 10 3 0 8 -4 11 -10z
m4287 -12 c-7 -7 -12 -8 -12 -2 0 14 12 26 19 19 2 -3 -1 -11 -7 -17z m-4135
-4 c-10 -10 -67 -15 -67 -6 0 4 17 9 37 10 21 2 34 0 30 -4z m-154 -11 c-7 -2
-19 -2 -25 0 -7 3 -2 5 12 5 14 0 19 -2 13 -5z m4739 -32 c-5 -14 -4 -14 14
-1 18 14 18 14 5 -2 -7 -10 -22 -18 -31 -18 -10 0 -21 -6 -23 -12 -3 -7 -6 2
-6 20 -1 17 3 32 9 32 5 0 7 -7 4 -15 -4 -8 -1 -15 5 -15 6 0 11 12 11 28 0
20 3 23 9 13 5 -8 6 -21 3 -30z m-3612 4 c4 3 11 -2 14 -10 4 -13 2 -14 -14
-5 -11 6 -19 18 -19 28 1 16 2 15 6 -1 2 -9 8 -15 13 -12z m3170 15 c0 -5 -5
-10 -11 -10 -5 0 -7 5 -4 10 3 6 8 10 11 10 2 0 4 -4 4 -10z m-1900 -20 c0 -5
-4 -10 -10 -10 -5 0 -10 -5 -10 -11 0 -5 5 -7 10 -4 6 3 10 1 10 -4 0 -6 -7
-11 -15 -11 -15 0 -21 31 -8 43 10 10 23 8 23 -3z m75 0 c-3 -5 -10 -10 -16
-10 -5 0 -9 5 -9 10 0 6 7 10 16 10 8 0 12 -4 9 -10z m1095 6 c0 -2 -13 -9
-30 -15 -16 -5 -30 -6 -30 -1 0 5 8 11 18 13 24 7 42 8 42 3z m-980 -17 c0 -5
-21 -9 -46 -9 -25 0 -43 3 -40 8 6 10 86 12 86 1z m-2470 -3 c0 -11 -19 -15
-25 -6 -3 5 1 10 9 10 9 0 16 -2 16 -4z m-100 -16 c0 -5 -5 -10 -11 -10 -5 0
-7 5 -4 10 3 6 8 10 11 10 2 0 4 -4 4 -10z m3530 0 c0 -5 -4 -10 -10 -10 -5 0
-10 5 -10 10 0 6 5 10 10 10 6 0 10 -4 10 -10z m750 0 c0 -5 -4 -10 -10 -10
-5 0 -10 5 -10 10 0 6 5 10 10 10 6 0 10 -4 10 -10z m-780 -10 c0 -5 -8 -10
-17 -10 -15 0 -16 2 -3 10 19 12 20 12 20 0z m590 0 c0 -5 -5 -10 -11 -10 -5
0 -7 5 -4 10 3 6 8 10 11 10 2 0 4 -4 4 -10z m-3643 -32 c-3 -7 -5 -2 -5 12 0
14 2 19 5 13 2 -7 2 -19 0 -25z m653 -23 c0 -7 -7 -18 -15 -25 -14 -12 -16 -9
-13 23 2 28 5 34 15 25 7 -6 13 -16 13 -23z m20 25 c0 -5 -2 -10 -4 -10 -3 0
-8 5 -11 10 -3 6 -1 10 4 10 6 0 11 -4 11 -10z m3160 -39 c0 -34 -13 -18 -17
21 -2 24 0 29 7 18 5 -8 10 -26 10 -39z m221 20 c6 9 9 0 9 -28 0 -46 -16 -57
-41 -27 -10 13 -10 17 0 24 8 4 10 13 7 19 -4 6 -4 17 1 24 5 8 9 7 11 -7 3
-15 6 -16 13 -5z m-3344 -38 c-3 -10 -5 -2 -5 17 0 19 2 27 5 18 2 -10 2 -26
0 -35z m2943 3 c0 -9 -5 -16 -11 -16 -6 0 -8 -8 -4 -19 3 -11 2 -22 -3 -25
-17 -10 -21 47 -5 60 12 8 13 13 5 18 -7 4 -12 12 -12 17 0 6 7 4 15 -5 8 -8
15 -22 15 -30z m265 14 c-4 -12 -9 -19 -12 -17 -3 3 -2 15 2 27 4 12 9 19 12
17 3 -3 2 -15 -2 -27z m369 8 c-2 -3 1 -8 8 -10 7 -3 8 -7 3 -10 -13 -7 -55 9
-55 21 0 5 11 8 24 7 13 0 22 -4 20 -8z m-6757 -20 c-3 -8 -6 -5 -6 6 -1 11 2
17 5 13 3 -3 4 -12 1 -19z m1683 2 c0 -5 -5 -10 -11 -10 -5 0 -7 5 -4 10 3 6
8 10 11 10 2 0 4 -4 4 -10z m2040 0 c0 -5 -4 -10 -10 -10 -5 0 -10 5 -10 10 0
6 5 10 10 10 6 0 10 -4 10 -10z m-1788 -40 l4 -40 -38 0 c-35 0 -38 2 -34 25
4 23 2 25 -34 25 -31 0 -38 -3 -34 -15 5 -11 -1 -15 -17 -15 -18 0 -20 3 -10
9 11 7 10 10 -5 13 -10 3 4 8 31 12 28 4 59 11 70 16 11 5 30 9 41 9 18 1 23
-6 26 -39z m42 31 c4 -5 1 -11 -5 -13 -9 -3 -9 -10 0 -27 8 -13 18 -20 27 -17
8 3 21 9 29 12 8 3 15 1 15 -5 0 -6 -7 -11 -15 -11 -8 0 -15 -4 -15 -10 0 -5
-13 -10 -30 -10 -29 0 -30 2 -30 45 0 42 11 58 24 36z m523 -39 c-3 -14 -6
-12 -14 8 -6 14 -8 29 -5 34 7 13 24 -22 19 -42z m2601 41 c-10 -2 -28 -2 -40
0 -13 2 -5 4 17 4 22 1 32 -1 23 -4z m-223 -13 c-3 -5 -14 -10 -23 -10 -15 0
-15 2 -2 10 20 13 33 13 25 0z m1685 -4 c0 -8 -4 -18 -10 -21 -5 -3 -10 3 -10
14 0 12 5 21 10 21 6 0 10 -6 10 -14z m-4410 -8 c0 -4 -6 -8 -12 -9 -10 0 -10
-2 0 -6 17 -7 15 -33 -3 -33 -8 0 -15 6 -15 14 0 8 -3 21 -6 30 -4 11 0 14 15
13 12 -1 21 -5 21 -9z m2960 2 c0 -5 -5 -10 -11 -10 -5 0 -7 5 -4 10 3 6 8 10
11 10 2 0 4 -4 4 -10z m-3413 -16 c-3 -3 -12 -4 -19 -1 -8 3 -5 6 6 6 11 1 17
-2 13 -5z m3191 -25 c3 -22 -2 -29 -29 -38 -51 -18 -68 -11 -24 9 22 10 35 19
28 19 -6 1 -11 10 -10 21 2 30 31 20 35 -11z m-1168 1 c0 -11 -4 -20 -10 -20
-5 0 -10 9 -10 20 0 11 5 20 10 20 6 0 10 -9 10 -20z m996 11 c-3 -5 -17 -11
-32 -14 -29 -5 -20 9 11 16 11 3 21 5 23 6 2 0 1 -3 -2 -8z m-2321 -31 c1 -25
-3 -30 -22 -30 -16 0 -21 5 -18 20 2 11 -2 20 -8 21 -13 0 21 17 38 18 6 1 10
-12 10 -29z m91 -19 c-11 -18 -34 -1 -29 20 5 18 7 19 21 6 8 -8 11 -20 8 -26z
m50 2 c-11 -11 -19 6 -11 24 8 17 8 17 12 0 3 -10 2 -21 -1 -24z m2181 14 c9
-10 -68 -7 -92 3 -13 5 -3 7 32 6 29 -2 56 -6 60 -9z m1683 3 c0 -5 -7 -10
-15 -10 -8 0 -15 5 -15 10 0 6 7 10 15 10 8 0 15 -4 15 -10z m-4245 -10 c-3
-5 -14 -10 -23 -10 -15 0 -15 2 -2 10 20 13 33 13 25 0z m3505 -4 c0 -2 -7 -6
-15 -10 -8 -3 -15 -1 -15 4 0 6 7 10 15 10 8 0 15 -2 15 -4z m-5521 -70 c-9
-8 -10 -5 -5 14 3 14 6 32 7 40 1 8 4 2 6 -14 3 -16 -1 -34 -8 -40z m5981 22
c0 -12 -3 -18 -7 -14 -11 10 -12 36 -2 36 5 0 9 -10 9 -22z m-2420 -5 c0 -26
-16 -47 -29 -39 -14 9 -14 29 1 44 17 17 28 15 28 -5z m1000 12 c0 -6 -158
-55 -173 -54 -7 1 26 14 73 29 90 30 100 33 100 25z m-2164 -15 c10 0 14 -12
14 -40 0 -49 -12 -51 -39 -6 -25 40 -27 60 -5 52 9 -3 22 -6 30 -6z m3168 -5
c3 -8 1 -15 -4 -15 -6 0 -10 7 -10 15 0 8 2 15 4 15 2 0 6 -7 10 -15z m-3224
-26 c0 -6 -4 -7 -10 -4 -5 3 -10 11 -10 16 0 6 5 7 10 4 6 -3 10 -11 10 -16z
m2878 -4 c-3 -3 -9 2 -12 12 -6 14 -5 15 5 6 7 -7 10 -15 7 -18z m-4403 5 c3
-5 1 -10 -4 -10 -6 0 -11 5 -11 10 0 6 2 10 4 10 3 0 8 -4 11 -10z m4979 -42
c17 -2 21 -9 19 -33 -1 -16 -3 -41 -4 -54 -1 -15 -4 -19 -9 -11 -5 9 -9 9 -14
1 -4 -6 -4 -17 0 -23 4 -7 -10 4 -32 25 l-39 38 24 20 c27 22 6 26 -23 4 -27
-20 -36 -19 -36 6 0 14 5 19 14 16 10 -4 17 3 21 23 8 36 37 44 49 14 5 -13
19 -24 30 -26z m-220 -24 c4 -50 3 -52 -22 -57 -33 -6 -46 1 -33 17 6 7 8 23
5 37 -4 17 -3 20 4 10 8 -11 11 -9 18 10 4 13 7 31 5 39 -2 10 1 12 8 5 5 -5
12 -33 15 -61z m676 -10 c0 -54 -3 -64 -17 -64 -16 0 -16 2 -3 11 11 8 12 12
3 16 -14 5 -17 52 -7 90 11 41 24 13 24 -53z m-6253 44 c-3 -8 -6 -5 -6 6 -1
11 2 17 5 13 3 -3 4 -12 1 -19z m1333 12 c0 -5 -7 -10 -15 -10 -8 0 -15 5 -15
10 0 6 7 10 15 10 8 0 15 -4 15 -10z m2177 -5 c8 -22 -6 -33 -17 -15 -13 20
-12 30 0 30 6 0 13 -7 17 -15z m83 -20 c0 -28 -25 -44 -42 -27 -9 9 -7 17 7
32 24 27 35 25 35 -5z m-3599 -39 c5 3 9 2 7 -3 -1 -4 6 -25 15 -46 15 -34 15
-43 3 -71 -21 -50 -96 -55 -96 -8 0 10 -4 22 -9 28 -5 5 -5 18 -1 29 5 11 9
14 9 8 1 -7 6 -13 12 -13 5 0 7 4 4 10 -3 5 -1 18 4 27 9 16 10 14 11 -9 0
-16 3 -28 8 -28 4 0 7 24 6 53 0 57 9 88 14 44 2 -15 8 -25 13 -21z m2383 28
c3 -9 1 -34 -6 -56 -10 -35 -13 -38 -24 -23 -7 9 -11 22 -9 28 2 7 6 24 9 40
7 30 21 35 30 11z m-2641 -80 c-2 -42 -7 -83 -13 -92 -7 -12 -9 6 -8 63 2 64
10 97 24 105 0 0 -1 -34 -3 -76z m311 61 c3 -8 1 -15 -4 -15 -6 0 -10 7 -10
15 0 8 2 15 4 15 2 0 6 -7 10 -15z m786 -10 c0 -8 -4 -15 -8 -15 -5 0 -9 7 -9
15 0 8 4 15 9 15 4 0 8 -7 8 -15z m4211 -91 c-14 -55 -14 -75 0 -71 24 5 19
-23 -6 -33 -44 -17 -55 -13 -55 21 0 27 -2 30 -15 19 -8 -7 -15 -20 -16 -29 0
-10 -3 -11 -6 -4 -2 7 7 31 20 54 15 25 27 36 29 27 3 -7 8 2 12 20 5 18 14
36 22 39 8 3 15 19 16 37 l1 31 4 -34 c3 -19 0 -54 -6 -77z m-4371 86 c0 -5
-2 -10 -4 -10 -3 0 -8 5 -11 10 -3 6 -1 10 4 10 6 0 11 -4 11 -10z m3704 -5
c-4 -8 -8 -15 -10 -15 -2 0 -4 7 -4 15 0 8 4 15 10 15 5 0 7 -7 4 -15z m920
-49 c-7 -58 -21 -73 -32 -33 -6 20 -7 20 -13 -8 l-7 -30 -1 28 c-1 26 45 114
55 104 2 -2 2 -30 -2 -61z m-4884 44 c0 -5 -2 -10 -4 -10 -3 0 -8 5 -11 10 -3
6 -1 10 4 10 6 0 11 -4 11 -10z m3017 -12 c-3 -8 -6 -5 -6 6 -1 11 2 17 5 13
3 -3 4 -12 1 -19z m121 3 c11 -6 7 -16 -18 -45 -18 -20 -36 -36 -41 -36 -10 0
-12 73 -2 83 9 10 45 8 61 -2z m1761 -35 c-9 -8 -10 -7 -5 7 3 10 7 24 7 30 1
7 3 4 6 -7 3 -10 -1 -23 -8 -30z m-4992 -8 c-3 -7 -5 -2 -5 12 0 14 2 19 5 13
2 -7 2 -19 0 -25z m1153 -10 c-1 -9 -5 -7 -14 4 -7 10 -16 15 -19 11 -4 -3 -7
-2 -7 4 0 18 12 22 26 8 8 -7 14 -20 14 -27z m4205 12 c-4 -12 -9 -19 -12 -17
-3 3 -2 15 2 27 4 12 9 19 12 17 3 -3 2 -15 -2 -27z m-5324 -19 c7 11 9 8 9
-10 0 -20 -2 -21 -15 -11 -8 7 -14 24 -14 39 2 25 2 25 6 -3 4 -22 7 -26 14
-15z m3086 2 c-3 -10 -5 -4 -5 12 0 17 2 24 5 18 2 -7 2 -21 0 -30z m153 23
c0 -16 -18 -31 -27 -22 -8 8 5 36 17 36 5 0 10 -6 10 -14z m780 -12 c0 -8 -5
-12 -10 -9 -6 4 -8 11 -5 16 9 14 15 11 15 -7z m-3733 -6 c-9 -24 11 -58 29
-51 14 5 16 3 11 -11 -4 -10 -3 -15 4 -11 5 4 7 15 4 26 -5 13 -2 19 7 17 8
-2 12 6 11 22 l-3 25 11 -25 c6 -14 11 -43 10 -65 -1 -22 4 -47 9 -55 9 -13
12 -13 24 3 17 22 26 22 26 -3 0 -11 -4 -20 -10 -20 -6 0 -6 -9 0 -25 9 -22 7
-25 -15 -25 -16 0 -25 -6 -25 -16 0 -8 -5 -12 -10 -9 -6 4 -8 11 -5 16 4 5 -5
5 -20 -1 -34 -13 -58 -13 -50 0 4 6 10 8 15 5 4 -3 15 -3 23 1 13 5 12 12 -4
56 -10 27 -25 60 -33 72 -18 29 -25 86 -10 86 3 0 4 -6 1 -12z m180 -10 c-3
-8 -6 -5 -6 6 -1 11 2 17 5 13 3 -3 4 -12 1 -19z m4928 12 c17 -7 15 -9 -12
-9 -18 -1 -33 4 -33 9 0 12 17 12 45 0z m-4965 -25 c-7 -9 -15 -13 -19 -10 -3
3 1 10 9 15 21 14 24 12 10 -5z m621 -20 c7 16 8 13 4 -10 -9 -55 -11 -160 -4
-176 4 -8 4 -21 -1 -29 -8 -12 -10 -12 -13 0 -2 8 -9 31 -16 51 -14 45 -14 80
0 77 8 -2 12 18 12 62 -1 36 1 52 4 35 5 -27 6 -28 14 -10z m949 0 c0 -7 -7
-18 -15 -25 -13 -11 -15 -7 -15 25 0 32 2 36 15 25 8 -7 15 -18 15 -25z m2993
21 c3 -7 -3 -20 -14 -29 -18 -16 -19 -15 -19 13 0 31 23 42 33 16z m304 -8
c-3 -8 -6 -5 -6 6 -1 11 2 17 5 13 3 -3 4 -12 1 -19z m-9 -71 c6 12 13 30 13
40 1 10 5 0 10 -22 4 -22 8 -109 8 -192 1 -126 -1 -153 -13 -153 -8 0 -18 10
-22 22 -3 12 -13 28 -20 35 -9 9 -11 29 -7 64 4 38 2 53 -8 60 -10 6 -6 9 14
9 29 0 37 14 12 24 -12 4 -15 24 -13 103 1 81 2 89 7 43 5 -50 7 -53 19 -33z
m127 63 c-5 -12 -4 -13 6 -2 7 6 20 12 29 11 11 0 10 -2 -4 -8 -17 -7 -17 -8
-2 -24 30 -30 -14 -20 -51 11 l-31 27 29 0 c22 0 28 -4 24 -15z m875 10 c0
-12 -8 -12 -35 0 -18 8 -17 9 8 9 15 1 27 -3 27 -9z m-5179 -19 c4 7 11 10 15
6 4 -3 1 -14 -6 -22 -7 -9 -15 -30 -17 -47 -4 -34 -13 -52 -13 -25 0 10 -4 17
-10 17 -17 0 -11 28 8 40 12 8 13 13 4 16 -6 3 -9 11 -5 17 5 8 8 7 11 -2 4
-11 6 -11 13 0z m939 -7 c0 -9 -5 -14 -12 -12 -18 6 -21 28 -4 28 9 0 16 -7
16 -16z m-1613 -12 c-9 -2 -15 -8 -12 -13 4 -5 1 -9 -4 -9 -13 0 -13 3 -5 24
3 9 12 12 22 8 16 -6 15 -7 -1 -10z m270 -14 c-3 -7 -5 -2 -5 12 0 14 2 19 5
13 2 -7 2 -19 0 -25z m-1417 7 c0 -8 -4 -15 -10 -15 -5 0 -10 7 -10 15 0 8 5
15 10 15 6 0 10 -7 10 -15z m707 -17 c-4 -39 -16 -68 -27 -68 -9 0 -50 36 -50
44 0 4 5 4 11 0 8 -4 9 1 4 16 -6 19 -5 21 14 11 17 -9 22 -8 31 9 16 29 22
25 17 -12z m397 -14 c3 -8 2 -12 -4 -9 -6 3 -10 10 -10 16 0 14 7 11 14 -7z
m1642 -1 c23 -30 16 -43 -21 -43 -39 0 -42 6 -19 38 18 27 23 27 40 5z m3710
-20 c-11 -11 -17 4 -9 23 7 18 8 18 11 1 2 -10 1 -21 -2 -24z m284 17 c0 -5
-4 -10 -10 -10 -5 0 -10 5 -10 10 0 6 5 10 10 10 6 0 10 -4 10 -10z m-1470
-19 c0 -6 -4 -13 -10 -16 -5 -3 -10 1 -10 9 0 9 5 16 10 16 6 0 10 -4 10 -9z
m-4935 -18 c20 -15 19 -15 -5 -9 -14 3 -29 6 -33 6 -5 0 -5 5 -2 10 8 14 16
12 40 -7z m1460 -31 c-23 -5 -17 -21 10 -28 14 -3 25 -13 25 -23 0 -9 7 -27
16 -39 8 -12 13 -31 9 -41 -3 -11 -6 -44 -6 -75 -1 -48 -4 -56 -20 -56 -10 0
-19 7 -19 15 0 8 4 15 8 15 8 0 8 8 3 52 -1 4 -8 4 -18 1 -11 -5 -14 -3 -8 6
6 10 2 11 -16 6 -21 -7 -22 -6 -10 9 11 12 17 14 28 5 7 -7 16 -10 18 -7 9 8
-6 38 -16 32 -5 -3 -6 2 -3 10 3 9 2 16 -4 16 -6 0 -12 -6 -15 -12 -2 -7 -5
28 -5 77 l-1 90 19 -25 c16 -20 16 -26 5 -28z m2265 11 c0 -21 -3 -24 -9 -14
-5 8 -7 20 -4 28 8 21 13 15 13 -14z m2198 -30 c-30 -32 -58 -65 -61 -73 -4
-12 -6 -11 -6 3 -1 15 104 127 119 127 2 0 -21 -26 -52 -57z m-1480 -3 c-4
-41 -2 -50 11 -51 58 -3 73 -6 81 -19 19 -29 10 -50 -30 -70 -22 -11 -40 -17
-39 -13 1 5 1 21 0 37 -1 25 -4 28 -26 24 -14 -3 -25 -1 -25 3 0 5 -5 9 -11 9
-5 0 -8 -4 -4 -9 3 -5 1 -12 -4 -15 -10 -6 -21 26 -21 62 0 13 4 20 10 17 6
-3 10 -1 10 4 0 6 6 10 13 9 6 -2 11 3 9 10 -3 14 15 52 25 52 3 0 3 -22 1
-50z m1829 44 c-3 -3 -12 -4 -19 -1 -8 3 -5 6 6 6 11 1 17 -2 13 -5z m-2297
-51 c0 -25 -2 -44 -4 -42 -8 10 -13 89 -5 89 5 0 9 -21 9 -47z m-38 -108 c-10
-96 -8 -112 6 -74 5 13 19 49 32 79 12 30 26 69 30 85 l8 30 1 -30 c1 -17 -5
-39 -13 -50 -18 -27 -39 -93 -33 -108 2 -7 4 -16 4 -22 -1 -5 12 -12 29 -15
20 -4 29 -11 29 -25 1 -25 -15 -37 -31 -24 -8 6 -14 5 -18 -6 -3 -8 -11 -15
-17 -15 -8 0 -7 5 2 16 12 15 11 16 -9 10 -12 -4 -22 -3 -22 2 0 5 -13 12 -29
14 -17 2 -28 1 -25 -4 3 -4 0 -8 -5 -8 -14 0 -14 24 -2 48 6 9 13 31 17 47 l7
30 7 -25 c7 -27 13 2 28 135 4 39 8 50 10 30 1 -16 -1 -70 -6 -120z m405 98
c-3 -10 -5 -2 -5 17 0 19 2 27 5 18 2 -10 2 -26 0 -35z m396 27 c-5 -19 -23
-39 -23 -25 0 9 20 45 24 45 2 0 2 -9 -1 -20z m-4089 -11 c-8 -14 -24 -10 -24
6 0 9 6 12 15 9 8 -4 12 -10 9 -15z m1684 -6 c-10 -2 -26 -2 -35 0 -10 3 -2 5
17 5 19 0 27 -2 18 -5z m495 -10 c37 -3 69 -9 72 -12 5 -9 -178 7 -224 19 -38
10 -20 9 152 -7z m-406 -13 c4 -15 14 -20 42 -21 20 0 45 -5 56 -10 20 -9 -68
-4 -129 8 -29 5 -29 6 -7 17 12 7 18 15 15 19 -4 4 -2 7 5 7 7 0 15 -9 18 -20z
m383 -14 c47 -6 78 -14 70 -18 -14 -5 -169 15 -194 26 -20 8 37 5 124 -8z
m-1713 -18 c-3 -8 -6 -5 -6 6 -1 11 2 17 5 13 3 -3 4 -12 1 -19z m1626 1 c75
-12 137 -26 137 -31 0 -5 -9 -6 -20 -3 -12 4 -80 17 -153 30 -168 29 -145 32
36 4z m1631 3 c-6 -4 -15 -27 -21 -52 l-11 -45 -1 37 c-1 47 7 68 28 68 10 0
12 -3 5 -8z m-1850 -27 c102 -16 151 -33 61 -21 -27 4 -85 11 -127 17 -88 11
-155 33 -78 25 25 -3 90 -12 144 -21z m591 7 c-3 -3 -11 0 -18 7 -9 10 -8 11
6 5 10 -3 15 -9 12 -12z m-450 -2 c13 -6 1 -7 -35 -3 -30 3 -57 7 -59 9 -9 8
75 2 94 -6z m-280 -15 c110 -15 338 -55 344 -61 3 -3 -7 -4 -24 -1 -16 4 -79
13 -140 22 -228 32 -265 39 -265 47 0 5 8 7 18 4 9 -3 40 -8 67 -11z m373 -2
c-10 -2 -28 -2 -40 0 -13 2 -5 4 17 4 22 1 32 -1 23 -4z m-503 -12 c34 -7 35
-9 10 -9 -16 0 -43 4 -60 8 -42 11 -1 11 50 1z m585 1 c0 -5 -13 -7 -30 -4
-16 2 -30 6 -30 8 0 2 14 4 30 4 17 0 30 -4 30 -8z m220 -17 c5 -14 15 -25 21
-25 9 0 9 3 0 14 -9 11 -7 14 12 14 20 0 23 -5 19 -26 -3 -16 -1 -23 5 -19 6
4 16 0 23 -8 7 -8 21 -15 31 -15 11 0 19 -4 19 -10 0 -5 -2 -10 -4 -10 -2 0
-11 -3 -20 -6 -11 -4 -16 -1 -16 11 0 9 -4 14 -8 11 -5 -3 -19 4 -31 15 -12
11 -25 18 -30 15 -5 -3 -14 1 -21 9 -7 8 -18 15 -25 15 -7 0 -23 8 -35 18
l-23 19 37 1 c30 1 38 -3 46 -23z m-377 8 c-7 -2 -19 -2 -25 0 -7 3 -2 5 12 5
14 0 19 -2 13 -5z m-2913 -23 c0 -11 -4 -20 -9 -20 -5 0 -7 9 -4 20 3 11 7 20
9 20 2 0 4 -9 4 -20z m1787 -12 c-3 -7 -5 -2 -5 12 0 14 2 19 5 13 2 -7 2 -19
0 -25z m854 22 c30 -5 110 -19 179 -31 69 -11 127 -23 130 -26 3 -3 -8 -3 -25
0 -16 3 -109 17 -205 32 -96 14 -179 28 -185 30 -21 8 55 4 106 -5z m347 3
c-10 -2 -26 -2 -35 0 -10 3 -2 5 17 5 19 0 27 -2 18 -5z m2158 -21 c1 -7 0 -8
-3 -2 -2 5 -16 10 -29 10 -13 0 -24 4 -24 9 0 14 53 -3 56 -17z m-3489 12 c-3
-3 -12 -4 -19 -1 -8 3 -5 6 6 6 11 1 17 -2 13 -5z m786 -1 c-7 -2 -19 -2 -25
0 -7 3 -2 5 12 5 14 0 19 -2 13 -5z m610 0 c-7 -2 -21 -2 -30 0 -10 3 -4 5 12
5 17 0 24 -2 18 -5z m1056 -15 c0 -13 -4 -32 -9 -43 -7 -15 -9 -10 -9 23 -1
23 4 42 9 42 6 0 10 -10 9 -22z m-1509 -9 c16 -9 -3 -7 -90 11 -41 9 -40 9 15
4 33 -3 67 -10 75 -15z m545 12 c3 -6 -10 -7 -32 -4 -50 8 -55 13 -10 13 20 0
38 -4 42 -9z m325 -35 c0 -4 -6 -6 -14 -3 -8 3 -17 1 -20 -6 -3 -7 -4 -3 -3 8
4 36 36 37 37 1z m25 24 c3 -5 -1 -10 -9 -10 -9 0 -16 5 -16 10 0 6 4 10 9 10
6 0 13 -4 16 -10z m1286 -20 c-27 -23 -61 -26 -61 -6 0 15 19 23 60 25 l25 0
-24 -19z m-2098 3 c-7 -2 -19 -2 -25 0 -7 3 -2 5 12 5 14 0 19 -2 13 -5z m404
1 c-3 -3 -12 -4 -19 -1 -8 3 -5 6 6 6 11 1 17 -2 13 -5z m173 -4 c0 -5 -5 -10
-11 -10 -5 0 -7 5 -4 10 3 6 8 10 11 10 2 0 4 -4 4 -10z m1890 -7 c0 -5 -5
-15 -10 -23 -8 -12 -10 -11 -10 8 0 12 5 22 10 22 6 0 10 -3 10 -7z m-2137
-10 c-7 -2 -21 -2 -30 0 -10 3 -4 5 12 5 17 0 24 -2 18 -5z m-84 -19 c2 -2
-12 -4 -33 -4 -22 0 -35 4 -31 10 5 9 52 4 64 -6z m2215 -37 c9 -36 7 -107 -5
-129 -6 -12 -7 -18 -1 -14 10 6 22 -192 14 -226 -6 -25 -34 -22 -60 5 -15 16
-18 27 -12 37 5 8 7 22 5 31 -3 9 -1 29 5 44 9 25 9 26 -5 15 -19 -16 -19 -12
4 57 27 84 51 161 51 167 0 3 -4 6 -9 6 -8 0 -19 -37 -27 -89 -1 -13 -8 -29
-15 -35 -8 -8 -9 -5 -3 14 4 14 7 43 6 65 -4 69 36 109 52 52z m1106 26 c-8
-3 -18 -11 -22 -17 -5 -7 -8 -4 -8 7 0 11 7 17 23 16 15 0 17 -2 7 -6z m580
-8 l45 -15 -50 6 c-54 7 -96 23 -60 24 11 0 40 -7 65 -15z m-3807 -2 c-7 -2
-21 -2 -30 0 -10 3 -4 5 12 5 17 0 24 -2 18 -5z m-66 -19 c-3 -3 -12 -4 -19
-1 -8 3 -5 6 6 6 11 1 17 -2 13 -5z m-13 -58 c-3 -8 -14 -12 -25 -9 -24 7 -25
20 -1 26 23 5 32 -1 26 -17z m663 -8 c-3 -7 -5 -2 -5 12 0 14 2 19 5 13 2 -7
2 -19 0 -25z m3106 17 c-3 -9 -8 -14 -10 -11 -3 3 -2 9 2 15 9 16 15 13 8 -4z
m-3421 -37 c-7 -7 -12 -8 -12 -2 0 14 12 26 19 19 2 -3 -1 -11 -7 -17z m3408
-9 c0 -6 -4 -7 -10 -4 -5 3 -10 11 -10 16 0 6 5 7 10 4 6 -3 10 -11 10 -16z
m-3446 -1 c-3 -4 0 -8 6 -8 6 0 8 -5 4 -12 -6 -9 -9 -9 -12 0 -2 7 -8 10 -13
6 -5 -3 -9 1 -9 9 0 7 7 14 15 14 8 0 12 -4 9 -9z m352 -1 c11 4 14 -4 14 -34
0 -21 -5 -44 -12 -51 -9 -9 -8 -12 5 -12 10 0 14 -5 11 -15 -4 -8 -9 -15 -13
-15 -10 0 -46 71 -47 94 -2 23 18 55 24 38 2 -6 10 -8 18 -5z m-212 -40 c8
-12 7 -20 -4 -32 -14 -13 -18 -13 -38 1 -25 17 -29 34 -7 34 8 0 15 5 15 11 0
15 21 6 34 -14z m51 -18 c8 -37 0 -50 -9 -14 -4 14 -11 25 -17 25 -6 0 -7 5
-4 10 11 18 23 10 30 -21z m75 21 c0 -5 -5 -10 -11 -10 -5 0 -7 5 -4 10 3 6 8
10 11 10 2 0 4 -4 4 -10z m26 -46 c-4 -15 -3 -23 3 -20 5 3 14 -8 20 -26 15
-41 15 -40 -16 -36 -32 3 -41 35 -24 81 13 34 25 35 17 1z m-126 -18 c0 -9 -7
-12 -21 -9 -16 4 -17 8 -7 14 19 13 28 11 28 -5z m-2900 -86 c0 -5 -2 -10 -4
-10 -3 0 -8 5 -11 10 -3 6 -1 10 4 10 6 0 11 -4 11 -10z m1390 -74 c0 -9 -30
-14 -35 -6 -4 6 3 10 14 10 12 0 21 -2 21 -4z m159 -6 c-21 -12 -119 -21 -133
-12 -6 4 21 10 59 13 39 3 75 6 80 7 6 1 3 -3 -6 -8z m-558 -39 c-12 -8 -51
-4 -51 5 0 2 15 4 33 4 22 0 28 -3 18 -9z m84 -1 c-27 -12 -43 -12 -25 0 8 5
22 9 30 9 10 0 8 -3 -5 -9z"/>
<path d="M3363 6234 c9 -10 -32 -54 -51 -54 -10 0 -12 -7 -7 -27 5 -23 4 -25
-9 -14 -21 17 -21 3 0 -20 22 -24 47 -4 32 26 -8 14 -8 20 1 23 14 5 61 47 61
55 0 2 -8 8 -17 11 -10 4 -14 4 -10 0z"/>
<path d="M3477 6080 c4 -13 -2 -32 -16 -50 -11 -16 -21 -33 -21 -38 0 -19 26
-62 38 -62 16 0 15 11 -4 38 -14 20 -14 24 6 52 22 31 24 71 3 77 -7 3 -9 -3
-6 -17z"/>
<path d="M3340 6075 c0 -16 22 -45 31 -40 15 10 11 23 -11 35 -11 6 -20 8 -20
5z"/>
<path d="M3590 5925 c0 -8 5 -15 10 -15 6 0 10 7 10 15 0 8 -4 15 -10 15 -5 0
-10 -7 -10 -15z"/>
<path d="M3616 5888 c-14 -45 -15 -76 -5 -129 6 -32 16 -59 21 -59 6 0 7 16 2
43 -9 45 -9 97 1 134 6 24 -12 33 -19 11z"/>
<path d="M3323 5829 c-1 -12 3 -16 13 -12 18 6 18 19 1 26 -7 3 -13 -3 -14
-14z"/>
<path d="M3411 5836 c-14 -16 -9 -46 7 -46 5 0 15 7 22 16 11 12 11 18 -2 30
-13 13 -16 13 -27 0z"/>
<path d="M3327 5793 c-12 -11 -8 -23 8 -23 8 0 15 7 15 15 0 16 -12 20 -23 8z"/>
<path d="M3167 5814 c-8 -8 1 -24 14 -24 5 0 9 7 9 15 0 15 -12 20 -23 9z"/>
<path d="M3167 5766 c-3 -8 -3 -16 0 -19 9 -10 33 5 33 19 0 18 -26 18 -33 0z"/>
<path d="M3245 5680 c3 -5 8 -10 11 -10 2 0 4 5 4 10 0 6 -5 10 -11 10 -5 0
-7 -4 -4 -10z"/>
<path d="M3410 5630 c0 -5 4 -10 9 -10 5 0 14 -14 21 -30 14 -33 37 -36 32 -4
-5 29 -62 70 -62 44z"/>
<path d="M3280 5570 c0 -5 5 -10 11 -10 5 0 7 5 4 10 -3 6 -8 10 -11 10 -2 0
-4 -4 -4 -10z"/>
<path d="M4378 5223 c7 -3 16 -2 19 1 4 3 -2 6 -13 5 -11 0 -14 -3 -6 -6z"/>
<path d="M5036 4698 c5 -7 2 -9 -8 -5 -9 3 -21 0 -27 -6 -16 -16 -13 -31 4
-17 8 6 19 9 25 5 5 -3 10 -4 10 -1 0 2 3 11 6 20 3 9 1 16 -6 16 -6 0 -8 -5
-4 -12z"/>
<path d="M5540 4634 c0 -13 18 -39 24 -34 2 3 -2 14 -10 24 -8 11 -14 16 -14
10z"/>
<path d="M2635 4710 c3 -5 8 -10 11 -10 2 0 4 5 4 10 0 6 -5 10 -11 10 -5 0
-7 -4 -4 -10z"/>
<path d="M3283 3383 c15 -2 39 -2 55 0 15 2 2 4 -28 4 -30 0 -43 -2 -27 -4z"/>
<path d="M3003 3373 c9 -2 23 -2 30 0 6 3 -1 5 -18 5 -16 0 -22 -2 -12 -5z"/>
<path d="M3540 3249 c0 -9 7 -19 15 -23 11 -4 15 1 15 18 0 13 -6 23 -15 23
-8 0 -15 -8 -15 -18z"/>
<path d="M2190 3078 c0 -5 5 -8 11 -8 5 0 7 -4 4 -10 -3 -5 3 -10 14 -10 14 0
21 6 21 19 0 14 -7 19 -25 17 -14 0 -25 -4 -25 -8z"/>
<path d="M2127 3003 c15 -3 20 -9 17 -21 -5 -14 -4 -14 4 -2 14 19 6 30 -21
29 l-22 -2 22 -4z"/>
<path d="M2135 2930 c-3 -5 -1 -10 4 -10 6 0 11 5 11 10 0 6 -2 10 -4 10 -3 0
-8 -4 -11 -10z"/>
<path d="M6045 3060 c3 -5 8 -10 11 -10 2 0 4 5 4 10 0 6 -5 10 -11 10 -5 0
-7 -4 -4 -10z"/>
<path d="M5870 3051 c0 -6 5 -13 12 -17 6 -4 8 -3 4 4 -3 5 0 13 6 15 8 3 6 6
-4 6 -10 1 -18 -3 -18 -8z"/>
<path d="M6061 2994 c0 -11 3 -14 6 -6 3 7 2 16 -1 19 -3 4 -6 -2 -5 -13z"/>
<path d="M5870 2914 c0 -14 4 -23 10 -19 6 3 10 15 10 26 0 10 -4 19 -10 19
-5 0 -10 -12 -10 -26z"/>
<path d="M5090 2900 c0 -11 5 -20 10 -20 6 0 10 9 10 20 0 11 -4 20 -10 20 -5
0 -10 -9 -10 -20z"/>
<path d="M5111 2854 c0 -11 3 -14 6 -6 3 7 2 16 -1 19 -3 4 -6 -2 -5 -13z"/>
<path d="M5131 2734 c0 -11 3 -14 6 -6 3 7 2 16 -1 19 -3 4 -6 -2 -5 -13z"/>
<path d="M5130 2701 c0 -6 4 -13 10 -16 6 -3 7 1 4 9 -7 18 -14 21 -14 7z"/>
<path d="M3431 2304 c0 -11 3 -14 6 -6 3 7 2 16 -1 19 -3 4 -6 -2 -5 -13z"/>
<path d="M6208 1988 c5 -5 19 -5 33 1 22 8 22 9 -9 9 -19 -1 -29 -5 -24 -10z"/>
<path d="M6021 2024 c0 -11 3 -14 6 -6 3 7 2 16 -1 19 -3 4 -6 -2 -5 -13z"/>
<path d="M451 1954 c0 -11 3 -14 6 -6 3 7 2 16 -1 19 -3 4 -6 -2 -5 -13z"/>
<path d="M473 1924 c3 -3 1 -18 -4 -33 -6 -15 -6 -22 -1 -16 17 18 24 55 11
55 -7 0 -10 -3 -6 -6z"/>
<path d="M5491 1924 c0 -11 3 -14 6 -6 3 7 2 16 -1 19 -3 4 -6 -2 -5 -13z"/>
<path d="M1160 1843 c0 -4 5 -15 10 -23 8 -13 10 -13 10 2 0 9 -4 20 -10 23
-5 3 -10 3 -10 -2z"/>
<path d="M1906 1695 c-3 -8 -1 -15 4 -15 6 0 10 7 10 15 0 8 -2 15 -4 15 -2 0
-6 -7 -10 -15z"/>
<path d="M5301 1293 c-10 -26 -10 -27 4 -9 8 11 15 23 15 28 0 15 -7 8 -19
-19z"/>
<path d="M53 1969 c-8 -22 -9 -29 -1 -27 10 4 24 58 16 58 -2 0 -9 -14 -15
-31z"/>
<path d="M7147 663 c-4 -3 -7 -21 -7 -40 0 -29 3 -33 25 -33 23 0 25 4 25 40
0 32 -4 40 -18 40 -10 0 -22 -3 -25 -7z"/>
<path d="M7142 528 c2 -35 7 -43 23 -43 16 0 21 8 23 43 3 39 2 42 -23 42 -25
0 -26 -3 -23 -42z"/>
</g>
</svg>
