<?xml version="1.0" standalone="no"?>
<!DOCTYPE svg PUBLIC "-//W3C//DTD SVG 20010904//EN"
 "http://www.w3.org/TR/2001/REC-SVG-20010904/DTD/svg10.dtd">
<svg version="1.0" xmlns="http://www.w3.org/2000/svg"
 width="600.000000pt" height="854.000000pt" viewBox="0 0 600.000000 854.000000"
 preserveAspectRatio="xMidYMid meet">

<g transform="translate(0.000000,854.000000) scale(0.100000,-0.100000)"
fill="#000000" stroke="none">
<path d="M0 7917 c0 -620 0 -624 21 -643 30 -27 86 -126 100 -176 28 -105 1
-203 -70 -255 -54 -40 -56 -42 -30 -37 l24 6 -22 -20 -23 -20 0 -1218 c0
-1060 2 -1218 15 -1228 13 -10 13 -22 0 -101 -11 -73 -14 -321 -14 -1348 l-1
-1258 20 6 c12 4 67 8 123 10 164 5 155 4 135 19 -17 12 -17 14 2 36 11 13 23
21 26 18 10 -11 12 -43 2 -55 -11 -14 27 -22 92 -18 29 1 44 6 42 14 -2 9 3 9
19 0 15 -8 19 -8 15 0 -4 6 -3 11 3 11 5 0 13 -4 16 -10 4 -6 14 -5 27 3 16 9
22 9 25 0 3 -7 12 -13 21 -14 9 0 4 -5 -12 -9 -16 -5 -33 -7 -37 -5 -4 3 -38
-1 -76 -9 -86 -17 -89 -18 -203 -20 -52 -1 -108 -6 -124 -10 -17 -5 -31 -5
-35 1 -3 5 -23 8 -43 5 l-38 -4 0 -793 0 -793 193 4 c105 2 221 4 257 5 36 1
130 -2 210 -5 92 -5 140 -4 131 2 -8 6 -9 12 -3 16 6 3 14 1 17 -5 5 -7 31 -8
74 -5 43 4 59 3 46 -3 -12 -6 481 -10 1262 -10 l1282 -1 3 32 c2 25 9 34 28
39 25 7 25 7 -3 8 -16 1 -26 5 -23 10 4 5 1 11 -5 13 -9 3 -9 10 0 26 7 13 9
31 6 42 -4 12 0 22 12 28 17 10 17 13 -4 55 -20 41 -20 46 -5 61 9 9 11 16 5
16 -6 0 -13 9 -16 20 -3 11 -1 20 3 20 4 0 6 9 3 20 -3 11 -1 20 5 20 6 0 14
9 17 20 3 11 13 27 21 35 9 8 11 15 5 15 -22 0 -10 20 12 21 l22 0 -22 11
c-13 6 -23 17 -23 25 0 7 -7 13 -15 13 -8 0 -15 5 -15 10 0 6 9 10 19 10 11 0
23 4 26 10 12 20 -48 25 -570 51 -231 11 -421 22 -423 24 -11 11 435 230 461
227 10 -1 15 2 12 8 -3 6 1 7 10 4 22 -9 10 -18 -23 -19 -16 0 -26 -6 -24 -13
1 -7 -32 -29 -73 -49 -58 -29 -72 -40 -63 -50 9 -11 13 -10 22 3 7 8 32 18 56
21 41 6 44 5 31 -10 -7 -10 -20 -17 -27 -17 -8 0 -14 -5 -14 -10 0 -7 -7 -7
-21 1 -12 6 -19 7 -15 1 8 -14 -30 -45 -73 -58 -20 -7 -28 -12 -17 -13 15 -1
16 -4 6 -16 -11 -13 -8 -15 19 -15 20 0 30 4 26 10 -4 6 -3 10 2 9 23 -4 42 3
47 17 5 14 4 15 -8 4 -28 -23 -36 -5 -11 24 14 16 25 24 25 17 0 -7 45 11 106
43 58 31 102 52 99 46 -9 -15 9 -12 31 5 19 15 19 15 -1 9 -23 -7 42 36 129
86 33 18 56 29 53 23 -15 -24 28 -22 74 4 27 14 47 28 45 30 -2 2 -23 -8 -47
-22 -50 -28 -60 -30 -57 -12 3 14 48 47 63 47 6 -1 -2 -8 -17 -16 -38 -20 -36
-28 2 -9 17 9 28 20 25 25 -8 12 53 43 67 34 7 -4 8 -3 4 4 -4 7 -4 12 1 12 4
0 19 9 33 20 l25 21 -30 -7 c-16 -4 -37 -13 -46 -20 -8 -8 -23 -14 -33 -14 -9
0 -19 -7 -22 -15 -4 -8 -17 -15 -31 -15 -13 0 -21 4 -18 10 3 6 14 10 25 10
10 0 20 7 24 15 3 8 12 15 19 15 8 0 22 10 33 22 19 21 19 21 -1 14 -11 -5
-26 -9 -32 -9 -7 0 -13 -4 -13 -9 0 -13 -215 -117 -227 -110 -12 8 70 52 429
233 119 60 223 115 230 122 12 12 101 57 113 57 3 0 23 11 44 25 46 28 98 44
87 26 -4 -6 -4 -11 1 -11 4 0 9 -12 10 -26 0 -15 7 -30 13 -34 7 -4 9 -13 6
-19 -9 -15 7 -14 22 1 9 9 15 9 25 -1 10 -11 9 -13 -5 -8 -12 4 -15 2 -11 -9
5 -13 -8 -18 -46 -17 -9 1 -10 -2 -2 -10 7 -7 5 -14 -7 -23 -14 -10 -13 -11
10 -7 14 3 35 13 45 22 33 31 67 51 86 51 26 0 11 -20 -16 -21 -12 0 -16 -3
-9 -6 6 -2 10 -9 6 -14 -8 -14 6 -11 34 9 40 27 82 43 82 32 0 -6 -7 -10 -15
-10 -9 0 -18 -7 -22 -15 -8 -22 -62 -48 -81 -39 -26 11 -43 13 -38 5 3 -4 -8
-15 -25 -25 -16 -9 -29 -22 -29 -28 0 -7 5 -6 15 2 15 13 45 7 45 -8 0 -4 -9
-18 -20 -30 -15 -16 -17 -22 -7 -22 8 0 22 9 32 20 25 28 84 46 98 30 10 -10
7 -11 -12 -7 -13 3 -20 2 -15 -2 5 -5 22 -12 38 -15 25 -6 28 -5 18 7 -10 12
-9 16 7 20 35 9 44 -8 17 -34 -26 -24 -34 -49 -16 -49 6 0 10 5 10 10 0 6 6
10 13 10 7 0 26 14 42 30 19 20 32 27 39 20 15 -15 53 -12 71 6 12 13 18 14
31 4 13 -11 13 -15 -1 -30 -8 -9 -15 -26 -15 -38 0 -12 -5 -20 -12 -18 -7 1
-10 1 -5 -1 11 -7 9 -33 -3 -33 -5 0 -10 -4 -10 -10 0 -18 17 -10 30 15 7 14
20 25 27 25 8 0 12 4 9 9 -3 5 1 14 8 21 11 9 21 8 43 -4 16 -9 21 -15 13 -16
-9 0 -16 -10 -17 -22 -2 -21 -1 -20 22 6 14 16 27 37 30 47 4 11 13 19 21 19
8 0 14 4 14 9 0 4 12 6 27 3 25 -5 25 -6 8 -18 -14 -10 -15 -14 -4 -14 11 -1
10 -4 -3 -14 -10 -7 -18 -18 -18 -24 0 -6 -9 -27 -21 -46 -12 -20 -19 -36 -16
-36 7 0 84 132 146 250 30 58 65 122 78 142 12 21 23 42 23 48 0 14 17 13 26
-2 4 -6 3 -8 -4 -4 -6 4 -10 -1 -10 -11 1 -31 -21 -75 -34 -67 -8 5 -9 2 -5
-9 4 -10 2 -16 -5 -14 -6 1 -13 -4 -16 -12 -3 -9 0 -11 8 -6 9 6 9 3 0 -15 -6
-12 -9 -28 -6 -36 3 -9 1 -12 -4 -9 -11 7 -45 -63 -36 -73 8 -8 50 41 54 63 2
11 12 26 21 35 10 8 16 20 14 27 -2 6 1 14 6 18 7 4 11 -6 11 -24 0 -17 -5
-31 -11 -31 -5 0 -7 -5 -4 -10 3 -5 1 -10 -5 -10 -6 0 -9 -4 -6 -9 4 -5 0 -12
-6 -14 -7 -3 -1 -6 13 -6 23 -1 28 6 53 84 28 85 41 110 31 58 -5 -27 -5 -27
5 -5 5 13 8 28 5 32 -3 5 -3 21 1 35 5 20 9 23 15 13 7 -10 9 -8 10 7 0 11 3
15 5 8 3 -6 -16 -78 -42 -160 -62 -197 -61 -193 -34 -193 20 0 50 -21 50 -34
0 -3 -9 -6 -20 -6 -40 0 -19 -17 38 -31 l57 -13 -60 -12 c-33 -6 -49 -12 -35
-13 14 -1 21 -5 15 -9 -15 -11 -17 -42 -3 -43 19 -1 -63 -38 -87 -39 -18 -1
-18 -2 3 -10 26 -11 29 -30 5 -30 -15 0 -14 -2 3 -15 19 -14 19 -14 -1 -15
-34 0 -48 15 -41 44 3 14 3 26 -2 26 -10 0 -36 -80 -28 -87 3 -3 -1 -11 -8
-19 -8 -7 -24 -50 -36 -96 -12 -46 -26 -88 -30 -93 -5 -6 -10 -23 -12 -39 -2
-25 1 -31 22 -36 24 -6 70 5 98 23 6 5 17 5 24 1 7 -5 8 -3 4 5 -5 7 -14 10
-22 7 -15 -6 -20 9 -6 18 13 8 52 -5 46 -15 -5 -9 2 -13 49 -23 18 -4 27 -13
27 -26 0 -11 -5 -20 -11 -20 -5 0 -7 -4 -4 -10 3 -5 21 -10 38 -10 27 -1 29
-2 14 -11 -9 -6 -26 -7 -37 -4 -16 5 -23 0 -31 -24 -8 -22 -20 -34 -42 -40
-25 -7 -27 -9 -9 -10 26 -1 30 -21 4 -21 -9 0 -28 14 -42 31 -14 17 -34 35
-45 39 -19 8 -19 9 3 9 22 1 28 16 14 37 -4 7 -26 18 -50 25 -38 11 -44 10
-55 -6 -12 -16 -27 -17 -148 -12 -74 3 -212 10 -308 17 -106 6 -178 7 -183 2
-6 -6 4 -12 25 -16 l35 -7 -24 -24 c-14 -14 -36 -28 -49 -31 -33 -8 -42 -24
-22 -39 23 -16 21 -25 -3 -25 -23 0 -26 -10 -8 -28 9 -9 8 -12 -5 -12 -9 0
-17 -8 -18 -17 0 -11 -3 -13 -6 -6 -3 10 -8 9 -19 -2 -12 -11 -12 -18 -2 -34
9 -16 9 -23 -3 -37 -11 -13 -11 -18 -1 -21 6 -3 12 -11 12 -19 0 -10 -13 -14
-49 -14 -28 0 -52 -4 -56 -9 -7 -12 26 -31 55 -31 33 0 21 -34 -13 -38 -15 -2
-27 -7 -27 -11 0 -5 11 -6 25 -3 24 4 25 2 25 -43 l0 -47 33 6 c23 4 28 3 17
-4 -13 -8 -12 -10 5 -11 11 0 -5 -6 -35 -13 -50 -10 -62 -9 -123 12 -38 13
-71 22 -73 19 -2 -2 14 -10 36 -17 22 -7 45 -19 51 -27 9 -11 199 -13 1070
-13 l1059 0 0 4270 0 4270 -1090 0 c-599 0 -1090 -4 -1090 -8 0 -4 30 -36 66
-71 67 -66 115 -149 144 -253 18 -66 10 -253 -13 -293 -9 -17 -28 -55 -41 -85
-13 -30 -36 -74 -51 -98 -24 -38 -24 -42 -7 -31 12 7 18 17 16 21 -3 4 0 8 5
8 18 0 13 -15 -15 -45 -14 -15 -22 -30 -19 -33 3 -4 10 0 14 7 5 8 11 9 15 3
3 -5 -13 -27 -37 -49 -217 -199 -558 -275 -877 -193 -87 22 -197 67 -187 76 3
3 18 -1 34 -9 36 -19 140 -47 147 -39 10 9 7 24 -3 17 -5 -3 -12 -1 -15 4 -9
14 20 21 33 8 6 -6 11 -8 11 -4 0 25 -68 59 -161 81 -27 6 -89 59 -89 76 0 5
22 -3 49 -19 81 -48 143 -73 155 -61 7 7 6 10 -2 10 -7 0 -12 7 -12 15 0 8
-11 22 -25 31 -14 9 -25 23 -25 30 0 8 -6 14 -12 14 -8 0 -9 3 -3 8 6 4 10 21
11 37 0 17 2 37 5 45 2 8 -2 14 -8 12 -16 -3 -17 20 -2 35 8 8 -8 30 -54 78
-35 37 -74 86 -85 109 -36 71 -55 164 -49 234 4 42 2 70 -6 84 -9 16 -9 22 1
25 6 3 9 10 5 16 -11 19 -10 45 2 41 7 -3 11 10 10 37 0 23 -5 44 -12 46 -15
5 -80 -59 -121 -120 -32 -47 -82 -180 -82 -217 0 -10 -4 -22 -10 -25 -6 -4 -8
5 -5 22 2 15 7 48 10 73 9 67 88 203 162 279 34 36 63 67 63 68 0 2 -619 3
-1375 3 l-1375 0 0 -623z m2554 19 c-5 -14 -9 -15 -15 -4 -5 7 -9 22 -9 33 0
17 2 18 15 4 9 -9 13 -23 9 -33z m1412 -254 c-18 -16 -18 -16 -6 6 6 13 14 21
18 18 3 -4 -2 -14 -12 -24z m-1206 -148 c0 -2 -9 0 -20 6 -11 6 -20 13 -20 16
0 2 9 0 20 -6 11 -6 20 -13 20 -16z m44 -19 c11 -8 15 -15 10 -15 -6 0 -19 7
-30 15 -10 8 -14 14 -9 14 6 0 19 -6 29 -14z m196 -9 c0 -11 -19 -15 -25 -6
-3 5 1 10 9 10 9 0 16 -2 16 -4z m1161 -1194 c25 -78 27 -97 17 -111 -12 -14
-11 -15 5 -2 21 17 22 3 2 -26 -14 -20 -14 -23 2 -32 17 -9 17 -10 1 -16 -10
-4 -18 -13 -18 -21 0 -10 -13 -14 -46 -14 l-47 0 5 -45 c4 -33 2 -45 -7 -45
-8 0 -15 -6 -18 -12 -6 -17 -36 20 -37 46 0 30 -41 90 -51 75 -4 -7 -6 -16 -3
-20 8 -13 -26 -19 -52 -9 -33 13 -34 13 -34 -6 0 -8 5 -12 10 -9 17 10 49 -5
44 -20 -3 -8 1 -28 9 -45 26 -50 0 -44 -28 7 -14 26 -23 38 -20 26 4 -13 2
-23 -3 -23 -5 0 -14 10 -19 23 -9 18 -10 13 -8 -30 1 -43 -1 -51 -12 -42 -7 6
-13 15 -13 20 0 9 -89 159 -95 159 -2 0 0 -13 5 -29 6 -23 5 -29 -5 -25 -8 3
-11 12 -9 19 5 13 -21 75 -32 75 -2 0 0 -9 6 -20 13 -25 2 -26 -16 -3 -7 10
-15 15 -18 12 -3 -3 12 -34 34 -67 60 -94 81 -139 65 -139 -7 0 -11 7 -7 15 4
11 1 13 -8 7 -9 -5 -11 -4 -6 3 4 7 2 12 -3 12 -6 0 -11 4 -11 9 0 12 -80 149
-80 138 0 -4 16 -39 35 -77 37 -74 47 -111 18 -70 -17 24 -19 28 -22 50 0 6
-9 10 -20 10 -11 0 -18 6 -17 16 0 9 -6 19 -14 21 -13 4 -13 3 0 -6 17 -12 13
-18 -15 -23 -11 -1 -25 -10 -32 -18 -7 -8 -13 -10 -13 -4 0 5 -16 16 -35 24
-19 8 -35 17 -35 21 0 4 -18 39 -40 78 -45 80 -65 125 -51 116 6 -3 13 1 18 8
8 14 181 53 191 43 3 -3 10 -2 16 3 6 4 30 11 54 15 l43 6 -5 -49 c-6 -55 2
-66 40 -57 15 4 24 14 24 26 0 11 -3 20 -7 20 -5 0 -16 14 -25 30 -17 29 -16
30 5 35 70 15 242 36 263 32 14 -2 27 0 30 4 3 5 19 8 35 7 28 -2 31 -7 60
-96z m33 66 c-3 -4 -1 -8 4 -8 16 0 52 -99 40 -106 -6 -4 -8 -2 -4 4 6 9 -29
28 -46 24 -11 -3 -39 79 -33 99 5 15 9 16 25 7 10 -7 16 -16 14 -20z m73 -60
c-3 -7 -5 -2 -5 12 0 14 2 19 5 13 2 -7 2 -19 0 -25z m-47 -48 c0 -5 -7 -10
-15 -10 -8 0 -15 5 -15 10 0 6 7 10 15 10 8 0 15 -4 15 -10z m-773 -86 c18
-32 33 -62 33 -65 0 -4 -9 -17 -21 -30 l-20 -24 17 28 c15 24 13 31 -8 28 -10
-1 -20 37 -13 49 3 5 -1 10 -9 10 -18 0 -23 8 -30 44 -8 44 16 26 51 -40z
m863 57 c0 -6 -4 -13 -10 -16 -5 -3 -10 1 -10 9 0 9 5 16 10 16 6 0 10 -4 10
-9z m-60 -26 c0 -8 -2 -15 -4 -15 -2 0 -6 7 -10 15 -3 8 -1 15 4 15 6 0 10 -7
10 -15z m-600 -175 c0 -22 -16 -26 -40 -10 -13 9 -13 11 0 20 24 16 40 12 40
-10z m234 -46 c3 -8 2 -12 -4 -9 -6 3 -10 10 -10 16 0 14 7 11 14 -7z m27 -37
c-10 -9 -11 -8 -5 6 3 10 9 15 12 12 3 -3 0 -11 -7 -18z m674 7 c-18 -7 -260
-42 -264 -38 -9 9 8 13 104 27 95 14 181 20 160 11z m-358 -50 c-9 -9 -61 -17
-447 -69 -184 -25 -344 -44 -355 -43 -11 2 77 18 195 37 278 43 604 88 609 84
2 -2 1 -6 -2 -9z m-7 -44 c0 -4 -10 -10 -22 -13 -38 -9 -247 -36 -333 -42 -72
-5 -78 -4 -55 8 24 13 265 53 339 56 19 1 37 3 39 6 6 6 32 -6 32 -15z m-827
-77 c-7 -2 -19 -2 -25 0 -7 3 -2 5 12 5 14 0 19 -2 13 -5z m944 -149 c12 -8
42 -14 65 -14 69 0 170 -19 214 -40 22 -11 45 -20 51 -20 6 0 16 -7 23 -15 7
-9 15 -13 18 -10 8 8 42 -27 42 -44 0 -10 -10 -6 -32 15 -37 34 -77 53 -95 47
-7 -3 -13 -18 -13 -34 0 -41 -36 -87 -92 -115 -27 -13 -49 -29 -49 -34 -1 -6
-2 -16 -3 -22 -1 -7 5 -18 13 -24 10 -8 11 -13 3 -18 -26 -16 -11 -28 24 -21
24 4 34 3 29 -4 -3 -6 -13 -11 -22 -11 -12 0 -13 -3 -4 -14 13 -15 -11 -23
-104 -33 -69 -8 -69 -13 -2 -13 54 0 77 -13 40 -23 -10 -3 7 -6 37 -7 30 -1
49 -4 42 -7 -6 -2 -10 -9 -6 -14 3 -5 -11 -9 -31 -9 l-36 0 18 -30 c9 -16 23
-30 29 -30 20 0 24 29 6 39 -13 8 -5 10 33 10 28 0 44 -3 37 -6 -6 -2 -10 -8
-7 -13 3 -4 -4 -6 -15 -3 -13 4 -20 0 -20 -10 0 -16 26 -30 41 -22 5 4 6 -1 3
-8 -5 -15 -20 -17 -40 -5 -12 8 -40 5 -50 -5 -4 -4 -2 -7 5 -7 7 0 9 -5 6 -11
-5 -7 12 -9 54 -4 61 6 62 6 49 -14 -13 -22 -34 -28 -40 -11 -2 6 -9 6 -18 0
-21 -13 -5 -24 39 -24 64 -1 62 -15 -1 -17 -10 0 -18 -5 -18 -10 0 -6 -4 -8
-9 -4 -5 3 -12 1 -16 -5 -3 -5 1 -10 9 -10 9 0 16 -6 16 -12 1 -9 5 -8 13 3
15 20 100 32 115 17 7 -7 12 -22 12 -35 0 -13 5 -23 10 -23 6 0 10 -7 10 -15
0 -10 -10 -15 -30 -15 -30 0 -31 1 -24 35 6 36 0 42 -25 26 -12 -8 -12 -12 -2
-25 25 -30 6 -45 -54 -45 -31 0 -59 -2 -63 -5 -3 -3 18 -6 46 -6 57 0 70 -15
22 -25 -16 -4 -30 -11 -30 -15 0 -5 6 -7 14 -4 8 3 17 0 21 -6 5 -8 10 -8 14
-2 3 5 16 12 29 16 19 6 22 4 22 -18 0 -25 -20 -38 -20 -13 -1 6 -7 1 -15 -13
-8 -14 -14 -20 -15 -13 0 7 -7 10 -15 7 -14 -6 -13 -8 2 -21 17 -14 17 -14 1
-9 -10 3 -18 1 -18 -4 0 -6 5 -10 10 -10 21 0 9 -16 -14 -18 -27 -2 -45 35
-20 45 8 3 11 9 8 14 -3 5 -12 6 -21 0 -9 -4 -25 -6 -37 -3 -18 4 -18 2 6 -19
20 -18 25 -28 18 -39 -7 -10 -10 -11 -10 -2 0 6 -5 12 -11 12 -5 0 -9 -8 -7
-17 1 -10 -1 -24 -6 -31 -7 -11 3 -13 52 -10 33 1 58 0 55 -4 -2 -5 -12 -8
-21 -8 -14 0 -13 -2 3 -13 17 -13 17 -14 -6 -21 l-24 -7 30 -14 c17 -9 23 -13
14 -11 -9 2 -22 0 -30 -5 -9 -6 13 -9 64 -7 99 4 100 -6 8 -91 -38 -35 -67
-70 -65 -76 5 -12 -52 -42 -72 -37 -6 1 -11 -4 -11 -12 0 -11 6 -12 24 -5 13
5 23 5 23 0 0 -11 -57 -61 -70 -61 -13 0 -13 13 0 26 6 6 -29 -3 -77 -19 -112
-38 -279 -48 -386 -23 -128 30 -262 113 -340 211 -104 129 -148 314 -114 472
28 129 86 234 183 331 46 45 88 82 93 82 5 0 13 -9 16 -20 5 -15 -1 -27 -21
-43 -28 -22 -53 -44 -45 -40 2 2 10 -2 18 -8 10 -9 17 -8 28 1 9 7 18 10 22 6
3 -3 1 -6 -5 -6 -7 0 -12 -6 -12 -14 0 -9 -14 -14 -45 -14 -36 -1 -50 -7 -70
-29 -36 -42 -88 -142 -81 -159 3 -8 2 -13 -3 -10 -5 3 -14 -16 -21 -42 -6 -26
-14 -52 -15 -59 -3 -7 3 -10 13 -7 15 5 15 4 0 -6 -37 -23 -15 -207 37 -310
21 -42 28 -48 43 -41 17 10 228 41 275 41 15 0 27 3 27 8 0 4 -65 7 -144 7
-138 0 -143 1 -126 18 11 9 24 17 30 17 24 0 -3 20 -28 21 -24 1 -23 3 8 9
l35 7 -37 2 c-31 1 -38 5 -38 21 0 11 7 20 15 20 12 0 65 44 65 55 0 3 -10 1
-23 -4 -15 -6 -29 -5 -41 5 -11 7 -22 11 -26 9 -13 -8 2 50 18 68 8 9 27 17
41 18 l26 1 -24 7 c-14 4 -27 13 -29 20 -3 8 0 11 7 7 7 -5 11 1 11 13 0 12 5
21 11 21 5 0 7 5 4 10 -3 6 1 10 9 10 9 0 16 -6 16 -12 0 -10 2 -10 8 -1 4 7
32 17 62 22 l55 9 -74 1 c-59 1 -72 4 -68 15 7 19 -24 9 -36 -11 -9 -15 -33
-17 -41 -4 -4 5 4 7 16 3 13 -3 19 -1 15 5 -4 6 0 14 9 17 9 3 14 12 11 20 -4
9 0 12 13 9 10 -3 31 2 46 10 16 8 53 15 82 15 78 1 87 16 14 23 -34 3 -66 9
-70 13 -7 7 24 30 43 31 6 1 9 6 8 13 -2 10 15 17 92 35 11 3 -17 3 -62 0 -73
-5 -83 -4 -83 11 0 11 9 16 30 17 43 2 47 3 57 13 5 5 -6 6 -24 3 -19 -4 -33
-2 -33 3 0 6 7 10 15 10 8 0 14 6 13 12 -4 16 46 11 82 -7 54 -27 153 -45 253
-45 74 1 97 3 85 11 -10 5 -18 15 -18 20 0 6 5 7 10 4 11 -7 8 18 -5 48 -4 9
-5 26 -2 36 5 21 -16 31 -69 31 -92 0 -204 68 -204 124 0 16 -5 26 -15 26 -8
0 -15 5 -15 11 0 15 104 60 195 84 69 17 80 23 79 42 0 19 4 21 35 16 20 -3
46 -12 58 -19z m1314 -320 c11 -126 22 -245 23 -264 2 -19 6 -51 9 -70 13 -80
17 -175 7 -160 -8 11 -9 4 -4 -25 4 -22 4 -37 0 -34 -12 11 -25 108 -35 265
-6 87 -18 217 -26 287 -13 107 -12 247 1 234 2 -2 13 -107 25 -233z m-1739
144 c-20 -20 -14 -30 11 -17 22 12 22 12 3 -10 -23 -26 -36 -27 -36 -3 0 17
17 42 29 42 3 0 0 -5 -7 -12z m-24 -73 c-9 -9 -30 14 -23 25 6 9 10 8 17 -4 6
-10 8 -19 6 -21z m851 -122 c76 -89 130 -237 131 -355 0 -85 -54 -287 -67
-250 -3 7 1 26 7 43 7 16 10 32 8 35 -3 3 -8 -7 -12 -21 -4 -14 -11 -25 -16
-25 -10 0 -5 32 12 80 5 14 12 61 15 105 4 64 1 96 -16 160 -25 88 -70 175
-114 218 -16 16 -26 31 -23 35 10 9 61 -49 101 -115 19 -32 35 -53 35 -47 0
17 -80 137 -101 152 -11 7 -19 17 -19 23 0 20 20 7 59 -38z m-2719 -28 c41 -8
97 -24 126 -36 l51 -21 -18 -38 c-21 -43 -63 -80 -90 -80 -11 0 -19 -4 -19 -8
0 -5 -32 -9 -71 -10 -47 -2 -76 -7 -86 -17 -18 -18 -35 -19 -52 -2 -11 10 -13
9 -8 -5 8 -22 1 -23 -18 -4 -8 7 -11 16 -8 20 4 3 1 6 -5 6 -7 0 -12 -4 -12
-10 0 -5 -7 -10 -16 -10 -9 0 -12 5 -8 11 5 9 -1 10 -20 5 -15 -4 -26 -2 -26
3 0 6 -6 8 -13 5 -8 -3 -20 2 -27 11 -11 13 -10 14 4 9 12 -5 15 -2 10 10 -4
9 -9 14 -12 11 -11 -11 -82 74 -82 99 0 14 -6 26 -12 27 -7 0 3 8 22 16 36 17
216 34 280 27 19 -2 69 -10 110 -19z m263 -145 c3 -11 2 -18 -3 -15 -4 3 -10
14 -13 25 -3 11 -2 18 3 15 4 -3 10 -14 13 -25z m-698 -69 c-7 -6 -75 49 -75
60 0 6 18 -5 39 -23 22 -18 38 -35 36 -37z m126 9 c6 0 7 -4 4 -10 -3 -5 -11
-10 -16 -10 -6 0 -8 4 -5 9 3 5 -4 11 -15 14 -12 3 -18 10 -14 16 4 8 11 6 21
-4 9 -8 20 -15 25 -15z m560 7 c-10 -9 -11 -8 -5 6 3 10 9 15 12 12 3 -3 0
-11 -7 -18z m1436 -13 c-3 -3 -12 -4 -19 -1 -8 3 -5 6 6 6 11 1 17 -2 13 -5z
m-2060 -19 c76 -29 189 -55 241 -55 34 0 51 -4 47 -10 -19 -31 -335 37 -335
71 0 12 3 11 47 -6z m573 -15 c0 -10 -71 -33 -79 -25 -2 3 10 8 28 11 17 4 34
11 37 15 7 12 14 11 14 -1z m1430 -4 c0 -2 -7 -7 -16 -10 -8 -3 -12 -2 -9 4 6
10 25 14 25 6z m-1813 -72 c-3 -3 -12 -4 -19 -1 -8 3 -5 6 6 6 11 1 17 -2 13
-5z m1820 0 c-3 -3 -12 -4 -19 -1 -8 3 -5 6 6 6 11 1 17 -2 13 -5z m-1739 -11
c-10 -2 -28 -2 -40 0 -13 2 -5 4 17 4 22 1 32 -1 23 -4z m65 0 c-7 -2 -21 -2
-30 0 -10 3 -4 5 12 5 17 0 24 -2 18 -5z m2677 -63 c0 -5 -8 -10 -17 -10 -15
0 -16 2 -3 10 19 12 20 12 20 0z m44 -26 c27 -10 20 -44 -9 -44 -18 0 -25 5
-25 18 0 29 9 36 34 26z m-49 -83 c6 -11 -29 -33 -39 -24 -7 7 12 33 25 33 4
0 10 -4 14 -9z m50 -1 c3 -5 -1 -10 -10 -10 -9 0 -13 5 -10 10 3 6 8 10 10 10
2 0 7 -4 10 -10z m-4605 -24 c0 -2 -7 -6 -15 -10 -8 -3 -15 -1 -15 4 0 6 7 10
15 10 8 0 15 -2 15 -4z m4504 -25 c3 -5 -10 -9 -29 -9 -19 0 -35 4 -35 9 0 5
13 9 29 9 17 0 32 -4 35 -9z m61 -1 c-26 -11 -45 -12 -45 -2 0 4 15 8 33 9 26
2 28 0 12 -7z m253 -269 c64 -1 72 -3 72 -20 0 -12 -15 -26 -45 -40 -25 -12
-49 -21 -53 -21 -5 0 -9 -13 -8 -30 1 -25 5 -30 26 -30 23 -1 24 -2 7 -14 -22
-17 -111 -28 -140 -16 l-22 9 22 0 c18 1 22 6 20 30 -2 28 -2 28 -82 34 -83 5
-130 20 -139 43 -7 18 -3 19 84 38 77 16 130 22 165 19 11 -1 53 -2 93 -2z
m132 -32 c0 -5 4 -8 9 -4 5 3 19 -8 31 -25 l21 -30 -28 11 c-35 13 -64 39 -57
50 7 12 24 11 24 -2z m-1795 -130 c41 -6 75 -15 75 -20 0 -4 -9 -14 -20 -22
-20 -14 -20 -14 1 -33 11 -10 25 -27 30 -36 8 -15 6 -17 -15 -16 -13 1 -23 5
-20 9 2 4 -5 18 -16 32 -18 22 -24 24 -57 16 -21 -5 -69 -9 -108 -10 -38 -1
-62 -3 -52 -6 10 -3 16 -10 14 -16 -5 -16 -55 -21 -71 -8 -8 6 -21 9 -30 5 -9
-3 -16 -1 -16 5 0 6 8 11 18 11 14 0 15 2 2 10 -13 9 -13 10 0 10 8 0 0 8 -17
16 -18 9 -33 22 -33 29 0 30 184 43 315 24z m-330 -39 c-3 -5 -11 -10 -16 -10
-6 0 -7 5 -4 10 3 6 11 10 16 10 6 0 7 -4 4 -10z m45 -30 c0 -5 -2 -10 -4 -10
-3 0 -8 5 -11 10 -3 6 -1 10 4 10 6 0 11 -4 11 -10z m-69 -14 c7 4 9 3 5 -4
-10 -17 11 -24 35 -11 13 7 19 7 15 0 -4 -5 2 -15 13 -20 14 -8 20 -8 23 0 3
9 9 9 23 1 11 -6 54 -15 95 -21 l75 -10 -102 3 c-62 2 -108 8 -117 15 -8 7
-29 14 -46 16 -34 5 -60 21 -60 37 0 6 6 5 15 -2 8 -6 20 -8 26 -4z m262 -83
c-24 -2 -62 -2 -85 0 -24 2 -5 4 42 4 47 0 66 -2 43 -4z m2656 -289 c24 -180
35 -383 22 -403 -7 -11 -11 -6 -15 20 -15 89 -45 365 -51 458 -5 92 -4 102 9
88 10 -9 22 -67 35 -163z m-4135 106 c16 -16 -11 -30 -60 -30 -46 0 -66 22
-36 40 20 12 80 6 96 -10z m3544 -37 c-39 -6 -35 -25 4 -21 32 3 32 2 49 -62
24 -89 25 -255 3 -278 -13 -13 -14 -17 -3 -21 8 -3 15 -15 15 -26 1 -11 4 -41
8 -67 l6 -48 -37 -2 -38 -1 37 -4 c28 -3 37 -9 42 -28 12 -49 1 -55 -99 -55
l-93 0 5 -44 c5 -40 4 -44 -21 -48 -31 -6 -36 2 -60 80 -15 52 -15 53 4 47 12
-4 20 -2 20 4 0 6 -6 11 -14 11 -20 0 -29 30 -11 36 8 4 15 14 15 23 0 17 -81
262 -90 271 -3 3 -5 11 -6 18 -3 37 -5 43 -12 38 -5 -3 -8 5 -8 17 1 18 -4 22
-26 19 -34 -3 -43 12 -23 40 l15 23 6 -22 c4 -13 10 -23 14 -23 10 0 -8 82
-21 95 -12 12 -12 -1 2 -28 9 -20 9 -20 -4 -5 -8 10 -17 15 -20 11 -10 -9 -8
10 2 25 10 16 137 29 271 29 52 0 83 -2 68 -4z m-352 -48 c2 -28 -11 -34 -20
-9 -9 24 -7 34 7 34 6 0 13 -11 13 -25z m-1131 -6 c10 -16 -1 -22 -53 -31 -48
-7 -41 -7 246 9 106 5 122 4 117 -9 -4 -9 0 -15 9 -15 8 0 13 4 10 9 -3 4 2 8
10 8 9 0 16 5 16 10 0 6 6 10 13 10 13 0 41 -47 149 -255 136 -261 170 -334
175 -378 5 -41 4 -44 -18 -43 -17 1 -33 15 -55 48 -17 26 -34 45 -37 42 -3 -3
-16 0 -28 7 -17 9 -24 9 -27 0 -2 -6 -11 -11 -20 -11 -14 0 -14 2 -3 9 10 6 6
11 -15 19 -16 6 -23 11 -15 11 10 1 11 4 2 15 -9 11 -7 15 11 21 22 7 22 8 -7
15 -28 7 -28 8 13 9 24 0 42 6 42 12 0 8 -15 10 -45 7 -25 -3 -48 -2 -51 3 -3
5 -17 10 -32 10 -24 2 -24 2 -4 6 31 6 17 23 -21 24 l-32 1 30 7 c29 7 29 7 7
15 -13 4 -54 5 -92 1 l-68 -7 33 -66 c19 -36 31 -70 28 -75 -3 -6 -1 -7 5 -3
14 8 22 -6 28 -47 2 -17 8 -33 14 -35 5 -2 10 -16 10 -31 0 -25 -3 -28 -26
-23 -17 3 -38 21 -58 49 l-31 45 -75 -6 c-41 -3 -79 -3 -85 1 -16 12 -85 101
-85 109 0 4 -8 13 -17 20 -19 14 -21 14 124 19 18 0 36 5 40 9 4 5 -31 6 -79
2 -122 -9 -147 6 -33 20 l90 11 -99 2 c-115 1 -119 13 -8 22 l77 6 -86 0 c-47
0 -95 5 -105 11 -18 11 -18 11 1 12 16 1 14 4 -7 12 -16 5 -28 16 -28 24 0 8
-7 14 -15 14 -8 0 -15 4 -15 9 0 5 45 12 100 16 55 4 103 11 105 16 3 4 -17 6
-45 4 -27 -3 -72 -7 -99 -9 -27 -3 -61 0 -75 7 -23 11 -14 13 82 24 l107 12
-113 -5 c-89 -4 -112 -2 -110 8 2 7 23 16 48 19 43 6 42 6 -18 7 -55 2 -65 5
-69 22 -3 11 -9 20 -13 20 -4 0 -26 24 -48 54 l-41 54 37 6 c20 3 64 7 97 7
33 1 47 4 30 6 -64 8 -79 13 -66 26 21 21 255 35 266 16z m710 -2 c-11 -9 -15
-19 -10 -26 5 -9 2 -12 -10 -9 -24 4 -32 28 -10 28 9 0 13 5 10 10 -3 6 4 10
16 10 22 0 22 -1 4 -13z m205 4 c-21 -12 -110 -20 -110 -11 0 12 27 18 80 19
29 0 40 -3 30 -8z m-4229 -11 c10 -6 19 -15 19 -20 0 -14 -97 -12 -106 1 -15
25 49 39 87 19z m3349 0 c0 -5 -2 -10 -4 -10 -3 0 -8 5 -11 10 -3 6 -1 10 4
10 6 0 11 -4 11 -10z m900 -41 c0 -9 -39 -19 -77 -19 -31 0 -41 9 -26 23 8 9
103 5 103 -4z m-1320 -55 c5 -13 7 -30 4 -37 -3 -8 2 -19 10 -26 12 -10 15 -9
13 8 0 11 -5 17 -11 14 -5 -3 -6 -1 -2 5 9 15 26 15 26 0 0 -6 7 -20 16 -30
13 -14 14 -21 5 -32 -10 -12 -8 -22 13 -49 l26 -34 -25 5 c-15 2 -25 0 -25 -7
0 -6 13 -11 28 -11 25 0 39 -14 98 -92 38 -51 72 -91 75 -88 10 8 39 -21 39
-39 -1 -11 -5 -8 -15 9 -8 14 -14 20 -15 14 0 -7 9 -22 20 -35 14 -17 20 -20
20 -9 0 11 6 8 20 -9 25 -29 26 -48 3 -30 -16 13 -17 12 -4 -3 7 -10 17 -16
21 -13 11 7 39 -28 49 -61 5 -16 12 -37 16 -46 6 -14 2 -18 -19 -18 -19 0 -35
12 -63 50 -26 35 -44 50 -61 50 -13 0 -20 4 -17 10 3 6 1 10 -5 10 -7 0 -10 6
-7 14 3 8 -2 16 -15 19 -11 3 -17 10 -13 16 3 6 -1 14 -9 17 -9 3 -16 12 -16
20 0 14 -12 18 -39 15 -7 -2 -10 2 -6 8 3 6 16 12 28 12 12 1 -9 7 -48 14 -38
7 -60 13 -48 14 15 1 21 6 17 15 -4 9 3 16 18 18 13 2 -10 4 -50 5 -56 0 -75
-4 -82 -16 -8 -14 -10 -13 -11 4 -1 14 -4 11 -9 -10 -5 -20 -8 -24 -9 -10 -1
16 -3 17 -11 5 -7 -12 -11 -10 -19 10 l-10 25 -1 -30 c-2 -30 -2 -30 -10 -5
-4 14 -9 18 -10 10 -1 -8 -5 -4 -9 10 -7 23 -9 21 -18 -20 -10 -39 -11 -41
-13 -15 -1 17 -3 37 -5 45 -18 94 -14 231 6 199 6 -10 9 -4 9 19 0 25 4 32 20
32 11 0 20 6 21 13 0 6 4 3 9 -8 8 -19 8 -19 18 5 6 14 11 19 11 13 2 -26 31
-13 31 13 0 14 4 23 10 19 14 -9 12 9 -2 24 -11 10 -9 11 5 5 10 -4 23 -17 27
-30z m1137 22 c-3 -7 0 -19 6 -25 9 -9 8 -11 -5 -6 -10 4 -18 9 -18 10 0 9 13
35 17 35 3 0 3 -6 0 -14z m130 -22 c-3 -3 -12 -4 -19 -1 -8 3 -5 6 6 6 11 1
17 -2 13 -5z m-50 -96 c-3 -8 -6 -5 -6 6 -1 11 2 17 5 13 3 -3 4 -12 1 -19z
m158 -8 c-11 -5 -27 -9 -35 -9 -9 0 -8 4 5 9 11 5 27 9 35 9 9 0 8 -4 -5 -9z
m-1281 -16 c10 -25 -1 -29 -14 -5 -6 12 -7 21 -1 21 5 0 12 -7 15 -16z m1279
-21 c-13 -2 -35 -2 -50 0 -16 2 -5 4 22 4 28 0 40 -2 28 -4z m-113 -38 c0 -5
-5 -3 -10 5 -5 8 -10 20 -10 25 0 6 5 3 10 -5 5 -8 10 -19 10 -25z m-1140 5
c6 -11 7 -20 2 -20 -6 0 -12 9 -15 20 -3 11 -3 20 -1 20 2 0 8 -9 14 -20z
m1290 0 c0 -5 -4 -10 -9 -10 -6 0 -13 5 -16 10 -3 6 1 10 9 10 9 0 16 -4 16
-10z m-46 -8 c3 -5 -11 -9 -32 -10 -27 -1 -33 1 -22 8 19 12 47 13 54 2z
m-1557 -54 c-3 -7 -5 -2 -5 12 0 14 2 19 5 13 2 -7 2 -19 0 -25z m-100 -90
c-2 -24 -4 -7 -4 37 0 44 2 63 4 43 2 -21 2 -57 0 -80z m1573 82 c0 -5 -7 -10
-16 -10 -8 0 -12 5 -9 10 3 6 10 10 16 10 5 0 9 -4 9 -10z m145 -10 c-3 -5
-22 -10 -41 -10 -21 0 -33 4 -29 10 3 6 22 10 41 10 21 0 33 -4 29 -10z m-45
-40 c0 -5 -7 -10 -15 -10 -8 0 -15 5 -15 10 0 6 7 10 15 10 8 0 15 -4 15 -10z
m-84 -16 c17 -14 17 -15 1 -10 -10 3 -23 6 -28 6 -5 0 -9 5 -9 10 0 14 13 12
36 -6z m139 -14 c-3 -5 -24 -10 -46 -10 -21 0 -39 5 -39 10 0 6 21 10 46 10
27 0 43 -4 39 -10z m-1410 -30 l20 -9 -20 0 c-11 0 -27 4 -35 9 -13 9 -13 10
0 9 8 0 24 -4 35 -9z m1440 0 c-3 -5 -26 -10 -51 -10 -28 0 -43 4 -39 10 3 6
26 10 51 10 28 0 43 -4 39 -10z m-1378 -16 c-3 -3 -12 -4 -19 -1 -8 3 -5 6 6
6 11 1 17 -2 13 -5z m1250 -16 c-3 -8 -6 -5 -6 6 -1 11 2 17 5 13 3 -3 4 -12
1 -19z m133 -8 c-20 -13 -83 -13 -75 0 3 6 25 10 48 10 31 0 38 -3 27 -10z
m20 -30 c0 -5 -4 -10 -10 -10 -5 0 -10 5 -10 10 0 6 5 10 10 10 6 0 10 -4 10
-10z m-97 -44 c13 13 7 -12 -5 -25 -11 -11 -10 -13 5 -8 13 5 17 1 16 -21 0
-15 -3 -21 -6 -14 -2 6 -14 12 -25 12 -15 0 -18 -5 -13 -22 5 -19 3 -18 -10 5
-9 15 -13 32 -10 37 3 6 2 10 -3 10 -6 0 -12 7 -16 15 -4 12 0 14 20 11 22 -4
24 -2 19 17 -6 22 -6 22 8 -1 7 -12 16 -19 20 -16z m92 14 c-11 -5 -33 -9 -50
-9 -26 0 -27 2 -10 9 11 5 34 9 50 9 26 0 27 -2 10 -9z m-1480 -49 c-8 -8 -35
22 -35 38 0 12 5 10 20 -9 10 -14 17 -27 15 -29z m-667 -62 c-3 -8 -7 -3 -11
10 -4 17 -3 21 5 13 5 -5 8 -16 6 -23z m72 19 c0 -4 -6 -8 -12 -8 -9 0 -8 -4
2 -10 13 -8 13 -10 -2 -10 -10 0 -16 7 -15 18 1 18 27 27 27 10z m-659 -67
c-8 -5 -20 -7 -27 -4 -8 3 -14 -6 -17 -24 -4 -27 -4 -27 -6 5 -1 30 1 32 32
32 22 0 28 -3 18 -9z m40 -59 c-6 -2 -11 -8 -11 -13 0 -6 5 -7 10 -4 6 3 10 1
10 -4 0 -17 -30 -13 -36 4 -4 8 -3 27 1 43 7 25 8 25 15 7 7 -17 9 -16 11 10
2 29 2 29 6 -5 3 -19 0 -36 -6 -38z m-51 3 c0 -14 -4 -25 -10 -25 -5 0 -10 11
-10 25 0 14 5 25 10 25 6 0 10 -11 10 -25z m1776 -12 c17 -17 15 -18 -30 -25
-26 -4 -58 -3 -69 2 -21 8 -21 9 3 11 17 1 20 3 8 6 -34 9 -18 23 26 23 29 0
51 -6 62 -17z m-1773 -30 c-7 -2 -21 -2 -30 0 -10 3 -4 5 12 5 17 0 24 -2 18
-5z m3782 -53 c-1 -8 3 -18 9 -22 7 -5 12 -54 14 -130 2 -85 7 -133 18 -156
17 -37 13 -62 -11 -62 -12 0 -15 13 -15 63 0 34 -4 87 -9 117 -14 82 -23 249
-12 225 4 -11 7 -27 6 -35z m-1861 8 c3 -18 8 -132 11 -253 3 -121 11 -232 17
-247 9 -25 14 -27 49 -22 34 6 41 3 66 -24 51 -56 85 -101 88 -119 2 -10 5
-20 6 -23 1 -3 3 -18 4 -35 1 -16 2 -44 3 -62 l2 -31 175 -2 175 -1 0 31 c0
19 4 29 10 25 6 -4 8 -10 5 -15 -3 -4 -2 -15 1 -24 8 -20 101 -20 122 1 10 9
29 13 58 10 32 -3 44 0 44 10 0 15 2 15 24 7 9 -3 16 -12 16 -20 0 -8 5 -14
10 -14 6 0 10 5 10 12 0 9 3 9 12 0 8 -8 49 -12 120 -12 87 0 108 3 108 14 0
22 19 30 35 16 12 -10 15 -9 14 6 0 11 -4 28 -8 38 -7 19 -8 19 -28 -1 l-20
-20 -7 131 c-3 72 -9 169 -13 216 -3 47 -3 82 1 79 8 -7 14 -47 15 -91 1 -27
2 -28 61 -28 50 0 60 3 61 18 0 10 3 12 6 5 2 -7 20 -13 39 -13 31 0 33 2 28
28 -3 15 -6 52 -7 82 -2 45 1 55 16 58 15 3 17 -5 18 -65 0 -66 4 -137 11
-198 2 -23 -1 -29 -13 -27 -13 2 -15 -10 -15 -70 1 -73 1 -73 -25 -70 -21 2
-28 -3 -33 -22 -7 -28 3 -86 14 -86 5 0 3 16 -3 35 -14 48 0 63 42 42 22 -11
31 -12 32 -4 1 15 19 -46 26 -90 l5 -33 -473 -2 c-800 -5 -832 -4 -827 19 2
12 13 17 33 17 21 0 32 6 38 19 10 27 1 33 -19 13 -9 -10 -23 -15 -30 -12 -20
8 -30 -20 -37 -96 -3 -36 -13 -83 -22 -103 -12 -29 -15 -78 -15 -218 l0 -180
-132 6 c-73 4 -145 7 -160 7 -16 0 -28 6 -28 13 0 8 -13 13 -37 12 -21 0 -43
5 -50 11 -9 8 -14 83 -18 250 -12 521 -14 547 -27 555 -10 7 -10 9 0 9 9 0 12
17 10 60 -2 54 -5 61 -25 66 -13 4 -23 10 -23 15 0 5 11 4 25 -1 14 -5 25 -6
25 -1 0 5 -11 12 -25 15 -23 6 -25 12 -26 59 0 28 -2 63 -4 77 -7 42 -6 158 0
194 6 28 10 33 28 29 21 -4 21 -4 -3 17 l-25 22 25 -5 c14 -2 32 -7 40 -9 8
-3 12 -3 8 -1 -5 3 -8 9 -8 13 0 10 72 15 257 18 l132 2 5 -32z m-2040 -40
c-3 -4 -33 -7 -67 -7 -55 2 -58 3 -22 8 58 9 95 9 89 -1z m49 5 c-7 -2 -19 -2
-25 0 -7 3 -2 5 12 5 14 0 19 -2 13 -5z m-1628 -13 c4 -6 11 -8 16 -5 5 3 6
-1 3 -9 -3 -9 -10 -16 -14 -16 -20 0 -40 13 -40 26 0 16 26 19 35 4z m-81 -17
c6 -15 -8 -32 -27 -33 -15 0 -20 32 -6 41 20 13 26 11 33 -8z m142 -10 c-10
-10 -19 5 -10 18 6 11 8 11 12 0 2 -7 1 -15 -2 -18z m2057 6 c14 -6 31 -22 38
-36 7 -14 25 -35 40 -47 36 -30 43 -47 64 -140 17 -81 14 -95 -22 -96 -6 0
-19 -3 -28 -6 -11 -5 -16 -2 -14 7 2 8 -3 24 -10 37 -7 13 -10 30 -7 37 2 7
-4 23 -15 36 -10 12 -19 19 -19 14 0 -4 -8 -1 -17 6 -14 12 -16 12 -8 0 4 -8
12 -31 16 -50 4 -20 10 -46 13 -59 3 -12 1 -20 -4 -17 -5 3 -12 26 -16 50 -7
48 -33 129 -34 106 0 -8 -3 -11 -7 -7 -4 3 -13 -4 -20 -16 -12 -22 -12 -22
-13 -2 0 11 -7 29 -16 40 -15 19 -16 19 -9 -1 16 -46 16 -60 0 -32 -8 15 -17
27 -19 27 -7 0 31 -126 48 -162 26 -55 41 -64 71 -44 31 20 30 21 32 -12 2
-26 -1 -27 -48 -30 -45 -3 -53 0 -78 27 -16 17 -32 47 -36 67 -6 34 -7 35 -21
18 -14 -18 -14 -16 -9 14 5 21 3 32 -5 32 -7 0 -10 -6 -7 -14 3 -8 -1 -17 -9
-20 -12 -5 -12 -9 -2 -25 7 -11 16 -17 21 -14 6 3 8 -5 5 -20 -3 -15 -2 -25 1
-23 13 7 44 -11 47 -27 2 -15 -2 -14 -37 3 -21 11 -40 26 -41 33 0 6 -2 17 -2
22 -1 6 -5 16 -10 23 -4 7 -3 19 4 27 6 8 10 24 8 37 -2 15 2 23 12 23 9 0 16
11 18 28 4 33 -10 35 -32 5 -15 -20 -16 -21 -11 -3 20 58 23 75 15 75 -5 0
-13 -15 -18 -32 l-9 -33 -8 28 c-11 40 9 70 65 101 26 14 53 33 60 41 15 18
49 19 83 4z m222 -27 c-3 -3 -11 0 -18 7 -9 10 -8 11 6 5 10 -3 15 -9 12 -12z
m-695 -61 c0 -33 -4 -62 -9 -65 -5 -3 -7 -14 -4 -24 3 -15 -1 -18 -19 -17 -15
1 -23 8 -23 21 0 28 -33 30 -37 2 -4 -27 -38 -38 -38 -12 0 9 -6 22 -14 28
-10 8 -13 26 -9 69 l5 57 74 0 74 0 0 -59z m-1569 -26 c5 4 9 1 9 -4 0 -6 -10
-11 -22 -11 -13 0 -32 -3 -44 -6 -15 -4 -23 1 -32 21 -7 14 -9 24 -5 22 5 -3
17 -1 28 3 14 5 26 2 38 -11 10 -11 22 -17 28 -14z m449 16 c0 -5 -7 -11 -14
-14 -10 -4 -13 -1 -9 9 6 15 23 19 23 5z m-680 -27 c12 -12 5 -14 -48 -14 -51
0 -60 3 -55 16 3 8 12 13 19 10 8 -3 14 -1 14 5 0 13 51 0 70 -17z m2065 -116
c-15 -35 -19 -21 -9 32 5 24 9 29 15 17 6 -9 3 -28 -6 -49z m2582 0 c-3 -8 -6
-5 -6 6 -1 11 2 17 5 13 3 -3 4 -12 1 -19z m573 -14 c0 -14 -4 -22 -10 -19 -5
3 -10 17 -10 31 0 14 4 22 10 19 6 -3 10 -17 10 -31z m-3420 9 c0 -10 -3 -29
-7 -41 -7 -28 -22 -11 -24 28 -2 30 -17 -30 -26 -97 -4 -36 -9 -43 -27 -43
-19 0 -22 4 -18 30 2 17 -1 51 -8 77 l-13 46 -13 -49 c-7 -27 -13 -61 -14 -76
0 -16 -5 -28 -11 -28 -8 0 -9 11 -5 31 3 17 6 56 6 85 l0 54 80 0 c70 0 80 -2
80 -17z m3236 -49 c-3 -9 -6 -23 -7 -32 0 -13 -3 -11 -11 6 -8 15 -20 22 -40
22 -17 0 -27 4 -23 10 3 6 24 10 47 10 32 0 39 -3 34 -16z m-411 -4 c8 -13
-40 -25 -102 -24 -29 0 -53 -4 -53 -8 0 -4 -4 -8 -10 -8 -5 0 -10 9 -10 19 0
22 20 27 112 30 31 0 60 -3 63 -9z m202 -37 c-3 -10 -5 -2 -5 17 0 19 2 27 5
18 2 -10 2 -26 0 -35z m403 -98 c1 -22 1 -53 -1 -70 -3 -42 -17 87 -17 160 l0
60 9 -55 c4 -30 8 -73 9 -95z m-463 103 c-3 -7 -5 -2 -5 12 0 14 2 19 5 13 2
-7 2 -19 0 -25z m-3900 -14 c-3 -3 -12 -4 -19 -1 -8 3 -5 6 6 6 11 1 17 -2 13
-5z m2486 -36 c8 -27 3 -32 -20 -24 -15 6 -15 8 -3 17 13 8 13 10 0 19 -13 8
-13 10 1 10 9 0 19 -10 22 -22z m-1388 -8 c3 -5 1 -10 -4 -10 -6 0 -11 5 -11
10 0 6 2 10 4 10 3 0 8 -4 11 -10z m-1905 -41 c21 -6 50 -22 66 -35 23 -21 30
-22 43 -11 33 29 44 30 25 4 -10 -15 -24 -27 -31 -27 -7 0 -10 -7 -7 -17 4
-10 -5 -5 -20 12 -14 17 -25 33 -26 36 0 8 -48 29 -65 29 -11 0 -15 -12 -15
-40 0 -44 -9 -48 -79 -34 -27 6 -31 10 -31 40 0 25 -4 34 -17 35 -15 0 -15 2
2 9 29 12 112 12 155 -1z m1728 -61 c-2 -53 -7 -67 -29 -88 -14 -14 -36 -25
-49 -26 -22 -1 -22 0 -5 13 14 9 16 16 8 24 -15 15 -33 3 -33 -22 0 -10 -4
-19 -10 -19 -5 0 -10 9 -10 20 0 11 -7 20 -15 20 -12 0 -15 14 -15 63 0 35 3
67 7 70 3 4 40 7 80 7 l74 0 -3 -62z m-1548 44 c0 -5 -7 -17 -15 -28 -14 -18
-14 -17 -4 9 12 27 19 34 19 19z m305 -22 c10 -11 16 -20 13 -20 -3 0 -13 9
-23 20 -10 11 -16 20 -13 20 3 0 13 -9 23 -20z m1788 5 c72 -12 34 -47 -41
-38 -40 4 -52 10 -52 23 0 23 9 30 34 25 12 -2 38 -7 59 -10z m-2028 -25 c3
-6 -1 -7 -9 -4 -18 7 -21 14 -7 14 6 0 13 -4 16 -10z m220 0 c17 -7 15 -9 -12
-9 -18 -1 -33 4 -33 9 0 12 17 12 45 0z m944 -38 c6 -9 11 -13 11 -8 0 14 30
-15 30 -30 0 -9 -11 -14 -29 -14 -41 0 -55 -21 -45 -67 4 -21 8 -44 7 -50 0
-7 4 -10 9 -7 6 4 9 1 6 -7 -3 -8 1 -20 9 -27 17 -18 17 -36 -1 -29 -15 6 -30
-19 -20 -34 3 -5 1 -9 -5 -9 -5 0 -9 -21 -10 -47 0 -27 -2 -64 -6 -83 -3 -19
-8 -52 -9 -73 -2 -21 -7 -41 -11 -45 -8 -7 2 396 11 486 5 38 11 52 23 53 14
1 13 2 -1 6 -10 2 -18 9 -18 14 0 14 37 -8 49 -29z m3670 -79 c1 -13 -3 -23
-9 -23 -6 0 -10 27 -9 63 1 59 2 60 10 22 4 -22 8 -50 8 -62z m98 5 c-3 -7 -5
-2 -5 12 0 14 2 19 5 13 2 -7 2 -19 0 -25z m-3447 7 c0 -9 -9 -15 -21 -15 -18
0 -19 2 -9 15 7 8 16 15 21 15 5 0 9 -7 9 -15z m-325 -83 c-9 -9 -26 51 -19
67 5 11 9 4 16 -23 4 -21 6 -41 3 -44z m215 28 c0 -5 13 -10 29 -10 17 0 33
-4 36 -10 3 -5 0 -10 -9 -10 -10 0 -14 -12 -14 -47 0 -27 -1 -59 -2 -73 l-2
-25 -7 25 c-6 21 -13 25 -38 23 -28 -3 -33 1 -43 33 -7 19 -9 51 -6 70 6 28
11 34 31 34 14 0 25 -4 25 -10z m100 -20 c0 -5 -4 -10 -10 -10 -5 0 -10 5 -10
10 0 6 5 10 10 10 6 0 10 -4 10 -10z m-290 -120 c0 -5 -4 -10 -10 -10 -5 0
-10 5 -10 10 0 6 5 10 10 10 6 0 10 -4 10 -10z m167 -22 c-3 -8 -6 -5 -6 6 -1
11 2 17 5 13 3 -3 4 -12 1 -19z m-179 -83 c-1 -13 -10 -34 -20 -47 -18 -23
-18 -23 -7 12 6 19 12 41 15 48 6 21 14 13 12 -13z m237 15 c4 -6 -7 -10 -25
-10 -18 0 -29 4 -25 10 3 6 15 10 25 10 10 0 22 -4 25 -10z m-3 -54 c-4 -33
-18 -50 -44 -54 -14 -2 -18 4 -18 27 0 48 10 62 39 59 22 -3 26 -7 23 -32z
m-24 -153 c-10 -2 -26 -2 -35 0 -10 3 -2 5 17 5 19 0 27 -2 18 -5z m1525 -20
c-7 -2 -21 -2 -30 0 -10 3 -4 5 12 5 17 0 24 -2 18 -5z m-1713 -13 c0 -7 -19
-8 -52 -4 -71 9 -73 14 -5 14 33 0 57 -4 57 -10z m1659 6 c-11 -9 -69 -14 -69
-6 0 6 17 10 37 10 20 0 34 -2 32 -4z m1058 -48 c-2 -13 -4 -5 -4 17 -1 22 1
32 4 23 2 -10 2 -28 0 -40z m-4161 15 c-10 -10 -19 5 -10 18 6 11 8 11 12 0 2
-7 1 -15 -2 -18z m1637 20 c-13 -2 -33 -2 -45 0 -13 2 -3 4 22 4 25 0 35 -2
23 -4z m3000 -108 c3 -69 3 -85 -3 -50 -8 51 -13 162 -6 154 2 -2 6 -49 9
-104z m-306 18 c-2 -16 -4 -5 -4 22 0 28 2 40 4 28 2 -13 2 -35 0 -50z m-2947
47 c0 -5 -10 -14 -21 -21 -17 -9 -23 -8 -30 2 -6 10 -1 16 19 20 15 4 28 7 30
8 1 0 2 -3 2 -9z m-173 -16 c-3 -3 -12 -4 -19 -1 -8 3 -5 6 6 6 11 1 17 -2 13
-5z m1293 -18 c0 -2 -11 -6 -25 -8 -13 -3 -22 -1 -19 3 5 9 44 13 44 5z m1937
-93 c-2 -21 -4 -6 -4 32 0 39 2 55 4 38 2 -18 2 -50 0 -70z m-2122 67 c-16 -4
-52 -7 -80 -7 l-50 0 55 7 c30 4 66 7 80 7 22 1 21 0 -5 -7z m1852 -72 c-2
-18 -4 -6 -4 27 0 33 2 48 4 33 2 -15 2 -42 0 -60z m-3857 57 c0 -8 -4 -15
-10 -15 -5 0 -10 7 -10 15 0 8 5 15 10 15 6 0 10 -7 10 -15z m4297 9 c-3 -3
-12 -4 -19 -1 -8 3 -5 6 6 6 11 1 17 -2 13 -5z m-270 -86 c-2 -13 -4 -3 -4 22
0 25 2 35 4 23 2 -13 2 -33 0 -45z m-2801 -22 c-8 -33 -36 -35 -36 -3 0 28 20
51 33 38 5 -5 7 -21 3 -35z m-276 -20 c0 -27 -24 -51 -40 -41 -7 4 -9 18 -5
33 12 47 45 52 45 8z m2163 7 c-7 -2 -19 -2 -25 0 -7 3 -2 5 12 5 14 0 19 -2
13 -5z m90 0 c-13 -2 -33 -2 -45 0 -13 2 -3 4 22 4 25 0 35 -2 23 -4z m237 -2
c0 -5 -9 -7 -20 -4 -11 3 -20 7 -20 9 0 2 9 4 20 4 11 0 20 -4 20 -9z m1118
-8 c-16 -2 -40 -2 -55 0 -16 2 -3 4 27 4 30 0 43 -2 28 -4z m272 -4 c0 -11
-226 -7 -237 5 -4 3 48 6 115 6 81 0 122 -4 122 -11z m-960 -40 c-8 -14 -21
-18 -56 -17 -47 1 -52 11 -6 14 14 0 31 8 36 17 14 22 38 10 26 -14z m166 23
c-5 -9 88 -7 111 3 13 4 14 3 4 -9 -7 -9 -9 -21 -5 -28 21 -34 -1 -83 -25 -54
-14 17 -76 6 -76 -13 0 -8 -7 -15 -16 -16 -12 -2 -15 3 -11 17 4 17 1 19 -16
14 -11 -4 -23 -3 -26 2 -5 9 -92 7 -117 -3 -10 -3 -20 -2 -24 4 -3 6 -2 11 2
11 5 0 20 10 34 23 32 28 65 47 81 46 7 0 4 -4 -7 -9 -19 -8 -19 -9 3 -9 12
-1 22 4 22 9 0 6 9 10 20 10 22 0 27 -15 8 -23 -8 -3 -6 -6 5 -6 11 -1 17 6
17 19 0 11 5 20 11 20 5 0 8 -3 5 -8z m304 -27 c0 -23 -5 -35 -14 -35 -7 0
-16 -9 -19 -21 -3 -12 -10 -18 -15 -15 -13 8 -4 42 14 57 8 6 14 20 14 30 0
11 5 19 10 19 6 0 10 -16 10 -35z m-145 15 c-3 -5 -13 -10 -21 -10 -8 0 -12 5
-9 10 3 6 13 10 21 10 8 0 12 -4 9 -10z m42 -8 c-10 -10 -17 -28 -17 -39 0
-12 -7 -24 -16 -27 -38 -14 -45 -1 -16 30 10 10 21 27 25 37 3 9 14 17 23 17
16 0 16 -1 1 -18z m-552 -2 c-3 -5 -12 -10 -18 -10 -7 0 -6 4 3 10 19 12 23
12 15 0z m-2455 -4 c0 -21 -23 -56 -36 -56 -11 0 -14 5 -10 16 3 9 6 22 6 30
0 8 9 14 20 14 11 0 20 -2 20 -4z m2500 -6 c-20 -13 -43 -13 -35 0 3 6 16 10
28 10 18 0 19 -2 7 -10z m-2776 -45 c-7 -16 -64 -21 -64 -6 0 12 18 19 47 20
16 1 21 -3 17 -14z m2853 9 c-3 -3 -12 -4 -19 -1 -8 3 -5 6 6 6 11 1 17 -2 13
-5z m1097 -30 c3 -8 2 -12 -4 -9 -6 3 -10 10 -10 16 0 14 7 11 14 -7z m-3410
-20 c7 -19 -11 -57 -25 -49 -5 4 -9 16 -9 29 0 36 23 50 34 20z m2110 5 c-12
-20 -72 -39 -95 -31 -17 7 -19 11 -9 17 8 5 15 4 17 -2 4 -12 43 -5 43 7 0 5
10 11 23 13 12 2 23 5 25 6 2 0 0 -4 -4 -10z m86 1 c0 -5 9 -10 21 -10 11 0
17 5 14 10 -3 6 4 10 17 10 l22 0 -24 -17 c-28 -20 -42 -23 -51 -10 -7 10 -48
-8 -62 -27 -6 -7 -7 -5 -4 6 3 9 1 19 -6 22 -7 2 0 5 15 5 15 1 30 6 33 11 3
6 10 10 16 10 5 0 9 -4 9 -10z m190 -10 c-11 -11 -25 -20 -30 -20 -6 0 -5 8 2
20 7 11 21 20 30 20 16 0 16 -2 -2 -20z m100 10 c-20 -13 -40 -13 -40 0 0 6
12 10 28 10 21 0 24 -2 12 -10z m200 -15 c0 -8 -4 -15 -8 -15 -5 0 -14 -17
-20 -39 -10 -32 -17 -40 -42 -43 -17 -3 -30 0 -30 5 0 5 -13 6 -29 2 -17 -3
-32 -2 -36 4 -3 6 -1 11 4 11 6 0 11 7 11 16 0 10 6 14 15 11 8 -4 17 -1 21 5
5 7 2 8 -7 4 -8 -4 -6 -1 3 7 10 8 15 17 11 20 -3 4 -1 7 6 7 7 0 9 5 6 10 -4
6 13 10 44 10 39 0 51 -4 51 -15z m-230 -12 c-1 -16 -66 -81 -87 -87 -34 -11
-28 11 7 29 17 9 30 20 30 25 0 6 7 10 15 10 8 0 14 3 14 8 -3 14 1 22 11 22
6 0 10 -3 10 -7z m55 -31 c-1 -1 -10 0 -19 4 -13 5 -14 9 -4 21 10 13 13 13
19 -4 3 -10 5 -19 4 -21z m-2775 -11 c0 -27 -20 -47 -34 -34 -8 8 -8 48 1 56
16 17 33 5 33 -22z m2610 13 c0 -8 -19 -13 -24 -6 -3 5 1 9 9 9 8 0 15 -2 15
-3z m1059 -46 c1 -5 -3 -8 -9 -8 -5 0 -10 12 -9 28 0 24 1 25 9 7 5 -11 9 -23
9 -27z m-932 13 c1 -13 -7 -21 -25 -24 -36 -7 -38 -3 -13 22 26 26 36 27 38 2z
m-240 -6 c0 -9 -6 -14 -13 -11 -7 3 -14 0 -16 -6 -3 -7 -10 -8 -17 -4 -9 6 -8
11 6 22 24 18 40 17 40 -1z m74 0 c-2 -13 -49 -26 -56 -15 -7 11 24 22 37 13
7 -4 8 -1 3 7 -5 8 -3 11 4 9 7 -3 12 -9 12 -14z m-2299 -32 c-10 -60 -52 -75
-52 -20 0 39 6 47 35 47 19 0 21 -4 17 -27z m2071 0 c9 -14 -19 -32 -34 -22
-12 8 -12 10 1 19 18 12 27 12 33 3z m521 -28 c-2 -5 -15 -11 -28 -11 -19 -1
-22 1 -14 10 14 14 47 16 42 1z m787 -3 c4 -4 10 -21 13 -38 7 -29 5 -31 -18
-27 -39 8 -34 -25 7 -42 31 -14 31 -14 6 -15 -15 0 -32 -7 -39 -15 -10 -12
-38 -15 -130 -15 l-118 0 -6 33 c-3 17 -8 46 -10 62 -2 17 -7 38 -11 47 -5 14
0 17 32 20 60 5 267 -3 274 -10z m49 -17 c0 -13 -4 -27 -10 -30 -6 -4 -10 8
-10 30 0 22 4 34 10 30 6 -3 10 -17 10 -30z m-3690 -5 c0 -6 -7 -13 -15 -16
-20 -8 -48 3 -40 16 8 13 55 13 55 0z m535 -20 c7 -21 -9 -50 -26 -50 -10 0
-12 53 -2 63 12 12 22 7 28 -13z m2198 -10 c4 0 5 5 2 10 -3 6 -2 10 4 10 5 0
9 -9 8 -20 -1 -11 -4 -20 -8 -20 -20 0 -39 14 -39 28 0 12 3 13 12 4 7 -7 16
-12 21 -12z m-1833 0 c0 -5 -12 -10 -27 -10 -22 0 -25 2 -13 10 20 13 40 13
40 0z m2227 4 c-3 -3 -12 -4 -19 -1 -8 3 -5 6 6 6 11 1 17 -2 13 -5z m-1747
-25 c-12 -8 -9 -9 10 -5 14 3 39 2 55 -3 25 -7 19 -9 -38 -12 -39 -2 -69 0
-71 6 -3 6 -8 5 -13 -2 -7 -9 -26 -9 -83 1 l-75 14 90 4 c50 2 101 5 115 6 20
1 22 0 10 -9z m-573 -5 c-3 -3 -12 -4 -19 -1 -8 3 -5 6 6 6 11 1 17 -2 13 -5z
m-517 -44 c0 -26 -21 -46 -34 -33 -10 10 -7 48 6 61 16 16 28 5 28 -28z m2883
-17 c-7 -2 -19 -2 -25 0 -7 3 -2 5 12 5 14 0 19 -2 13 -5z m54 1 c-3 -3 -12
-4 -19 -1 -8 3 -5 6 6 6 11 1 17 -2 13 -5z m-2693 -10 c9 -3 13 -10 10 -15 -3
-5 -7 -35 -9 -66 -7 -90 -16 -133 -28 -133 -8 0 -13 29 -15 88 -3 124 2 141
42 126z m2723 -10 c-3 -3 -12 -4 -19 -1 -8 3 -5 6 6 6 11 1 17 -2 13 -5z m41
-51 c3 -32 3 -32 -28 -20 -25 9 -27 13 -13 18 10 4 21 5 26 2 14 -8 7 10 -10
24 -17 13 -17 14 2 11 14 -2 21 -12 23 -35z m-75 0 c-7 -2 -21 -2 -30 0 -10 3
-4 5 12 5 17 0 24 -2 18 -5z m-2932 -33 c3 -25 2 -50 -5 -115 -10 -89 -15
-110 -27 -98 -10 10 -19 188 -11 211 5 14 42 16 43 2z m1174 0 c-3 -5 -17 -10
-31 -10 -15 0 -24 -6 -24 -15 0 -9 -9 -15 -25 -15 -14 0 -25 5 -25 10 0 6 8
10 19 10 10 0 24 7 31 15 14 17 65 21 55 5z m-177 -42 c-36 -24 -109 -58 -102
-47 5 9 2 10 -9 6 -10 -3 -17 -4 -17 -2 0 10 116 62 128 57 11 -4 11 -6 0 -14z
m62 -18 c0 -5 -11 -12 -25 -16 -13 -3 -29 -12 -36 -20 -6 -8 -25 -14 -42 -14
-37 0 -30 10 13 19 17 3 30 10 30 15 -1 5 4 13 12 17 18 12 48 11 48 -1z
m-133 -76 c-3 -3 -22 -9 -42 -14 -30 -7 -34 -6 -24 6 6 8 25 14 42 14 17 0 28
-3 24 -6z m-1243 -39 c4 -14 7 -28 7 -32 1 -5 5 -18 10 -30 5 -14 4 -23 -4
-26 -7 -3 15 -17 48 -31 60 -27 85 -40 117 -60 14 -8 21 -6 33 9 9 11 18 16
21 10 2 -5 30 -9 61 -8 l58 2 -59 -13 c-33 -8 -66 -11 -74 -8 -10 3 -13 1 -8
-6 8 -13 -150 42 -170 59 -16 13 -27 -17 -14 -41 8 -15 5 -20 -18 -28 -34 -11
-52 -5 -52 18 0 10 -5 22 -10 25 -6 4 -7 13 -1 24 20 36 -1 44 -93 36 -88 -7
-163 -22 -119 -24 12 -1 23 -4 25 -9 2 -4 26 -22 53 -41 55 -36 49 -36 -36 2
-31 14 -60 23 -63 20 -3 -4 -12 1 -19 10 -6 8 -25 17 -42 19 -16 2 -30 9 -30
16 0 7 -9 18 -20 25 -55 32 -85 52 -85 57 0 3 15 5 33 5 38 1 188 12 202 16
17 4 65 -13 65 -23 0 -5 4 -7 9 -3 5 3 33 -4 61 -15 65 -26 65 -26 66 10 2 29
19 60 34 60 4 0 11 -11 14 -25z m1166 -5 c-20 -13 -63 -13 -55 0 3 6 21 10 38
10 24 0 28 -3 17 -10z m-913 -56 c-3 -3 -12 -4 -19 -1 -8 3 -5 6 6 6 11 1 17
-2 13 -5z m43 -10 c0 -14 -3 -14 -15 -4 -8 7 -15 14 -15 16 0 2 7 4 15 4 8 0
15 -7 15 -16z m-940 -35 c14 -11 19 -18 12 -14 -57 30 -65 35 -52 35 8 0 26
-10 40 -21z m3714 0 c-7 -12 -41 -12 -48 0 -4 5 0 11 6 14 19 6 49 -4 42 -14z
m-2682 -8 c2 -4 23 -18 48 -29 34 -15 39 -21 23 -21 -13 -1 -23 3 -23 8 0 5
-10 11 -22 14 -13 4 -32 13 -43 21 -17 13 -17 15 -3 16 9 0 18 -4 20 -9z
m-1287 -41 c3 -6 -1 -7 -9 -4 -18 7 -21 14 -7 14 6 0 13 -4 16 -10z m3945 6
c0 -2 -9 -6 -20 -9 -11 -3 -20 -1 -20 4 0 5 9 9 20 9 11 0 20 -2 20 -4z
m-3363 -60 c-2 -62 -7 -70 -36 -61 -16 5 -19 11 -12 22 4 9 6 24 4 34 -3 11 0
19 7 19 9 0 7 7 -5 20 -18 20 -17 20 13 20 l30 0 -1 -54z m-196 24 l24 -21
-32 16 c-32 15 -42 25 -24 25 5 0 19 -9 32 -20z m120 -77 c13 -16 12 -17 -3
-4 -17 13 -22 21 -14 21 2 0 10 -8 17 -17z m102 -55 c10 -10 13 -18 7 -18 -5
0 -10 -7 -10 -15 0 -8 -4 -15 -10 -15 -5 0 -10 -16 -10 -35 0 -23 -6 -38 -16
-42 -31 -11 -35 7 -32 134 1 30 2 31 27 20 14 -6 34 -19 44 -29z m2680 5 c-7
-2 -19 -2 -25 0 -7 3 -2 5 12 5 14 0 19 -2 13 -5z m-110 -80 c-7 -2 -19 -2
-25 0 -7 3 -2 5 12 5 14 0 19 -2 13 -5z m812 -33 c4 -6 11 -25 15 -42 l9 -31
-45 6 c-48 5 -77 22 -58 35 6 4 13 15 17 25 7 19 52 24 62 7z m879 -190 l7
-35 -21 24 c-20 23 -27 61 -13 75 8 8 17 -14 27 -64z m-1754 6 c0 -3 -4 -8
-10 -11 -5 -3 -10 -1 -10 4 0 6 5 11 10 11 6 0 10 -2 10 -4z m-40 -56 c0 -5
-10 -10 -22 -9 -22 0 -22 1 -3 9 11 5 21 9 23 9 1 1 2 -3 2 -9z m-3903 -56
c-3 -3 -12 -4 -19 -1 -8 3 -5 6 6 6 11 1 17 -2 13 -5z m193 -14 c-11 -7 -3
-10 30 -11 25 0 39 -3 32 -6 -7 -3 -39 -2 -70 3 -51 7 -54 8 -27 15 44 10 52
10 35 -1z m47 4 c-3 -3 -12 -4 -19 -1 -8 3 -5 6 6 6 11 1 17 -2 13 -5z m-194
-29 c26 -3 47 -11 47 -17 0 -7 -27 -9 -84 -6 -95 6 -132 20 -76 28 19 3 42 5
50 3 8 -1 36 -5 63 -8z m317 -1 c0 -2 -16 -4 -35 -4 -19 0 -35 4 -35 8 0 4 16
6 35 4 19 -2 35 -6 35 -8z m53 9 c-7 -2 -21 -2 -30 0 -10 3 -4 5 12 5 17 0 24
-2 18 -5z m57 -14 c-25 -6 -12 -7 45 -4 53 2 68 0 45 -5 l-35 -7 39 -2 c22 0
36 -4 33 -7 -4 -4 -57 -1 -119 7 -90 11 -106 15 -78 20 19 3 51 6 70 6 l35 0
-35 -8z m173 -16 c-7 -2 -19 -2 -25 0 -7 3 -2 5 12 5 14 0 19 -2 13 -5z m94
-9 c-3 -3 -12 -4 -19 -1 -8 3 -5 6 6 6 11 1 17 -2 13 -5z m-90 -10 c-3 -3 -12
-4 -19 -1 -8 3 -5 6 6 6 11 1 17 -2 13 -5z"/>
<path d="M3724 5248 l-29 -33 33 29 c30 28 37 36 29 36 -2 0 -16 -15 -33 -32z"/>
<path d="M3768 5243 c7 -3 16 -2 19 1 4 3 -2 6 -13 5 -11 0 -14 -3 -6 -6z"/>
<path d="M3640 5134 c-12 -19 -21 -37 -18 -39 2 -2 14 14 26 36 28 49 22 52
-8 3z"/>
<path d="M3607 5073 c-4 -3 -7 -13 -7 -22 1 -13 3 -13 11 2 11 19 8 33 -4 20z"/>
<path d="M3770 5041 c0 -6 4 -12 8 -15 5 -3 9 1 9 9 0 8 -4 15 -9 15 -4 0 -8
-4 -8 -9z"/>
<path d="M3576 4978 c-3 -13 -5 -32 -5 -43 1 -11 5 -2 10 19 10 42 6 62 -5 24z"/>
<path d="M3795 4939 c-9 -14 0 -22 18 -17 13 2 13 5 2 15 -10 9 -16 9 -20 2z"/>
<path d="M3792 4866 l1 -40 15 31 c8 17 24 36 36 42 18 9 16 10 -16 9 -37 -2
-38 -3 -36 -42z"/>
<path d="M3893 4903 c9 -2 23 -2 30 0 6 3 -1 5 -18 5 -16 0 -22 -2 -12 -5z"/>
<path d="M3563 4845 c0 -27 2 -38 4 -22 2 15 2 37 0 50 -2 12 -4 0 -4 -28z"/>
<path d="M3717 4854 c-16 -16 -6 -35 16 -32 12 2 22 10 22 18 0 16 -26 25 -38
14z m33 -14 c0 -5 -7 -10 -15 -10 -8 0 -15 5 -15 10 0 6 7 10 15 10 8 0 15 -4
15 -10z"/>
<path d="M3805 4800 c-13 -6 -15 -9 -5 -9 8 0 22 4 30 9 18 12 2 12 -25 0z"/>
<path d="M3572 4745 c0 -16 2 -22 5 -12 2 9 2 23 0 30 -3 6 -5 -1 -5 -18z"/>
<path d="M3580 4703 c0 -16 31 -95 36 -90 2 2 -5 25 -16 53 -10 27 -19 43 -20
37z"/>
<path d="M4428 4653 c6 -2 18 -2 25 0 6 3 1 5 -13 5 -14 0 -19 -2 -12 -5z"/>
<path d="M4268 4643 c7 -3 16 -2 19 1 4 3 -2 6 -13 5 -11 0 -14 -3 -6 -6z"/>
<path d="M4186 4628 c3 -4 9 -8 15 -8 5 0 9 4 9 8 0 5 -7 9 -15 9 -8 0 -12 -4
-9 -9z"/>
<path d="M4028 4623 c6 -2 18 -2 25 0 6 3 1 5 -13 5 -14 0 -19 -2 -12 -5z"/>
<path d="M3626 4587 c3 -10 9 -15 12 -12 3 3 0 11 -7 18 -10 9 -11 8 -5 -6z"/>
<path d="M4513 4563 c9 -2 23 -2 30 0 6 3 -1 5 -18 5 -16 0 -22 -2 -12 -5z"/>
<path d="M3734 4547 c-8 -5 -24 -5 -37 -2 -20 6 -21 5 -4 -8 9 -8 17 -19 17
-24 0 -5 9 -18 20 -28 11 -10 20 -13 20 -7 0 6 -6 13 -12 15 -9 4 -8 6 3 6 8
1 20 -4 27 -11 9 -9 12 -9 12 0 0 7 5 12 10 12 7 0 7 -6 1 -19 -12 -21 -5 -31
21 -31 15 0 17 3 8 19 -5 11 -10 22 -10 25 0 7 51 14 160 21 52 4 97 9 100 12
3 3 -56 2 -130 -2 -121 -6 -163 -2 -100 10 36 7 35 13 -1 18 -45 7 -87 4 -105
-6z m66 -21 c0 -3 -4 -8 -10 -11 -5 -3 -10 -1 -10 4 0 6 5 11 10 11 6 0 10 -2
10 -4z"/>
<path d="M4666 4544 c-5 -14 -4 -15 9 -4 17 14 19 20 6 20 -5 0 -12 -7 -15
-16z"/>
<path d="M4088 4533 c6 -2 18 -2 25 0 6 3 1 5 -13 5 -14 0 -19 -2 -12 -5z"/>
<path d="M3675 4510 c10 -11 20 -20 23 -20 3 0 -3 9 -13 20 -10 11 -20 20 -23
20 -3 0 3 -9 13 -20z"/>
<path d="M4545 4470 c-29 -4 -38 -8 -22 -8 16 -1 26 -6 22 -11 -12 -21 12 -18
40 5 17 13 26 23 20 22 -5 0 -32 -4 -60 -8z"/>
<path d="M3710 4466 c0 -2 8 -10 18 -17 15 -13 16 -12 3 4 -13 16 -21 21 -21
13z"/>
<path d="M3846 4451 c-4 -5 3 -7 14 -4 23 6 26 13 6 13 -8 0 -17 -4 -20 -9z"/>
<path d="M3819 4413 c14 -12 27 -20 30 -18 3 2 33 6 66 10 158 18 168 24 36
19 -73 -2 -139 -1 -145 3 -7 5 -1 -2 13 -14z"/>
<path d="M4108 4433 c12 -2 30 -2 40 0 9 3 -1 5 -23 4 -22 0 -30 -2 -17 -4z"/>
<path d="M4420 4429 c0 -5 5 -7 10 -4 6 3 10 8 10 11 0 2 -4 4 -10 4 -5 0 -10
-5 -10 -11z"/>
<path d="M3770 4416 c0 -2 7 -9 15 -16 9 -7 15 -8 15 -2 0 5 -7 12 -15 16 -8
3 -15 4 -15 2z"/>
<path d="M4006 4392 c-3 -6 -3 -18 1 -28 5 -14 3 -16 -11 -11 -10 4 -19 7 -22
7 -2 0 -1 6 2 13 4 11 -9 14 -57 13 l-62 0 64 -31 c59 -28 72 -30 163 -28 63
1 102 6 110 14 8 8 8 10 0 6 -6 -4 -21 2 -32 12 -17 14 -19 20 -9 31 10 10 8
12 -6 6 -10 -3 -21 -6 -23 -6 -3 0 -2 -5 1 -10 10 -16 -18 -37 -45 -35 -24 2
-43 25 -20 25 6 0 4 8 -6 17 -14 14 -18 15 -22 4 -3 -10 -6 -10 -12 -1 -5 8
-10 9 -14 2z m31 -54 c-3 -7 -5 -2 -5 12 0 14 2 19 5 13 2 -7 2 -19 0 -25z"/>
<path d="M3810 4386 c0 -3 9 -10 20 -16 11 -6 20 -8 20 -6 0 3 -9 10 -20 16
-11 6 -20 8 -20 6z"/>
<path d="M4383 4353 c9 -2 23 -2 30 0 6 3 -1 5 -18 5 -16 0 -22 -2 -12 -5z"/>
<path d="M4238 4343 c18 -2 45 -2 60 0 15 2 0 4 -33 4 -33 0 -45 -2 -27 -4z"/>
<path d="M4338 4343 c7 -3 16 -2 19 1 4 3 -2 6 -13 5 -11 0 -14 -3 -6 -6z"/>
<path d="M4801 5118 c-1 -4 4 -19 10 -35 6 -15 15 -46 20 -68 l8 -40 -3 40
c-3 35 -33 122 -35 103z"/>
<path d="M4843 4915 c0 -33 2 -45 4 -27 2 18 2 45 0 60 -2 15 -4 0 -4 -33z"/>
<path d="M4826 4811 c-4 -24 -5 -46 -2 -48 7 -7 19 63 14 79 -3 7 -8 -7 -12
-31z"/>
<path d="M1758 5063 c7 -3 16 -2 19 1 4 3 -2 6 -13 5 -11 0 -14 -3 -6 -6z"/>
<path d="M3018 4183 c7 -3 16 -2 19 1 4 3 -2 6 -13 5 -11 0 -14 -3 -6 -6z"/>
<path d="M5108 3843 c7 -3 16 -2 19 1 4 3 -2 6 -13 5 -11 0 -14 -3 -6 -6z"/>
<path d="M4963 3823 c9 -2 23 -2 30 0 6 3 -1 5 -18 5 -16 0 -22 -2 -12 -5z"/>
<path d="M5228 3813 c6 -2 18 -2 25 0 6 3 1 5 -13 5 -14 0 -19 -2 -12 -5z"/>
<path d="M5148 3473 c7 -3 16 -2 19 1 4 3 -2 6 -13 5 -11 0 -14 -3 -6 -6z"/>
<path d="M5203 3443 c9 -2 23 -2 30 0 6 3 -1 5 -18 5 -16 0 -22 -2 -12 -5z"/>
<path d="M5118 3403 c6 -2 18 -2 25 0 6 3 1 5 -13 5 -14 0 -19 -2 -12 -5z"/>
<path d="M5118 3333 c12 -2 32 -2 45 0 12 2 2 4 -23 4 -25 0 -35 -2 -22 -4z"/>
<path d="M5188 3303 c12 -2 30 -2 40 0 9 3 -1 5 -23 4 -22 0 -30 -2 -17 -4z"/>
<path d="M3968 3773 c7 -3 16 -2 19 1 4 3 -2 6 -13 5 -11 0 -14 -3 -6 -6z"/>
<path d="M4110 3774 c0 -3 7 -12 15 -20 13 -13 15 -13 15 -1 0 8 -7 17 -15 21
-8 3 -15 3 -15 0z"/>
<path d="M3752 3758 c5 -14 47 -13 108 2 29 7 23 8 -38 9 -55 1 -73 -2 -70
-11z"/>
<path d="M4056 3748 c14 -25 37 -48 48 -48 6 0 0 7 -12 16 -12 8 -22 22 -22
30 0 8 -5 14 -11 14 -5 0 -7 -6 -3 -12z"/>
<path d="M3779 3717 c5 -5 26 -7 47 -5 l39 3 -47 5 c-26 3 -43 1 -39 -3z"/>
<path d="M3608 3693 c6 -2 18 -2 25 0 6 3 1 5 -13 5 -14 0 -19 -2 -12 -5z"/>
<path d="M3868 3673 c7 -3 16 -2 19 1 4 3 -2 6 -13 5 -11 0 -14 -3 -6 -6z"/>
<path d="M3535 3650 l-50 -7 55 -1 c30 0 78 3 105 8 l50 7 -55 0 c-30 0 -77
-3 -105 -7z"/>
<path d="M3803 3535 c0 -8 4 -12 9 -9 5 3 6 10 3 15 -9 13 -12 11 -12 -6z"/>
<path d="M3738 3463 c12 -2 30 -2 40 0 9 3 -1 5 -23 4 -22 0 -30 -2 -17 -4z"/>
<path d="M3846 3462 c-3 -5 1 -9 9 -9 8 0 12 4 9 9 -3 4 -7 8 -9 8 -2 0 -6 -4
-9 -8z"/>
<path d="M4228 3441 c8 -4 13 -12 13 -17 -2 -21 11 -44 21 -38 8 5 9 1 5 -10
-5 -14 -3 -17 8 -12 8 3 15 1 15 -5 0 -5 8 -9 18 -7 12 2 16 -3 14 -16 -2 -11
1 -15 7 -11 6 3 11 9 11 13 0 15 -96 112 -110 112 -12 0 -12 -2 -2 -9z"/>
<path d="M3983 3433 c-13 -2 -23 -8 -23 -13 0 -6 10 -6 25 0 14 5 38 7 55 4
19 -4 30 -2 30 5 0 11 -42 13 -87 4z"/>
<path d="M4160 3400 c0 -5 5 -10 10 -10 6 0 10 5 10 10 0 6 -4 10 -10 10 -5 0
-10 -4 -10 -10z"/>
<path d="M4198 3393 c7 -3 16 -2 19 1 4 3 -2 6 -13 5 -11 0 -14 -3 -6 -6z"/>
<path d="M3913 3353 c1 -18 6 -28 12 -25 6 3 4 -1 -3 -10 -11 -13 -9 -16 13
-20 32 -7 32 8 0 52 l-24 33 2 -30z"/>
<path d="M3778 3323 c12 -2 30 -2 40 0 9 3 -1 5 -23 4 -22 0 -30 -2 -17 -4z"/>
<path d="M3818 3293 c12 -2 30 -2 40 0 9 3 -1 5 -23 4 -22 0 -30 -2 -17 -4z"/>
<path d="M3868 3263 c12 -2 32 -2 45 0 12 2 2 4 -23 4 -25 0 -35 -2 -22 -4z"/>
<path d="M3398 3473 c7 -3 16 -2 19 1 4 3 -2 6 -13 5 -11 0 -14 -3 -6 -6z"/>
<path d="M3423 3443 c9 -2 23 -2 30 0 6 3 -1 5 -18 5 -16 0 -22 -2 -12 -5z"/>
<path d="M3710 3196 c0 -2 8 -10 18 -17 15 -13 16 -12 3 4 -13 16 -21 21 -21
13z"/>
<path d="M3581 2876 c-1 -29 2 -37 10 -29 8 8 8 19 1 40 -10 28 -10 28 -11
-11z"/>
<path d="M3597 2599 c7 -7 15 -10 18 -7 3 3 -2 9 -12 12 -14 6 -15 5 -6 -5z"/>
<path d="M4234 2186 c-8 -8 -8 -18 -2 -29 14 -27 29 -20 26 13 -2 33 -7 36
-24 16z"/>
<path d="M2460 2755 c0 -8 2 -15 4 -15 2 0 6 7 10 15 3 8 1 15 -4 15 -6 0 -10
-7 -10 -15z"/>
<path d="M2575 2711 c-3 -5 -1 -12 4 -15 5 -3 11 1 15 9 6 16 -9 21 -19 6z"/>
<path d="M2391 2644 c0 -11 3 -14 6 -6 3 7 2 16 -1 19 -3 4 -6 -2 -5 -13z"/>
<path d="M2640 2630 c0 -5 5 -10 10 -10 6 0 10 5 10 10 0 6 -4 10 -10 10 -5 0
-10 -4 -10 -10z"/>
<path d="M183 2453 c9 -2 25 -2 35 0 9 3 1 5 -18 5 -19 0 -27 -2 -17 -5z"/>
<path d="M248 2453 c7 -3 16 -2 19 1 4 3 -2 6 -13 5 -11 0 -14 -3 -6 -6z"/>
<path d="M4724 1476 c-8 -9 -7 -15 2 -23 9 -9 13 -9 17 1 8 20 -6 36 -19 22z"/>
<path d="M4580 1450 c-23 -7 -23 -8 -3 -9 12 -1 25 4 28 9 3 6 5 10 3 9 -2 -1
-14 -5 -28 -9z"/>
<path d="M4711 1339 c-21 -37 -21 -40 -5 -31 27 14 60 72 41 72 -7 0 -24 -18
-36 -41z"/>
<path d="M3100 940 c-19 -11 -31 -19 -27 -20 11 0 67 29 67 35 0 7 -1 7 -40
-15z"/>
<path d="M3920 8343 c-12 -3 -15 -18 -15 -63 0 -33 4 -60 8 -60 5 0 7 -9 4
-20 -3 -11 -1 -18 4 -14 5 3 10 -10 11 -28 4 -79 3 -98 -4 -98 -4 0 -8 -18 -8
-40 0 -22 -3 -40 -7 -40 -5 0 -8 -42 -9 -93 -1 -50 1 -86 3 -79 3 6 10 12 17
12 30 0 96 176 96 258 0 59 -39 211 -60 230 -10 10 -19 22 -21 27 -2 6 -11 9
-19 8z"/>
<path d="M0 7035 c0 -133 3 -175 13 -175 6 0 29 15 49 34 60 55 73 143 33 226
-22 48 -45 86 -45 78 0 -4 -11 -3 -25 2 l-25 10 0 -175z"/>
<path d="M0 4281 c0 -17 2 -31 4 -31 8 0 13 51 5 56 -5 3 -9 -9 -9 -25z"/>
<path d="M4800 1309 c-12 -23 -20 -43 -18 -45 3 -2 14 17 26 41 27 56 20 60
-8 4z"/>
<path d="M4926 1305 c-9 -26 -7 -32 5 -12 6 10 9 21 6 23 -2 3 -7 -2 -11 -11z"/>
<path d="M4876 1223 c-6 -14 -5 -15 5 -6 7 7 10 15 7 18 -3 3 -9 -2 -12 -12z"/>
<path d="M3563 1159 c-29 -17 -53 -33 -53 -35 0 -7 99 47 106 57 8 13 4 12
-53 -22z"/>
<path d="M4225 1180 c3 -5 -2 -10 -12 -11 -11 0 -13 -3 -5 -6 7 -3 19 0 27 7
8 6 20 8 26 4 8 -4 9 -3 5 4 -4 7 -16 12 -27 12 -11 0 -17 -4 -14 -10z"/>
<path d="M4414 1181 c4 -5 0 -11 -6 -14 -7 -2 -10 -8 -6 -12 8 -9 38 12 38 26
0 5 -7 9 -16 9 -8 0 -13 -4 -10 -9z"/>
<path d="M4652 1028 c-38 -73 -83 -158 -99 -188 -96 -177 -114 -213 -111 -222
2 -5 10 3 18 19 8 15 28 51 44 78 28 49 204 394 218 428 4 9 6 17 4 17 -3 0
-36 -60 -74 -132z"/>
<path d="M4378 1133 c7 -3 16 -2 19 1 4 3 -2 6 -13 5 -11 0 -14 -3 -6 -6z"/>
<path d="M4910 1130 c-12 -7 -10 -9 7 -7 12 0 19 5 17 9 -6 10 -6 10 -24 -2z"/>
<path d="M3575 1120 c-3 -5 -14 -10 -25 -10 -10 0 -20 -6 -23 -13 -4 -11 2
-10 29 2 19 8 34 19 34 23 0 11 -8 10 -15 -2z"/>
<path d="M4613 888 c-127 -256 -141 -288 -124 -288 6 0 11 3 12 8 4 39 19 70
19 39 0 -9 5 -17 10 -17 6 0 10 7 10 15 0 8 7 15 16 15 12 0 15 6 11 21 -4 15
0 23 14 26 12 3 19 14 19 29 0 15 6 24 15 24 18 0 20 16 3 23 -7 3 0 10 17 17
17 7 24 14 18 17 -18 7 -16 23 2 23 18 0 19 12 4 27 -14 14 19 23 46 12 19 -8
19 -8 -2 -15 -24 -7 -31 -24 -10 -24 7 -1 5 -6 -6 -14 -9 -7 -15 -20 -12 -28
4 -9 -1 -18 -11 -22 -13 -5 -14 -9 -5 -20 10 -11 8 -16 -9 -21 -11 -3 -18 -11
-14 -16 3 -5 10 -7 15 -4 5 4 5 -4 -1 -19 -5 -14 -6 -26 -2 -26 11 0 12 -39 1
-45 -5 -4 -9 4 -10 17 0 22 -1 22 -8 3 -6 -13 -4 -23 4 -27 8 -5 11 -17 8 -30
-11 -42 5 -14 37 67 57 142 122 336 116 342 -3 4 -6 -1 -6 -11 0 -10 -5 -14
-11 -11 -16 11 -39 -27 -28 -47 12 -23 11 -37 -2 -15 -12 21 -31 23 -23 2 5
-11 -1 -15 -19 -15 -14 0 -29 5 -32 10 -3 6 1 10 11 10 13 0 14 3 5 14 -9 11
-8 15 4 20 13 4 14 10 5 26 -6 11 -7 20 -2 20 8 0 20 25 26 52 0 3 4 9 8 13 4
4 4 14 1 23 -5 11 -3 13 7 7 9 -5 11 -4 6 3 -4 7 -2 12 4 12 6 0 8 5 5 10 -3
6 -10 10 -14 10 -4 0 -62 -109 -128 -242z"/>
<path d="M3470 1110 c-8 -5 -12 -12 -9 -15 4 -3 12 1 19 10 14 17 11 19 -10 5z"/>
<path d="M4158 1113 c7 -3 16 -2 19 1 4 3 -2 6 -13 5 -11 0 -14 -3 -6 -6z"/>
<path d="M4229 1096 c-14 -13 -31 -25 -39 -28 -8 -3 3 -6 24 -6 27 0 35 3 25
9 -11 7 -9 10 9 15 22 6 29 19 14 28 -5 3 -19 -5 -33 -18z"/>
<path d="M4358 1113 c7 -3 16 -2 19 1 4 3 -2 6 -13 5 -11 0 -14 -3 -6 -6z"/>
<path d="M4128 1093 c7 -3 16 -2 19 1 4 3 -2 6 -13 5 -11 0 -14 -3 -6 -6z"/>
<path d="M4335 1090 c-3 -5 1 -10 10 -10 9 0 13 5 10 10 -3 6 -8 10 -10 10 -2
0 -7 -4 -10 -10z"/>
<path d="M4908 1093 c7 -3 16 -2 19 1 4 3 -2 6 -13 5 -11 0 -14 -3 -6 -6z"/>
<path d="M4415 1082 c-9 -6 -19 -32 -12 -32 1 0 10 9 20 20 16 20 12 27 -8 12z"/>
<path d="M4548 1083 c7 -3 16 -2 19 1 4 3 -2 6 -13 5 -11 0 -14 -3 -6 -6z"/>
<path d="M4318 1063 c7 -3 16 -2 19 1 4 3 -2 6 -13 5 -11 0 -14 -3 -6 -6z"/>
<path d="M4435 1060 c-3 -5 -1 -10 4 -10 6 0 11 5 11 10 0 6 -2 10 -4 10 -3 0
-8 -4 -11 -10z"/>
<path d="M4288 1033 c7 -3 16 -2 19 1 4 3 -2 6 -13 5 -11 0 -14 -3 -6 -6z"/>
<path d="M4397 1020 c-8 -11 -16 -18 -19 -15 -3 3 -11 -1 -18 -10 -7 -8 -19
-15 -27 -15 -8 0 -11 -5 -8 -11 4 -6 -1 -17 -11 -24 -12 -9 -14 -14 -6 -15 26
0 0 -20 -26 -20 -15 0 -22 -4 -17 -8 19 -14 14 -40 -7 -34 -10 2 -18 1 -17 -4
4 -22 -2 -34 -17 -34 -14 0 -14 -2 0 -15 18 -18 27 -19 20 -2 -3 10 5 12 33
10 21 -2 33 0 26 3 -18 8 -3 34 21 35 15 0 17 2 6 7 -8 4 -16 13 -18 20 -1 8
2 11 7 8 5 -3 20 -2 33 3 12 6 17 10 10 10 -19 1 -4 21 15 21 9 0 14 -3 10 -6
-3 -4 0 -13 8 -20 16 -16 71 -19 80 -4 4 6 -7 10 -25 10 -32 0 -85 32 -73 44
10 10 19 7 44 -15 15 -13 31 -18 46 -14 13 3 23 1 23 -5 0 -5 7 -10 16 -10 12
0 9 6 -10 21 -15 12 -34 18 -42 15 -10 -4 -24 2 -35 15 -25 29 -24 39 4 40 12
0 16 3 9 6 -10 4 -10 8 -1 19 9 11 8 14 -4 14 -9 0 -22 -9 -30 -20z"/>
<path d="M4503 1023 c9 -2 23 -2 30 0 6 3 -1 5 -18 5 -16 0 -22 -2 -12 -5z"/>
<path d="M4605 1020 c3 -6 -1 -13 -10 -16 -9 -4 -14 -13 -11 -20 4 -9 -2 -14
-17 -15 -12 0 -16 -3 -9 -6 6 -2 12 -9 12 -14 0 -16 -25 -10 -48 11 -23 21
-57 26 -67 10 -4 -6 6 -10 23 -10 50 0 82 -59 34 -61 -11 0 -12 -3 -4 -6 20
-8 14 -21 -15 -31 -17 -6 -21 -11 -11 -11 22 -1 13 -28 -10 -34 -15 -4 -15 -5
0 -6 25 -2 11 -31 -16 -32 -16 -1 -17 -2 -4 -6 14 -4 16 -8 7 -24 -5 -11 -14
-17 -19 -14 -5 3 -12 0 -15 -6 -5 -7 1 -9 16 -7 13 1 28 12 34 23 6 11 29 52
51 90 76 130 105 195 88 195 -8 0 -12 -5 -9 -10z"/>
<path d="M3405 1000 c-3 -6 1 -7 9 -4 18 7 21 14 7 14 -6 0 -13 -4 -16 -10z"/>
<path d="M4268 1003 c7 -3 16 -2 19 1 4 3 -2 6 -13 5 -11 0 -14 -3 -6 -6z"/>
<path d="M4480 1000 c0 -5 8 -10 18 -10 9 0 28 -3 42 -6 23 -5 23 -5 -4 10
-32 18 -56 21 -56 6z"/>
<path d="M4428 983 c7 -3 16 -2 19 1 4 3 -2 6 -13 5 -11 0 -14 -3 -6 -6z"/>
<path d="M4110 970 c-12 -7 -12 -11 -2 -20 6 -5 10 -7 7 -4 -3 4 0 13 6 21 13
15 10 16 -11 3z"/>
<path d="M4220 976 c0 -9 30 -14 35 -6 4 6 -3 10 -14 10 -12 0 -21 -2 -21 -4z"/>
<path d="M4208 943 c6 -2 18 -2 25 0 6 3 1 5 -13 5 -14 0 -19 -2 -12 -5z"/>
<path d="M3433 933 c9 -2 23 -2 30 0 6 3 -1 5 -18 5 -16 0 -22 -2 -12 -5z"/>
<path d="M4793 909 c-6 -19 -34 -101 -62 -183 -29 -82 -50 -154 -48 -160 2 -6
13 18 25 54 12 36 40 118 62 183 23 65 40 123 38 129 -2 6 -9 -5 -15 -23z"/>
<path d="M3200 885 c-85 -51 -86 -61 -1 -13 71 40 98 58 86 58 -6 -1 -44 -21
-85 -45z"/>
<path d="M3289 909 c-10 -6 -7 -9 14 -9 29 0 35 5 14 13 -8 3 -20 1 -28 -4z"/>
<path d="M3370 910 c8 -5 24 -10 34 -10 26 0 18 6 -19 14 -22 5 -26 4 -15 -4z"/>
<path d="M4173 903 c9 -2 23 -2 30 0 6 3 -1 5 -18 5 -16 0 -22 -2 -12 -5z"/>
<path d="M4218 883 c7 -3 16 -2 19 1 4 3 -2 6 -13 5 -11 0 -14 -3 -6 -6z"/>
<path d="M4350 879 c0 -5 5 -7 10 -4 6 3 10 -1 10 -9 0 -18 64 -23 75 -6 4 6
-8 10 -29 10 -20 0 -36 5 -36 10 0 6 -7 10 -15 10 -8 0 -15 -5 -15 -11z"/>
<path d="M4465 880 c-4 -6 3 -10 14 -10 25 0 27 6 6 13 -8 4 -17 2 -20 -3z"/>
<path d="M3163 836 c-89 -52 -94 -56 -57 -55 16 0 23 3 16 6 -17 7 32 33 62
33 17 0 18 2 6 10 -13 8 -12 10 5 11 11 1 31 2 45 1 20 0 21 1 5 5 -19 6 -20
6 -1 13 15 5 16 8 5 12 -8 3 -47 -13 -86 -36z"/>
<path d="M4125 870 c-4 -6 5 -10 19 -10 14 0 26 5 26 10 0 6 -9 10 -19 10 -11
0 -23 -4 -26 -10z"/>
<path d="M2890 830 c-30 -16 -51 -29 -47 -30 10 0 107 49 107 55 0 7 1 7 -60
-25z"/>
<path d="M3320 853 c14 -3 29 -10 33 -17 6 -7 7 -6 4 4 -2 8 -16 16 -33 17
-25 1 -26 0 -4 -4z"/>
<path d="M3409 851 c10 -7 4 -12 -22 -22 -29 -10 -33 -15 -22 -26 18 -18 22
-17 30 10 4 14 8 17 12 9 4 -10 8 -10 19 -1 21 18 17 39 -8 39 -17 0 -19 -3
-9 -9z"/>
<path d="M4343 830 c27 -21 62 -26 72 -10 4 6 -6 10 -24 10 -16 0 -33 5 -36
10 -3 6 -13 10 -22 10 -11 0 -8 -6 10 -20z"/>
<path d="M4440 840 c0 -5 5 -10 10 -10 6 0 10 5 10 10 0 6 -4 10 -10 10 -5 0
-10 -4 -10 -10z"/>
<path d="M3250 827 l-25 -11 33 -4 c18 -2 30 -8 27 -13 -4 -5 -2 -9 3 -9 17 0
21 38 5 44 -8 3 -15 6 -16 5 -1 0 -13 -5 -27 -12z"/>
<path d="M4105 830 c3 -5 12 -7 20 -3 21 7 19 13 -6 13 -11 0 -18 -4 -14 -10z"/>
<path d="M3017 781 c-56 -33 -75 -50 -31 -28 17 9 42 14 55 11 21 -4 21 -3 4
4 -18 8 -18 10 10 25 17 9 26 16 20 16 -5 0 -31 -13 -58 -28z"/>
<path d="M3168 803 c6 -2 12 -11 12 -19 0 -16 18 -18 40 -4 12 8 11 10 -7 10
-13 0 -23 5 -23 10 0 6 -8 10 -17 9 -11 0 -13 -3 -5 -6z"/>
<path d="M4330 780 c-11 -7 -7 -10 18 -10 17 0 32 5 32 10 0 13 -30 13 -50 0z"/>
<path d="M2784 754 c-18 -15 -18 -15 6 -10 14 3 29 6 33 6 5 0 5 5 2 10 -9 14
-18 13 -41 -6z"/>
<path d="M3218 753 c7 -3 16 -2 19 1 4 3 -2 6 -13 5 -11 0 -14 -3 -6 -6z"/>
<path d="M3283 753 c9 -2 23 -2 30 0 6 3 -1 5 -18 5 -16 0 -22 -2 -12 -5z"/>
<path d="M4388 753 c6 -2 18 -2 25 0 6 3 1 5 -13 5 -14 0 -19 -2 -12 -5z"/>
<path d="M3018 743 c7 -3 16 -2 19 1 4 3 -2 6 -13 5 -11 0 -14 -3 -6 -6z"/>
<path d="M3118 743 c-10 -2 -18 -9 -18 -15 0 -6 10 -8 23 -4 12 3 26 6 30 6 5
0 5 5 2 10 -6 10 -9 11 -37 3z"/>
<path d="M4300 730 c0 -5 9 -10 19 -10 11 0 23 5 26 10 4 6 -5 10 -19 10 -14
0 -26 -4 -26 -10z"/>
<path d="M3288 723 c7 -3 16 -2 19 1 4 3 -2 6 -13 5 -11 0 -14 -3 -6 -6z"/>
<path d="M2958 713 c7 -3 16 -2 19 1 4 3 -2 6 -13 5 -11 0 -14 -3 -6 -6z"/>
<path d="M3385 710 c4 -6 11 -8 16 -5 14 9 11 15 -7 15 -8 0 -12 -5 -9 -10z"/>
<path d="M2674 695 c-20 -15 -11 -18 20 -6 11 4 15 10 9 14 -5 3 -19 0 -29 -8z"/>
<path d="M3216 697 c3 -10 9 -15 12 -12 3 3 0 11 -7 18 -10 9 -11 8 -5 -6z"/>
<path d="M4368 703 c7 -3 16 -2 19 1 4 3 -2 6 -13 5 -11 0 -14 -3 -6 -6z"/>
<path d="M4435 701 c3 -6 -3 -14 -12 -20 -10 -6 -13 -11 -7 -11 12 0 34 20 34
32 0 4 -5 8 -11 8 -5 0 -8 -4 -4 -9z"/>
<path d="M3055 690 c3 -5 8 -10 11 -10 2 0 4 5 4 10 0 6 -5 10 -11 10 -5 0 -7
-4 -4 -10z"/>
<path d="M4277 692 c-9 -2 -15 -8 -12 -13 8 -12 45 -12 45 0 0 13 -12 18 -33
13z"/>
<path d="M2620 670 c-9 -6 -10 -10 -3 -10 6 0 15 5 18 10 8 12 4 12 -15 0z"/>
<path d="M2906 668 c5 -7 2 -9 -8 -6 -8 4 -21 2 -29 -3 -9 -6 0 -9 29 -9 24 0
41 4 37 9 -3 5 3 12 12 14 10 3 3 5 -15 6 -23 1 -31 -3 -26 -11z"/>
<path d="M3338 673 c6 -2 18 -2 25 0 6 3 1 5 -13 5 -14 0 -19 -2 -12 -5z"/>
<path d="M3077 657 c-8 -22 31 -23 59 -2 18 14 18 14 -11 15 -23 0 -26 -3 -15
-10 13 -8 13 -10 -2 -10 -9 0 -18 5 -20 12 -3 7 -7 6 -11 -5z"/>
<path d="M3180 648 c-22 -10 -23 -12 -6 -16 10 -2 22 2 27 10 6 10 9 10 9 1 0
-7 7 -13 15 -13 9 0 12 6 9 15 -7 17 -19 18 -54 3z"/>
<path d="M3386 637 c-16 -12 -16 -13 4 -14 11 -1 18 2 15 7 -3 5 3 11 12 13
14 4 14 5 2 6 -8 0 -23 -5 -33 -12z"/>
<path d="M4428 573 c7 -3 16 -2 19 1 4 3 -2 6 -13 5 -11 0 -14 -3 -6 -6z"/>
</g>
</svg>
