<?xml version="1.0" standalone="no"?>
<!DOCTYPE svg PUBLIC "-//W3C//DTD SVG 20010904//EN"
 "http://www.w3.org/TR/2001/REC-SVG-20010904/DTD/svg10.dtd">
<svg version="1.0" xmlns="http://www.w3.org/2000/svg"
 width="480.000000pt" height="300.000000pt" viewBox="0 0 480.000000 300.000000"
 preserveAspectRatio="xMidYMid meet">

<g transform="translate(0.000000,300.000000) scale(0.100000,-0.100000)"
fill="#000000" stroke="none">
<path d="M25 2985 c17 -8 42 -14 58 -15 15 0 26 -3 25 -7 -4 -13 26 -53 39
-53 21 0 15 21 -7 27 -14 4 -20 14 -20 34 0 19 -5 29 -15 29 -8 0 -15 -5 -15
-10 0 -7 -6 -7 -19 0 -11 5 -32 10 -48 9 l-28 -1 30 -13z"/>
<path d="M240 2956 c0 -25 -4 -48 -10 -51 -5 -3 -7 -19 -5 -35 3 -17 7 -43 10
-60 4 -25 1 -30 -15 -30 -10 0 -24 8 -29 18 -6 9 -11 12 -11 5 0 -6 -8 -14
-17 -16 -17 -4 -17 -5 0 -6 9 0 17 -6 17 -12 0 -6 8 -8 19 -4 11 3 26 -1 35
-11 12 -12 26 -14 55 -9 26 4 41 2 47 -6 4 -8 3 -10 -4 -5 -7 4 -12 2 -12 -3
0 -6 4 -11 8 -11 4 0 9 -10 9 -22 1 -13 4 -32 7 -44 5 -18 2 -20 -21 -16 -26
5 -26 5 -7 -14 10 -11 33 -26 49 -34 38 -19 54 -39 50 -62 -6 -32 -34 -50 -65
-46 -41 6 -38 -5 5 -21 55 -19 65 -34 52 -76 -10 -33 -12 -34 -49 -29 -25 4
-38 3 -38 -5 0 -6 7 -11 15 -11 18 0 57 -20 67 -35 11 -15 3 -48 -15 -59 -12
-8 -24 -6 -46 7 -16 9 -36 17 -45 17 -9 0 -20 10 -25 22 l-8 22 -5 -22 c-4
-12 -1 -25 5 -29 17 -11 -51 -20 -96 -12 l-38 7 6 -49 6 -49 -45 0 c-25 0 -48
5 -51 10 -4 6 -10 8 -14 6 -4 -3 -7 18 -7 46 1 35 -3 53 -12 56 -15 5 -12
-145 8 -408 5 -69 12 -192 15 -275 3 -82 10 -215 14 -295 5 -80 10 -190 11
-245 0 -55 3 -110 6 -122 6 -24 -26 -63 -51 -63 -13 0 -15 -55 -15 -435 l0
-435 581 0 581 0 -6 53 c-9 75 -26 294 -39 510 -10 152 -10 190 0 199 10 8 13
7 14 -3 0 -8 2 -30 4 -49 3 -29 35 -540 35 -561 0 -4 9 -9 20 -12 10 -3 18 -1
17 5 -1 5 9 17 23 26 19 14 22 14 15 2 -7 -13 -6 -13 7 -2 13 10 16 9 21 -10
4 -13 1 -25 -6 -30 -38 -21 -87 -79 -87 -102 l0 -26 269 0 270 0 4 28 4 27 2
-27 1 -27 293 -1 292 0 -3 125 c-2 68 2 166 8 217 17 157 59 580 62 631 1 32
10 59 25 80 16 21 23 26 23 14 0 -9 5 -17 10 -17 6 0 10 18 10 40 0 38 -2 40
-30 40 -29 0 -30 -2 -30 -45 0 -43 -1 -45 -30 -45 -35 0 -31 21 -65 -325 -14
-143 -28 -266 -30 -273 -3 -8 -15 -11 -32 -8 -16 2 -50 5 -78 6 -38 1 -45 4
-30 10 11 5 16 9 11 9 -6 1 -1 8 10 16 10 8 15 15 10 15 -4 0 2 8 14 18 14 12
23 31 25 56 1 21 6 41 11 45 14 9 11 51 -5 60 -11 7 -10 11 5 20 11 6 13 11 7
11 -7 0 -31 18 -53 40 -35 35 -37 40 -19 40 18 0 19 2 9 15 -10 12 -10 15 1
15 8 0 5 6 -7 15 -13 10 -14 14 -5 15 11 0 11 3 1 15 -9 11 -9 22 -2 44 6 16
8 32 5 34 -3 3 -1 12 3 19 5 7 9 29 11 48 2 19 6 42 9 50 4 8 6 31 5 51 -1 21
2 40 8 44 7 4 11 -12 12 -47 1 -29 3 -45 6 -36 2 10 8 18 11 18 4 0 5 22 4 50
l-4 50 50 0 c43 0 49 2 45 18 -2 10 -16 26 -31 36 -15 10 -20 15 -11 13 12 -4
18 3 23 25 3 17 9 28 13 25 3 -4 12 -2 18 3 19 15 26 -25 9 -47 -13 -17 -13
-17 -14 5 0 12 -5 22 -10 22 -13 0 -8 -35 10 -73 l13 -27 173 0 172 0 -11 25
c-7 14 -20 28 -29 31 -10 3 -18 11 -18 19 0 7 -8 16 -17 18 -17 4 -17 5 0 6 9
0 17 6 17 11 0 12 -32 9 -41 -3 -3 -5 -9 -2 -12 7 -5 13 2 16 38 16 40 0 45
-2 44 -22 0 -22 -1 -22 -9 -3 -8 18 -9 18 -9 -5 -1 -20 4 -25 23 -25 20 0 26
6 31 35 4 21 3 36 -4 38 -6 2 -11 8 -11 13 0 6 5 7 10 4 6 -3 10 4 10 17 1 13
3 40 6 60 5 33 4 36 -15 31 -15 -4 -21 -1 -21 11 0 9 -7 16 -16 16 -9 0 -12
-5 -8 -12 6 -10 4 -10 -8 0 -14 11 -17 10 -23 -8 -3 -11 -11 -17 -17 -14 -6 4
-46 6 -90 5 -59 -2 -78 1 -73 10 5 8 1 9 -15 4 -18 -6 -22 -4 -17 8 4 12 2 14
-11 10 -9 -4 -21 -11 -25 -17 -5 -7 -6 -3 -3 8 7 19 -2 19 -48 0 -14 -5 -17
-4 -12 4 4 8 2 10 -7 6 -8 -3 -18 -1 -22 5 -4 7 5 11 25 11 17 0 29 4 25 9 -3
5 3 12 12 15 10 3 -8 4 -39 2 -51 -2 -56 -1 -45 13 10 12 9 13 -2 6 -11 -6
-13 -3 -8 14 3 14 0 24 -9 28 -9 3 -14 19 -13 42 1 29 2 31 7 13 4 -13 10 -23
15 -23 4 1 17 1 30 1 17 0 19 2 7 9 -8 6 -18 7 -23 4 -4 -3 -11 4 -14 16 -3
12 -12 21 -19 21 -8 0 -14 9 -14 20 0 11 6 20 14 20 8 0 18 5 22 11 4 7 0 9
-13 5 -18 -6 -21 -1 -26 46 -4 29 -7 106 -7 171 0 110 1 117 20 117 13 0 20 7
20 19 0 16 -8 21 -42 24 l-43 4 43 1 42 2 0 40 0 40 148 0 c81 0 154 5 162 10
10 6 -95 10 -307 10 l-322 0 -4 33 -4 32 -1 -32 c-3 -44 -22 -42 -22 1 0 19
-3 37 -7 39 -5 3 -8 -11 -8 -31 0 -31 -3 -36 -20 -34 -11 2 -23 9 -27 15 -5 8
-8 6 -8 -5 0 -14 -5 -15 -32 -7 -40 11 -40 11 -34 1 7 -12 -65 -5 -78 8 -7 7
-5 10 7 10 11 0 17 8 17 24 0 18 -5 23 -22 22 -18 -1 -23 5 -25 24 l-2 25 7
-24 c7 -23 8 -23 19 12 10 33 1 54 -10 25 -3 -7 -4 -3 -4 10 1 12 2 22 4 22 1
0 20 -6 40 -14 21 -8 57 -16 79 -19 39 -4 41 -4 25 12 -9 9 -34 18 -55 19 -45
3 -76 17 -76 35 0 7 4 6 10 -3 8 -13 10 -12 10 3 0 11 -8 17 -21 17 -13 0 -18
-4 -14 -12 4 -7 -1 -4 -10 7 -15 20 -16 19 -21 -3 -4 -12 -11 -22 -18 -22 -6
0 -4 -4 4 -9 8 -6 18 -7 22 -5 4 3 5 -5 0 -18 -4 -13 -6 -94 -4 -180 2 -125 6
-158 16 -158 9 0 13 10 12 30 -2 21 2 30 13 31 12 0 11 3 -3 8 -14 5 -16 10
-8 15 7 4 16 5 21 1 5 -3 12 -1 16 5 3 5 -3 10 -14 10 -21 0 -37 17 -26 28 3
3 10 0 15 -8 7 -11 10 -12 10 -2 0 7 5 10 12 6 7 -4 8 -3 4 4 -4 7 -16 12 -26
12 -10 0 -21 4 -24 9 -3 4 105 9 239 10 l245 1 1 -42 c1 -24 2 -47 4 -53 1 -5
3 -16 3 -22 1 -7 9 -13 17 -13 12 0 15 -17 17 -85 4 -165 6 -150 -24 -150 -30
1 -37 -15 -15 -34 10 -8 17 -7 25 1 9 9 12 3 12 -25 0 -35 -1 -36 -25 -25 -13
6 -26 18 -28 27 -4 13 -5 12 -6 -3 -1 -12 -6 -16 -17 -12 -9 3 -18 6 -20 6 -2
0 -4 9 -4 20 0 13 7 20 20 20 11 0 20 6 20 14 0 16 -24 28 -44 20 -8 -3 -17
-1 -21 5 -10 17 -25 13 -18 -6 4 -11 3 -14 -5 -9 -7 4 -12 16 -12 28 0 17 5
19 28 15 l27 -6 -27 12 c-29 11 -34 27 -18 56 11 21 -15 65 -32 55 -6 -4 -5
-9 3 -15 18 -11 9 -18 -28 -21 -24 -2 -33 -8 -38 -25 -3 -13 -10 -23 -15 -23
-6 0 -5 -8 2 -20 9 -14 14 -16 20 -7 5 8 8 7 8 -5 0 -11 -8 -18 -20 -18 -15 0
-22 9 -27 30 -3 17 -11 29 -17 27 -7 -2 -11 -37 -11 -95 0 -91 10 -120 22 -62
9 45 21 45 21 0 1 -23 -3 -38 -9 -35 -5 4 -9 1 -9 -6 0 -7 10 -9 25 -7 14 3
25 1 25 -3 0 -5 8 -9 17 -9 9 0 13 -3 9 -7 -3 -4 4 -13 16 -21 13 -7 15 -11 6
-8 -15 4 -18 -1 -18 -29 0 -21 6 -38 18 -45 18 -12 16 -11 -35 9 -23 9 -30 18
-29 34 2 13 -1 32 -5 42 -6 15 -8 9 -6 -19 3 -64 -20 -55 -29 11 -8 54 -9 55
-14 23 -4 -28 -10 -35 -30 -37 -14 -1 -19 0 -12 3 13 6 15 85 3 169 -6 49 -7
49 -14 17 -6 -28 -9 -32 -26 -23 -16 9 -19 6 -25 -27 -3 -20 -6 -62 -6 -92 0
-35 -3 -50 -9 -41 -7 11 -9 11 -14 0 -3 -8 -6 -9 -6 -2 -1 6 -10 9 -21 6 -13
-4 -27 1 -36 13 -9 11 -13 13 -9 7 3 -7 1 -13 -4 -13 -7 0 -11 -27 -11 -70 0
-56 -3 -70 -15 -70 -11 0 -15 14 -16 58 -1 31 -1 61 0 65 1 5 -4 5 -10 1 -9
-5 -10 2 -6 25 6 29 5 32 -13 26 -16 -5 -20 -2 -20 19 0 27 24 37 33 14 3 -7
6 8 6 34 1 43 -1 48 -25 54 -18 5 -31 1 -42 -11 -16 -16 -15 -17 11 -11 16 4
27 2 27 -4 0 -6 5 -8 10 -5 6 3 10 -3 10 -14 0 -15 -6 -19 -25 -16 -27 2 -45
-13 -28 -24 6 -3 13 -19 17 -34 4 -15 11 -25 16 -22 6 3 10 -3 10 -14 0 -12
-3 -22 -7 -22 -49 -7 -76 -7 -65 0 9 5 3 8 -17 7 -18 -1 -31 -6 -31 -14 0 -7
-4 -11 -8 -8 -5 3 -30 -1 -57 -9 -26 -8 -52 -15 -57 -15 -11 0 -10 38 2 45 15
9 12 27 -2 19 -10 -5 -10 -4 -2 5 13 14 44 4 44 -15 0 -8 6 -11 15 -8 8 4 15
13 15 21 0 8 -4 12 -9 9 -4 -3 -17 1 -27 9 -13 10 -15 14 -5 15 8 0 11 7 8 19
-4 17 3 21 45 30 27 6 58 11 70 11 21 0 21 2 14 148 -3 81 -9 197 -13 258 l-6
111 -58 17 c-32 9 -61 16 -64 16 -2 0 -6 -48 -8 -107 l-3 -108 -2 123 c-2 110
0 122 15 122 15 0 14 2 -4 15 -21 15 -22 55 -1 55 6 0 8 7 5 15 -4 8 -1 17 5
21 7 5 8 2 3 -6 -6 -10 -4 -12 8 -7 18 7 140 -38 157 -58 16 -19 -5 -29 -23
-11 -13 13 -16 12 -26 -11 -10 -22 -10 -25 5 -19 10 4 21 1 26 -6 6 -10 8 -10
8 1 0 11 3 11 15 1 8 -7 15 -19 15 -27 0 -11 -4 -11 -20 -3 -15 8 -21 6 -30
-10 -9 -17 -7 -29 9 -61 17 -32 18 -39 6 -39 -8 0 -15 -7 -15 -15 0 -8 6 -15
14 -15 8 0 17 -7 20 -16 9 -23 8 -23 -14 -19 -13 2 -20 -2 -20 -11 0 -8 5 -14
11 -14 7 0 9 -12 5 -34 -5 -28 -4 -34 11 -32 11 0 19 -7 21 -21 3 -18 -1 -20
-19 -16 -19 5 -20 4 -10 -15 6 -12 9 -33 7 -47 -4 -20 -1 -25 15 -25 15 0 20
-6 17 -22 -2 -12 -10 -23 -18 -25 -13 -4 -13 -3 0 6 13 9 13 11 -2 11 -27 0
-21 -27 7 -32 17 -4 25 -1 25 8 0 8 5 14 11 14 7 0 8 18 5 53 -13 108 -15 468
-4 493 13 28 9 34 -21 37 -11 1 -21 5 -21 9 0 5 -9 4 -20 -2 -11 -6 -17 -16
-14 -25 4 -10 0 -15 -10 -15 -9 0 -20 10 -25 23 -20 48 -24 62 -22 71 1 5 -5
6 -14 2 -11 -4 -15 -2 -12 6 2 7 10 12 17 10 7 -1 19 3 26 9 12 9 17 9 27 -4
7 -8 23 -15 36 -14 20 2 27 11 39 55 12 42 19 52 36 52 18 1 19 2 6 13 -15 12
-22 70 -8 60 5 -2 8 0 8 5 0 6 -7 12 -15 16 -10 3 -15 -1 -15 -11 0 -29 -14
-3 -16 30 -1 18 -2 34 -3 37 -1 3 -14 5 -30 6 -16 1 -42 11 -58 22 -32 23 -43
20 -43 -9 0 -14 -7 -17 -37 -15 -35 2 -39 5 -44 36 l-6 35 -2 -38 c-1 -31 -4
-38 -18 -35 -16 3 -18 16 -17 110 l1 108 -538 0 -539 0 0 -44z m901 -37 c16
-11 29 -25 29 -31 0 -6 -8 -4 -19 6 -20 18 -35 9 -43 -29 -3 -11 -5 1 -6 28 0
26 2 47 5 47 3 0 18 -9 34 -21z m-796 -52 c2 -23 0 -25 -13 -14 -11 9 -14 9
-11 0 2 -6 20 -22 39 -35 27 -19 35 -31 36 -56 1 -36 -3 -38 -31 -19 -11 7
-33 14 -50 16 -16 1 -31 7 -33 12 -2 5 -10 9 -17 9 -17 0 -28 34 -20 59 7 24
33 35 50 21 9 -7 16 -6 25 5 10 12 10 15 -4 15 -9 0 -16 4 -16 8 0 5 10 8 22
7 16 -1 22 -8 23 -28z m-85 13 c0 -5 -5 -10 -11 -10 -5 0 -7 5 -4 10 3 6 8 10
11 10 2 0 4 -4 4 -10z m130 -10 c0 -5 -2 -10 -4 -10 -3 0 -8 5 -11 10 -3 6 -1
10 4 10 6 0 11 -4 11 -10z m340 -58 c58 -27 115 -52 126 -56 41 -13 48 -74 60
-508 5 -184 4 -219 -8 -223 -15 -6 -367 10 -373 17 -6 6 -14 192 -21 519 l-7
306 59 -3 c47 -2 81 -13 164 -52z m400 -20 c0 -28 -3 -33 -10 -22 -13 20 -13
73 0 65 6 -3 10 -23 10 -43z m-140 -63 c0 -7 10 -9 26 -5 34 9 23 -9 -13 -22
-25 -8 -28 -7 -28 14 0 13 3 24 8 24 4 0 7 -5 7 -11z m209 -272 c1 -72 3 -78
26 -89 17 -8 24 -18 23 -34 -2 -16 -6 -20 -12 -14 -19 19 -26 9 -26 -40 0 -27
4 -50 9 -50 6 0 7 16 4 35 -4 28 -2 35 11 35 9 0 16 -5 16 -10 0 -6 8 -10 18
-8 12 2 18 -5 20 -24 3 -22 -1 -28 -15 -28 -15 0 -18 -8 -18 -45 0 -32 4 -44
12 -40 16 6 32 -25 24 -46 -3 -9 -13 -15 -22 -14 -12 2 -15 -3 -11 -18 3 -12
7 -16 9 -10 3 7 11 9 19 6 19 -7 18 -43 -1 -43 -8 0 -15 4 -15 9 0 4 -11 6
-25 3 -37 -7 -31 -29 8 -28 28 1 32 -2 35 -28 3 -27 2 -28 -32 -24 -31 3 -36
1 -35 -17 0 -11 3 -14 6 -7 2 6 9 12 14 12 6 0 7 -4 4 -10 -3 -5 -1 -10 4 -10
6 0 11 -9 11 -20 0 -13 -7 -20 -20 -20 -17 0 -20 -6 -19 -37 1 -21 4 -29 6
-18 2 12 13 27 24 34 12 7 18 8 14 2 -3 -7 2 -11 15 -11 16 0 21 -5 18 -22 -2
-18 -11 -24 -42 -28 -38 -5 -39 -6 -23 -22 13 -13 24 -15 40 -9 20 8 23 5 25
-15 2 -25 -22 -34 -31 -11 -3 7 -6 5 -6 -5 -1 -10 -8 -18 -16 -18 -27 0 -16
-19 12 -22 40 -4 42 -34 4 -43 -18 -4 -31 -13 -31 -21 0 -9 5 -12 10 -9 6 3
10 1 10 -6 0 -10 3 -10 12 -1 17 17 48 15 48 -3 0 -9 -7 -18 -15 -21 -8 -4
-15 -10 -15 -16 0 -5 5 -6 10 -3 13 8 8 -18 -5 -27 -17 -13 -27 -9 -21 7 3 8
3 22 0 30 -5 12 -8 12 -20 0 -16 -16 -18 -35 -4 -35 6 0 10 -5 10 -11 0 -5 -4
-8 -9 -5 -4 3 -6 -24 -4 -59 l5 -65 -41 0 -41 0 -1 58 c0 31 -2 75 -4 97 -10
136 -34 620 -35 701 0 43 -3 53 -20 57 -12 3 -18 1 -14 -5 4 -6 1 -9 -7 -6
-20 7 -25 68 -5 68 8 0 18 -5 22 -11 16 -26 19 16 14 165 -3 87 -3 162 0 166
3 5 21 10 40 12 l35 3 6 -90 c4 -49 7 -125 8 -168z m351 235 c0 -4 -9 -8 -19
-8 -15 0 -17 3 -9 13 10 12 28 9 28 -5z m-1162 -9 c9 -9 18 -29 20 -44 3 -24
0 -28 -14 -22 -12 4 -15 3 -10 -5 5 -8 2 -10 -8 -6 -11 4 -16 20 -16 50 0 48
4 52 28 27z m1187 8 c3 -5 2 -12 -3 -15 -5 -3 -9 1 -9 9 0 17 3 19 12 6z m-65
-31 c10 -19 10 -20 -9 -8 -11 6 -17 16 -15 20 8 12 12 10 24 -12z m-510 -25
c0 -7 -7 -15 -15 -19 -15 -5 -22 24 -9 37 9 9 24 -2 24 -18z m35 -5 c-3 -5 0
-12 6 -16 8 -4 9 -3 5 4 -4 7 -3 12 3 12 14 0 46 -49 38 -57 -4 -3 -10 3 -14
13 -5 10 -17 19 -28 19 -13 0 -21 8 -23 24 -2 15 0 21 7 16 6 -3 9 -10 6 -15z
m489 -3 c4 4 4 -1 0 -11 -5 -12 -4 -17 3 -13 5 3 10 -1 10 -9 0 -10 -4 -11
-11 -4 -15 15 -26 12 -20 -5 4 -8 1 -15 -5 -15 -15 0 -14 23 1 38 8 8 8 12 1
12 -6 0 -14 8 -17 17 -6 16 -6 16 12 0 10 -9 22 -14 26 -10z m-475 -82 c13
-12 12 -15 -4 -21 -11 -5 -20 -3 -23 4 -2 6 -10 8 -19 5 -16 -6 -35 15 -26 30
7 11 54 0 72 -18z m37 -23 c-3 -3 -1 -11 6 -19 8 -11 7 -12 -6 -7 -9 3 -16 15
-16 26 0 11 5 16 11 13 6 -4 8 -10 5 -13z m330 7 c3 -6 1 -16 -6 -22 -10 -9
-11 -9 -6 1 4 7 1 12 -8 12 -8 0 -18 5 -21 10 -3 6 3 10 14 10 11 0 23 -5 27
-11z m-154 -64 c2 -21 0 -32 -7 -29 -5 3 -2 -1 8 -9 19 -16 23 -42 7 -52 -5
-3 -10 -1 -10 5 0 7 -6 10 -14 7 -8 -3 -18 5 -25 19 -15 34 -14 44 4 38 9 -4
15 0 15 10 0 9 -7 16 -15 16 -18 0 -20 27 -2 33 23 8 35 -4 39 -38z m128 8 c0
-20 -28 -16 -40 6 -15 29 -13 32 15 19 14 -6 25 -17 25 -25z m-316 5 c-3 -5
-10 -5 -16 -2 -7 4 -8 2 -4 -4 4 -7 13 -12 21 -12 13 0 25 -21 25 -45 0 -9
-11 -13 -34 -12 -19 1 -32 6 -29 11 3 4 -1 12 -8 17 -20 13 -31 11 -23 -3 5
-9 2 -9 -9 1 -9 7 -17 22 -17 32 0 21 15 25 26 7 5 -7 2 -8 -7 -3 -11 6 -12 5
-1 -6 10 -11 16 -10 33 7 19 20 54 29 43 12z m386 -29 c0 -22 -9 -24 -35 -6
-10 8 -15 19 -12 25 11 16 47 2 47 -19z m89 -25 c9 -20 9 -25 0 -22 -14 5 -32
48 -20 48 4 0 13 -12 20 -26z m-534 -25 c-3 -4 4 -6 15 -4 17 3 20 -1 20 -36
0 -21 -4 -39 -10 -39 -5 0 -10 5 -10 10 0 6 -8 10 -17 10 -10 0 -14 -4 -8 -8
6 -4 11 -22 13 -39 3 -25 -1 -33 -13 -33 -9 0 -13 -4 -10 -10 3 -5 1 -10 -4
-10 -16 0 -14 70 2 71 10 0 10 2 0 6 -8 3 -13 24 -13 53 0 43 2 48 20 43 11
-3 17 -9 15 -14z m271 -59 c8 0 14 -4 14 -10 0 -5 -9 -10 -20 -10 -14 0 -20 6
-19 23 0 12 3 16 6 10 2 -7 11 -13 19 -13z m-176 -85 c0 -13 -8 -30 -17 -37
-18 -13 -23 -26 -26 -60 -1 -10 -5 -18 -10 -18 -4 0 -2 -6 4 -13 7 -7 22 -13
33 -13 16 1 20 -5 20 -26 -2 -47 -5 -54 -14 -33 -6 15 -9 16 -9 4 -1 -12 -9
-15 -33 -12 -24 3 -29 2 -18 -6 8 -5 18 -7 22 -5 4 3 8 -6 8 -20 0 -14 -1 -26
-2 -27 -2 0 -21 -2 -43 -5 l-41 -5 1 123 0 123 53 0 c28 -1 52 3 52 7 0 4 -11
8 -25 8 -14 0 -26 5 -26 10 -1 6 -2 16 -3 23 -3 20 15 26 45 15 21 -7 29 -17
29 -33z m450 5 c0 -13 -37 -13 -45 0 -3 6 -3 15 0 20 7 12 45 -5 45 -20z
m-1245 -10 c8 -13 -5 -13 -25 0 -13 8 -13 10 2 10 9 0 20 -4 23 -10z m-98 -29
c22 -14 33 -16 36 -8 3 9 8 9 18 0 14 -14 43 -18 35 -5 -3 5 8 6 25 4 19 -3
29 -10 29 -22 0 -10 7 -23 15 -30 23 -19 9 -28 -32 -24 -21 3 -71 7 -111 11
l-74 6 4 29 c3 15 1 28 -3 28 -5 0 -6 7 -3 15 8 20 23 19 61 -4z m1075 -23 c6
-17 -1 -38 -13 -38 -5 0 -9 11 -9 25 0 26 14 34 22 13z m-182 -23 c0 -14 -4
-25 -10 -25 -11 0 -14 33 -3 43 11 11 13 8 13 -18z m1094 -17 c7 -5 3 -8 -9
-8 -16 0 -17 -2 -5 -10 8 -5 11 -12 8 -16 -4 -3 -20 4 -35 16 -25 20 -25 22
-5 16 16 -6 22 -3 22 9 0 10 -5 13 -12 9 -8 -5 -7 0 2 11 15 18 15 18 19 -1 2
-10 8 -22 15 -26z m-2150 -5 c4 -5 20 -8 34 -9 61 -2 178 -17 197 -25 13 -6 5
-7 -27 -4 -26 3 -83 8 -128 10 -49 3 -90 11 -103 20 -21 15 -21 15 -1 15 11 0
24 -3 28 -7z m1521 -22 c3 -5 1 -12 -5 -16 -5 -3 -10 1 -10 9 0 18 6 21 15 7z
m-1208 -17 c-3 -3 -12 -4 -19 -1 -8 3 -5 6 6 6 11 1 17 -2 13 -5z m-290 -23
c8 7 35 14 60 14 28 1 39 -1 31 -7 -8 -5 4 -6 30 -2 l42 7 0 -36 c0 -35 -20
-62 -28 -39 -2 7 -8 12 -13 12 -6 0 -8 -4 -4 -9 3 -6 -3 -9 -14 -8 -11 0 -17
5 -15 9 3 4 -2 8 -10 8 -8 0 -17 -4 -21 -9 -3 -5 -30 -9 -60 -8 -60 2 -66 11
-43 62 10 22 13 24 21 10 7 -13 11 -14 24 -4z m250 -20 c-10 -12 -9 -12 10 -3
26 14 72 -5 65 -27 -2 -7 1 -17 7 -20 7 -4 -18 -8 -54 -9 -51 -1 -65 2 -65 13
0 8 -5 15 -11 15 -5 0 -7 5 -4 10 3 6 1 10 -4 10 -6 0 -11 4 -11 9 0 10 20 16
56 16 18 0 20 -3 11 -14z m1240 -1 c1 -11 -2 -18 -8 -15 -11 7 -12 35 -1 35 4
0 8 -9 9 -20z m-453 -63 c12 -19 3 -32 -19 -24 -17 7 -21 51 -3 45 6 -2 16
-12 22 -21z m-1048 -9 c4 -7 3 -8 -4 -4 -7 4 -12 2 -12 -5 0 -7 -3 -10 -6 -6
-6 5 3 27 11 27 2 0 7 -5 11 -12z m111 -10 c-3 -8 -6 -5 -6 6 -1 11 2 17 5 13
3 -3 4 -12 1 -19z m1190 -130 c-2 -29 -3 -6 -3 52 0 58 1 81 3 53 2 -29 2 -77
0 -105z m-277 111 c13 -9 12 -10 -2 -5 -10 3 -18 1 -18 -4 0 -6 11 -10 25 -10
21 0 25 -5 25 -30 0 -16 -4 -30 -9 -30 -5 0 -12 -7 -15 -16 -4 -12 -2 -15 9
-10 23 9 19 -31 -5 -44 -18 -10 -20 -7 -21 22 -2 30 -2 31 -6 6 -3 -19 -14
-32 -38 -44 -31 -14 -33 -18 -24 -47 10 -36 12 -33 -28 -42 -20 -4 -33 -3 -33
4 0 6 -11 6 -32 1 -28 -8 -31 -8 -16 4 10 7 15 15 12 18 -3 4 0 9 7 14 8 4 10
3 5 -4 -4 -7 -3 -12 2 -12 6 0 12 7 16 15 3 8 15 15 26 15 23 0 27 18 5 26 -9
4 -15 19 -15 35 0 17 -5 29 -13 29 -9 0 -12 -10 -9 -30 3 -22 0 -30 -12 -31
-9 -1 -20 -3 -26 -4 -5 -1 -22 -4 -37 -5 -27 -3 -27 -3 -4 -7 19 -4 21 -7 10
-14 -11 -7 -11 -9 4 -9 20 0 23 -29 5 -52 -15 -18 -104 -32 -113 -17 -4 5 -2
9 3 9 5 0 12 9 15 20 3 12 14 20 25 20 12 0 24 5 27 10 8 13 -36 13 -145 0
-165 -19 -198 -21 -205 -10 -4 6 12 10 44 10 28 0 51 4 51 9 0 4 -12 8 -27 8
-64 1 -73 6 -73 39 l0 31 82 1 c88 1 98 -4 98 -50 l0 -27 61 5 c93 8 109 17
109 59 0 19 -4 35 -10 35 -5 0 -10 -15 -10 -34 0 -21 -6 -36 -15 -40 -8 -3
-15 0 -15 7 0 9 -3 8 -9 -1 -5 -9 -24 -12 -52 -10 -34 2 -45 7 -47 22 -2 10 2
22 10 27 10 7 10 9 -2 9 -13 0 -13 1 0 10 9 5 -28 7 -100 3 -155 -8 -221 -4
-277 18 -15 6 -48 11 -72 11 -39 0 -71 15 -71 32 0 10 39 46 49 46 5 0 11 -4
13 -9 3 -10 104 -18 113 -9 10 10 46 -4 42 -16 -17 -45 -17 -54 0 -58 10 -2
32 -1 48 3 21 5 24 7 10 9 -11 1 -23 2 -27 1 -18 -3 -6 15 16 25 20 9 23 9 19
-3 -4 -10 1 -13 23 -9 27 5 28 4 10 -9 -11 -8 -15 -15 -8 -15 6 0 17 8 24 18
10 14 26 19 68 19 30 1 67 3 83 6 15 3 27 1 27 -4 0 -6 6 -7 13 -2 17 11 39
13 60 7 14 -4 16 -9 7 -19 -7 -8 -9 -19 -5 -25 4 -6 -5 -10 -21 -10 -21 0 -24
-3 -15 -13 6 -8 23 -12 41 -9 25 3 29 8 25 23 -4 11 -2 19 6 19 9 0 8 4 -1 15
-7 8 -11 15 -9 16 2 0 32 3 66 5 52 4 61 2 59 -12 -1 -8 -9 -20 -17 -26 -11
-8 -10 -9 4 -4 10 3 52 6 93 6 62 0 72 2 68 15 -4 10 -10 12 -18 7 -17 -14
-109 -9 -113 6 -3 8 6 12 24 12 21 0 33 7 43 24 9 18 23 26 49 29 20 2 38 4
41 5 3 1 12 -3 20 -9z m490 -13 c0 -7 -6 -18 -13 -24 -10 -9 -13 -6 -13 13 0
14 6 25 13 25 7 0 13 -6 13 -14z m-1470 -18 c0 -5 -4 -6 -10 -3 -5 3 -10 1
-10 -4 0 -6 7 -11 15 -11 8 0 15 -4 15 -9 0 -23 -35 -2 -38 22 -3 21 0 26 12
21 9 -3 16 -10 16 -16z m1190 -38 c0 -11 -7 -20 -15 -20 -8 0 -15 9 -15 20 0
11 7 20 15 20 8 0 15 -9 15 -20z m-1105 -40 c3 -5 1 -10 -4 -10 -6 0 -11 5
-11 10 0 6 2 10 4 10 3 0 8 -4 11 -10z m139 -15 c11 -8 30 -15 43 -15 13 0 23
-6 23 -12 1 -8 5 -7 13 3 11 15 16 15 37 4 l25 -14 -25 -11 c-22 -9 -23 -10
-2 -6 17 3 22 0 22 -17 0 -18 -2 -19 -10 -7 -8 12 -11 12 -27 -2 -12 -10 -41
-16 -90 -17 l-73 -2 1 28 c1 16 3 21 6 11 3 -14 7 -15 17 -5 11 10 10 14 -3
24 -14 11 -14 13 7 19 12 3 22 10 22 14 0 5 -10 11 -22 13 -20 4 -20 4 -3 5
11 1 29 -5 39 -13z m-151 -35 c4 0 5 5 2 10 -3 6 -1 10 4 10 6 0 12 -8 12 -17
1 -17 2 -17 6 0 2 9 9 15 14 11 5 -3 6 -10 3 -16 -4 -6 -2 -8 4 -4 6 3 13 2
17 -4 3 -5 2 -10 -4 -10 -5 0 -11 -10 -13 -22 -2 -18 -10 -23 -35 -24 -18 -1
-30 3 -27 8 3 4 15 8 27 9 20 1 20 2 -3 8 -14 4 -28 3 -31 -2 -4 -5 -9 -5 -13
2 -11 18 -26 13 -26 -9 0 -11 -6 -20 -13 -20 -7 0 -13 11 -13 25 0 21 5 25 31
26 l30 1 -30 7 c-20 4 -26 9 -17 14 7 5 22 5 33 2 16 -6 20 -4 14 6 -6 11 -5
12 6 2 7 -7 17 -13 22 -13z m1862 -12 c3 -13 1 -36 -4 -53 -5 -16 -10 -24 -10
-17 -1 6 -8 12 -16 12 -19 0 -21 66 -2 73 22 9 27 7 32 -15z m-939 -1 c4 -4
-2 -7 -14 -7 -12 0 -22 4 -22 9 0 10 26 9 36 -2z m884 -1 c0 -8 -3 -22 -6 -30
-5 -13 -9 -14 -20 -5 -11 9 -14 7 -14 -13 0 -15 -6 -25 -15 -25 -8 0 -15 4
-15 9 0 4 5 8 10 8 6 0 10 16 10 35 0 31 3 35 25 35 15 0 25 -6 25 -14z m-933
-2 c-3 -3 -12 -4 -19 -1 -8 3 -5 6 6 6 11 1 17 -2 13 -5z m-110 -10 c-3 -3
-12 -4 -19 -1 -8 3 -5 6 6 6 11 1 17 -2 13 -5z m162 -13 c8 -5 11 -16 7 -26
-5 -14 -13 -16 -38 -11 -40 8 -44 12 -28 31 14 17 38 19 59 6z m-685 -33 c8
14 46 11 46 -3 0 -5 -17 -10 -38 -11 -20 0 -44 -2 -52 -4 -8 -1 -46 -1 -85 0
l-70 3 90 11 c50 6 93 7 96 2 4 -4 9 -3 13 2z m323 -27 c2 -13 -2 -30 -8 -37
-9 -10 -4 -12 24 -7 19 3 43 0 53 -6 16 -10 15 -10 -8 -5 -19 4 -38 -1 -63
-16 -43 -26 -46 -36 -5 -15 41 21 82 20 78 -2 -2 -10 -10 -18 -18 -18 -8 -1
-14 -6 -13 -11 1 -6 -14 -9 -35 -7 -20 2 -45 4 -54 4 -20 0 -24 14 -7 25 8 5
7 9 -2 14 -14 9 -59 -8 -59 -23 0 -5 8 -3 17 4 10 8 14 9 10 2 -4 -6 -3 -14 3
-18 5 -3 10 -12 10 -20 0 -14 -19 -19 -100 -31 -24 -3 -48 -8 -52 -10 -4 -3
-11 13 -14 36 -4 22 -12 40 -18 41 -6 0 -2 4 9 8 16 7 12 10 -23 16 -35 6 -41
10 -32 21 9 10 6 15 -14 20 -35 8 -33 24 3 24 16 0 36 7 45 15 8 8 17 11 20 6
3 -5 23 -7 44 -4 34 5 37 3 38 -21 1 -14 -2 -26 -8 -26 -5 0 -6 -4 -3 -10 3
-5 -6 -12 -20 -16 -24 -6 -36 -34 -14 -34 5 0 8 4 5 9 -7 10 16 21 44 21 13 0
17 5 13 20 -3 11 -2 32 1 46 6 23 11 26 36 20 18 -3 30 -1 30 5 0 6 18 9 42 7
35 -3 42 -7 45 -27z m-516 -15 c8 4 9 3 5 -4 -11 -18 -36 -2 -35 22 0 20 1 20
10 -2 5 -14 13 -20 20 -16z m123 -34 c-4 -17 -11 -29 -16 -26 -19 12 -133 6
-130 -6 1 -6 -2 -9 -8 -5 -8 5 -8 11 -1 19 7 9 7 16 -2 25 -9 10 -8 11 6 6 9
-4 17 -10 17 -14 0 -12 93 -12 110 -1 13 9 13 11 0 20 -13 8 -12 10 3 10 12 0
16 5 11 13 -5 9 -4 9 5 1 7 -6 9 -23 5 -42z m686 39 c-28 -8 -16 -19 17 -16
14 1 19 -3 16 -12 -3 -8 -10 -12 -17 -10 -6 2 -17 -5 -26 -15 -16 -20 -56 -16
-44 4 4 6 0 14 -7 19 -11 7 -12 9 -1 9 8 0 16 -9 19 -19 3 -12 11 -17 20 -14
12 5 12 7 1 14 -11 7 -10 9 1 9 11 0 10 5 -4 20 -18 20 -17 20 16 19 30 -1 31
-2 9 -8z m1010 -12 c0 -13 20 -34 40 -42 12 -4 11 -6 -2 -6 -14 -1 -18 -10
-18 -36 0 -48 -23 -46 -40 4 -9 29 -10 43 -1 60 7 12 9 27 5 33 -4 7 -3 8 4 4
7 -4 12 -12 12 -17z m120 -1 c0 -9 -5 -20 -11 -23 -6 -4 -9 -23 -7 -44 2 -26
-1 -36 -12 -36 -18 0 -19 47 -1 69 9 11 10 16 2 16 -6 0 -11 9 -11 19 0 14 6
19 20 18 12 -1 20 -8 20 -19z m-1183 6 c-3 -3 -12 -4 -19 -1 -8 3 -5 6 6 6 11
1 17 -2 13 -5z m-67 -14 c-13 -8 -12 -10 3 -10 9 0 17 6 18 13 0 6 5 2 11 -10
13 -28 -7 -60 -27 -43 -6 5 -14 7 -17 4 -3 -3 -9 -1 -13 5 -3 6 0 11 7 11 8 0
6 5 -5 11 -10 6 -25 8 -33 5 -8 -3 -14 0 -14 5 0 7 11 9 25 7 14 -3 25 -1 25
3 0 5 8 9 18 9 14 0 15 -2 2 -10z m-525 -9 c3 -5 2 -12 -3 -15 -5 -3 -9 1 -9
9 0 17 3 19 12 6z m481 -38 c-10 -10 -19 5 -10 18 6 11 8 11 12 0 2 -7 1 -15
-2 -18z m-699 11 c-3 -3 -12 -4 -19 -1 -8 3 -5 6 6 6 11 1 17 -2 13 -5z m3
-18 c0 -2 -7 -7 -16 -10 -8 -3 -12 -2 -9 4 6 10 25 14 25 6z m1420 -21 c0 -7
-7 -15 -15 -19 -8 -3 -15 -10 -15 -15 0 -6 7 -8 15 -5 10 4 15 0 15 -11 0 -9
-6 -15 -12 -13 -7 3 -19 -2 -27 -9 -10 -11 -17 -11 -25 -3 -8 8 -6 15 8 26 11
7 16 17 11 21 -4 5 -10 3 -12 -4 -6 -17 -33 -4 -33 16 0 12 13 21 38 27 41 11
52 9 52 -11z m-1510 11 c0 -3 -4 -8 -10 -11 -5 -3 -10 -1 -10 4 0 6 5 11 10
11 6 0 10 -2 10 -4z m315 -6 c-26 -11 -45 -12 -45 -2 0 4 15 8 33 9 26 1 28 0
12 -7z m472 4 c-3 -3 -12 -4 -19 -1 -8 3 -5 6 6 6 11 1 17 -2 13 -5z m193 -19
c0 -8 -4 -15 -10 -15 -5 0 -7 7 -4 15 4 8 8 15 10 15 2 0 4 -7 4 -15z m-621
-7 c-3 -28 2 -40 15 -35 10 4 12 0 9 -14 -3 -10 -10 -19 -15 -19 -5 0 -6 5 -3
10 3 6 1 10 -4 10 -6 0 -11 -7 -11 -15 0 -12 9 -15 45 -11 25 2 47 1 49 -3 3
-4 -7 -8 -22 -9 -14 -1 -31 -7 -36 -12 -6 -6 -21 -10 -35 -9 -22 0 -23 2 -8 8
17 6 17 8 3 20 -9 7 -25 10 -38 6 -18 -5 -20 -4 -8 4 11 8 12 11 2 11 -7 0
-10 4 -7 10 4 6 -3 6 -21 0 -22 -9 -25 -8 -20 5 3 8 1 15 -4 15 -6 0 -10 -9
-10 -20 0 -11 -4 -20 -10 -20 -5 0 -7 7 -4 15 4 9 0 15 -7 15 -9 1 -7 6 5 15
14 10 35 14 67 11 35 -3 49 -1 53 10 7 17 17 19 15 2z m508 6 c-3 -3 -12 -4
-19 -1 -8 3 -5 6 6 6 11 1 17 -2 13 -5z m873 -13 c0 -11 -5 -23 -12 -27 -7 -4
-8 -3 -4 4 4 7 3 12 -3 12 -6 0 -8 7 -5 15 9 21 24 19 24 -4z m100 -11 c0 -12
-5 -17 -13 -14 -8 3 -14 11 -14 19 0 8 6 15 14 15 7 0 13 -9 13 -20z m247 -27
c-3 -10 -5 -2 -5 17 0 19 2 27 5 18 2 -10 2 -26 0 -35z m-1287 33 c0 -2 -9 -6
-20 -9 -11 -3 -18 -1 -14 4 5 9 34 13 34 5z m480 -7 c0 -7 -9 -9 -22 -6 -21 6
-22 5 -5 -7 15 -12 16 -14 2 -20 -8 -3 -15 -1 -15 3 0 5 -3 16 -6 25 -5 12 0
16 20 16 14 0 26 -5 26 -11z m-1290 -9 c0 -5 -2 -10 -4 -10 -3 0 -8 5 -11 10
-3 6 -1 10 4 10 6 0 11 -4 11 -10z m680 -10 c0 -5 -7 -10 -16 -10 -8 0 -12 5
-9 10 3 6 10 10 16 10 5 0 9 -4 9 -10z m130 -5 c0 -7 -12 -15 -27 -18 -16 -3
-37 -13 -48 -21 -19 -15 -19 -16 -1 -9 13 4 17 3 12 -5 -4 -7 -16 -12 -27 -12
-14 0 -18 5 -15 23 3 12 5 26 5 31 1 4 8 5 17 2 13 -5 14 -3 6 6 -8 10 0 13
34 14 29 1 44 -3 44 -11z m969 -27 c1 -5 -3 -8 -9 -8 -5 0 -10 12 -9 28 0 24
1 25 9 7 5 -11 9 -23 9 -27z m-1209 2 c-21 -14 -30 -12 -30 4 0 18 22 27 35
14 6 -6 5 -12 -5 -18z m65 20 c-3 -5 -11 -10 -16 -10 -6 0 -7 5 -4 10 3 6 11
10 16 10 6 0 7 -4 4 -10z m805 1 c0 -6 -5 -13 -12 -17 -7 -5 -8 -3 -3 6 6 10
3 12 -13 8 -12 -4 -20 -2 -16 3 7 12 44 12 44 0z m-941 -20 c11 -7 10 -11 -5
-20 -14 -8 -15 -10 -4 -11 18 0 22 -80 5 -92 -6 -5 -4 -8 6 -8 16 0 20 -33 5
-47 -11 -11 -24 16 -22 47 1 19 -2 26 -11 23 -7 -3 -10 -9 -7 -14 3 -5 3 -9 0
-9 -2 0 -13 -3 -23 -7 -15 -6 -16 -4 -6 8 11 13 8 15 -20 11 -17 -2 -39 -6
-47 -10 -32 -12 -50 -9 -50 9 0 21 16 26 23 7 2 -7 8 -9 13 -5 5 4 2 12 -6 17
-22 13 16 50 51 50 15 0 30 4 34 10 3 5 12 7 20 4 10 -4 13 1 9 20 -5 27 9 34
35 17z m181 -33 c0 -12 -5 -15 -17 -11 -11 4 -14 3 -9 -6 4 -6 4 -11 -1 -10
-4 1 -21 -3 -36 -9 -16 -7 -33 -12 -38 -12 -5 0 -9 -7 -9 -15 0 -10 -9 -15
-27 -14 -25 2 -25 2 -5 6 19 4 21 7 11 19 -6 8 -9 17 -6 21 4 3 2 12 -4 19 -7
8 -7 14 1 19 16 10 70 13 64 3 -3 -4 11 -8 32 -8 29 0 34 3 25 13 -6 8 -8 17
-4 21 9 8 23 -14 23 -36z m1080 8 c0 -3 -4 -8 -10 -11 -5 -3 -10 -1 -10 4 0 6
5 11 10 11 6 0 10 -2 10 -4z m330 -10 c0 -2 -9 -6 -20 -9 -11 -3 -20 -1 -20 4
0 5 9 9 20 9 11 0 20 -2 20 -4z m70 -29 c-1 -20 -2 -20 -11 -4 -5 9 -18 17
-27 18 -14 0 -13 2 3 8 26 11 35 5 35 -22z m-1870 15 c0 -4 -10 -9 -22 -9 -18
-2 -20 0 -8 7 18 12 30 13 30 2z m1143 -40 c23 -25 8 -41 -23 -25 -22 11 -23
13 -5 14 11 0 14 3 8 6 -15 5 -18 23 -5 23 5 0 16 -8 25 -18z m-1133 -29 l0
-37 -20 22 c-23 24 -25 38 -7 45 24 10 27 7 27 -30z m337 31 c-3 -3 -12 -4
-19 -1 -8 3 -5 6 6 6 11 1 17 -2 13 -5z m58 -4 c-3 -5 -12 -10 -18 -10 -7 0
-6 4 3 10 19 12 23 12 15 0z m1825 -15 c0 -8 -2 -15 -4 -15 -2 0 -6 7 -10 15
-3 8 -1 15 4 15 6 0 10 -7 10 -15z m38 3 c-6 -18 -25 -21 -25 -3 0 8 7 15 15
15 7 0 12 -5 10 -12z m-611 -30 c-3 -8 -6 -5 -6 6 -1 11 2 17 5 13 3 -3 4 -12
1 -19z m-1399 0 c9 -9 12 -9 12 0 0 7 5 12 10 12 18 0 11 -30 -7 -31 -17 -1
-17 -2 0 -6 9 -2 17 -8 17 -13 0 -5 -8 -7 -17 -3 -10 3 -15 2 -10 -3 11 -12
-80 -34 -103 -26 -17 6 -17 9 -4 32 l15 25 -7 -25 c-5 -20 -4 -23 7 -13 8 9
16 9 24 3 22 -18 45 -1 41 31 -4 31 3 36 22 17z m2042 2 c0 -5 -4 -10 -10 -10
-5 0 -10 5 -10 10 0 6 5 10 10 10 6 0 10 -4 10 -10z m-1977 -20 c-3 -11 -7
-20 -9 -20 -2 0 -4 9 -4 20 0 11 4 20 9 20 5 0 7 -9 4 -20z m869 -2 c-6 -6
-16 -7 -22 -3 -9 6 -9 9 1 16 17 10 34 0 21 -13z m1053 9 c16 1 16 1 3 -3 -11
-3 -18 -15 -18 -28 0 -12 -6 -23 -13 -23 -8 0 -14 6 -14 13 0 7 4 11 9 8 4 -3
8 2 8 10 0 9 -4 16 -10 16 -5 0 -10 5 -10 11 0 6 5 7 13 2 6 -4 21 -7 32 -6z
m-713 -64 c2 -23 0 -39 -4 -37 -5 3 -7 29 -7 57 1 56 6 48 11 -20z m-1552 53
c0 -2 -9 -6 -20 -9 -11 -3 -20 -1 -20 4 0 5 9 9 20 9 11 0 20 -2 20 -4z m2293
-23 c-3 -7 -8 -13 -12 -13 -4 0 -8 6 -8 13 0 8 6 14 13 14 7 0 10 -6 7 -14z
m-2181 -15 c-6 -6 -15 -8 -19 -4 -4 4 -1 11 7 16 19 12 27 3 12 -12z m-37 2
c3 -6 -1 -7 -9 -4 -18 7 -21 14 -7 14 6 0 13 -4 16 -10z m1700 -9 c-3 -10 -10
-39 -14 -62 l-9 -44 -2 40 -3 40 -7 -45 c-4 -26 -8 -34 -9 -20 -1 20 -3 22
-11 10 -8 -13 -10 -12 -10 4 0 12 -5 16 -15 12 -8 -3 -15 -1 -15 4 0 6 9 10
21 10 22 0 58 36 59 58 0 6 5 12 11 12 6 0 8 -8 4 -19z m362 -3 c-3 -8 -6 -5
-6 6 -1 11 2 17 5 13 3 -3 4 -12 1 -19z m-394 5 c-7 -2 -21 -2 -30 0 -10 3 -4
5 12 5 17 0 24 -2 18 -5z m84 -50 c-3 -10 -5 -4 -5 12 0 17 2 24 5 18 2 -7 2
-21 0 -30z m-157 -7 c0 -3 -4 -8 -10 -11 -5 -3 -10 -1 -10 4 0 6 5 11 10 11 6
0 10 -2 10 -4z m-321 -200 c-9 -8 -10 -6 -5 7 3 10 7 58 8 105 l2 87 3 -94 c3
-64 0 -98 -8 -105z m208 87 c-3 -10 -5 -4 -5 12 0 17 2 24 5 18 2 -7 2 -21 0
-30z m-847 23 c0 -3 -4 -8 -10 -11 -5 -3 -10 -1 -10 4 0 6 5 11 10 11 6 0 10
-2 10 -4z m847 -68 c-3 -8 -6 -5 -6 6 -1 11 2 17 5 13 3 -3 4 -12 1 -19z
m-1125 -78 c11 -21 14 -36 8 -38 -6 -2 -7 -9 -4 -14 5 -7 2 -8 -7 -2 -16 9
-20 10 -66 12 -32 2 -32 3 -21 30 28 64 62 69 90 12z m1208 30 c0 -5 -2 -10
-4 -10 -3 0 -8 5 -11 10 -3 6 -1 10 4 10 6 0 11 -4 11 -10z m-293 -102 c-2
-18 -4 -6 -4 27 0 33 2 48 4 33 2 -15 2 -42 0 -60z m413 17 c0 -49 -3 -57 -22
-64 -21 -8 -23 -5 -26 31 -3 31 2 46 19 64 12 13 24 24 26 24 2 0 3 -25 3 -55z
m-140 33 c0 -7 -11 -23 -25 -36 -21 -20 -25 -34 -28 -100 l-3 -77 -2 93 c-2
86 0 95 21 113 26 22 37 24 37 7z m77 -85 c-3 -10 -5 -2 -5 17 0 19 2 27 5 18
2 -10 2 -26 0 -35z m-1181 12 c1 -8 -4 -11 -11 -8 -8 2 -11 11 -8 19 6 16 16
11 19 -11z m58 -19 c-6 -15 -24 -23 -24 -11 0 8 24 34 28 30 1 -1 0 -10 -4
-19z m-104 -1 c-7 -9 -15 -13 -19 -10 -3 3 1 10 9 15 21 14 24 12 10 -5z m1
-38 c-10 -9 -11 -8 -5 6 3 10 9 15 12 12 3 -3 0 -11 -7 -18z m224 2 c9 -27 0
-35 -57 -47 -42 -8 -48 -7 -48 7 0 11 -3 12 -8 4 -5 -8 -11 -8 -24 1 -14 10
-14 14 -1 31 9 12 17 16 20 9 3 -9 16 -8 51 1 63 18 60 18 67 -6z m-192 -21
c-3 -15 -9 -25 -14 -23 -4 3 -3 17 3 30 14 31 18 28 11 -7z m1240 15 c-7 -2
-19 -2 -25 0 -7 3 -2 5 12 5 14 0 19 -2 13 -5z m-91 -25 c-2 -10 -6 -18 -7
-18 -1 0 -5 8 -7 18 -3 11 0 19 7 19 7 0 10 -8 7 -19z m-1186 1 c3 -6 1 -16
-5 -22 -8 -8 -11 -7 -11 5 0 9 -6 19 -12 21 -8 3 -7 6 4 6 9 1 20 -4 24 -10z
m1135 -96 c-8 -15 -10 -15 -11 -2 0 17 10 32 18 25 2 -3 -1 -13 -7 -23z m-24
-35 c-3 -7 -5 -2 -5 12 0 14 2 19 5 13 2 -7 2 -19 0 -25z m144 -2 c-6 -7 -18
-31 -26 -52 l-15 -39 6 39 c6 39 36 92 42 75 2 -5 -1 -16 -7 -23z m-1584 -23
c-3 -10 -5 -4 -5 12 0 17 2 24 5 18 2 -7 2 -21 0 -30z m270 -35 c-3 -8 -6 -5
-6 6 -1 11 2 17 5 13 3 -3 4 -12 1 -19z m143 12 c0 -5 -2 -10 -4 -10 -3 0 -8
5 -11 10 -3 6 -1 10 4 10 6 0 11 -4 11 -10z m1171 -27 c-12 -20 -14 -14 -5 12
4 9 9 14 11 11 3 -2 0 -13 -6 -23z m-20 -46 c-10 -9 -11 -8 -5 6 3 10 9 15 12
12 3 -3 0 -11 -7 -18z m-7 -32 c3 -8 1 -15 -4 -15 -6 0 -10 7 -10 15 0 8 2 15
4 15 2 0 6 -7 10 -15z m-1407 -17 c-3 -8 -6 -5 -6 6 -1 11 2 17 5 13 3 -3 4
-12 1 -19z m210 -20 c-3 -7 -5 -2 -5 12 0 14 2 19 5 13 2 -7 2 -19 0 -25z
m-34 -13 c-3 -9 -8 -14 -10 -11 -3 3 -2 9 2 15 9 16 15 13 8 -4z m-146 -67
c-3 -7 -5 -2 -5 12 0 14 2 19 5 13 2 -7 2 -19 0 -25z m-480 0 c-3 -8 -6 -5 -6
6 -1 11 2 17 5 13 3 -3 4 -12 1 -19z m460 0 c-3 -8 -6 -5 -6 6 -1 11 2 17 5
13 3 -3 4 -12 1 -19z m160 0 c-3 -8 -6 -5 -6 6 -1 11 2 17 5 13 3 -3 4 -12 1
-19z m44 -13 c5 4 9 2 9 -4 0 -5 -4 -12 -9 -15 -9 -6 -22 17 -20 37 1 7 3 4 6
-6 2 -9 9 -15 14 -12z m56 3 c-3 -8 -6 -5 -6 6 -1 11 2 17 5 13 3 -3 4 -12 1
-19z m1146 5 c-13 -2 -35 -2 -50 0 -16 2 -5 4 22 4 28 0 40 -2 28 -4z m-1263
-25 c0 -13 -23 -5 -28 10 -2 7 2 10 12 6 9 -3 16 -11 16 -16z m159 -26 c12
-41 3 -42 -10 -2 -6 16 -15 27 -20 24 -5 -3 -6 2 -3 11 8 21 22 8 33 -33z
m-352 6 c-3 -7 -5 -2 -5 12 0 14 2 19 5 13 2 -7 2 -19 0 -25z m84 9 c-10 -9
-11 -8 -5 6 3 10 9 15 12 12 3 -3 0 -11 -7 -18z m26 -9 c-3 -7 -5 -2 -5 12 0
14 2 19 5 13 2 -7 2 -19 0 -25z m169 6 c-4 -9 -9 -15 -11 -12 -3 3 -3 13 1 22
4 9 9 15 11 12 3 -3 3 -13 -1 -22z m-319 -6 c-3 -8 -6 -5 -6 6 -1 11 2 17 5
13 3 -3 4 -12 1 -19z m253 -53 c-7 -60 -7 -60 -9 -13 -1 41 7 84 14 76 2 -2 0
-30 -5 -63z m-63 23 c-3 -7 -5 -2 -5 12 0 14 2 19 5 13 2 -7 2 -19 0 -25z m41
8 c-2 -19 -5 -22 -15 -14 -15 12 -18 32 -3 23 6 -3 10 -1 10 4 0 6 2 11 5 11
3 0 4 -11 3 -24z m-131 -8 c-3 -8 -6 -5 -6 6 -1 11 2 17 5 13 3 -3 4 -12 1
-19z m1603 -4 c0 -8 -5 -12 -10 -9 -6 4 -8 11 -5 16 9 14 15 11 15 -7z m-1420
-15 c0 -5 -4 -9 -8 -9 -5 0 -9 7 -9 15 0 8 4 12 9 9 4 -3 8 -9 8 -15z m52 -3
c3 -14 0 -27 -7 -29 -7 -3 -10 5 -7 24 5 35 8 36 14 5z m-229 -11 c-3 -9 -8
-14 -10 -11 -3 3 -2 9 2 15 9 16 15 13 8 -4z m292 6 c3 -5 1 -12 -5 -16 -5 -3
-10 1 -10 9 0 18 6 21 15 7z m-248 -23 c-3 -8 -6 -5 -6 6 -1 11 2 17 5 13 3
-3 4 -12 1 -19z m40 -20 c-3 -7 -5 -2 -5 12 0 14 2 19 5 13 2 -7 2 -19 0 -25z
m103 25 c0 -5 -5 -15 -10 -23 -8 -12 -10 -11 -10 8 0 12 5 22 10 22 6 0 10 -3
10 -7z m981 -34 c9 -6 -1 -9 -29 -7 l-43 2 23 17 c15 12 25 14 29 7 4 -6 13
-14 20 -19z m-1051 -12 c0 -18 -2 -19 -10 -7 -8 12 -10 12 -10 1 0 -8 -2 -12
-5 -10 -2 3 -2 15 2 27 7 27 23 19 23 -11z m137 11 c-3 -8 -6 -5 -6 6 -1 11 2
17 5 13 3 -3 4 -12 1 -19z m1038 4 c17 -10 14 -11 -25 -11 -25 0 -39 3 -32 6
6 2 10 9 6 14 -7 12 26 6 51 -9z m243 2 c72 -9 47 -19 -51 -20 -50 -1 -81 0
-67 3 14 3 29 8 33 12 10 10 32 11 85 5z m-1238 -8 c0 -3 -4 -8 -10 -11 -5 -3
-10 -1 -10 4 0 6 5 11 10 11 6 0 10 -2 10 -4z m917 -2 c-3 -3 -12 -4 -19 -1
-8 3 -5 6 6 6 11 1 17 -2 13 -5z m-507 -28 c0 -14 -7 -31 -15 -38 -50 -45 -60
-48 -68 -18 -6 22 9 38 15 18 3 -9 9 -8 22 5 10 9 13 17 7 17 -6 0 -3 9 6 20
23 27 33 25 33 -4z m673 17 c-7 -2 -21 -2 -30 0 -10 3 -4 5 12 5 17 0 24 -2
18 -5z m-176 -50 c-3 -10 -5 -2 -5 17 0 19 2 27 5 18 2 -10 2 -26 0 -35z m53
32 c0 -2 -9 -3 -19 -2 -11 0 -18 5 -15 9 4 6 34 0 34 -7z m25 5 c3 -5 1 -10
-4 -10 -6 0 -11 5 -11 10 0 6 2 10 4 10 3 0 8 -4 11 -10z m-127 -12 c-4 -12
-22 -12 -26 0 -1 5 4 9 13 9 9 0 14 -4 13 -9z m192 -2 c-7 -7 -13 -7 -20 0 -6
6 -3 10 10 10 13 0 16 -4 10 -10z m154 -12 c18 -18 21 -34 6 -34 -5 0 -10 8
-10 18 0 14 -2 15 -10 2 -8 -13 -10 -13 -10 2 0 11 -6 16 -20 13 -11 -2 -20 0
-20 6 0 15 47 10 64 -7z m36 -11 c0 -21 -3 -24 -9 -14 -5 8 -7 20 -4 28 8 21
13 15 13 -14z m-156 -4 c-3 -5 -10 -7 -15 -3 -5 3 -7 10 -3 15 3 5 10 7 15 3
5 -3 7 -10 3 -15z m86 -10 c0 -5 -7 -9 -15 -9 -15 0 -20 12 -9 23 8 8 24 -1
24 -14z m93 -31 c15 3 17 -5 17 -62 0 -59 -2 -66 -19 -66 -16 0 -19 5 -15 25
5 31 -9 32 -29 3 -14 -22 -15 -22 -14 -3 1 11 7 23 12 27 6 4 1 8 -10 8 -18 1
-17 2 5 15 25 14 25 14 3 15 -16 0 -23 6 -23 19 0 20 26 32 45 22 6 -3 18 -4
28 -3z m-923 -12 c0 -3 -4 -8 -10 -11 -5 -3 -10 -1 -10 4 0 6 5 11 10 11 6 0
10 -2 10 -4z m-588 -110 c7 4 8 2 4 -4 -12 -20 -26 -13 -25 11 1 17 2 18 6 4
2 -9 9 -14 15 -11z m303 14 c3 -5 1 -10 -4 -10 -6 0 -11 5 -11 10 0 6 2 10 4
10 3 0 8 -4 11 -10z"/>
<path d="M544 2669 c3 -46 9 -147 12 -224 5 -108 9 -134 16 -112 9 25 11 26
22 11 12 -15 14 -16 38 0 20 13 24 22 20 44 -3 15 -1 24 3 20 8 -8 35 15 35
30 0 14 -24 9 -44 -7 -9 -7 -16 -9 -16 -3 0 5 7 13 16 16 9 3 14 13 11 20 -4
10 0 14 13 13 16 -1 29 -21 34 -51 2 -14 26 -20 27 -7 1 6 2 17 3 23 2 18 37
23 47 6 7 -10 9 -9 9 4 0 11 5 15 15 12 8 -4 15 -1 15 5 0 6 7 11 15 11 18 0
11 44 -16 109 -15 35 -23 42 -39 38 -16 -4 -20 0 -20 19 0 15 -7 27 -17 30
-16 6 -157 58 -191 71 -11 5 -12 -11 -8 -78z m186 -203 c0 -3 -4 -8 -10 -11
-5 -3 -10 -1 -10 4 0 6 5 11 10 11 6 0 10 -2 10 -4z"/>
<path d="M860 2510 c0 -18 4 -29 10 -25 6 3 10 15 10 25 0 10 -4 22 -10 25 -6
4 -10 -7 -10 -25z"/>
<path d="M840 2456 c0 -9 7 -12 20 -9 11 3 17 9 14 14 -8 14 -34 10 -34 -5z"/>
<path d="M1105 2340 c3 -5 8 -10 11 -10 2 0 4 5 4 10 0 6 -5 10 -11 10 -5 0
-7 -4 -4 -10z"/>
<path d="M1213 2170 c4 -14 7 -42 7 -63 0 -23 4 -36 10 -32 6 3 7 17 4 31 -3
13 -1 30 5 38 8 10 6 18 -11 32 -21 19 -21 19 -15 -6z"/>
<path d="M1025 2450 c-3 -5 -1 -10 4 -10 6 0 11 5 11 10 0 6 -2 10 -4 10 -3 0
-8 -4 -11 -10z"/>
<path d="M1020 2100 c0 -32 4 -40 18 -39 9 0 12 3 5 5 -7 3 -10 19 -7 40 2 19
0 34 -6 34 -5 0 -10 -18 -10 -40z"/>
<path d="M145 2060 c-3 -5 -1 -10 4 -10 6 0 11 5 11 10 0 6 -2 10 -4 10 -3 0
-8 -4 -11 -10z"/>
<path d="M1023 1940 c-1 -11 0 -20 2 -20 2 0 9 9 15 20 8 15 8 20 -3 20 -7 0
-13 -9 -14 -20z"/>
<path d="M556 1885 c4 -8 10 -15 15 -15 5 0 9 7 9 15 0 8 -7 15 -15 15 -9 0
-12 -6 -9 -15z"/>
<path d="M634 1889 c-3 -5 -4 -9 -2 -10 30 -7 48 -7 52 0 3 5 -6 11 -19 14
-14 2 -28 0 -31 -4z"/>
<path d="M810 1876 c7 -7 13 -7 20 0 6 6 3 10 -10 10 -13 0 -16 -4 -10 -10z"/>
<path d="M870 1861 c-28 -5 -31 -8 -17 -14 31 -12 64 -8 64 8 0 8 -3 14 -6 14
-3 -1 -22 -4 -41 -8z"/>
<path d="M988 1863 c12 -2 30 -2 40 0 9 3 -1 5 -23 4 -22 0 -30 -2 -17 -4z"/>
<path d="M608 1763 c6 -2 18 -2 25 0 6 3 1 5 -13 5 -14 0 -19 -2 -12 -5z"/>
<path d="M830 1710 c0 -5 5 -10 11 -10 5 0 7 5 4 10 -3 6 -8 10 -11 10 -2 0
-4 -4 -4 -10z"/>
<path d="M2015 1760 c-3 -6 1 -7 9 -4 18 7 21 14 7 14 -6 0 -13 -4 -16 -10z"/>
<path d="M630 1700 c0 -5 5 -10 11 -10 5 0 7 5 4 10 -3 6 -8 10 -11 10 -2 0
-4 -4 -4 -10z"/>
<path d="M650 1660 c-55 -9 -51 -11 21 -13 42 -1 55 1 52 11 -3 6 -10 11 -17
10 -6 0 -31 -4 -56 -8z"/>
<path d="M725 1010 c-3 -5 -2 -10 4 -10 5 0 13 5 16 10 3 6 2 10 -4 10 -5 0
-13 -4 -16 -10z"/>
<path d="M1380 2990 c-12 -7 -12 -12 -3 -21 10 -10 14 -9 19 5 8 22 2 27 -16
16z"/>
<path d="M1416 2993 c-13 -14 -5 -33 14 -33 11 0 20 6 20 14 0 15 -24 28 -34
19z"/>
<path d="M1478 2993 c7 -3 16 -2 19 1 4 3 -2 6 -13 5 -11 0 -14 -3 -6 -6z"/>
<path d="M1675 2990 c3 -5 10 -10 16 -10 5 0 9 5 9 10 0 6 -7 10 -16 10 -8 0
-12 -4 -9 -10z"/>
<path d="M1780 2990 c0 -5 7 -10 15 -10 8 0 15 5 15 10 0 6 -7 10 -15 10 -8 0
-15 -4 -15 -10z"/>
<path d="M1820 2990 c0 -5 4 -10 9 -10 6 0 13 5 16 10 3 6 -1 10 -9 10 -9 0
-16 -4 -16 -10z"/>
<path d="M2000 2990 c19 -13 30 -13 30 0 0 6 -10 10 -22 10 -19 0 -20 -2 -8
-10z"/>
<path d="M2094 2981 c0 -11 2 -18 5 -16 2 3 10 0 17 -5 8 -8 16 -6 27 5 9 8
21 15 28 15 7 0 5 -6 -6 -13 -12 -10 -15 -16 -6 -21 13 -8 1 -36 -30 -67 -23
-23 -24 -39 -3 -39 12 0 15 -7 11 -26 -4 -21 -1 -25 14 -21 11 3 17 2 14 -3
-3 -4 1 -10 9 -13 9 -4 13 3 14 21 3 52 27 127 43 130 13 2 13 -6 -2 -80 l-17
-83 24 -9 c33 -13 32 -40 -1 -34 -14 3 -25 1 -25 -3 0 -5 5 -9 10 -9 6 0 9
-12 6 -27 -2 -16 -5 -34 -5 -42 -1 -7 -7 -11 -16 -7 -9 3 -15 0 -15 -10 0 -8
5 -12 10 -9 13 8 13 -26 -1 -45 -9 -13 -10 -13 -6 1 3 9 -3 22 -14 30 -10 7
-19 20 -20 29 0 10 -2 11 -6 3 -2 -7 -11 -13 -19 -13 -8 0 -14 -5 -14 -11 0
-5 4 -8 8 -5 4 2 14 1 22 -4 8 -5 -5 -8 -36 -7 -27 0 -39 2 -27 4 17 3 22 11
21 28 -2 22 -3 23 -31 8 -18 -9 -42 -13 -61 -9 -102 19 -107 18 -133 -6 -23
-22 -25 -22 -21 -3 2 12 -3 20 -12 20 -9 0 -19 -17 -26 -45 -13 -50 -34 -148
-36 -167 -1 -7 -8 -13 -15 -13 -8 0 -11 5 -8 10 3 6 2 10 -4 10 -19 0 -22 -20
-7 -36 9 -9 16 -11 16 -4 0 6 4 9 9 5 6 -3 15 4 21 15 6 11 16 20 23 20 8 0 8
-3 -1 -9 -11 -7 -11 -9 2 -14 13 -5 14 -12 6 -32 -13 -35 -13 -38 5 -31 15 5
19 -4 16 -34 -2 -12 0 -13 7 -1 5 7 7 22 5 32 -4 13 0 19 10 19 9 0 17 -11 20
-27 3 -23 4 -22 6 8 1 32 5 37 32 43 49 10 57 6 19 -9 -41 -16 -13 -20 38 -6
17 5 32 6 32 1 0 -5 -8 -11 -17 -13 -17 -4 -17 -5 0 -6 12 -1 17 -10 17 -30 0
-17 5 -33 11 -37 8 -5 10 3 7 25 -4 31 -4 31 36 30 23 0 77 -6 120 -12 64 -10
80 -16 82 -30 1 -11 6 -22 10 -25 4 -4 4 1 1 10 -9 24 18 36 89 43 l59 5 -50
-14 c-31 -8 -40 -14 -25 -14 14 0 43 5 65 12 l40 13 -35 6 c-19 4 -57 11 -85
17 l-50 9 60 -5 c33 -3 71 -8 84 -11 15 -4 22 -2 18 4 -4 6 -35 13 -69 17
-108 12 -138 18 -132 28 7 11 -58 0 -71 -13 -15 -15 -22 -10 -21 14 1 14 8 22
21 23 51 4 48 3 34 21 -12 15 -12 16 4 10 11 -4 20 -1 23 8 5 11 11 12 25 4
17 -9 23 -6 21 12 -1 4 8 15 18 24 11 10 20 27 20 37 0 16 3 17 21 7 l21 -11
-23 -12 c-19 -9 -24 -21 -27 -59 -3 -40 -1 -47 15 -48 10 0 40 -4 67 -8 43 -7
49 -6 53 10 3 11 12 19 19 19 26 0 14 29 -13 33 -27 4 -27 4 3 6 l31 1 0 68
c0 58 -1 60 -4 15 -5 -60 -9 -62 -75 -33 -53 23 -98 57 -98 73 0 7 4 6 10 -3
8 -13 10 -13 10 2 0 12 -12 19 -43 23 -41 6 -43 8 -39 37 3 19 -1 33 -9 39
-11 7 -10 9 4 9 10 0 17 8 17 20 0 19 2 20 36 5 20 -8 51 -15 68 -15 19 0 26
-3 19 -8 -8 -5 6 -17 42 -35 67 -33 77 -33 73 -5 -2 16 -12 25 -33 30 -23 6
-21 6 10 3 22 -3 46 -5 53 -5 8 0 12 -20 12 -65 0 -63 14 -89 23 -42 l4 22 2
-22 c1 -22 21 -34 21 -12 0 5 4 7 10 4 5 -3 15 3 21 14 12 18 14 18 63 -15 38
-26 61 -34 94 -34 26 0 41 -4 37 -10 -3 -5 -1 -10 4 -10 6 0 11 7 11 15 0 8 6
15 14 15 7 0 27 3 43 6 33 7 46 -9 36 -44 -4 -15 -13 -21 -36 -20 -65 0 -113
-15 -102 -33 3 -5 -2 -6 -11 -2 -12 4 -15 3 -10 -6 6 -10 3 -9 -13 0 -14 10
-17 15 -8 21 12 8 -13 13 -43 9 -8 -1 -28 -2 -43 -1 -16 0 -26 -3 -23 -8 3 -5
-8 -6 -24 -4 -16 2 -47 -4 -70 -14 -39 -17 -40 -19 -18 -28 13 -5 28 -8 33 -6
6 1 18 2 28 2 9 0 17 4 17 9 0 6 -5 7 -11 3 -7 -4 -10 -1 -7 7 3 8 14 13 24
11 10 -1 38 -4 62 -7 24 -2 49 -8 57 -15 10 -8 14 -8 18 2 3 7 3 -7 0 -30 l-6
-44 29 29 c16 15 29 33 29 38 0 19 24 50 32 42 4 -5 0 -14 -10 -21 -26 -20
-21 -26 21 -28 35 -1 35 -1 5 -5 -24 -3 -33 -10 -38 -30 -4 -17 -1 -29 7 -34
20 -13 66 -11 71 4 3 8 9 6 19 -7 12 -15 22 -18 47 -13 24 5 31 3 28 -6 -2 -7
-16 -11 -35 -9 -18 2 -32 -1 -32 -7 0 -6 18 -11 40 -11 26 0 39 4 37 12 -1 7
4 12 12 13 8 0 15 6 17 13 1 7 0 8 -2 3 -6 -10 -54 10 -54 22 0 5 -6 5 -12 1
-7 -4 -9 -3 -5 1 10 12 38 15 31 4 -3 -5 -1 -9 4 -9 5 0 8 18 8 40 0 30 -4 39
-14 35 -7 -2 -10 0 -7 5 8 14 42 13 51 -2 5 -7 3 -8 -5 -3 -9 5 -9 2 0 -13 7
-12 15 -19 18 -17 2 3 10 0 16 -5 9 -8 14 -6 19 5 3 8 10 15 16 15 6 0 9 -4 5
-9 -3 -5 -1 -12 4 -15 5 -4 12 2 14 11 3 10 5 -1 6 -24 1 -31 5 -43 16 -43 10
0 15 10 15 33 0 32 2 33 33 30 17 -2 26 0 20 3 -7 3 -13 13 -12 22 0 11 2 12
6 4 2 -6 9 -10 14 -6 15 9 31 -6 20 -19 -6 -8 -3 -20 10 -36 18 -22 24 -17 20
16 -1 8 5 10 14 7 8 -3 12 -11 8 -18 -3 -6 -2 -7 2 -3 13 11 15 38 3 31 -5 -3
-4 3 3 14 15 24 29 20 29 -8 0 -22 17 -35 45 -35 14 0 21 -8 23 -25 2 -25 2
-25 -10 -3 -10 17 -17 19 -30 12 -20 -11 -12 -43 9 -35 8 3 11 1 8 -5 -4 -5
-15 -7 -25 -4 -38 12 -60 14 -65 5 -3 -6 -28 -8 -54 -5 -47 4 -48 4 -43 -21 4
-23 2 -25 -18 -19 -14 4 -20 3 -16 -3 3 -5 -1 -15 -8 -21 -11 -9 -12 -20 -5
-44 5 -18 9 -44 9 -59 0 -16 5 -28 10 -28 6 0 10 -9 10 -21 0 -11 4 -18 9 -15
5 3 11 -3 14 -13 3 -12 0 -18 -7 -15 -7 3 -12 -6 -14 -21 -2 -22 2 -25 33 -25
18 0 37 5 40 10 3 6 1 10 -4 10 -6 0 -10 15 -8 34 1 19 5 32 8 30 4 -2 5 16 3
41 -2 30 1 47 11 52 7 4 15 24 17 43 l3 35 55 -2 55 -2 -48 9 c-69 12 -72 22
-4 14 48 -6 57 -4 57 9 0 10 6 14 14 11 9 -3 16 2 19 13 2 10 2 4 0 -14 -2
-17 1 -34 7 -38 5 -3 10 -18 10 -33 0 -24 4 -28 28 -27 25 0 27 -3 30 -45 2
-24 8 -50 14 -57 7 -9 7 -13 -1 -13 -6 0 -11 -7 -11 -15 0 -8 -4 -15 -10 -15
-5 0 -10 12 -10 28 -1 25 -2 24 -14 -10 -12 -32 -15 -255 -7 -453 1 -11 1 -35
0 -53 0 -18 2 -36 5 -39 8 -8 142 -7 155 2 18 10 13 19 -24 44 -39 27 -40 43
-1 17 15 -9 27 -12 31 -6 8 13 -3 30 -20 30 -7 0 -16 7 -19 16 -11 28 -6 54 9
54 21 0 19 39 -2 64 -14 16 -14 18 -3 11 9 -6 8 -3 -2 7 -24 22 -23 37 3 31
l20 -6 -20 34 c-25 40 -27 59 -6 59 21 0 19 12 -7 46 -17 21 -19 26 -6 22 10
-4 19 -1 22 8 10 26 7 34 -13 34 -23 0 -36 41 -18 55 19 15 18 73 -1 71 -21
-3 -27 -23 -12 -40 6 -9 7 -17 2 -20 -6 -3 -12 4 -16 17 -11 41 -6 72 14 90
11 9 17 23 14 32 -5 11 1 15 22 16 25 0 26 2 9 8 -11 5 -25 6 -31 4 -6 -2 -14
8 -16 22 -4 19 -1 28 11 33 9 3 19 10 23 16 5 7 8 6 8 -3 0 -8 6 -11 16 -7 8
3 12 2 9 -4 -3 -6 -1 -10 5 -10 6 0 8 -5 4 -12 -4 -7 -3 -8 4 -4 6 4 9 13 5
21 -7 19 -8 19 52 -3 31 -12 62 -16 80 -12 29 6 29 6 6 12 -12 4 -21 11 -18
16 3 4 -21 21 -55 35 -72 32 -73 45 -2 18 55 -21 93 -17 53 5 -15 9 -19 14 -9
14 8 1 -9 10 -39 21 -29 10 -58 16 -64 12 -6 -4 -7 -1 -2 7 6 10 4 12 -8 7
-14 -5 -17 0 -17 33 0 36 3 40 25 40 26 0 33 -14 13 -26 -15 -10 19 -34 48
-34 13 0 26 -5 29 -10 4 -6 10 -8 15 -5 5 3 30 -6 55 -19 30 -15 42 -26 34
-29 -8 -4 -1 -3 15 0 19 4 27 2 23 -5 -9 -13 48 -33 70 -25 9 4 14 2 11 -3 -4
-5 10 -9 30 -8 20 1 40 -3 44 -9 6 -9 8 -9 8 1 0 6 12 12 27 12 43 0 17 14
-109 58 -122 43 -273 110 -265 118 3 3 83 -24 178 -61 96 -36 180 -63 187 -60
7 2 11 1 8 -4 -3 -5 20 -18 51 -30 48 -18 58 -20 65 -7 4 7 20 17 35 21 24 6
7 15 -127 68 -85 33 -170 60 -187 60 -18 0 -33 4 -33 7 0 4 -11 5 -25 3 -14
-3 -31 1 -40 11 -26 26 -62 30 -108 12 -53 -20 -84 -21 -84 -1 0 8 6 15 14 15
20 0 16 18 -6 25 -11 3 -24 12 -31 20 -9 11 -7 12 12 8 23 -5 23 -5 3 11 -20
17 -20 17 3 6 13 -7 41 -8 67 -4 31 4 50 2 61 -6 10 -9 12 -15 4 -20 -8 -5 -7
-9 4 -13 11 -5 16 -1 16 13 0 21 26 39 68 46 15 3 30 11 34 17 4 7 8 -3 9 -23
1 -29 2 -31 7 -12 4 13 12 22 17 20 6 -2 11 9 13 25 4 32 13 33 67 8 31 -15
35 -20 18 -20 -44 -2 -29 -17 42 -42 69 -25 72 -25 67 -7 -2 11 -14 23 -26 28
-17 7 -16 8 11 7 17 -1 31 -4 31 -7 -1 -3 2 -13 6 -22 9 -21 31 -25 23 -5 -7
19 4 33 31 41 32 10 28 -10 -5 -23 -21 -8 -22 -10 -5 -7 19 4 22 0 22 -30 0
-19 5 -34 10 -34 6 0 10 5 10 10 0 6 5 10 10 10 6 0 10 -11 10 -25 0 -22 3
-24 30 -18 33 6 38 -1 15 -24 -14 -14 -30 -10 -161 42 -134 53 -146 56 -162
41 -15 -12 -21 -13 -32 -3 -7 6 -11 8 -8 2 3 -5 2 -19 -2 -30 -5 -16 -1 -22
24 -31 17 -7 78 -31 136 -54 58 -23 119 -42 135 -42 42 1 61 -16 68 -63 4 -22
15 -47 25 -55 10 -9 22 -27 25 -42 6 -21 3 -27 -14 -31 -17 -5 -20 -11 -15
-29 3 -13 6 -37 6 -55 0 -29 2 -31 30 -28 27 4 30 2 30 -25 0 -21 -5 -30 -16
-30 -8 0 -13 -4 -10 -9 3 -5 15 -7 26 -4 15 4 18 11 14 29 -5 20 -2 24 16 24
11 0 18 -4 15 -10 -3 -5 3 -10 14 -10 10 0 21 4 23 10 2 6 9 6 18 0 19 -12 12
-18 -30 -22 -30 -4 -36 -9 -40 -34 -4 -24 -10 -30 -37 -32 -28 -3 -33 -8 -37
-35 -3 -18 -4 -43 -3 -57 2 -14 -3 -40 -10 -58 -11 -25 -11 -42 -3 -73 7 -26
8 -45 2 -52 -14 -17 -18 -73 -9 -138 6 -41 4 -66 -6 -91 -12 -28 -12 -35 0
-46 9 -10 12 -30 8 -74 -5 -74 -25 -93 -94 -90 -37 1 -46 -6 -14 -11 5 0 14
-7 22 -14 7 -8 20 -12 28 -9 8 3 12 2 9 -3 -3 -5 3 -11 14 -14 13 -3 20 0 20
10 0 8 -5 11 -10 8 -5 -3 -10 1 -10 9 0 9 6 16 14 16 20 0 32 -76 15 -96 -9
-11 -9 -23 0 -53 12 -42 15 -104 4 -114 -3 -4 -12 1 -19 11 -10 14 -27 17 -85
16 -62 -1 -75 -5 -91 -24 -10 -12 -18 -28 -18 -36 0 -8 -7 -14 -16 -14 -13 0
-15 7 -11 29 4 19 2 31 -6 34 -16 5 -60 -40 -52 -54 4 -6 -2 -13 -14 -16 -11
-3 -18 -9 -15 -14 3 -5 -4 -9 -15 -9 -11 0 -23 -5 -26 -10 -4 -6 -12 -10 -18
-9 -7 1 -22 1 -35 0 -20 -1 -21 -3 -10 -21 7 -11 18 -20 25 -20 6 0 13 -5 15
-12 2 -6 20 -17 39 -24 25 -9 29 -13 12 -13 -12 -1 -29 -4 -38 -7 -12 -5 -16
-2 -13 11 2 10 -3 20 -9 22 -7 3 -13 -1 -13 -7 0 -17 -26 -40 -45 -40 -10 0
-39 -14 -66 -32 -50 -32 -60 -57 -43 -102 7 -18 34 -22 34 -5 0 5 -5 7 -11 3
-7 -4 -10 4 -8 22 3 20 14 36 39 51 36 24 70 30 70 13 0 -5 27 -7 63 -5 l62 4
-90 -47 c-50 -26 -109 -62 -132 -79 -22 -18 -43 -29 -47 -26 -4 4 -4 0 -1 -9
9 -23 -10 -31 -29 -12 -20 20 -20 34 -1 34 8 0 15 4 15 9 0 14 -49 42 -68 39
-9 -1 -23 1 -29 5 -8 5 -13 3 -13 -5 0 -10 -2 -10 -9 1 -10 16 8 42 24 33 6
-2 5 0 -1 7 -8 9 -20 8 -52 -3 -32 -11 -42 -12 -42 -3 0 33 95 52 126 26 6 -5
19 -7 28 -3 15 6 15 8 -2 23 -18 16 -19 51 -1 51 5 0 9 4 9 9 0 5 -8 8 -17 7
-19 -3 -43 16 -43 34 0 6 14 16 31 22 16 6 28 12 26 15 -3 2 -29 -5 -58 -16
-66 -25 -89 -12 -31 18 22 11 43 25 46 30 4 5 21 13 39 16 17 4 37 11 42 15 6
4 22 10 37 14 14 3 28 14 31 24 3 12 6 8 11 -13 4 -16 9 -35 11 -40 5 -17 111
-3 107 14 -2 8 3 28 10 45 l13 31 5 -30 6 -30 22 42 c12 23 22 47 22 52 0 13
-98 3 -182 -19 -39 -10 -65 -13 -61 -7 3 6 5 38 4 72 -2 46 2 67 13 78 15 14
13 16 -16 15 -18 -1 -27 -3 -20 -5 7 -3 12 -21 12 -44 0 -30 -3 -37 -15 -33
-8 4 -15 10 -15 16 0 5 5 6 10 3 6 -3 10 -2 10 4 0 5 -8 12 -17 14 -17 4 -17
5 0 6 33 2 17 18 -20 19 -34 1 -75 22 -44 22 11 0 11 3 1 15 -6 8 -9 19 -5 24
3 6 -16 22 -44 35 -39 20 -51 23 -60 13 -11 -14 -41 -233 -41 -299 0 -46 11
-53 49 -33 17 8 34 15 38 15 4 -1 -14 -13 -42 -27 -27 -14 -66 -37 -85 -52
l-35 -25 24 27 c14 15 21 30 18 34 -4 3 -7 0 -7 -8 -1 -20 -30 20 -30 40 0 9
-6 28 -14 42 -12 24 -12 26 5 22 12 -3 19 0 19 8 0 11 3 11 11 -1 7 -11 9 28
6 133 -4 135 -2 150 15 173 11 13 29 24 41 23 20 -1 20 -2 -3 -9 -20 -6 -13
-8 29 -9 51 -1 53 -2 49 -25 -4 -18 1 -27 18 -35 30 -13 150 -7 169 9 12 10
17 8 25 -11 8 -20 9 -18 4 13 -6 36 -6 37 33 41 21 2 -14 4 -77 5 -63 1 -110
-2 -104 -6 6 -4 13 -14 16 -23 5 -12 1 -15 -19 -11 -18 3 -23 9 -20 23 4 14 0
19 -13 19 -16 0 -19 10 -22 74 l-3 75 34 6 c46 9 34 15 -40 21 -59 4 -62 3
-44 -11 13 -10 5 -9 -22 4 l-42 21 -4 -23 c-3 -18 -5 -16 -6 8 -2 26 -3 27
-11 10 -8 -19 -9 -19 -9 3 -1 12 4 22 9 22 6 0 10 10 9 23 0 21 -1 21 -9 2 -8
-19 -9 -19 -9 3 -1 12 -5 22 -11 22 -5 0 -10 -25 -10 -55 0 -43 -3 -55 -16
-55 -8 0 -12 -4 -9 -10 4 -6 12 -6 23 1 12 7 25 7 45 0 36 -14 29 -27 -15 -24
-18 1 -53 2 -78 2 -25 1 -40 5 -35 9 6 4 11 22 11 40 0 41 -29 41 -34 -1 -2
-15 -7 -27 -11 -27 -4 0 -6 15 -4 33 l4 32 -15 -25 -16 -25 6 33 c4 20 3 32
-5 32 -6 0 -11 -6 -11 -13 0 -14 -31 -47 -43 -47 -4 0 -7 5 -7 11 0 5 4 8 9 5
5 -4 7 3 4 15 -5 19 -7 18 -19 -10 -13 -31 -29 -45 -18 -16 4 8 3 23 -1 33 -6
15 -8 15 -18 1 -10 -13 -24 -14 -87 -8 -41 4 -88 8 -104 8 -16 1 -27 4 -24 7
10 9 78 12 78 3 0 -5 8 -9 17 -9 13 0 14 3 5 12 -19 19 -14 28 13 28 14 0 24
-3 24 -7 -6 -36 33 -45 76 -17 14 9 51 17 87 19 35 1 71 3 81 4 24 1 22 32 -3
38 -13 3 -20 14 -20 29 0 14 -11 32 -30 46 -36 26 -40 47 -5 24 14 -9 25 -12
25 -7 0 5 -10 15 -22 24 -19 12 -21 17 -10 28 11 12 14 11 22 -1 8 -12 10 -10
10 10 0 30 -9 44 -33 53 -10 4 -15 12 -12 18 5 8 10 8 18 0 26 -26 28 -8 3 18
-28 29 -29 64 -1 41 11 -9 12 -7 8 10 -3 11 -9 22 -13 25 -5 3 -6 14 -3 25 4
17 0 20 -25 20 -17 0 -37 3 -46 6 -13 5 -14 1 -6 -25 6 -20 5 -31 -3 -34 -9
-3 -8 -13 0 -42 8 -24 9 -43 3 -50 -6 -7 -6 -32 -1 -63 4 -28 5 -56 1 -62 -4
-6 -3 -34 1 -62 9 -55 6 -68 -17 -68 -8 0 -14 -5 -14 -11 0 -6 -6 -9 -14 -6
-8 3 -17 1 -20 -6 -2 -7 -5 0 -5 16 -1 15 4 27 9 27 6 0 10 10 10 23 0 16 -3
18 -9 8 -5 -7 -14 -10 -20 -7 -7 5 -11 -1 -11 -15 0 -21 -3 -21 -67 -15 -80 8
-83 10 -83 43 0 22 4 25 25 21 14 -3 25 -3 25 -1 0 2 -11 8 -25 13 l-25 10 -1
232 c-1 129 -5 220 -9 203 -4 -16 -8 -120 -9 -229 l-1 -199 -52 6 c-29 4 -102
16 -163 27 -60 11 -131 23 -157 26 -48 7 -67 24 -26 24 12 0 18 3 15 6 -3 4
-1 16 5 27 9 17 8 19 -8 13 -15 -6 -17 -5 -6 5 20 21 15 59 -8 59 -16 0 -20
-7 -20 -34 0 -19 -5 -47 -10 -61 -9 -23 -14 -26 -38 -20 -15 4 -38 9 -52 11
-67 9 -86 12 -100 17 -43 15 -80 16 -80 2 0 -9 9 -14 23 -14 12 1 90 -11 172
-26 83 -14 182 -31 220 -37 39 -5 90 -18 115 -28 60 -24 104 -34 95 -20 -4 6
6 10 25 10 24 0 33 -6 40 -26 14 -35 13 -44 -5 -44 -9 0 -12 -6 -8 -17 4 -11
3 -14 -5 -9 -16 10 -15 -7 1 -23 10 -10 9 -11 -5 -6 -10 4 -18 11 -18 16 0 5
-7 9 -15 9 -10 0 -15 -10 -15 -31 0 -17 4 -28 10 -24 6 3 10 1 10 -4 0 -6 11
-11 24 -11 22 0 25 5 29 48 3 46 3 46 5 -10 2 -54 1 -58 -21 -58 -13 0 -28 5
-35 12 -9 9 -12 -6 -12 -69 0 -56 -4 -83 -12 -86 -9 -4 -9 -8 -3 -14 6 -4 10
-19 10 -33 0 -18 -6 -26 -23 -28 -13 -2 -29 1 -36 7 -9 7 -16 7 -26 -2 -12
-10 -12 -9 -1 5 7 9 25 19 39 21 16 2 7 5 -20 6 -45 1 -48 -1 -48 -24 0 -16 6
-25 15 -25 8 0 15 -6 15 -12 0 -8 3 -9 8 -3 11 15 62 11 72 -5 7 -11 10 -8 10
13 0 15 6 27 13 27 9 0 11 -12 8 -42 -2 -24 -6 -37 -8 -30 -3 6 -12 12 -21 11
-11 0 -12 -2 -4 -6 6 -2 12 -11 12 -19 0 -8 7 -14 15 -14 8 0 15 5 15 11 0 5
4 8 9 5 5 -3 12 4 16 17 8 21 8 21 12 -6 6 -40 23 -33 24 11 0 29 2 33 9 17
l8 -20 7 20 c5 11 14 27 22 36 9 11 13 47 14 114 1 109 8 125 58 125 20 0 31
-6 34 -17 4 -16 5 -16 6 -2 0 9 8 20 17 23 9 4 13 2 8 -5 -4 -6 0 -16 7 -21
11 -8 10 -9 -3 -4 -26 8 -22 -11 5 -26 12 -7 25 -12 29 -13 3 0 10 -3 14 -7 4
-5 -18 -8 -49 -8 -45 0 -59 4 -70 21 -18 25 -21 21 -36 -56 -14 -67 -12 -130
5 -130 6 0 19 -8 29 -18 16 -16 17 -30 12 -115 -3 -53 -3 -105 1 -114 4 -9 8
38 10 105 2 91 7 126 17 137 13 12 14 -9 11 -170 l-5 -185 10 160 c15 256 26
292 29 93 3 -190 2 -184 13 -194 8 -8 9 14 10 144 0 80 0 82 24 82 20 0 23 -4
18 -20 -4 -12 -2 -20 5 -20 8 0 10 -24 8 -75 -2 -41 -7 -75 -11 -75 -4 0 -3
-9 3 -19 5 -11 10 -36 10 -55 0 -28 -5 -38 -27 -49 l-27 -14 25 -8 c13 -3 32
-9 41 -11 12 -4 24 6 39 28 l20 33 -6 -34 c-5 -23 -4 -31 4 -27 6 4 11 17 11
29 0 26 35 87 50 87 14 0 20 -17 23 -65 1 -22 7 -43 12 -48 6 -4 4 -11 -6 -17
-12 -7 -15 -21 -12 -57 l4 -48 -21 27 c-20 26 -49 41 -35 18 4 -6 -8 -10 -29
-10 -19 0 -36 -6 -39 -12 -3 -9 -14 -4 -34 15 -24 22 -32 25 -36 14 -3 -8 -1
-19 5 -25 8 -8 3 -13 -15 -17 -26 -7 -31 -23 -12 -37 6 -4 -2 -8 -17 -8 -25 0
-26 -1 -15 -32 7 -18 16 -36 21 -40 5 -3 2 -14 -7 -23 -22 -21 -21 -24 6 -35
16 -6 17 -9 5 -9 -13 -1 -16 -8 -13 -31 3 -27 1 -30 -23 -31 -16 -1 -20 -3
-10 -6 22 -6 32 -34 16 -45 -9 -6 -5 -7 10 -3 16 5 22 2 22 -9 0 -10 -9 -16
-25 -16 -14 0 -25 -4 -25 -10 0 -5 9 -10 19 -10 11 0 27 -8 37 -17 15 -16 15
-17 -2 -24 -11 -4 -32 -8 -47 -8 -16 -1 -26 -5 -22 -11 3 -6 -4 -14 -17 -19
-20 -9 -18 -10 17 -11 28 0 36 -3 26 -9 -8 -5 -19 -7 -26 -5 -6 3 -22 0 -36
-5 l-24 -10 23 0 c14 -1 21 -5 17 -12 -4 -6 -13 -8 -21 -5 -17 7 -19 -10 -1
-18 6 -4 1 -4 -13 -2 -24 5 -24 4 -5 -10 11 -8 26 -12 35 -9 9 3 7 -1 -4 -10
-19 -14 -19 -15 10 -16 25 0 26 -2 9 -8 -11 -5 -23 -7 -27 -5 -4 3 -9 0 -13
-6 -3 -5 -15 -10 -26 -10 -11 0 -18 -4 -14 -10 3 -5 12 -7 19 -4 8 3 17 1 21
-5 3 -6 -1 -11 -10 -11 -23 0 -49 -27 -32 -33 6 -3 1 -6 -12 -6 -24 -1 -24 -1
-5 -16 17 -13 17 -14 2 -15 -10 0 -18 -7 -18 -15 0 -12 -4 -13 -18 -6 -11 6
-24 6 -33 0 -22 -14 -61 -11 -80 7 -16 15 -17 14 -12 -8 3 -17 2 -20 -5 -9 -9
13 -18 13 -68 1 -40 -10 -51 -16 -38 -20 33 -12 145 -12 159 0 9 8 15 8 20 0
7 -11 760 -15 827 -4 33 6 36 9 42 48 4 27 -4 90 -23 181 -20 96 -26 147 -20
163 5 13 9 35 9 50 0 34 59 134 88 148 12 6 19 13 17 16 -6 6 53 37 69 36 5 0
12 6 16 13 5 7 17 13 28 14 24 1 93 35 104 50 5 6 8 6 8 1 0 -6 5 -5 12 2 7 7
18 12 25 12 12 0 36 17 67 46 7 6 27 19 45 28 18 10 31 20 28 23 -3 2 -15 -1
-27 -7 -17 -9 -29 -9 -51 0 -34 15 -37 26 -8 35 13 5 27 1 36 -8 13 -13 20
-13 56 1 23 9 44 20 45 24 2 5 9 8 15 8 8 0 7 -4 -1 -12 -18 -18 -15 -71 8
-129 l21 -52 -26 -39 c-25 -37 -27 -78 -5 -78 5 0 5 -12 -1 -28 -15 -37 -13
-82 6 -130 16 -39 16 -42 -4 -69 -11 -15 -22 -46 -25 -68 -3 -22 -3 -32 0 -22
3 9 9 15 14 12 5 -3 3 -20 -5 -39 -17 -39 -9 -77 37 -173 l29 -63 83 0 83 0
-3 73 c-2 39 -1 63 2 53 4 -10 10 -24 15 -30 5 -6 16 -20 24 -31 14 -19 14
-19 15 9 l0 28 20 -23 c16 -20 19 -21 20 -7 0 20 -68 93 -120 128 -19 14 -43
35 -54 48 -10 13 -30 28 -44 33 -13 5 -22 12 -20 15 3 3 31 -6 62 -20 31 -14
56 -23 56 -20 0 3 17 -7 38 -23 20 -16 55 -35 77 -42 22 -8 43 -19 47 -25 6
-8 8 -8 8 0 0 16 -28 37 -52 41 -11 2 -37 17 -58 33 -21 17 -43 30 -48 30 -21
0 -20 16 0 17 12 1 35 -9 51 -22 28 -21 32 -22 53 -8 20 13 21 18 12 46 -6 18
-15 38 -21 45 -5 7 -13 31 -17 54 l-8 42 19 -25 19 -24 0 26 c0 30 -38 73 -90
99 -52 27 -112 77 -100 85 5 3 10 1 10 -4 0 -6 5 -11 11 -11 6 0 7 6 2 13 -4
6 5 4 20 -5 37 -25 45 -22 18 6 -16 17 -21 32 -18 52 4 28 5 28 12 7 4 -13 12
-23 17 -23 5 0 7 -4 4 -9 -3 -4 5 -6 17 -4 14 3 31 -4 47 -19 31 -29 60 -32
60 -6 0 35 -18 56 -42 51 -42 -8 -63 30 -60 105 3 44 16 40 32 -8 7 -22 16
-40 19 -40 18 1 31 19 25 36 -5 15 -4 16 5 4 15 -22 31 -1 20 27 -4 12 -35 43
-69 69 -33 26 -57 50 -54 53 4 3 9 0 11 -6 7 -19 31 -16 35 4 2 13 9 10 35
-15 17 -18 33 -32 36 -32 8 0 5 50 -4 56 -5 3 -6 -3 -3 -13 4 -10 -9 -2 -30
19 -25 25 -42 35 -56 31 -11 -3 -20 -1 -21 3 0 5 -2 17 -4 27 -3 15 8 12 60
-18 35 -19 65 -35 68 -35 3 0 8 11 11 24 3 14 -4 48 -20 86 -14 34 -23 67 -20
74 3 7 5 6 5 -2 1 -8 10 -25 21 -39 l20 -26 0 48 c0 36 -5 51 -22 66 -13 10
-28 18 -34 19 -6 0 -17 6 -23 14 -9 11 -9 15 1 20 7 3 3 4 -9 2 -13 -2 -23 0
-23 5 0 17 -2 24 -11 42 -5 9 -7 17 -3 17 16 0 64 -36 74 -55 7 -14 19 -21 29
-18 25 6 71 -34 64 -55 -4 -12 -3 -14 5 -7 22 20 -1 56 -65 100 -35 25 -69 42
-75 39 -6 -4 -8 -2 -4 4 3 6 -2 13 -11 15 -16 4 -16 5 -1 6 9 0 40 -13 69 -30
47 -27 51 -28 46 -10 -3 12 -1 24 5 27 5 4 3 13 -6 23 -19 21 -48 111 -35 111
5 0 16 -17 24 -37 21 -49 42 -72 63 -66 10 2 22 -5 30 -18 11 -17 11 -20 0
-14 -11 7 -11 5 0 -6 13 -14 82 -20 82 -6 0 6 -23 11 -42 8 -4 0 -5 6 -2 14 9
23 43 18 54 -7 6 -16 9 13 9 92 l1 115 -32 18 c-24 14 -28 15 -18 2 10 -12 10
-18 0 -30 -11 -13 -10 -14 4 -9 9 3 16 1 16 -5 0 -6 -6 -11 -12 -11 -7 0 -14
-11 -14 -25 -2 -31 -22 -57 -37 -48 -7 4 -8 0 -4 -12 10 -23 -10 -45 -40 -45
-18 0 -28 9 -39 36 -9 20 -13 47 -10 60 4 13 4 35 0 49 -5 22 -9 24 -23 13 -9
-7 -13 -8 -8 -3 4 4 0 17 -10 27 -9 10 -14 18 -11 18 4 0 -10 16 -29 35 -20
20 -33 38 -30 42 6 5 26 -12 88 -70 11 -9 22 -16 27 -16 20 3 31 -3 37 -21 4
-11 11 -18 16 -15 5 4 9 -5 9 -19 0 -14 5 -28 10 -31 6 -3 10 1 10 9 0 9 4 16
8 16 20 0 7 31 -15 36 -13 4 -23 14 -23 24 0 10 -16 32 -36 50 -21 18 -33 35
-28 38 17 13 32 50 24 58 -7 8 -50 121 -50 133 0 3 6 -4 14 -15 14 -18 15 -18
24 6 7 19 6 30 -7 45 -21 26 -33 35 -42 29 -4 -2 -9 6 -12 17 -5 18 -2 20 16
15 12 -3 26 -6 30 -6 5 0 6 -4 3 -9 -4 -5 7 -12 23 -16 20 -4 31 -14 34 -28 3
-16 5 -13 6 10 1 22 -9 43 -35 75 -21 23 -41 42 -45 40 -5 -1 -9 2 -9 8 0 13
23 13 36 0 8 -8 15 -6 24 5 11 13 10 15 -1 10 -8 -3 -23 2 -34 10 -19 15 -19
16 13 12 17 -2 32 1 32 6 0 5 8 3 17 -4 11 -10 14 -10 9 -1 -4 6 -2 12 3 12 6
0 11 11 11 24 0 16 7 27 20 31 13 4 20 15 20 31 0 20 -5 24 -30 24 -28 0 -29
2 -25 33 4 25 3 28 -4 12 l-10 -20 0 20 c0 25 13 57 22 56 18 -2 19 0 7 14 -7
8 -21 15 -32 15 -33 0 -18 52 19 69 17 8 34 23 37 35 9 33 7 74 -4 81 -23 14
-9 27 23 22 17 -3 27 -4 21 -1 -6 2 -9 21 -7 41 1 21 -3 40 -10 45 -7 5 2 8
22 8 30 0 33 -2 29 -25 -3 -14 -1 -25 3 -25 5 0 9 16 9 35 0 28 -4 35 -20 35
-13 0 -18 5 -14 15 5 13 -7 15 -75 15 -45 0 -81 4 -81 9 0 5 43 12 95 16 l95
7 0 109 0 109 -42 0 c-24 0 -68 7 -98 16 -30 9 -75 21 -100 27 -25 6 -46 11
-48 12 -1 1 5 18 13 38 8 20 15 39 15 42 0 3 -187 5 -415 5 -263 0 -415 -4
-415 -10 0 -6 -9 -6 -24 0 -13 5 -127 9 -254 10 -179 0 -231 -2 -235 -12 -4
-10 -6 -10 -6 -1 -1 10 -126 12 -549 13 -538 0 -548 0 -548 -19z m156 -26 c-6
-12 -30 -16 -30 -5 0 5 -8 11 -17 14 -10 2 -2 4 17 3 19 -1 33 -6 30 -12z
m1117 -20 c29 -10 49 -23 46 -28 -3 -5 4 -6 16 -2 13 4 21 2 21 -5 0 -6 5 -8
10 -5 6 3 10 1 10 -4 0 -6 10 -11 23 -11 19 -1 20 -2 5 -11 -12 -6 -23 -6 -35
1 -10 5 -44 19 -76 31 -31 11 -55 25 -52 30 4 5 -4 8 -16 6 -12 -1 -24 4 -27
12 -3 9 0 12 9 9 8 -3 37 -13 66 -23z m-222 -45 c3 -5 2 -10 -4 -10 -5 0 -13
5 -16 10 -3 6 -2 10 4 10 5 0 13 -4 16 -10z m1389 -5 c6 -17 4 -18 -18 -9 -20
8 -21 24 -2 24 8 0 16 -7 20 -15z m-1341 -2 c-7 -2 -19 -2 -25 0 -7 3 -2 5 12
5 14 0 19 -2 13 -5z m135 -10 c-10 -2 -26 -2 -35 0 -10 3 -2 5 17 5 19 0 27
-2 18 -5z m255 -20 c-13 -2 -35 -2 -50 0 -16 2 -5 4 22 4 28 0 40 -2 28 -4z
m136 -7 c-8 -9 -100 -12 -105 -4 -3 4 21 8 52 8 32 0 55 -2 53 -4z m-1539 -20
c0 -3 -4 -8 -10 -11 -5 -3 -10 -1 -10 4 0 6 5 11 10 11 6 0 10 -2 10 -4z
m1148 -11 c5 -10 17 -14 33 -11 13 2 29 5 34 6 6 1 1 5 -10 10 -17 7 -17 9 -3
9 22 1 60 -39 54 -56 -3 -7 -2 -13 3 -13 5 0 8 -6 8 -12 -1 -29 16 -78 28 -78
8 0 11 -8 8 -22 -4 -22 -4 -23 11 -4 16 20 16 19 16 -1 0 -19 -17 -33 -41 -33
-5 0 -9 9 -9 20 0 11 -4 20 -9 20 -4 0 -6 -11 -3 -25 2 -14 0 -25 -5 -25 -15
0 -46 88 -40 115 2 14 1 22 -3 20 -13 -8 -18 31 -7 51 9 16 8 17 -5 7 -12 -10
-24 -10 -62 3 -34 12 -44 19 -35 25 20 12 27 11 37 -6z m299 -1 c-3 -3 -12 -4
-19 -1 -8 3 -5 6 6 6 11 1 17 -2 13 -5z m-7 -29 c0 -1 -9 -5 -20 -8 -12 -3
-20 0 -20 8 0 8 8 11 20 8 11 -3 20 -7 20 -8z m427 -61 c-3 -3 -12 -4 -19 -1
-8 3 -5 6 6 6 11 1 17 -2 13 -5z m73 -8 c0 -8 -51 -13 -56 -5 -3 5 9 9 25 9
17 0 31 -2 31 -4z m75 -16 c3 -5 1 -10 -4 -10 -6 0 -11 5 -11 10 0 6 2 10 4
10 3 0 8 -4 11 -10z m-154 -23 c-10 -9 -11 -8 -5 6 3 10 9 15 12 12 3 -3 0
-11 -7 -18z m-1331 -9 c0 -4 -8 -8 -17 -9 -11 0 -13 -3 -5 -6 23 -9 12 -20
-18 -15 -23 3 -28 7 -20 17 8 9 4 12 -15 10 -14 -2 -27 0 -30 5 -3 4 20 8 50
8 30 -1 55 -5 55 -10z m1351 -11 c-10 -9 -11 -8 -5 6 3 10 9 15 12 12 3 -3 0
-11 -7 -18z m-1313 6 c-9 -2 -19 -12 -21 -21 -3 -12 -5 -10 -6 6 -1 17 4 22
22 21 15 -1 17 -3 5 -6z m122 -2 c0 -4 18 -6 41 -4 32 2 38 -1 30 -11 -6 -7
-8 -16 -4 -19 3 -4 -13 -6 -36 -5 -23 1 -37 5 -30 8 8 6 8 9 0 14 -17 11 -42
-19 -28 -33 8 -8 7 -11 -4 -11 -8 0 -20 5 -26 11 -8 8 -17 8 -32 -1 -12 -6
-27 -9 -34 -6 -7 2 -4 5 7 5 12 1 16 6 12 16 -11 31 4 43 55 42 27 0 49 -3 49
-6z m-240 -18 c0 -7 -7 -13 -15 -13 -8 0 -15 6 -15 13 0 8 7 14 15 14 8 0 15
-6 15 -14z m377 11 c-3 -3 -12 -4 -19 -1 -8 3 -5 6 6 6 11 1 17 -2 13 -5z
m639 -20 c8 3 14 1 14 -4 0 -6 -9 -10 -20 -10 -14 0 -20 6 -19 23 1 18 2 18 6
4 3 -11 11 -16 19 -13z m934 -3 c18 -1 21 -4 13 -12 -8 -8 -30 -9 -70 -3 -32
4 -70 8 -85 8 -16 1 -28 6 -28 11 0 7 24 8 73 4 39 -4 83 -8 97 -8z m-2272
-39 c2 -6 -5 -8 -18 -5 -29 8 -36 24 -9 20 13 -2 25 -9 27 -15z m307 8 c3 -5
1 -10 -4 -10 -6 0 -11 5 -11 10 0 6 2 10 4 10 3 0 8 -4 11 -10z m1808 -9 c-4
-3 -11 -10 -14 -14 -3 -5 -9 0 -11 11 -4 15 -1 18 14 14 10 -2 15 -7 11 -11z
m-2130 -17 c11 -4 16 -13 13 -21 -3 -8 -6 -21 -6 -29 0 -8 -9 -14 -19 -14 -24
0 -39 39 -20 51 10 6 11 9 2 9 -7 0 -13 5 -13 11 0 6 6 8 13 5 6 -3 20 -9 30
-12z m484 -10 c-9 -9 -28 6 -21 18 4 6 10 6 17 -1 6 -6 8 -13 4 -17z m47 10
c3 -8 2 -12 -4 -9 -6 3 -10 10 -10 16 0 14 7 11 14 -7z m-744 -4 c0 -5 -2 -10
-4 -10 -3 0 -8 5 -11 10 -3 6 -1 10 4 10 6 0 11 -4 11 -10z m63 -10 c-3 -11
-10 -23 -16 -27 -7 -4 -8 0 -4 11 4 10 7 22 7 27 0 5 4 9 9 9 5 0 7 -9 4 -20z
m654 -2 c-3 -8 -6 -5 -6 6 -1 11 2 17 5 13 3 -3 4 -12 1 -19z m1668 1 c-4 -5
-23 -9 -43 -8 -32 1 -34 2 -12 8 38 11 61 11 55 0z m168 -6 c-7 -2 -13 -16
-13 -29 0 -13 -5 -24 -11 -24 -6 0 -9 7 -5 15 3 10 -3 17 -22 22 l-27 7 30 7
c37 8 66 10 48 2z m-2473 -18 c-7 -8 -9 -15 -4 -15 5 0 3 -4 -4 -9 -15 -9 -62
-3 -62 8 0 17 13 19 27 5 14 -13 17 -13 30 6 8 11 17 20 20 20 3 0 0 -7 -7
-15z m70 -15 c0 -5 -2 -10 -4 -10 -3 0 -8 5 -11 10 -3 6 -1 10 4 10 6 0 11 -4
11 -10z m190 -15 l25 -14 -32 -1 c-23 0 -33 5 -33 15 0 18 8 18 40 0z m-140
-24 c0 -5 -11 -8 -25 -8 -14 0 -25 2 -25 6 0 4 11 8 25 9 14 1 25 -2 25 -7z
m628 -7 c5 3 9 -1 9 -9 0 -18 -3 -18 -28 -5 -10 6 -19 16 -19 22 0 7 5 6 15
-2 8 -6 18 -9 23 -6z m652 -21 c0 -7 -6 -10 -14 -7 -8 3 -12 13 -9 25 5 16 8
18 14 7 5 -7 9 -18 9 -25z m-1157 20 c-7 -2 -21 -2 -30 0 -10 3 -4 5 12 5 17
0 24 -2 18 -5z m-404 -19 c8 -7 -54 -2 -79 6 -17 6 -9 7 25 3 28 -3 52 -7 54
-9z m901 -14 c8 -5 11 -10 5 -10 -5 0 -17 5 -25 10 -8 5 -10 10 -5 10 6 0 17
-5 25 -10z m515 0 c-3 -5 -12 -10 -18 -10 -7 0 -6 4 3 10 19 12 23 12 15 0z
m-1482 -7 c-7 -2 -19 -2 -25 0 -7 3 -2 5 12 5 14 0 19 -2 13 -5z m465 0 c-10
-2 -28 -2 -40 0 -13 2 -5 4 17 4 22 1 32 -1 23 -4z m1877 -3 c-3 -5 -14 -10
-23 -9 -14 0 -13 2 3 9 27 11 27 11 20 0z m73 -80 l0 -35 -9 35 c-4 19 -10 49
-13 65 l-6 30 15 -30 c8 -16 14 -46 13 -65z m172 80 c0 -5 -8 -10 -17 -10 -15
0 -16 2 -3 10 19 12 20 12 20 0z m-2527 -7 c-7 -2 -19 -2 -25 0 -7 3 -2 5 12
5 14 0 19 -2 13 -5z m797 -3 c0 -5 -4 -10 -10 -10 -5 0 -10 5 -10 10 0 6 5 10
10 10 6 0 10 -4 10 -10z m-887 -7 c-7 -2 -19 -2 -25 0 -7 3 -2 5 12 5 14 0 19
-2 13 -5z m2394 -7 c-3 -8 -1 -17 6 -20 7 -2 4 -5 -5 -5 -12 -1 -18 6 -18 19
0 11 5 20 11 20 6 0 9 -6 6 -14z m263 -13 c0 -26 -1 -26 -14 -8 -14 20 -12 35
5 35 5 0 9 -12 9 -27z m-2582 10 c-10 -2 -26 -2 -35 0 -10 3 -2 5 17 5 19 0
27 -2 18 -5z m1007 -3 c-8 -12 -45 -19 -45 -8 0 5 -4 6 -10 3 -5 -3 -10 -2
-10 3 0 5 16 9 35 9 19 0 32 -4 30 -7z m1675 0 c0 -5 -8 -10 -17 -10 -15 0
-16 2 -3 10 19 12 20 12 20 0z m-1295 -10 c-3 -5 -10 -10 -16 -10 -5 0 -9 5
-9 10 0 6 7 10 16 10 8 0 12 -4 9 -10z m1065 -6 c0 -8 -4 -12 -10 -9 -5 3 -10
10 -10 16 0 5 5 9 10 9 6 0 10 -7 10 -16z m67 -6 c-3 -8 -6 -5 -6 6 -1 11 2
17 5 13 3 -3 4 -12 1 -19z m-594 -22 c4 -10 0 -12 -14 -9 -10 3 -16 9 -13 14
8 13 21 11 27 -5z m594 -28 c-3 -7 -5 -2 -5 12 0 14 2 19 5 13 2 -7 2 -19 0
-25z m-2247 18 c0 -3 -4 -8 -10 -11 -5 -3 -10 -1 -10 4 0 6 5 11 10 11 6 0 10
-2 10 -4z m100 -10 c0 -2 -11 -6 -25 -8 -14 -3 -25 -1 -25 3 0 5 11 9 25 9 14
0 25 -2 25 -4z m1190 -21 c0 -6 -19 -9 -46 -6 -31 2 -42 6 -33 12 19 11 79 7
79 -6z m90 4 c0 -7 -12 -9 -35 -5 -24 5 -35 3 -35 -5 0 -7 -3 -10 -6 -6 -3 3
-3 10 1 16 8 14 75 14 75 0z m820 -40 c0 -16 -4 -28 -9 -25 -5 4 -8 14 -6 24
2 9 4 20 4 25 1 4 3 7 6 7 3 0 5 -14 5 -31z m127 -51 c-3 -7 -5 -2 -5 12 0 14
2 19 5 13 2 -7 2 -19 0 -25z m-117 -23 c0 -8 -7 -15 -15 -15 -13 0 -14 3 -3
15 16 18 18 18 18 0z m-940 -7 c0 -7 -5 -20 -10 -28 -8 -12 -10 -9 -10 13 0
15 5 27 10 27 6 0 10 -6 10 -12z m987 -110 c7 17 30 15 30 -3 0 -8 -6 -15 -13
-15 -27 0 -44 13 -43 34 0 19 1 19 11 -4 6 -15 12 -20 15 -12z m-987 -18 c0
-5 -4 -10 -10 -10 -5 0 -10 5 -10 10 0 6 5 10 10 10 6 0 10 -4 10 -10z m990
-20 c0 -5 -2 -10 -4 -10 -3 0 -8 5 -11 10 -3 6 -1 10 4 10 6 0 11 -4 11 -10z
m30 6 c0 -3 -4 -8 -10 -11 -5 -3 -10 -1 -10 4 0 6 5 11 10 11 6 0 10 -2 10 -4z
m-1006 -22 c9 -24 -2 -34 -35 -34 -19 0 -28 4 -24 11 4 6 -1 17 -11 24 -17 13
-15 14 22 15 29 0 44 -5 48 -16z m862 -4 c0 -12 -4 -16 -9 -11 -5 5 -6 14 -3
20 10 15 12 14 12 -9z m-816 -50 c0 -5 -2 -10 -4 -10 -3 0 -8 5 -11 10 -3 6
-1 10 4 10 6 0 11 -4 11 -10z m-367 -53 c3 -8 -1 -14 -9 -14 -15 0 -18 9 -7
20 9 9 10 9 16 -6z m1337 -9 c0 -6 -6 -5 -15 2 -8 7 -15 14 -15 16 0 2 7 1 15
-2 8 -4 15 -11 15 -16z m-1039 -35 c-10 -17 -10 -16 -11 3 0 23 13 41 18 25 2
-6 -1 -18 -7 -28z m905 -31 c-18 -16 -18 -16 -6 6 6 13 14 21 18 18 3 -4 -2
-14 -12 -24z m103 -89 c0 -41 -2 -45 -11 -26 -10 20 -4 73 7 73 3 0 5 -21 4
-47z m-1300 16 c-16 -10 -23 -4 -14 10 3 6 11 8 17 5 6 -4 5 -9 -3 -15z m327
-88 c-9 -10 -13 -21 -9 -24 3 -4 1 -7 -5 -7 -15 0 -15 33 0 48 18 18 31 2 14
-17z m-279 -71 c6 -17 9 -30 7 -30 -14 0 -56 49 -50 58 11 18 31 4 43 -28z
m1323 -16 c0 -18 -4 -18 -24 5 -17 19 -17 19 3 14 12 -3 21 -12 21 -19z
m-1345 -14 c3 -5 1 -10 -4 -10 -6 0 -11 5 -11 10 0 6 2 10 4 10 3 0 8 -4 11
-10z m-279 -101 c-3 -17 -6 -47 -6 -66 0 -22 -4 -32 -11 -27 -6 3 -15 0 -20
-7 -6 -10 -9 -7 -9 12 0 14 6 31 13 38 10 11 10 13 0 7 -7 -4 -13 -2 -13 3 0
6 5 11 11 11 5 0 7 5 4 10 -3 6 -2 10 4 10 6 0 8 7 5 15 -4 8 -11 12 -17 8 -6
-3 -7 -1 -3 5 4 7 16 12 28 12 18 0 20 -4 14 -31z m1558 -25 c3 -8 2 -12 -4
-9 -6 3 -10 10 -10 16 0 14 7 11 14 -7z m-1624 -19 c0 -18 -20 -57 -35 -67
-20 -15 -25 -7 -25 37 0 43 1 45 30 45 20 0 30 -5 30 -15z m1645 -93 c-3 -3
-14 3 -25 14 -13 13 -18 26 -13 43 6 23 7 22 25 -14 11 -20 17 -40 13 -43z
m226 30 c-9 -3 -8 -9 5 -23 21 -23 10 -39 -12 -17 -18 18 -10 63 9 51 8 -5 7
-8 -2 -11z m-1276 -2 c-3 -5 -30 -9 -58 -8 l-52 1 55 7 c30 4 56 7 58 8 2 1 0
-2 -3 -8z m1245 -30 c0 -5 -4 -10 -10 -10 -5 0 -10 5 -10 10 0 6 5 10 10 10 6
0 10 -4 10 -10z m-1023 -35 c0 -8 -8 -15 -18 -15 -9 0 -23 -2 -31 -3 -7 -2
-10 -2 -5 0 4 3 7 11 7 19 0 8 10 14 23 14 14 0 24 -6 24 -15z m-857 -15 c0
-5 -2 -10 -4 -10 -3 0 -8 5 -11 10 -3 6 -1 10 4 10 6 0 11 -4 11 -10z m527
-39 c-5 -42 -4 -49 10 -44 11 4 14 1 12 -12 -6 -28 -26 -29 -33 -1 -6 26 2
106 12 106 2 0 2 -22 -1 -49z m-209 6 c2 -10 -3 -17 -12 -17 -10 0 -16 9 -16
21 0 24 23 21 28 -4z m142 -17 c0 -5 -4 -10 -10 -10 -5 0 -10 5 -10 10 0 6 5
10 10 10 6 0 10 -4 10 -10z m267 -40 c-1 -17 -3 -17 -24 -1 -32 23 -31 44 1
30 14 -7 24 -19 23 -29z m-397 10 c0 -5 -9 -10 -20 -10 -11 0 -20 5 -20 10 0
6 9 10 20 10 11 0 20 -4 20 -10z m60 0 c0 -5 -4 -10 -9 -10 -6 0 -13 5 -16 10
-3 6 1 10 9 10 9 0 16 -4 16 -10z m94 -5 c6 -16 -22 -35 -41 -28 -7 3 -13 13
-13 24 0 23 45 27 54 4z m-18 -107 c-2 -25 -8 -34 -23 -36 -18 -3 -21 2 -21
32 0 20 4 38 9 41 4 3 5 13 2 22 -5 12 -1 11 15 -5 14 -14 20 -31 18 -54z m44
37 c0 -8 -4 -15 -10 -15 -5 0 -7 7 -4 15 4 8 8 15 10 15 2 0 4 -7 4 -15z
m1057 -7 c-3 -8 -6 -5 -6 6 -1 11 2 17 5 13 3 -3 4 -12 1 -19z m-1177 -2 c0
-3 -4 -8 -10 -11 -5 -3 -10 -1 -10 4 0 6 5 11 10 11 6 0 10 -2 10 -4z m375
-37 c0 -39 -10 -44 -33 -14 -12 15 -22 21 -24 13 -3 -7 -9 -8 -17 -3 -10 6 -6
11 15 20 44 19 59 15 59 -16z m49 -8 c13 -14 15 -24 8 -38 -5 -10 -7 -23 -5
-29 2 -6 -4 -14 -14 -17 -10 -2 -26 -8 -35 -12 -14 -5 -18 -2 -18 14 0 11 -9
26 -20 33 -11 7 -20 16 -20 21 0 4 11 0 25 -9 14 -9 25 -26 25 -37 0 -15 3
-18 11 -10 6 6 11 31 11 57 0 50 6 56 32 27z m-437 -23 c-3 -8 -6 -5 -6 6 -1
11 2 17 5 13 3 -3 4 -12 1 -19z m318 -8 c3 -5 2 -10 -4 -10 -5 0 -13 5 -16 10
-3 6 -2 10 4 10 5 0 13 -4 16 -10z m985 -8 c0 -10 9 -28 20 -40 12 -12 18 -22
15 -22 -11 0 -50 23 -57 34 -13 19 -9 46 7 46 8 0 15 -8 15 -18z m-1242 -31
c-7 -12 -16 -21 -20 -21 -10 0 3 33 16 42 17 11 18 2 4 -21z m-58 -2 c0 -6 -4
-7 -10 -4 -5 3 -10 11 -10 16 0 6 5 7 10 4 6 -3 10 -11 10 -16z m1024 -25 c22
-8 20 -21 -4 -27 -11 -3 -20 -1 -20 4 0 5 6 9 13 9 8 0 7 4 -3 10 -17 11 -10
13 14 4z m-194 -44 c-34 -11 -50 -12 -50 -2 0 4 17 8 38 9 32 1 34 0 12 -7z
m110 -1 c0 -5 -11 -9 -25 -9 -14 0 -25 4 -25 9 0 5 11 9 25 9 14 0 25 -4 25
-9z m-183 -5 c-3 -3 -12 -4 -19 -1 -8 3 -5 6 6 6 11 1 17 -2 13 -5z m257 -7
c16 -12 16 -13 -3 -14 -10 -1 -22 5 -25 13 -7 17 5 18 28 1z m-146 -26 c5 -29
-13 -50 -29 -34 -15 15 -3 66 14 60 7 -2 14 -14 15 -26z m-134 3 c3 -9 6 -24
6 -34 0 -16 -2 -17 -35 -2 -19 9 -35 20 -35 25 0 4 -6 5 -12 1 -10 -6 -10 -4
0 7 9 10 15 10 24 1 16 -16 28 -15 28 3 0 20 16 19 24 -1z m230 -46 c-3 -4
-12 -8 -20 -8 -17 0 -18 23 -2 53 11 22 12 22 19 -7 5 -16 6 -33 3 -38z m-149
-18 c4 -6 -7 -10 -25 -10 -18 0 -29 4 -25 10 3 6 15 10 25 10 10 0 22 -4 25
-10z m-505 -10 c-8 -5 -19 -10 -25 -10 -5 0 -3 5 5 10 8 5 20 10 25 10 6 0 3
-5 -5 -10z m17 -34 c0 -8 -6 -12 -15 -9 -11 5 -11 7 0 14 7 5 13 9 14 9 0 0 1
-6 1 -14z m548 4 c-27 -12 -43 -12 -25 0 8 5 22 9 30 9 10 0 8 -3 -5 -9z m320
-72 c5 -13 3 -18 -8 -18 -23 0 -29 15 -21 57 l8 38 7 -30 c3 -16 10 -38 14
-47z m-375 52 c-8 -5 -19 -10 -25 -10 -5 0 -3 5 5 10 8 5 20 10 25 10 6 0 3
-5 -5 -10z m407 -86 c-3 -3 -12 -4 -19 -1 -8 3 -5 6 6 6 11 1 17 -2 13 -5z
m-1094 -81 c9 -21 19 -53 22 -71 l7 -33 -38 3 c-26 2 -38 8 -40 20 -5 35 -29
78 -44 78 -8 0 -22 5 -30 10 -23 16 6 30 61 30 44 0 47 -2 62 -37z m1157 -213
c0 -23 17 -61 33 -71 14 -10 1 -39 -18 -39 -9 0 -24 14 -33 30 -13 23 -22 29
-38 25 -33 -8 -75 30 -70 63 2 15 5 29 6 32 1 3 2 8 1 12 0 4 8 6 19 5 20 -1
29 -17 10 -17 -10 0 -6 -47 4 -57 2 -3 14 -2 25 2 17 5 21 15 21 47 l0 41 20
-26 c11 -14 20 -35 20 -47z m-1092 -53 l3 -57 -35 0 c-33 0 -61 20 -39 27 13
5 5 42 -14 64 -17 20 -9 24 45 24 l37 0 3 -58z m1006 -62 c-7 -17 -20 -20 -28
-6 -4 5 0 12 6 14 23 9 28 7 22 -8z m-1371 -162 c-7 -2 -21 -2 -30 0 -10 3 -4
5 12 5 17 0 24 -2 18 -5z m1346 -18 c3 27 19 -22 17 -51 -1 -28 2 -34 19 -35
18 -1 18 -2 2 -6 -32 -8 -57 25 -56 76 0 35 2 41 9 26 5 -11 9 -15 9 -10z
m-1354 -45 c-3 -5 -11 -10 -16 -10 -6 0 -7 5 -4 10 3 6 11 10 16 10 6 0 7 -4
4 -10z m-41 -9 c3 -5 -3 -11 -14 -14 -11 -3 -18 -1 -15 3 3 5 -1 11 -7 13 -7
3 -3 6 9 6 12 1 24 -3 27 -8z"/>
<path d="M2798 2648 c5 -5 16 -8 23 -6 8 3 3 7 -10 11 -17 4 -21 3 -13 -5z"/>
<path d="M2770 2641 c0 -5 5 -13 10 -16 6 -3 10 -2 10 4 0 5 -4 13 -10 16 -5
3 -10 2 -10 -4z"/>
<path d="M2885 2640 c3 -5 12 -7 20 -3 21 7 19 13 -6 13 -11 0 -18 -4 -14 -10z"/>
<path d="M3495 2020 c-3 -5 -1 -10 4 -10 6 0 11 5 11 10 0 6 -2 10 -4 10 -3 0
-8 -4 -11 -10z"/>
<path d="M4643 2993 c9 -2 23 -2 30 0 6 3 -1 5 -18 5 -16 0 -22 -2 -12 -5z"/>
<path d="M4691 2996 c2 -2 20 -6 40 -9 20 -2 43 -8 49 -12 8 -5 11 -4 6 3 -3
5 0 13 6 15 7 3 -14 6 -46 6 -33 1 -57 -1 -55 -3z"/>
<path d="M1900 2980 c0 -13 18 -22 24 -11 3 5 -1 11 -9 15 -8 3 -15 1 -15 -4z"/>
<path d="M1945 2980 c-3 -5 1 -10 10 -10 9 0 13 5 10 10 -3 6 -8 10 -10 10 -2
0 -7 -4 -10 -10z"/>
<path d="M1460 2965 c0 -8 9 -15 20 -15 11 0 20 7 20 15 0 8 -9 15 -20 15 -11
0 -20 -7 -20 -15z"/>
<path d="M1518 2963 c7 -3 16 -2 19 1 4 3 -2 6 -13 5 -11 0 -14 -3 -6 -6z"/>
<path d="M1800 2964 c0 -1 6 -7 14 -13 10 -9 15 -8 19 3 4 10 0 14 -14 13 -10
-1 -19 -2 -19 -3z"/>
<path d="M1378 2949 c-24 -13 -23 -29 2 -29 13 0 20 7 20 20 0 23 1 23 -22 9z"/>
<path d="M1410 2937 c0 -7 18 -18 40 -24 37 -9 40 -9 40 10 0 14 -5 18 -20 14
-11 -3 -20 -1 -20 4 0 5 -9 9 -20 9 -11 0 -20 -6 -20 -13z"/>
<path d="M2131 2941 c-8 -5 -9 -11 -3 -15 5 -3 12 1 16 9 6 17 6 18 -13 6z"/>
<path d="M2080 2925 c0 -8 2 -15 4 -15 2 0 6 7 10 15 3 8 1 15 -4 15 -6 0 -10
-7 -10 -15z"/>
<path d="M2 2890 c1 -22 5 -36 9 -29 4 8 9 5 13 -9 5 -13 13 -18 26 -15 11 3
16 11 13 19 -3 8 -8 13 -11 10 -2 -3 -13 -1 -24 5 -12 7 -17 17 -13 29 3 10 1
21 -5 25 -6 4 -9 -9 -8 -35z"/>
<path d="M1506 2915 c-3 -9 0 -15 8 -15 7 0 13 7 13 15 0 8 -4 15 -8 15 -4 0
-9 -7 -13 -15z"/>
<path d="M1550 2919 c0 -5 5 -7 10 -4 6 3 10 8 10 11 0 2 -4 4 -10 4 -5 0 -10
-5 -10 -11z"/>
<path d="M1360 2895 c0 -8 6 -15 14 -15 8 0 16 7 20 15 4 10 -1 15 -14 15 -11
0 -20 -7 -20 -15z"/>
<path d="M1407 2903 c-12 -11 -8 -21 13 -26 15 -4 20 0 20 14 0 18 -20 26 -33
12z"/>
<path d="M195 2890 c3 -5 8 -10 11 -10 2 0 4 5 4 10 0 6 -5 10 -11 10 -5 0 -7
-4 -4 -10z"/>
<path d="M1455 2891 c-8 -15 3 -31 21 -31 9 0 14 7 12 17 -4 20 -24 28 -33 14z"/>
<path d="M1970 2890 c0 -5 7 -7 15 -4 8 4 15 8 15 10 0 2 -7 4 -15 4 -8 0 -15
-4 -15 -10z"/>
<path d="M2095 2890 c-3 -6 1 -7 9 -4 18 7 21 14 7 14 -6 0 -13 -4 -16 -10z"/>
<path d="M1502 2879 c2 -7 10 -15 17 -17 8 -3 12 1 9 9 -2 7 -10 15 -17 17 -8
3 -12 -1 -9 -9z"/>
<path d="M1402 2830 c0 -14 2 -19 5 -12 2 6 2 18 0 25 -3 6 -5 1 -5 -13z"/>
<path d="M2060 2839 c0 -5 5 -7 10 -4 6 3 10 8 10 11 0 2 -4 4 -10 4 -5 0 -10
-5 -10 -11z"/>
<path d="M2086 2825 c-3 -8 -1 -15 4 -15 6 0 10 7 10 15 0 8 -2 15 -4 15 -2 0
-6 -7 -10 -15z"/>
<path d="M88 2824 c-8 -7 4 -54 13 -54 5 0 9 4 9 9 0 5 8 11 17 13 14 2 12 6
-9 20 -14 9 -28 15 -30 12z"/>
<path d="M2110 2814 c0 -8 5 -12 10 -9 6 3 10 10 10 16 0 5 -4 9 -10 9 -5 0
-10 -7 -10 -16z"/>
<path d="M1621 2754 c0 -11 3 -14 6 -6 3 7 2 16 -1 19 -3 4 -6 -2 -5 -13z"/>
<path d="M45 2750 c3 -5 8 -10 11 -10 2 0 4 5 4 10 0 6 -5 10 -11 10 -5 0 -7
-4 -4 -10z"/>
<path d="M84 2742 c3 -15 -2 -26 -16 -33 -15 -8 -19 -8 -13 0 5 8 -2 10 -22 5
-24 -6 -26 -5 -16 8 10 12 10 15 -2 15 -12 0 -15 -21 -15 -123 l0 -124 28 -5
c15 -4 46 -10 69 -16 52 -11 63 -11 63 0 0 5 -17 12 -38 16 -48 8 -54 12 -86
62 -31 50 -32 61 -7 91 23 27 29 28 27 5 -1 -14 13 -21 56 -32 34 -9 59 -21
61 -30 4 -12 5 -12 6 2 2 28 25 14 33 -19 5 -21 6 -13 5 26 0 34 -7 61 -16 70
-16 16 -18 17 -57 19 -22 1 -25 3 -14 16 8 9 9 15 2 15 -6 0 -14 -4 -17 -10
-3 -5 -14 -10 -23 -9 -13 0 -12 2 4 9 25 10 41 30 24 30 -7 0 -9 7 -6 16 5 14
4 15 -8 5 -11 -9 -15 -9 -20 1 -3 7 -4 3 -2 -10z m27 -82 c5 0 9 -7 9 -16 0
-23 -44 -14 -48 10 -3 14 0 17 13 12 9 -3 21 -6 26 -6z m39 -25 c0 -8 -4 -15
-10 -15 -5 0 -10 7 -10 15 0 8 5 15 10 15 6 0 10 -7 10 -15z m45 -15 c3 -5 1
-10 -4 -10 -6 0 -11 5 -11 10 0 6 2 10 4 10 3 0 8 -4 11 -10z"/>
<path d="M1915 2739 c-4 -6 -5 -12 -2 -15 2 -3 7 2 10 11 7 17 1 20 -8 4z"/>
<path d="M1998 2733 c6 -2 18 -2 25 0 6 3 1 5 -13 5 -14 0 -19 -2 -12 -5z"/>
<path d="M2046 2725 c4 -8 8 -15 10 -15 2 0 4 7 4 15 0 8 -4 15 -10 15 -5 0
-7 -7 -4 -15z"/>
<path d="M2100 2729 c0 -5 9 -9 20 -9 11 0 20 2 20 4 0 2 -9 6 -20 9 -11 3
-20 1 -20 -4z"/>
<path d="M2155 2720 c4 -6 11 -8 16 -5 14 9 11 15 -7 15 -8 0 -12 -5 -9 -10z"/>
<path d="M2016 2707 c3 -10 9 -15 12 -12 3 3 0 11 -7 18 -10 9 -11 8 -5 -6z"/>
<path d="M2040 2690 c0 -5 5 -10 10 -10 6 0 10 5 10 10 0 6 -4 10 -10 10 -5 0
-10 -4 -10 -10z"/>
<path d="M1633 2598 c12 -19 28 -19 34 -1 2 6 -7 13 -21 15 -21 4 -23 3 -13
-14z"/>
<path d="M1605 2590 c3 -5 8 -10 11 -10 2 0 4 5 4 10 0 6 -5 10 -11 10 -5 0
-7 -4 -4 -10z"/>
<path d="M1684 2589 c-3 -5 3 -9 13 -10 10 0 28 -2 41 -3 12 -2 22 1 22 6 0 4
-8 8 -17 9 -10 0 -26 2 -35 4 -10 2 -20 -1 -24 -6z"/>
<path d="M1768 2575 c-3 -14 -1 -28 3 -31 5 -3 9 9 9 25 0 38 -6 40 -12 6z"/>
<path d="M3825 2570 c3 -5 8 -10 11 -10 2 0 4 5 4 10 0 6 -5 10 -11 10 -5 0
-7 -4 -4 -10z"/>
<path d="M1730 2560 c0 -5 5 -10 10 -10 6 0 10 5 10 10 0 6 -4 10 -10 10 -5 0
-10 -4 -10 -10z"/>
<path d="M60 2541 c0 -5 19 -15 43 -21 66 -17 67 -18 67 -45 0 -18 5 -25 20
-25 12 0 20 7 20 18 0 14 -2 15 -9 3 -8 -12 -11 -9 -16 12 -4 15 -5 36 -2 47
3 11 1 20 -4 20 -5 0 -9 -5 -9 -11 0 -11 -20 -10 -84 7 -16 4 -26 2 -26 -5z"/>
<path d="M1761 2514 c0 -11 3 -14 6 -6 3 7 2 16 -1 19 -3 4 -6 -2 -5 -13z"/>
<path d="M1560 2510 c0 -5 5 -10 11 -10 5 0 7 5 4 10 -3 6 -8 10 -11 10 -2 0
-4 -4 -4 -10z"/>
<path d="M1728 2483 c6 -2 18 -2 25 0 6 3 1 5 -13 5 -14 0 -19 -2 -12 -5z"/>
<path d="M2685 2430 c3 -5 16 -10 28 -9 21 0 21 1 2 9 -28 12 -37 12 -30 0z"/>
<path d="M4775 2430 c3 -5 8 -10 11 -10 2 0 4 5 4 10 0 6 -5 10 -11 10 -5 0
-7 -4 -4 -10z"/>
<path d="M5 2409 c4 -5 14 -9 23 -9 15 0 15 -2 2 -10 -12 -8 -11 -10 8 -10 12
0 22 5 22 11 0 8 4 8 13 1 6 -5 26 -12 42 -15 96 -17 108 -25 99 -63 -3 -12 0
-25 7 -30 9 -5 8 -9 -7 -15 -18 -7 -17 -8 3 -8 23 -1 24 3 8 82 -4 24 22 22
30 -3 8 -24 25 -17 25 11 0 14 -7 19 -25 19 -33 0 -28 -1 -82 15 -27 8 -66 16
-88 20 -23 3 -51 7 -63 10 -13 2 -20 0 -17 -6z"/>
<path d="M2481 2404 c0 -11 3 -14 6 -6 3 7 2 16 -1 19 -3 4 -6 -2 -5 -13z"/>
<path d="M2310 2392 c0 -9 79 -22 130 -22 19 1 21 3 10 9 -23 13 -140 23 -140
13z"/>
<path d="M3187 2379 c7 -7 15 -10 18 -7 3 3 -2 9 -12 12 -14 6 -15 5 -6 -5z"/>
<path d="M2771 2364 c0 -11 3 -14 6 -6 3 7 2 16 -1 19 -3 4 -6 -2 -5 -13z"/>
<path d="M3060 2360 c6 -11 15 -18 21 -14 6 4 6 11 -2 20 -17 21 -31 17 -19
-6z"/>
<path d="M290 2349 c0 -5 5 -7 10 -4 6 3 10 8 10 11 0 2 -4 4 -10 4 -5 0 -10
-5 -10 -11z"/>
<path d="M3178 2353 c6 -2 10 -9 6 -14 -3 -5 2 -9 12 -9 13 0 14 3 4 15 -7 8
-18 15 -24 14 -7 0 -6 -2 2 -6z"/>
<path d="M3227 2340 c19 -22 43 -27 43 -9 0 6 -7 9 -15 5 -9 -3 -15 0 -15 9 0
8 -7 15 -15 15 -12 0 -12 -3 2 -20z"/>
<path d="M2750 2338 c0 -11 15 -15 83 -22 81 -9 71 8 -13 20 -38 5 -70 6 -70
2z"/>
<path d="M3045 2330 c-3 -5 -1 -10 4 -10 6 0 11 5 11 10 0 6 -2 10 -4 10 -3 0
-8 -4 -11 -10z"/>
<path d="M1445 2320 c11 -5 27 -9 35 -9 13 -1 13 0 0 9 -8 5 -24 9 -35 9 l-20
0 20 -9z"/>
<path d="M3075 2320 c-3 -5 1 -10 10 -10 9 0 13 5 10 10 -3 6 -8 10 -10 10 -2
0 -7 -4 -10 -10z"/>
<path d="M3110 2321 c0 -5 8 -15 17 -22 15 -12 16 -12 8 1 -5 9 0 8 13 -4 24
-21 28 -16 12 15 -11 19 -50 27 -50 10z"/>
<path d="M2688 2313 c6 -2 18 -2 25 0 6 3 1 5 -13 5 -14 0 -19 -2 -12 -5z"/>
<path d="M2750 2309 c0 -8 140 -23 148 -15 3 3 -6 6 -19 7 -13 0 -48 4 -76 8
-29 4 -53 4 -53 0z"/>
<path d="M7 2303 c7 -2 19 -2 26 0 6 3 1 5 -13 5 -14 0 -19 -2 -13 -5z"/>
<path d="M2074 2295 c35 -18 57 -19 51 -2 -3 6 -22 13 -42 14 l-37 2 28 -14z"/>
<path d="M2182 2294 c-14 -10 -13 -11 11 -7 15 3 29 9 32 13 7 11 -25 8 -43
-6z"/>
<path d="M3025 2300 c-19 -8 -19 -9 3 -9 12 -1 22 4 22 9 0 6 -1 10 -2 9 -2 0
-12 -4 -23 -9z"/>
<path d="M2428 2293 c7 -3 16 -2 19 1 4 3 -2 6 -13 5 -11 0 -14 -3 -6 -6z"/>
<path d="M1730 2275 c5 -6 7 -15 4 -18 -4 -4 5 -1 19 6 30 14 28 18 -7 21 -20
3 -24 0 -16 -9z"/>
<path d="M2763 2283 c9 -2 25 -2 35 0 9 3 1 5 -18 5 -19 0 -27 -2 -17 -5z"/>
<path d="M3555 2280 c-18 -8 -17 -9 8 -9 16 -1 26 3 22 9 -3 6 -7 10 -8 9 -1
0 -11 -4 -22 -9z"/>
<path d="M2853 2273 c9 -2 25 -2 35 0 9 3 1 5 -18 5 -19 0 -27 -2 -17 -5z"/>
<path d="M2930 2269 c-82 -14 -84 -18 -5 -14 53 3 63 2 40 -5 -25 -8 -22 -9
19 -5 27 3 58 6 70 6 12 1 3 5 -19 10 -31 6 -23 7 30 4 47 -3 62 -1 45 4 -32
11 -110 11 -180 0z"/>
<path d="M60 2260 c0 -5 14 -10 32 -10 36 0 35 4 -4 14 -17 4 -28 2 -28 -4z"/>
<path d="M2788 2263 c7 -3 16 -2 19 1 4 3 -2 6 -13 5 -11 0 -14 -3 -6 -6z"/>
<path d="M358 2253 c6 -2 18 -2 25 0 6 3 1 5 -13 5 -14 0 -19 -2 -12 -5z"/>
<path d="M3670 2256 c0 -2 7 -7 16 -10 8 -3 12 -2 9 4 -6 10 -25 14 -25 6z"/>
<path d="M3045 2240 c-27 -7 -27 -8 -5 -8 14 0 36 4 50 8 20 6 21 8 5 8 -11 0
-33 -4 -50 -8z"/>
<path d="M2908 2233 c7 -3 16 -2 19 1 4 3 -2 6 -13 5 -11 0 -14 -3 -6 -6z"/>
<path d="M2945 2220 c-12 -4 15 -10 73 -14 87 -7 114 -4 100 10 -9 9 -151 12
-173 4z"/>
<path d="M3470 2175 c0 -7 -8 -18 -17 -24 -16 -9 -15 -10 5 -8 16 1 22 8 22
24 0 13 -2 23 -5 23 -3 0 -5 -7 -5 -15z"/>
<path d="M1892 2155 c0 -16 2 -22 5 -12 2 9 2 23 0 30 -3 6 -5 -1 -5 -18z"/>
<path d="M1765 2141 c-3 -5 -1 -12 5 -16 5 -3 10 -11 10 -17 0 -6 -6 -5 -16 3
-22 18 -37 -7 -22 -35 7 -14 13 -16 16 -8 2 6 8 10 13 6 14 -8 11 -24 -6 -24
-11 0 -15 -11 -14 -37 0 -30 2 -34 8 -18 5 11 7 23 4 27 -2 4 3 5 11 2 8 -3
21 -20 30 -37 10 -20 16 -25 16 -14 0 10 8 17 19 17 24 0 32 12 33 50 1 17 5
33 10 36 6 4 9 -4 8 -17 -4 -42 0 -69 8 -69 5 0 8 12 6 28 -1 15 -3 43 -3 62
-1 26 -4 31 -11 20 -7 -12 -12 -8 -21 18 -8 22 -17 32 -28 29 -9 -2 -15 -9
-13 -15 1 -7 -2 -12 -8 -12 -5 0 -10 7 -10 15 0 16 -35 21 -45 6z"/>
<path d="M1705 2090 c3 -5 8 -10 11 -10 2 0 4 5 4 10 0 6 -5 10 -11 10 -5 0
-7 -4 -4 -10z"/>
<path d="M1917 2077 c-7 -20 18 -43 28 -27 4 7 1 19 -7 27 -14 13 -16 13 -21
0z"/>
<path d="M1681 2044 c0 -11 3 -14 6 -6 3 7 2 16 -1 19 -3 4 -6 -2 -5 -13z"/>
<path d="M1630 2004 c0 -8 5 -12 10 -9 6 4 8 11 5 16 -9 14 -15 11 -15 -7z"/>
<path d="M1715 1980 c10 -11 25 -20 34 -20 11 1 9 4 -7 13 -12 7 -19 16 -16
20 4 4 -1 7 -11 7 -17 0 -17 -1 0 -20z"/>
<path d="M3218 1993 c6 -2 18 -2 25 0 6 3 1 5 -13 5 -14 0 -19 -2 -12 -5z"/>
<path d="M1890 1956 c0 -31 6 -34 13 -6 3 11 1 23 -4 26 -5 3 -9 -6 -9 -20z"/>
<path d="M3093 1930 c0 -30 2 -43 4 -27 2 15 2 39 0 55 -2 15 -4 2 -4 -28z"/>
<path d="M1867 1941 c-4 -17 -3 -21 5 -13 5 5 8 16 6 23 -3 8 -7 3 -11 -10z"/>
<path d="M4785 1910 c-3 -5 -1 -10 4 -10 6 0 11 5 11 10 0 6 -2 10 -4 10 -3 0
-8 -4 -11 -10z"/>
<path d="M4777 1881 c-17 -6 -17 -9 -4 -19 12 -10 16 -9 20 8 3 11 4 20 4 19
-1 0 -10 -4 -20 -8z"/>
<path d="M1652 1850 c0 -14 2 -19 5 -12 2 6 2 18 0 25 -3 6 -5 1 -5 -13z"/>
<path d="M4700 1854 c0 -8 5 -12 10 -9 6 4 8 11 5 16 -9 14 -15 11 -15 -7z"/>
<path d="M4746 1828 c-3 -18 -8 -53 -11 -77 -3 -24 -8 -48 -11 -52 -8 -13 10
-11 24 3 9 9 12 3 13 -27 l2 -40 7 40 c4 22 8 34 9 27 0 -7 6 -10 11 -7 14 9
12 45 -2 45 -9 0 -9 3 0 12 15 15 16 48 2 48 -5 0 -10 6 -10 13 0 6 -7 20 -14
30 -13 16 -14 15 -20 -15z m39 -47 c-6 -5 -25 10 -25 20 0 5 6 4 14 -3 8 -7
12 -15 11 -17z"/>
<path d="M3929 1793 l-24 -28 28 24 c15 14 27 26 27 28 0 8 -8 1 -31 -24z"/>
<path d="M4610 1752 c0 -12 39 -82 46 -82 4 0 -34 80 -42 89 -2 2 -4 -1 -4 -7z"/>
<path d="M4692 1725 c0 -16 2 -22 5 -12 2 9 2 23 0 30 -3 6 -5 -1 -5 -18z"/>
<path d="M1453 1723 c9 -2 23 -2 30 0 6 3 -1 5 -18 5 -16 0 -22 -2 -12 -5z"/>
<path d="M2237 1703 c-10 -9 -9 -53 1 -53 4 0 9 14 10 30 2 31 0 35 -11 23z"/>
<path d="M2276 1702 c-3 -5 1 -15 8 -21 11 -10 14 -9 12 3 -3 21 -13 29 -20
18z"/>
<path d="M2348 1693 c6 -2 18 -2 25 0 6 3 1 5 -13 5 -14 0 -19 -2 -12 -5z"/>
<path d="M3746 1685 c4 -8 1 -15 -6 -15 -6 0 -8 -5 -5 -10 4 -6 12 -4 21 5 9
8 12 19 9 25 -10 16 -25 12 -19 -5z"/>
<path d="M1526 1681 c-4 -5 -2 -12 3 -15 5 -4 12 -2 15 3 4 5 2 12 -3 15 -5 4
-12 2 -15 -3z"/>
<path d="M4150 1681 c0 -6 4 -13 10 -16 6 -3 7 1 4 9 -7 18 -14 21 -14 7z"/>
<path d="M4120 1672 c0 -12 19 -26 26 -19 2 2 -2 10 -11 17 -9 8 -15 8 -15 2z"/>
<path d="M4050 1650 c0 -13 3 -20 7 -17 3 4 13 1 22 -5 10 -8 8 -3 -4 12 -11
14 -21 27 -22 29 -2 2 -3 -6 -3 -19z"/>
<path d="M2428 1653 c6 -2 18 -2 25 0 6 3 1 5 -13 5 -14 0 -19 -2 -12 -5z"/>
<path d="M2541 1644 c0 -11 3 -14 6 -6 3 7 2 16 -1 19 -3 4 -6 -2 -5 -13z"/>
<path d="M2596 1643 c-4 -8 -6 -16 -6 -17 0 -2 25 -3 55 -3 30 0 55 4 55 9 0
4 -3 8 -7 8 -5 1 -27 5 -50 9 -33 6 -43 5 -47 -6z"/>
<path d="M2710 1630 c0 -5 5 -10 10 -10 6 0 10 -6 10 -14 0 -8 7 -17 16 -20
13 -5 16 -17 12 -62 -3 -33 -11 -60 -19 -65 -12 -7 -12 -9 1 -9 25 0 37 32 34
92 -2 41 -8 62 -23 77 -22 22 -41 27 -41 11z"/>
<path d="M4140 1611 c52 -70 70 -101 58 -99 -7 2 -21 20 -31 41 -19 40 -37 49
-37 17 0 -11 4 -20 9 -20 5 0 7 -9 4 -20 -4 -14 0 -20 10 -20 25 0 29 -17 10
-36 -17 -17 -16 -17 12 -10 l30 7 -32 -20 c-33 -21 -38 -36 -27 -78 l6 -22 19
22 c14 16 17 17 13 4 -8 -23 19 -13 61 22 18 14 22 22 11 18 -16 -6 -17 -5 -6
8 8 9 8 15 2 15 -6 0 -18 -10 -27 -22 -13 -19 -17 -21 -25 -8 -7 12 -12 11
-32 -5 l-23 -20 19 23 c11 12 16 22 11 22 -4 0 3 8 15 18 26 21 35 88 13 96
-7 3 -10 12 -6 22 4 11 3 15 -5 10 -6 -3 -13 3 -17 14 -4 11 -11 17 -17 14 -6
-4 -8 2 -4 17 3 13 3 18 0 11 -5 -10 -9 -10 -22 0 -9 7 -5 -2 8 -21z"/>
<path d="M4110 1611 c0 -5 5 -13 10 -16 6 -3 10 -2 10 4 0 5 -4 13 -10 16 -5
3 -10 2 -10 -4z"/>
<path d="M2438 1603 c12 -2 30 -2 40 0 9 3 -1 5 -23 4 -22 0 -30 -2 -17 -4z"/>
<path d="M4712 1590 c7 -11 16 -20 20 -20 5 0 3 9 -4 20 -7 11 -16 20 -20 20
-5 0 -3 -9 4 -20z"/>
<path d="M2351 1584 c0 -11 3 -14 6 -6 3 7 2 16 -1 19 -3 4 -6 -2 -5 -13z"/>
<path d="M2373 1585 c0 -8 4 -12 9 -9 4 3 8 9 8 15 0 5 -4 9 -8 9 -5 0 -9 -7
-9 -15z"/>
<path d="M4062 1578 c-7 -7 -12 -18 -12 -25 0 -7 -9 -13 -20 -13 -26 0 -26 -3
10 -52 33 -46 38 -60 15 -51 -9 3 -14 8 -11 10 2 3 -13 28 -34 56 -21 28 -37
54 -34 58 2 4 0 10 -5 13 -5 4 -8 0 -6 -6 9 -39 19 -58 28 -58 6 0 7 -3 4 -6
-4 -4 6 -18 21 -30 28 -25 24 -31 -9 -14 -10 6 -19 7 -19 2 0 -9 70 -37 83
-34 5 1 6 -2 2 -8 -4 -7 -12 -7 -25 0 -24 13 -33 13 -25 0 3 -5 -4 -10 -16
-10 -19 0 -20 2 -8 18 13 15 12 16 -4 3 -12 -10 -14 -17 -7 -26 8 -9 7 -15 -2
-18 -7 -3 -1 -6 14 -6 16 -1 31 6 37 17 9 14 10 13 7 -8 -2 -19 -8 -24 -25
-22 -22 3 -29 -12 -9 -24 7 -4 8 -3 4 5 -5 8 0 10 18 7 15 -3 25 -2 22 2 -7
12 13 54 23 47 13 -8 7 21 -17 76 -16 36 -17 48 -7 62 8 11 15 13 22 6 7 -7 9
-3 6 15 -6 30 -5 30 -21 14z"/>
<path d="M3351 1553 c-13 -32 -9 -53 11 -53 6 0 8 3 5 7 -4 3 -3 11 1 17 5 6
6 22 3 36 -7 24 -7 24 -20 -7z"/>
<path d="M4113 1520 c0 -36 2 -50 4 -32 2 17 2 47 0 65 -2 17 -4 3 -4 -33z"/>
<path d="M4760 1546 c0 -8 5 -18 10 -21 6 -3 10 1 10 9 0 8 -4 18 -10 21 -5 3
-10 -1 -10 -9z"/>
<path d="M3205 1540 c3 -5 8 -10 11 -10 2 0 4 5 4 10 0 6 -5 10 -11 10 -5 0
-7 -4 -4 -10z"/>
<path d="M2385 1530 c3 -5 11 -10 16 -10 6 0 7 5 4 10 -3 6 -11 10 -16 10 -6
0 -7 -4 -4 -10z"/>
<path d="M4692 1524 c4 -21 22 -23 26 -1 2 10 -3 17 -13 17 -10 0 -15 -6 -13
-16z"/>
<path d="M3766 1505 c-4 -12 4 -15 47 -14 l52 1 -35 13 c-46 18 -57 18 -64 0z"/>
<path d="M3720 1499 c0 -5 5 -7 10 -4 6 3 10 8 10 11 0 2 -4 4 -10 4 -5 0 -10
-5 -10 -11z"/>
<path d="M3952 1480 c0 -14 2 -19 5 -12 2 6 2 18 0 25 -3 6 -5 1 -5 -13z"/>
<path d="M2430 1469 c0 -5 10 -9 22 -9 12 0 18 3 14 7 -10 11 -36 12 -36 2z"/>
<path d="M2504 1468 c-3 -4 6 -8 20 -8 14 0 26 4 26 8 0 4 -9 8 -21 8 -11 0
-23 -4 -25 -8z"/>
<path d="M4117 1435 c-10 -21 -12 -35 -6 -35 7 0 8 -11 4 -30 -5 -24 -4 -29 8
-24 11 4 13 13 7 38 -4 17 -3 42 2 55 13 37 3 34 -15 -4z"/>
<path d="M2706 1437 c3 -10 9 -15 12 -12 3 3 0 11 -7 18 -10 9 -11 8 -5 -6z"/>
<path d="M3944 1424 c-4 -17 -2 -29 7 -35 19 -11 22 -4 9 20 -7 14 -7 21 0 21
5 0 10 5 10 10 0 21 -20 9 -26 -16z"/>
<path d="M4200 1430 c0 -5 5 -10 10 -10 6 0 10 5 10 10 0 6 -4 10 -10 10 -5 0
-10 -4 -10 -10z"/>
<path d="M4670 1411 c0 -12 -5 -31 -11 -43 -6 -11 -9 -22 -6 -24 2 -3 12 12
22 32 12 26 14 39 6 47 -8 8 -11 5 -11 -12z"/>
<path d="M4700 1416 c0 -2 7 -7 16 -10 8 -3 12 -2 9 4 -6 10 -25 14 -25 6z"/>
<path d="M2710 1376 c-6 -9 -10 -21 -7 -28 4 -9 6 -7 6 4 1 9 7 18 14 21 6 2
9 7 6 11 -3 4 -12 0 -19 -8z"/>
<path d="M4074 1355 c-4 -8 -13 -15 -22 -15 -11 0 -13 -3 -6 -10 16 -16 43 -1
41 21 -2 23 -6 24 -13 4z"/>
<path d="M3930 1350 c-13 -9 -13 -10 0 -10 9 0 32 -9 53 -19 38 -20 46 -19 24
3 -12 12 -52 36 -59 36 -2 0 -10 -5 -18 -10z"/>
<path d="M4183 1352 c-8 -5 -7 -13 5 -27 9 -11 16 -18 14 -16 -1 3 8 16 20 30
13 14 16 20 8 14 -17 -15 -34 -17 -25 -3 7 12 -5 13 -22 2z"/>
<path d="M3429 1316 c-10 -20 -10 -31 -3 -33 6 -2 9 -15 6 -30 -3 -18 -1 -24
7 -19 7 5 11 -4 11 -29 0 -22 -4 -34 -10 -30 -5 3 -10 0 -10 -8 0 -8 6 -17 14
-20 10 -4 15 10 20 56 5 52 11 66 36 90 l30 27 -39 0 c-22 0 -41 5 -44 13 -2
7 -10 -1 -18 -17z"/>
<path d="M4116 1331 c-9 -14 22 -34 41 -26 17 6 17 7 -1 21 -23 16 -33 18 -40
5z"/>
<path d="M3875 1320 c-3 -5 -1 -10 4 -10 6 0 11 5 11 10 0 6 -2 10 -4 10 -3 0
-8 -4 -11 -10z"/>
<path d="M3930 1318 c0 -7 18 -23 40 -36 49 -28 53 -14 6 22 -39 29 -46 31
-46 14z"/>
<path d="M4226 1314 c-4 -9 -4 -19 -1 -22 2 -3 7 3 11 12 4 9 4 19 1 22 -2 3
-7 -3 -11 -12z"/>
<path d="M3815 1301 c-3 -5 -1 -12 5 -16 5 -3 10 1 10 9 0 18 -6 21 -15 7z"/>
<path d="M3852 1280 c0 -14 2 -19 5 -12 2 6 2 18 0 25 -3 6 -5 1 -5 -13z"/>
<path d="M3924 1271 c10 -15 76 -51 76 -41 0 6 -15 19 -32 30 -35 21 -53 26
-44 11z"/>
<path d="M3786 1262 c-3 -5 1 -9 9 -9 8 0 12 4 9 9 -3 4 -7 8 -9 8 -2 0 -6 -4
-9 -8z"/>
<path d="M3910 1240 c19 -13 30 -13 30 0 0 6 -10 10 -22 10 -19 0 -20 -2 -8
-10z"/>
<path d="M4142 1230 c0 -14 2 -19 5 -12 2 6 2 18 0 25 -3 6 -5 1 -5 -13z"/>
<path d="M2788 1233 c7 -3 16 -2 19 1 4 3 -2 6 -13 5 -11 0 -14 -3 -6 -6z"/>
<path d="M3690 1225 c7 -8 20 -15 28 -15 13 0 12 3 -4 15 -25 19 -40 19 -24 0z"/>
<path d="M4050 1229 c0 -5 5 -7 10 -4 6 3 10 8 10 11 0 2 -4 4 -10 4 -5 0 -10
-5 -10 -11z"/>
<path d="M4090 1225 c-7 -9 -8 -15 -2 -15 5 0 12 7 16 15 3 8 4 15 2 15 -2 0
-9 -7 -16 -15z"/>
<path d="M4181 1223 c-2 -20 11 -43 20 -37 5 3 9 12 9 20 0 8 -4 13 -9 10 -5
-4 -12 0 -14 6 -4 9 -6 9 -6 1z"/>
<path d="M4508 1223 c7 -3 16 -2 19 1 4 3 -2 6 -13 5 -11 0 -14 -3 -6 -6z"/>
<path d="M3745 1210 c3 -5 12 -7 20 -3 21 7 19 13 -6 13 -11 0 -18 -4 -14 -10z"/>
<path d="M3753 1145 c0 -22 2 -30 4 -17 2 12 2 30 0 40 -3 9 -5 -1 -4 -23z"/>
<path d="M3771 1151 c-1 -24 2 -32 9 -25 7 7 7 19 1 35 -9 23 -10 22 -10 -10z"/>
<path d="M3880 1146 c0 -19 3 -37 8 -40 4 -2 6 13 4 35 -5 48 -12 51 -12 5z"/>
<path d="M3920 1155 c0 -8 7 -15 16 -15 14 0 14 3 4 15 -7 8 -14 15 -16 15 -2
0 -4 -7 -4 -15z"/>
<path d="M4200 1159 c0 -5 -4 -7 -10 -4 -14 9 -12 -8 3 -29 12 -17 14 -16 14
13 0 17 -2 31 -4 31 -1 0 -3 -5 -3 -11z"/>
<path d="M3912 1110 c0 -14 2 -19 5 -12 2 6 2 18 0 25 -3 6 -5 1 -5 -13z"/>
<path d="M3991 1114 c0 -11 3 -14 6 -6 3 7 2 16 -1 19 -3 4 -6 -2 -5 -13z"/>
<path d="M3435 1110 c-3 -5 -1 -18 4 -27 9 -16 10 -14 11 10 0 28 -5 34 -15
17z"/>
<path d="M3770 1102 c0 -11 22 -32 33 -32 5 0 4 6 -2 13 -6 8 -8 17 -4 20 3 4
-1 7 -10 7 -9 0 -17 -4 -17 -8z"/>
<path d="M3835 1090 c10 -11 20 -20 23 -20 3 0 -3 9 -13 20 -10 11 -20 20 -23
20 -3 0 3 -9 13 -20z"/>
<path d="M3736 1092 c-6 -10 5 -21 34 -37 10 -5 8 0 -5 16 -11 13 -21 25 -21
27 -1 2 -5 -1 -8 -6z"/>
<path d="M2206 1045 c-4 -14 -11 -23 -16 -20 -6 3 -10 -3 -10 -14 0 -12 4 -21
8 -21 9 0 36 69 29 76 -2 3 -8 -7 -11 -21z"/>
<path d="M4610 1021 c0 -6 4 -13 10 -16 6 -3 7 1 4 9 -7 18 -14 21 -14 7z"/>
<path d="M4653 995 c0 -8 4 -12 9 -9 5 3 6 10 3 15 -9 13 -12 11 -12 -6z"/>
<path d="M2431 960 c0 -25 -6 -61 -12 -80 -5 -19 -12 -87 -14 -151 -2 -95 -8
-128 -30 -190 -15 -40 -29 -92 -31 -114 -2 -22 -1 -32 2 -22 3 9 10 17 15 17
16 0 9 -54 -16 -115 -22 -52 -25 -75 -25 -175 1 -106 2 -113 15 -85 9 21 14
24 14 12 1 -10 -4 -27 -9 -38 -9 -16 -7 -19 15 -19 l25 0 0 148 c1 184 7 274
51 702 6 58 9 116 6 130 -3 16 -5 8 -6 -20z"/>
<path d="M4710 971 c0 -6 4 -12 8 -15 5 -3 9 1 9 9 0 8 -4 15 -9 15 -4 0 -8
-4 -8 -9z"/>
<path d="M3686 911 c-19 -7 -19 -8 2 -13 12 -4 20 -2 16 3 -3 5 -1 9 5 9 5 0
8 -18 5 -43 -4 -32 -1 -47 10 -56 18 -15 51 -7 41 10 -4 6 -12 8 -19 6 -7 -3
-12 3 -13 12 -1 12 7 16 28 15 16 0 29 -4 28 -9 -1 -12 23 -24 38 -18 23 9 14
22 -24 38 -21 9 -43 22 -48 29 -14 18 -46 26 -69 17z"/>
<path d="M3783 906 c-10 -11 -9 -15 3 -20 26 -10 34 -7 34 14 0 23 -19 26 -37
6z"/>
<path d="M3673 877 c-4 -8 -15 -16 -23 -19 -10 -3 -7 -6 9 -11 13 -3 20 -3 17
0 -3 3 2 11 11 18 11 8 12 14 5 19 -6 3 -14 0 -19 -7z"/>
<path d="M3198 824 c-3 -3 -19 -6 -34 -7 -20 -2 -30 -9 -33 -22 -3 -17 -1 -18
13 -6 13 11 19 11 31 1 9 -7 16 -11 18 -9 21 38 26 49 19 49 -5 0 -11 -2 -14
-6z"/>
<path d="M3242 818 c-20 -20 -14 -28 19 -28 24 0 30 3 25 16 -3 9 -6 18 -6 20
0 9 -27 3 -38 -8z"/>
<path d="M3715 780 c3 -5 12 -7 20 -3 21 7 19 13 -6 13 -11 0 -18 -4 -14 -10z"/>
<path d="M3660 770 c0 -5 5 -10 10 -10 6 0 10 5 10 10 0 6 -4 10 -10 10 -5 0
-10 -4 -10 -10z"/>
<path d="M4194 735 c-18 -15 -18 -15 0 -8 13 4 17 3 12 -5 -4 -7 -3 -12 2 -12
5 0 12 9 15 20 6 24 -2 25 -29 5z"/>
<path d="M3666 723 c-6 -14 -5 -15 5 -6 7 7 10 15 7 18 -3 3 -9 -2 -12 -12z"/>
<path d="M4255 730 c-3 -5 -1 -10 4 -10 6 0 11 5 11 10 0 6 -2 10 -4 10 -3 0
-8 -4 -11 -10z"/>
<path d="M3588 722 c7 -5 10 -16 6 -25 -7 -18 11 -24 21 -7 8 13 -12 40 -29
40 -7 0 -6 -3 2 -8z"/>
<path d="M4115 713 c-68 -16 -258 -98 -264 -114 -3 -11 -1 -11 10 -3 8 6 22
14 33 18 14 5 17 2 12 -9 -3 -8 -1 -15 4 -15 14 0 41 31 35 41 -6 8 -1 10 38
13 6 1 11 -7 9 -16 -4 -22 6 -23 29 -2 9 8 23 16 31 18 7 1 18 5 25 9 6 4 14
3 18 -3 3 -5 0 -10 -8 -10 -19 0 -31 -48 -17 -65 8 -10 8 -20 -1 -37 -7 -13
-12 -30 -11 -39 2 -12 -27 -25 -123 -54 -69 -22 -125 -43 -125 -48 0 -5 8 -6
18 -2 9 4 45 10 80 14 49 6 68 4 85 -8 37 -25 47 -39 47 -60 0 -23 35 -31 38
-8 17 125 21 139 32 132 6 -3 10 0 10 8 0 8 -7 17 -15 21 -8 3 -15 11 -15 18
0 9 3 8 10 -2 9 -14 15 -7 11 14 -1 5 1 16 5 25 4 9 9 30 10 46 2 17 6 44 10
62 5 25 2 32 -13 36 -15 4 -14 5 5 6 12 0 22 6 22 11 0 10 -2 11 -35 3z m-53
-36 c-12 -7 -19 -17 -15 -21 4 -5 -3 -5 -16 -1 -16 5 -21 4 -17 -4 4 -6 3 -11
-3 -11 -26 0 -17 20 17 33 45 19 66 21 34 4z"/>
<path d="M4206 676 c-8 -32 3 -56 15 -33 5 8 5 26 1 38 -9 23 -9 23 -16 -5z"/>
<path d="M4158 573 c7 -3 16 -2 19 1 4 3 -2 6 -13 5 -11 0 -14 -3 -6 -6z"/>
<path d="M3945 524 c26 -26 0 -47 -47 -40 -21 4 -48 2 -58 -4 -25 -13 -28 -45
-4 -36 9 4 37 11 63 18 25 6 54 18 64 26 16 14 16 16 1 34 -10 10 -21 18 -26
18 -5 0 -2 -7 7 -16z"/>
<path d="M3796 515 c-3 -9 -6 -22 -5 -28 0 -7 5 -1 10 12 5 13 8 26 5 28 -2 2
-6 -3 -10 -12z"/>
<path d="M4610 505 c7 -8 17 -15 22 -15 6 0 5 7 -2 15 -7 8 -17 15 -22 15 -6
0 -5 -7 2 -15z"/>
<path d="M3781 434 c0 -11 3 -14 6 -6 3 7 2 16 -1 19 -3 4 -6 -2 -5 -13z"/>
<path d="M4215 340 c-16 -7 -17 -9 -3 -9 9 -1 20 4 23 9 7 11 7 11 -20 0z"/>
<path d="M2935 320 c-2 -4 1 -7 8 -8 7 -1 28 -4 47 -8 24 -4 31 -2 21 4 -11 8
-9 11 10 15 13 2 0 4 -29 4 -29 0 -55 -3 -57 -7z"/>
<path d="M3982 312 c-18 -12 30 -32 57 -25 21 5 21 6 -5 19 -30 16 -34 17 -52
6z"/>
<path d="M4116 304 c-6 -15 -4 -15 11 -3 10 7 20 15 22 16 2 2 -3 3 -11 3 -9
0 -19 -7 -22 -16z"/>
<path d="M2790 300 c-8 -5 -10 -10 -5 -10 6 0 17 5 25 10 8 5 11 10 5 10 -5 0
-17 -5 -25 -10z"/>
<path d="M3808 303 c-22 -5 -24 -69 -4 -95 12 -17 14 -17 31 2 18 20 8 29 -12
9 -7 -7 -12 -6 -16 5 -6 15 18 30 34 20 5 -3 9 4 9 15 0 10 3 26 6 35 6 16
-10 19 -48 9z"/>
<path d="M3910 290 c14 -10 29 -15 34 -10 14 14 -3 30 -32 30 l-27 0 25 -20z"/>
<path d="M4157 271 c-4 -20 -3 -39 3 -45 5 -5 10 -19 10 -30 0 -10 2 -17 5
-14 3 2 1 31 -3 64 -7 56 -8 57 -15 25z"/>
<path d="M4049 258 c0 -13 -3 -17 -6 -10 -7 18 -25 15 -21 -5 2 -9 11 -17 21
-19 13 -2 17 5 17 27 0 34 -10 40 -11 7z"/>
<path d="M2635 220 c-29 -5 -14 -7 58 -7 54 0 96 1 95 3 -8 8 -117 11 -153 4z"/>
<path d="M3762 210 c0 -14 2 -19 5 -12 2 6 2 18 0 25 -3 6 -5 1 -5 -13z"/>
<path d="M4023 195 c-3 -9 -3 -18 -1 -21 3 -3 8 4 11 16 6 23 -1 27 -10 5z"/>
<path d="M4051 174 c0 -11 3 -14 6 -6 3 7 2 16 -1 19 -3 4 -6 -2 -5 -13z"/>
<path d="M3740 164 c0 -8 5 -12 10 -9 6 4 8 11 5 16 -9 14 -15 11 -15 -7z"/>
<path d="M3861 157 c-10 -19 -11 -29 -1 -47 11 -20 14 -21 22 -7 5 9 5 30 1
48 l-9 31 -13 -25z"/>
<path d="M3980 153 c0 -5 9 -21 20 -38 24 -36 26 -26 5 15 -15 29 -25 38 -25
23z"/>
<path d="M4777 106 c-13 -34 -19 -106 -8 -106 6 0 11 6 11 13 1 6 5 31 9 55 8
40 -1 68 -12 38z"/>
<path d="M2728 93 c7 -3 16 -2 19 1 4 3 -2 6 -13 5 -11 0 -14 -3 -6 -6z"/>
<path d="M4197 86 c-3 -8 -2 -18 3 -21 13 -8 24 15 12 27 -6 6 -11 4 -15 -6z"/>
<path d="M2890 70 c-8 -5 -10 -10 -5 -10 6 0 17 5 25 10 8 5 11 10 5 10 -5 0
-17 -5 -25 -10z"/>
<path d="M4003 56 c0 -15 5 -26 13 -26 8 0 14 2 14 4 0 2 3 12 7 22 5 12 3 15
-6 9 -8 -4 -16 -2 -21 5 -5 7 -7 2 -7 -14z"/>
<path d="M4115 70 c-3 -5 0 -10 7 -11 7 0 4 -4 -7 -9 -19 -8 -19 -9 2 -9 28
-1 37 13 19 28 -10 8 -16 9 -21 1z"/>
<path d="M3786 53 c-3 -4 -6 -15 -6 -25 0 -14 8 -18 35 -18 19 0 35 1 35 3 0
9 -59 45 -64 40z"/>
<path d="M3898 46 c-22 -17 -24 -40 -2 -32 9 3 30 6 47 6 l32 0 -25 20 c-30
23 -30 23 -52 6z"/>
<path d="M4260 31 c-15 -28 -13 -31 20 -31 28 0 29 1 18 25 -13 30 -24 32 -38
6z"/>
<path d="M2610 16 c0 -2 7 -7 16 -10 8 -3 12 -2 9 4 -6 10 -25 14 -25 6z"/>
</g>
</svg>
